<svg version="1.1" xmlns="http://www.w3.org/2000/svg" xmlns:xlink="http://www.w3.org/1999/xlink" width="697.70166015625" height="1140"><defs/><g><g transform="translate(-318,-126) scale(1,1)"><rect fill="#C0C0C0" stroke="none" x="751" y="487" width="183.484375" height="57" opacity="0.2"/></g><g transform="translate(-318,-126) scale(1,1)"><rect fill="#ffffff" stroke="none" x="744" y="480" width="183.484375" height="57"/></g><g transform="translate(-318,-126) scale(1,1)"><path fill="none" stroke="#000000" d="M 744 480 L 927.484375 480 L 927.484375 537 L 744 537 L 744 480 Z Z" stroke-miterlimit="10"/></g><g transform="translate(-318,-126) scale(1,1)"><path fill="none" stroke="#000000" d="M 744 505 L 927.484375 505" stroke-miterlimit="10"/></g><g transform="translate(-318,-126) scale(1,1)"><path fill="none" stroke="#000000" d="M 744 515 L 927.484375 515" stroke-miterlimit="10"/></g><g transform="translate(-318,-126) scale(1,1)"><g><path fill="none" stroke="none"/><text fill="#000000" stroke="none" font-family="Arial" font-size="13px" font-style="normal" font-weight="bold" text-decoration="none" x="795.64404296875" y="499.5">Administrador</text></g></g><g transform="translate(-318,-126) scale(1,1)"><rect fill="#C0C0C0" stroke="none" x="335" y="855" width="93.54443359375" height="87" opacity="0.2"/></g><g transform="translate(-318,-126) scale(1,1)"><rect fill="#ffffff" stroke="none" x="328" y="848" width="93.54443359375" height="87"/></g><g transform="translate(-318,-126) scale(1,1)"><path fill="none" stroke="#000000" d="M 328 848 L 421.54443359375 848 L 421.54443359375 935 L 328 935 L 328 848 Z Z" stroke-miterlimit="10"/></g><g transform="translate(-318,-126) scale(1,1)"><path fill="none" stroke="#000000" d="M 328 873 L 421.54443359375 873" stroke-miterlimit="10"/></g><g transform="translate(-318,-126) scale(1,1)"><path fill="none" stroke="#000000" d="M 328 926 L 421.54443359375 926" stroke-miterlimit="10"/></g><g transform="translate(-318,-126) scale(1,1)"><g><path fill="none" stroke="none"/><text fill="#000000" stroke="none" font-family="Arial" font-size="13px" font-style="normal" font-weight="bold" text-decoration="none" x="348.397705078125" y="867.5">Mensaxe</text></g></g><g transform="translate(-318,-126) scale(1,1)"><g><path fill="none" stroke="none"/><text fill="#000000" stroke="none" font-family="Arial" font-size="13px" font-style="normal" font-weight="normal" text-decoration="none" x="333" y="890.5">-corpo: String</text></g></g><g transform="translate(-318,-126) scale(1,1)"><g><path fill="none" stroke="none"/><text fill="#000000" stroke="none" font-family="Arial" font-size="13px" font-style="normal" font-weight="normal" text-decoration="none" x="333" y="905.5">-asunto: String</text></g></g><g transform="translate(-318,-126) scale(1,1)"><g><path fill="none" stroke="none"/><text fill="#000000" stroke="none" font-family="Arial" font-size="13px" font-style="normal" font-weight="normal" text-decoration="none" x="333" y="920.5">-numero: Int</text></g></g><g transform="translate(-318,-126) scale(1,1)"><rect fill="#C0C0C0" stroke="none" x="887" y="903" width="125.70166015625" height="72" opacity="0.2"/></g><g transform="translate(-318,-126) scale(1,1)"><rect fill="#ffffff" stroke="none" x="880" y="896" width="125.70166015625" height="72"/></g><g transform="translate(-318,-126) scale(1,1)"><path fill="none" stroke="#000000" d="M 880 896 L 1005.70166015625 896 L 1005.70166015625 968 L 880 968 L 880 896 Z Z" stroke-miterlimit="10"/></g><g transform="translate(-318,-126) scale(1,1)"><path fill="none" stroke="#000000" d="M 880 921 L 1005.70166015625 921" stroke-miterlimit="10"/></g><g transform="translate(-318,-126) scale(1,1)"><path fill="none" stroke="#000000" d="M 880 959 L 1005.70166015625 959" stroke-miterlimit="10"/></g><g transform="translate(-318,-126) scale(1,1)"><g><path fill="none" stroke="none"/><text fill="#000000" stroke="none" font-family="Arial" font-size="13px" font-style="normal" font-weight="bold" text-decoration="none" x="903.831787109375" y="915.5">Medicamento</text></g></g><g transform="translate(-318,-126) scale(1,1)"><g><path fill="none" stroke="none"/><text fill="#000000" stroke="none" font-family="Arial" font-size="13px" font-style="normal" font-weight="normal" text-decoration="none" x="885" y="938.5">+nome: String</text></g></g><g transform="translate(-318,-126) scale(1,1)"><g><path fill="none" stroke="none"/><text fill="#000000" stroke="none" font-family="Arial" font-size="13px" font-style="normal" font-weight="normal" text-decoration="none" x="885" y="953.5">+prospecto: String...</text></g></g><g transform="translate(-318,-126) scale(1,1)"><rect fill="#C0C0C0" stroke="none" x="543" y="887" width="180.97705078125" height="117" opacity="0.2"/></g><g transform="translate(-318,-126) scale(1,1)"><rect fill="#ffffff" stroke="none" x="536" y="880" width="180.97705078125" height="117"/></g><g transform="translate(-318,-126) scale(1,1)"><path fill="none" stroke="#000000" d="M 536 880 L 716.97705078125 880 L 716.97705078125 997 L 536 997 L 536 880 Z Z" stroke-miterlimit="10"/></g><g transform="translate(-318,-126) scale(1,1)"><path fill="none" stroke="#000000" d="M 536 905 L 716.97705078125 905" stroke-miterlimit="10"/></g><g transform="translate(-318,-126) scale(1,1)"><path fill="none" stroke="#000000" d="M 536 988 L 716.97705078125 988" stroke-miterlimit="10"/></g><g transform="translate(-318,-126) scale(1,1)"><g><path fill="none" stroke="none"/><text fill="#000000" stroke="none" font-family="Arial" font-size="13px" font-style="normal" font-weight="bold" text-decoration="none" x="592.525390625" y="899.5">Diagnostico</text></g></g><g transform="translate(-318,-126) scale(1,1)"><g><path fill="none" stroke="none"/><text fill="#000000" stroke="none" font-family="Arial" font-size="13px" font-style="normal" font-weight="normal" text-decoration="none" x="541" y="922.5">-data: Date</text></g></g><g transform="translate(-318,-126) scale(1,1)"><g><path fill="none" stroke="none"/><text fill="#000000" stroke="none" font-family="Arial" font-size="13px" font-style="normal" font-weight="normal" text-decoration="none" x="541" y="937.5">-medicamentoSolicitado: Bool</text></g></g><g transform="translate(-318,-126) scale(1,1)"><g><path fill="none" stroke="none"/><text fill="#000000" stroke="none" font-family="Arial" font-size="13px" font-style="normal" font-weight="normal" text-decoration="none" x="541" y="952.5">-medicoSolicitado: Bool</text></g></g><g transform="translate(-318,-126) scale(1,1)"><g><path fill="none" stroke="none"/><text fill="#000000" stroke="none" font-family="Arial" font-size="13px" font-style="normal" font-weight="normal" text-decoration="none" x="541" y="967.5">-valoracionDiagnostico: Int</text></g></g><g transform="translate(-318,-126) scale(1,1)"><g><path fill="none" stroke="none"/><text fill="#000000" stroke="none" font-family="Arial" font-size="13px" font-style="normal" font-weight="normal" text-decoration="none" x="541" y="982.5">-valoracionMedicamento: Int</text></g></g><g transform="translate(-318,-126) scale(1,1)"><rect fill="#C0C0C0" stroke="none" x="575" y="687" width="114.50439453125" height="87" opacity="0.2"/></g><g transform="translate(-318,-126) scale(1,1)"><rect fill="#ffffff" stroke="none" x="568" y="680" width="114.50439453125" height="87"/></g><g transform="translate(-318,-126) scale(1,1)"><path fill="none" stroke="#000000" d="M 568 680 L 682.50439453125 680 L 682.50439453125 767 L 568 767 L 568 680 Z Z" stroke-miterlimit="10"/></g><g transform="translate(-318,-126) scale(1,1)"><path fill="none" stroke="#000000" d="M 568 705 L 682.50439453125 705" stroke-miterlimit="10"/></g><g transform="translate(-318,-126) scale(1,1)"><path fill="none" stroke="#000000" d="M 568 743 L 682.50439453125 743" stroke-miterlimit="10"/></g><g transform="translate(-318,-126) scale(1,1)"><g><path fill="none" stroke="none"/><text fill="#000000" stroke="none" font-family="Arial" font-size="13px" font-style="normal" font-weight="bold" text-decoration="none" x="613.693115234375" y="699.5">Cita</text></g></g><g transform="translate(-318,-126) scale(1,1)"><g><path fill="none" stroke="none"/><text fill="#000000" stroke="none" font-family="Arial" font-size="13px" font-style="normal" font-weight="normal" text-decoration="none" x="573" y="722.5">-data: Date</text></g></g><g transform="translate(-318,-126) scale(1,1)"><g><path fill="none" stroke="none"/><text fill="#000000" stroke="none" font-family="Arial" font-size="13px" font-style="normal" font-weight="normal" text-decoration="none" x="573" y="737.5">-confirmada: Bool</text></g></g><g transform="translate(-318,-126) scale(1,1)"><rect fill="#C0C0C0" stroke="none" x="743" y="1047" width="109.8134765625" height="72" opacity="0.2"/></g><g transform="translate(-318,-126) scale(1,1)"><rect fill="#ffffff" stroke="none" x="736" y="1040" width="109.8134765625" height="72"/></g><g transform="translate(-318,-126) scale(1,1)"><path fill="none" stroke="#000000" d="M 736 1040 L 845.8134765625 1040 L 845.8134765625 1112 L 736 1112 L 736 1040 Z Z" stroke-miterlimit="10"/></g><g transform="translate(-318,-126) scale(1,1)"><path fill="none" stroke="#000000" d="M 736 1065 L 845.8134765625 1065" stroke-miterlimit="10"/></g><g transform="translate(-318,-126) scale(1,1)"><path fill="none" stroke="#000000" d="M 736 1103 L 845.8134765625 1103" stroke-miterlimit="10"/></g><g transform="translate(-318,-126) scale(1,1)"><g><path fill="none" stroke="none"/><text fill="#000000" stroke="none" font-family="Arial" font-size="13px" font-style="normal" font-weight="bold" text-decoration="none" x="768.502685546875" y="1059.5">Doenza</text></g></g><g transform="translate(-318,-126) scale(1,1)"><g><path fill="none" stroke="none"/><text fill="#000000" stroke="none" font-family="Arial" font-size="13px" font-style="normal" font-weight="normal" text-decoration="none" x="741" y="1082.5">+nome: String</text></g></g><g transform="translate(-318,-126) scale(1,1)"><g><path fill="none" stroke="none"/><text fill="#000000" stroke="none" font-family="Arial" font-size="13px" font-style="normal" font-weight="normal" text-decoration="none" x="741" y="1097.5">+gravidade: Float</text></g></g><g transform="translate(-318,-126) scale(1,1)"><rect fill="#C0C0C0" stroke="none" x="575" y="1191" width="90.29443359375" height="72" opacity="0.2"/></g><g transform="translate(-318,-126) scale(1,1)"><rect fill="#ffffff" stroke="none" x="568" y="1184" width="90.29443359375" height="72"/></g><g transform="translate(-318,-126) scale(1,1)"><path fill="none" stroke="#000000" d="M 568 1184 L 658.29443359375 1184 L 658.29443359375 1256 L 568 1256 L 568 1184 Z Z" stroke-miterlimit="10"/></g><g transform="translate(-318,-126) scale(1,1)"><path fill="none" stroke="#000000" d="M 568 1209 L 658.29443359375 1209" stroke-miterlimit="10"/></g><g transform="translate(-318,-126) scale(1,1)"><path fill="none" stroke="#000000" d="M 568 1247 L 658.29443359375 1247" stroke-miterlimit="10"/></g><g transform="translate(-318,-126) scale(1,1)"><g><path fill="none" stroke="none"/><text fill="#000000" stroke="none" font-family="Arial" font-size="13px" font-style="normal" font-weight="bold" text-decoration="none" x="589.30224609375" y="1203.5">Sintoma</text></g></g><g transform="translate(-318,-126) scale(1,1)"><g><path fill="none" stroke="none"/><text fill="#000000" stroke="none" font-family="Arial" font-size="13px" font-style="normal" font-weight="normal" text-decoration="none" x="573" y="1226.5">+nome: String</text></g></g><g transform="translate(-318,-126) scale(1,1)"><g><path fill="none" stroke="none"/><text fill="#000000" stroke="none" font-family="Arial" font-size="13px" font-style="normal" font-weight="normal" text-decoration="none" x="573" y="1241.5">+codigo: Int</text></g></g><g transform="translate(-318,-126) scale(1,1)"><path fill="none" stroke="#000000" d="M 697 998 L 746 1039" stroke-miterlimit="10"/></g><g transform="translate(-318,-126) scale(1,1)"><g><path fill="none" stroke="none"/><text fill="#000000" stroke="none" font-family="Arial" font-size="13px" font-style="normal" font-weight="normal" text-decoration="none" x="748.5" y="1040.5">+0..1</text></g></g><g transform="translate(-318,-126) scale(1,1)"><g><path fill="none" stroke="none"/><text fill="#000000" stroke="none" font-family="Arial" font-size="13px" font-style="normal" font-weight="normal" text-decoration="none" x="719.5" y="1008.5">+n</text></g></g><g transform="translate(-318,-126) scale(1,1)"><path fill="none" stroke="#000000" d="M 745 1113 L 658 1183" stroke-miterlimit="10"/></g><g transform="translate(-318,-126) scale(1,1)"><g><path fill="none" stroke="none"/><text fill="#000000" stroke="none" font-family="Arial" font-size="13px" font-style="normal" font-weight="normal" text-decoration="none" x="735.5" y="1132.5">+n</text></g></g><g transform="translate(-318,-126) scale(1,1)"><g><path fill="none" stroke="none"/><text fill="#000000" stroke="none" font-family="Arial" font-size="13px" font-style="normal" font-weight="normal" text-decoration="none" x="666.726806640625" y="1195.5">+n</text></g></g><g transform="translate(-318,-126) scale(1,1)"><path fill="none" stroke="#000000" d="M 623 998 L 615 1183" stroke-miterlimit="10"/></g><g transform="translate(-318,-126) scale(1,1)"><g><path fill="none" stroke="none"/><text fill="#000000" stroke="none" font-family="Arial" font-size="13px" font-style="normal" font-weight="normal" text-decoration="none" x="581.5" y="1186.5">+1..n</text></g></g><g transform="translate(-318,-126) scale(1,1)"><g><path fill="none" stroke="none"/><text fill="#000000" stroke="none" font-family="Arial" font-size="13px" font-style="normal" font-weight="normal" text-decoration="none" x="603.5" y="1010.5">+n</text></g></g><g transform="translate(-318,-126) scale(1,1)"><path fill="none" stroke="#000000" d="M 718 936 L 879 933" stroke-miterlimit="10"/></g><g transform="translate(-318,-126) scale(1,1)"><g><path fill="none" stroke="none"/><text fill="#000000" stroke="none" font-family="Arial" font-size="13px" font-style="normal" font-weight="normal" text-decoration="none" x="719.5" y="928.5">+n</text></g></g><g transform="translate(-318,-126) scale(1,1)"><g><path fill="none" stroke="none"/><text fill="#000000" stroke="none" font-family="Arial" font-size="13px" font-style="normal" font-weight="normal" text-decoration="none" x="846.5" y="925.5">+0..1</text></g></g><g transform="translate(-318,-126) scale(1,1)"><path fill="none" stroke="#000000" d="M 903 969 L 829 1039" stroke-miterlimit="10"/></g><g transform="translate(-318,-126) scale(1,1)"><g><path fill="none" stroke="none"/><text fill="#000000" stroke="none" font-family="Arial" font-size="13px" font-style="normal" font-weight="normal" text-decoration="none" x="893.5" y="986.5">+n</text></g></g><g transform="translate(-318,-126) scale(1,1)"><g><path fill="none" stroke="none"/><text fill="#000000" stroke="none" font-family="Arial" font-size="13px" font-style="normal" font-weight="normal" text-decoration="none" x="836.5" y="1044.5">+n</text></g></g><g transform="translate(-318,-126) scale(1,1)"><path fill="none" stroke="#000000" d="M 626 879 L 625 768" stroke-miterlimit="10"/></g><g transform="translate(-318,-126) scale(1,1)"><g><path fill="none" stroke="none"/><text fill="#000000" stroke="none" font-family="Arial" font-size="13px" font-style="normal" font-weight="normal" text-decoration="none" x="630.5" y="866.5">+1</text></g></g><g transform="translate(-318,-126) scale(1,1)"><g><path fill="none" stroke="none"/><text fill="#000000" stroke="none" font-family="Arial" font-size="13px" font-style="normal" font-weight="normal" text-decoration="none" x="631.5" y="791.5">+0..1</text></g></g><g transform="translate(-318,-126) scale(1,1)"><rect fill="#C0C0C0" stroke="none" x="551" y="143" width="162.5244140625" height="235" opacity="0.2"/></g><g transform="translate(-318,-126) scale(1,1)"><rect fill="#ffffff" stroke="none" x="544" y="136" width="162.5244140625" height="235"/></g><g transform="translate(-318,-126) scale(1,1)"><path fill="none" stroke="#000000" d="M 544 136 L 706.5244140625 136 L 706.5244140625 371 L 544 371 L 544 136 Z Z" stroke-miterlimit="10"/></g><g transform="translate(-318,-126) scale(1,1)"><path fill="none" stroke="#000000" d="M 544 161 L 706.5244140625 161" stroke-miterlimit="10"/></g><g transform="translate(-318,-126) scale(1,1)"><path fill="none" stroke="#000000" d="M 544 304 L 706.5244140625 304" stroke-miterlimit="10"/></g><g transform="translate(-318,-126) scale(1,1)"><g><path fill="none" stroke="none"/><text fill="#000000" stroke="none" font-family="Arial" font-size="13px" font-style="normal" font-weight="bold" text-decoration="none" x="602.864501953125" y="155.5">Usuario</text></g></g><g transform="translate(-318,-126) scale(1,1)"><g><path fill="none" stroke="none"/><text fill="#000000" stroke="none" font-family="Arial" font-size="13px" font-style="normal" font-weight="normal" text-decoration="none" x="549" y="178.5">+usuario: String</text></g></g><g transform="translate(-318,-126) scale(1,1)"><g><path fill="none" stroke="none"/><text fill="#000000" stroke="none" font-family="Arial" font-size="13px" font-style="normal" font-weight="normal" text-decoration="none" x="549" y="193.5">+clave: String</text></g></g><g transform="translate(-318,-126) scale(1,1)"><g><path fill="none" stroke="none"/><text fill="#000000" stroke="none" font-family="Arial" font-size="13px" font-style="normal" font-weight="normal" text-decoration="none" x="549" y="208.5">+dataNacemento: Date</text></g></g><g transform="translate(-318,-126) scale(1,1)"><g><path fill="none" stroke="none"/><text fill="#000000" stroke="none" font-family="Arial" font-size="13px" font-style="normal" font-weight="normal" text-decoration="none" x="549" y="223.5">+sexo: String</text></g></g><g transform="translate(-318,-126) scale(1,1)"><g><path fill="none" stroke="none"/><text fill="#000000" stroke="none" font-family="Arial" font-size="13px" font-style="normal" font-weight="normal" text-decoration="none" x="549" y="238.5">+alerxias: String...</text></g></g><g transform="translate(-318,-126) scale(1,1)"><g><path fill="none" stroke="none"/><text fill="#000000" stroke="none" font-family="Arial" font-size="13px" font-style="normal" font-weight="normal" text-decoration="none" x="549" y="253.5">+outrasDoenzas: String...</text></g></g><g transform="translate(-318,-126) scale(1,1)"><g><path fill="none" stroke="none"/><text fill="#000000" stroke="none" font-family="Arial" font-size="13px" font-style="normal" font-weight="normal" text-decoration="none" x="549" y="268.5">+edade: Int</text></g></g><g transform="translate(-318,-126) scale(1,1)"><g><path fill="none" stroke="none"/><text fill="#000000" stroke="none" font-family="Arial" font-size="13px" font-style="normal" font-weight="normal" text-decoration="none" x="549" y="283.5">+codigoPostal: String</text></g></g><g transform="translate(-318,-126) scale(1,1)"><g><path fill="none" stroke="none"/><text fill="#000000" stroke="none" font-family="Arial" font-size="13px" font-style="normal" font-weight="normal" text-decoration="none" x="549" y="298.5">+correo: String</text></g></g><g transform="translate(-318,-126) scale(1,1)"><path fill="none" stroke="#000000" d="M 811 479 L 708 353" stroke-miterlimit="10"/></g><g transform="translate(-318,-126) scale(1,1)"><path fill="#FFFFFF" stroke="none" d="M 727.3822555192519 363.4080820032526 L 708 353 L 714.3456989487078 374.06494967599895"/></g><g transform="translate(-318,-126) scale(1,1)"><path fill="none" stroke="#000000" d="M 727.3822555192519 363.4080820032526 L 708 353 L 714.3456989487078 374.06494967599895 L 727.3822555192519 363.4080820032526" stroke-miterlimit="10"/></g><g transform="translate(-318,-126) scale(1,1)"><rect fill="#C0C0C0" stroke="none" x="367" y="447" width="124.63525390625" height="162" opacity="0.2"/></g><g transform="translate(-318,-126) scale(1,1)"><rect fill="#ffffff" stroke="none" x="360" y="440" width="124.63525390625" height="162"/></g><g transform="translate(-318,-126) scale(1,1)"><path fill="none" stroke="#000000" d="M 360 440 L 484.63525390625 440 L 484.63525390625 602 L 360 602 L 360 440 Z Z" stroke-miterlimit="10"/></g><g transform="translate(-318,-126) scale(1,1)"><path fill="none" stroke="#000000" d="M 360 465 L 484.63525390625 465" stroke-miterlimit="10"/></g><g transform="translate(-318,-126) scale(1,1)"><path fill="none" stroke="#000000" d="M 360 533 L 484.63525390625 533" stroke-miterlimit="10"/></g><g transform="translate(-318,-126) scale(1,1)"><g><path fill="none" stroke="none"/><text fill="#000000" stroke="none" font-family="Arial" font-size="13px" font-style="normal" font-weight="bold" text-decoration="none" x="401.357666015625" y="459.5">Doente</text></g></g><g transform="translate(-318,-126) scale(1,1)"><g><path fill="none" stroke="none"/><text fill="#000000" stroke="none" font-family="Arial" font-size="13px" font-style="normal" font-weight="normal" text-decoration="none" x="365" y="482.5">-nome: String</text></g></g><g transform="translate(-318,-126) scale(1,1)"><g><path fill="none" stroke="none"/><text fill="#000000" stroke="none" font-family="Arial" font-size="13px" font-style="normal" font-weight="normal" text-decoration="none" x="365" y="497.5">-apelido1: String</text></g></g><g transform="translate(-318,-126) scale(1,1)"><g><path fill="none" stroke="none"/><text fill="#000000" stroke="none" font-family="Arial" font-size="13px" font-style="normal" font-weight="normal" text-decoration="none" x="365" y="512.5">-apelido2: String</text></g></g><g transform="translate(-318,-126) scale(1,1)"><g><path fill="none" stroke="none"/><text fill="#000000" stroke="none" font-family="Arial" font-size="13px" font-style="normal" font-weight="normal" text-decoration="none" x="365" y="527.5">-alerxias: String...</text></g></g><g transform="translate(-318,-126) scale(1,1)"><path fill="none" stroke="#000000" d="M 484 439 L 543 361" stroke-miterlimit="10"/></g><g transform="translate(-318,-126) scale(1,1)"><path fill="#FFFFFF" stroke="none" d="M 537.452900554443 382.2891918057286 L 543 361 L 524.0238764743187 372.13134025794227"/></g><g transform="translate(-318,-126) scale(1,1)"><path fill="none" stroke="#000000" d="M 537.452900554443 382.2891918057286 L 543 361 L 524.0238764743187 372.13134025794227 L 537.452900554443 382.2891918057286" stroke-miterlimit="10"/></g><g transform="translate(-318,-126) scale(1,1)"><path fill="none" stroke="#000000" d="M 411 603 L 380 847" stroke-miterlimit="10"/></g><g transform="translate(-318,-126) scale(1,1)"><g><path fill="none" stroke="none"/><text fill="#000000" stroke="none" font-family="Arial" font-size="13px" font-style="normal" font-weight="normal" text-decoration="none" x="401.5" y="732.5">+n</text></g></g><g transform="translate(-318,-126) scale(1,1)"><g><path fill="none" stroke="none"/><text fill="#000000" stroke="none" font-family="Arial" font-size="13px" font-style="normal" font-weight="normal" text-decoration="none" x="414.5" y="636.5">+1</text></g></g><g transform="translate(-318,-126) scale(1,1)"><path fill="none" stroke="#000000" d="M 486 584 L 581 679" stroke-miterlimit="10"/></g><g transform="translate(-318,-126) scale(1,1)"><g><path fill="none" stroke="none"/><text fill="#000000" stroke="none" font-family="Arial" font-size="13px" font-style="normal" font-weight="normal" text-decoration="none" x="535.5" y="626.5">+1</text></g></g><g transform="translate(-318,-126) scale(1,1)"><g><path fill="none" stroke="none"/><text fill="#000000" stroke="none" font-family="Arial" font-size="13px" font-style="normal" font-weight="normal" text-decoration="none" x="565.5" y="656.5">+n</text></g></g><g transform="translate(-318,-126) scale(1,1)"><path fill="none" stroke="#000000" d="M 462 603 L 597 879" stroke-miterlimit="10"/></g><g transform="translate(-318,-126) scale(1,1)"><g><path fill="none" stroke="none"/><text fill="#000000" stroke="none" font-family="Arial" font-size="13px" font-style="normal" font-weight="normal" text-decoration="none" x="478.5" y="625.5">+1</text></g></g><g transform="translate(-318,-126) scale(1,1)"><g><path fill="none" stroke="none"/><text fill="#000000" stroke="none" font-family="Arial" font-size="13px" font-style="normal" font-weight="normal" text-decoration="none" x="591.5" y="855.5">+n</text></g></g><g transform="translate(-318,-126) scale(1,1)"><path fill="none" stroke="#000000" d="M 380 847 L 411 603" stroke-miterlimit="10"/></g><g transform="translate(-318,-126) scale(1,1)"><path fill="#000000" stroke="none" d="M 413.8950862714251 613.6121852358978 L 411 603 L 405.54318699113367 612.5510832781558 L 408.2272069601131 624.8245645720127"/></g><g transform="translate(-318,-126) scale(1,1)"><path fill="none" stroke="#000000" d="M 413.8950862714251 613.6121852358978 L 411 603 L 405.54318699113367 612.5510832781558 L 408.2272069601131 624.8245645720127 L 413.8950862714251 613.6121852358978" stroke-miterlimit="10"/></g><g transform="translate(-318,-126) scale(1,1)"><path fill="none" stroke="#000000" d="M 380 847 L 411 603" stroke-miterlimit="10"/></g><g transform="translate(-318,-126) scale(1,1)"><path fill="#FFFFFF" stroke="none" d="M 413.8950862714251 613.6121852358978 L 411 603 L 405.54318699113367 612.5510832781558 L 408.2272069601131 624.8245645720127"/></g><g transform="translate(-318,-126) scale(1,1)"><path fill="none" stroke="#000000" d="M 413.8950862714251 613.6121852358978 L 411 603 L 405.54318699113367 612.5510832781558 L 408.2272069601131 624.8245645720127 L 413.8950862714251 613.6121852358978" stroke-miterlimit="10"/></g><g transform="translate(-318,-126) scale(1,1)"><g><path fill="none" stroke="none"/><text fill="#000000" stroke="none" font-family="Arial" font-size="13px" font-style="normal" font-weight="normal" text-decoration="none" x="360.5" y="825.5">+n</text></g></g><g transform="translate(-318,-126) scale(1,1)"><g><path fill="none" stroke="none"/><text fill="#000000" stroke="none" font-family="Arial" font-size="13px" font-style="normal" font-weight="normal" text-decoration="none" x="384.5" y="632.5">+1</text></g></g><g transform="translate(-318,-126) scale(1,1)"><path fill="none" stroke="#000000" d="M 581 679 L 486 584" stroke-miterlimit="10"/></g><g transform="translate(-318,-126) scale(1,1)"><path fill="#FFFFFF" stroke="none" d="M 496.16267485762415 588.209517756016 L 486 584 L 490.209517756016 594.1626748576241 L 501.55634918610406 599.5563491861041"/></g><g transform="translate(-318,-126) scale(1,1)"><path fill="none" stroke="#000000" d="M 496.16267485762415 588.209517756016 L 486 584 L 490.209517756016 594.1626748576241 L 501.55634918610406 599.5563491861041 L 496.16267485762415 588.209517756016" stroke-miterlimit="10"/></g><g transform="translate(-318,-126) scale(1,1)"><rect fill="#C0C0C0" stroke="none" x="551" y="431" width="134.01708984375" height="162" opacity="0.2"/></g><g transform="translate(-318,-126) scale(1,1)"><rect fill="#ffffff" stroke="none" x="544" y="424" width="134.01708984375" height="162"/></g><g transform="translate(-318,-126) scale(1,1)"><path fill="none" stroke="#000000" d="M 544 424 L 678.01708984375 424 L 678.01708984375 586 L 544 586 L 544 424 Z Z" stroke-miterlimit="10"/></g><g transform="translate(-318,-126) scale(1,1)"><path fill="none" stroke="#000000" d="M 544 449 L 678.01708984375 449" stroke-miterlimit="10"/></g><g transform="translate(-318,-126) scale(1,1)"><path fill="none" stroke="#000000" d="M 544 517 L 678.01708984375 517" stroke-miterlimit="10"/></g><g transform="translate(-318,-126) scale(1,1)"><g><path fill="none" stroke="none"/><text fill="#000000" stroke="none" font-family="Arial" font-size="13px" font-style="normal" font-weight="bold" text-decoration="none" x="590.054931640625" y="443.5">Medico</text></g></g><g transform="translate(-318,-126) scale(1,1)"><g><path fill="none" stroke="none"/><text fill="#000000" stroke="none" font-family="Arial" font-size="13px" font-style="normal" font-weight="normal" text-decoration="none" x="549" y="466.5">-nome: String</text></g></g><g transform="translate(-318,-126) scale(1,1)"><g><path fill="none" stroke="none"/><text fill="#000000" stroke="none" font-family="Arial" font-size="13px" font-style="normal" font-weight="normal" text-decoration="none" x="549" y="481.5">-apelido1: String</text></g></g><g transform="translate(-318,-126) scale(1,1)"><g><path fill="none" stroke="none"/><text fill="#000000" stroke="none" font-family="Arial" font-size="13px" font-style="normal" font-weight="normal" text-decoration="none" x="549" y="496.5">-apelido2: String</text></g></g><g transform="translate(-318,-126) scale(1,1)"><g><path fill="none" stroke="none"/><text fill="#000000" stroke="none" font-family="Arial" font-size="13px" font-style="normal" font-weight="normal" text-decoration="none" x="549" y="511.5">-especialidade: String</text></g></g><g transform="translate(-318,-126) scale(1,1)"><path fill="none" stroke="#000000" d="M 616 423 L 618 372" stroke-miterlimit="10"/></g><g transform="translate(-318,-126) scale(1,1)"><path fill="#FFFFFF" stroke="none" d="M 625.6161089310925 392.6396435228357 L 618 372 L 608.7909703751609 391.9798341677011"/></g><g transform="translate(-318,-126) scale(1,1)"><path fill="none" stroke="#000000" d="M 625.6161089310925 392.6396435228357 L 618 372 L 608.7909703751609 391.9798341677011 L 625.6161089310925 392.6396435228357" stroke-miterlimit="10"/></g><g transform="translate(-318,-126) scale(1,1)"><path fill="none" stroke="#000000" d="M 616 587 L 622 679" stroke-miterlimit="10"/></g><g transform="translate(-318,-126) scale(1,1)"><g><path fill="none" stroke="none"/><text fill="#000000" stroke="none" font-family="Arial" font-size="13px" font-style="normal" font-weight="normal" text-decoration="none" x="624.5" y="617.5">+1</text></g></g><g transform="translate(-318,-126) scale(1,1)"><g><path fill="none" stroke="none"/><text fill="#000000" stroke="none" font-family="Arial" font-size="13px" font-style="normal" font-weight="normal" text-decoration="none" x="627.5" y="658.5">+n</text></g></g><g transform="translate(-318,-126) scale(1,1)"><path fill="none" stroke="#000000" d="M 622 679 L 616 587" stroke-miterlimit="10"/></g><g transform="translate(-318,-126) scale(1,1)"><path fill="#FFFFFF" stroke="none" d="M 620.8619721372962 596.8671792796197 L 616 587 L 612.4607840884197 597.4150828480247 L 617.4317410216031 608.953362331248"/></g><g transform="translate(-318,-126) scale(1,1)"><path fill="none" stroke="#000000" d="M 620.8619721372962 596.8671792796197 L 616 587 L 612.4607840884197 597.4150828480247 L 617.4317410216031 608.953362331248 L 620.8619721372962 596.8671792796197" stroke-miterlimit="10"/></g></g></svg>