<svg version="1.1" xmlns="http://www.w3.org/2000/svg" xmlns:xlink="http://www.w3.org/1999/xlink" width="1692" height="659"><defs/><g><g transform="translate(-22,-246) scale(1,1)"><path fill="#ffffff" stroke="none" d="M 668.9916257102273 313.68 C 668.9916257102273 308.886167936 672.8774680351727 305 677.6708984375 305 C 682.4643288398273 305 686.3501711647727 308.886167936 686.3501711647727 313.68 C 686.3501711647727 318.473832064 682.4643288398273 322.36 677.6708984375 322.36 C 672.8774680351727 322.36 668.9916257102273 318.473832064 668.9916257102273 313.68 Z"/></g><g transform="translate(-22,-246) scale(1,1)"><path fill="none" stroke="#000000" d="M 668.9916257102273 313.68 C 668.9916257102273 308.886167936 672.8774680351727 305 677.6708984375 305 C 682.4643288398273 305 686.3501711647727 308.886167936 686.3501711647727 313.68 C 686.3501711647727 318.473832064 682.4643288398273 322.36 677.6708984375 322.36 C 672.8774680351727 322.36 668.9916257102273 318.473832064 668.9916257102273 313.68 Z" stroke-miterlimit="10"/></g><g transform="translate(-22,-246) scale(1,1)"><path fill="none" stroke="#000000" d="M 677.6708984375 322.36 L 677.6708984375 339.64" stroke-miterlimit="10"/></g><g transform="translate(-22,-246) scale(1,1)"><path fill="none" stroke="#000000" d="M 668.4810802556818 328.84 L 686.8607166193182 328.84" stroke-miterlimit="10"/></g><g transform="translate(-22,-246) scale(1,1)"><path fill="none" stroke="#000000" d="M 677.6708984375 339.64 L 664.9072620738636 357" stroke-miterlimit="10"/></g><g transform="translate(-22,-246) scale(1,1)"><path fill="none" stroke="#000000" d="M 677.6708984375 339.64 L 690.4345348011364 357" stroke-miterlimit="10"/></g><g transform="translate(-22,-246) scale(1,1)"><g><path fill="none" stroke="none"/><text fill="#000000" stroke="none" font-family="Arial" font-size="13px" font-style="normal" font-weight="bold" text-decoration="none" x="653.4609375" y="377.5">Doentes</text></g></g><g transform="translate(-22,-246) scale(1,1)"><g><path fill="none" stroke="none"/><text fill="#000000" stroke="none" font-family="Arial" font-size="13px" font-style="normal" font-weight="normal" text-decoration="none" x="636.5" y="392.5">(from Actores)</text></g></g><g transform="translate(-22,-246) scale(1,1)"><path fill="#C0C0C0" stroke="none" d="M 895 362.5 C 895 347.312168 938.2045168 335 991.5 335 C 1044.7954832 335 1088 347.312168 1088 362.5 C 1088 377.687832 1044.7954832 390 991.5 390 C 938.2045168 390 895 377.687832 895 362.5 Z" opacity="0.2"/></g><g transform="translate(-22,-246) scale(1,1)"><path fill="#ffffff" stroke="none" d="M 888 355.5 C 888 340.312168 931.2045168 328 984.5 328 C 1037.7954832 328 1081 340.312168 1081 355.5 C 1081 370.687832 1037.7954832 383 984.5 383 C 931.2045168 383 888 370.687832 888 355.5 Z"/></g><g transform="translate(-22,-246) scale(1,1)"><path fill="none" stroke="#000000" d="M 888 355.5 C 888 340.312168 931.2045168 328 984.5 328 C 1037.7954832 328 1081 340.312168 1081 355.5 C 1081 370.687832 1037.7954832 383 984.5 383 C 931.2045168 383 888 370.687832 888 355.5 Z" stroke-miterlimit="10"/></g><g transform="translate(-22,-246) scale(1,1)"><g><path fill="none" stroke="none"/><text fill="#000000" stroke="none" font-family="Arial" font-size="13px" font-style="normal" font-weight="bold" text-decoration="none" x="925.96826171875" y="355">Realizar diagnóstico</text></g></g><g transform="translate(-22,-246) scale(1,1)"><g><path fill="none" stroke="none"/><text fill="#000000" stroke="none" font-family="Arial" font-size="13px" font-style="normal" font-weight="normal" text-decoration="none" x="931.40185546875" y="370">(from Diagnóstico)</text></g></g><g transform="translate(-22,-246) scale(1,1)"><path fill="none" stroke="#000000" d="M 724 352 L 887 354" stroke-miterlimit="10"/></g><g transform="translate(-22,-246) scale(1,1)"><path fill="#C0C0C0" stroke="none" d="M 423 786.5 C 423 771.312168 463.0705104 759 512.5 759 C 561.9294896 759 602 771.312168 602 786.5 C 602 801.687832 561.9294896 814 512.5 814 C 463.0705104 814 423 801.687832 423 786.5 Z" opacity="0.2"/></g><g transform="translate(-22,-246) scale(1,1)"><path fill="#ffffff" stroke="none" d="M 416 779.5 C 416 764.312168 456.0705104 752 505.5 752 C 554.9294896 752 595 764.312168 595 779.5 C 595 794.687832 554.9294896 807 505.5 807 C 456.0705104 807 416 794.687832 416 779.5 Z"/></g><g transform="translate(-22,-246) scale(1,1)"><path fill="none" stroke="#000000" d="M 416 779.5 C 416 764.312168 456.0705104 752 505.5 752 C 554.9294896 752 595 764.312168 595 779.5 C 595 794.687832 554.9294896 807 505.5 807 C 456.0705104 807 416 794.687832 416 779.5 Z" stroke-miterlimit="10"/></g><g transform="translate(-22,-246) scale(1,1)"><g><path fill="none" stroke="none"/><text fill="#000000" stroke="none" font-family="Arial" font-size="13px" font-style="normal" font-weight="bold" text-decoration="none" x="458.88916015625" y="779">Enviar feedback</text></g></g><g transform="translate(-22,-246) scale(1,1)"><g><path fill="none" stroke="none"/><text fill="#000000" stroke="none" font-family="Arial" font-size="13px" font-style="normal" font-weight="normal" text-decoration="none" x="446.619140625" y="794">(from Casos de uso)</text></g></g><g transform="translate(-22,-246) scale(1,1)"><path fill="none" stroke="#000000" d="M 658 399 L 516 751" stroke-miterlimit="10"/></g><g transform="translate(-22,-246) scale(1,1)"><path fill="#C0C0C0" stroke="none" d="M 695 658.5 C 695 643.312168 735.0705104 631 784.5 631 C 833.9294896 631 874 643.312168 874 658.5 C 874 673.687832 833.9294896 686 784.5 686 C 735.0705104 686 695 673.687832 695 658.5 Z" opacity="0.2"/></g><g transform="translate(-22,-246) scale(1,1)"><path fill="#ffffff" stroke="none" d="M 688 651.5 C 688 636.312168 728.0705104 624 777.5 624 C 826.9294896 624 867 636.312168 867 651.5 C 867 666.687832 826.9294896 679 777.5 679 C 728.0705104 679 688 666.687832 688 651.5 Z"/></g><g transform="translate(-22,-246) scale(1,1)"><path fill="none" stroke="#000000" d="M 688 651.5 C 688 636.312168 728.0705104 624 777.5 624 C 826.9294896 624 867 636.312168 867 651.5 C 867 666.687832 826.9294896 679 777.5 679 C 728.0705104 679 688 666.687832 688 651.5 Z" stroke-miterlimit="10"/></g><g transform="translate(-22,-246) scale(1,1)"><g><path fill="none" stroke="none"/><text fill="#000000" stroke="none" font-family="Arial" font-size="13px" font-style="normal" font-weight="bold" text-decoration="none" x="741.734130859375" y="651">Ver histórico</text></g></g><g transform="translate(-22,-246) scale(1,1)"><g><path fill="none" stroke="none"/><text fill="#000000" stroke="none" font-family="Arial" font-size="13px" font-style="normal" font-weight="normal" text-decoration="none" x="718.619140625" y="666">(from Casos de uso)</text></g></g><g transform="translate(-22,-246) scale(1,1)"><path fill="none" stroke="#000000" d="M 693 399 L 768 623" stroke-miterlimit="10"/></g><g transform="translate(-22,-246) scale(1,1)"><path fill="#C0C0C0" stroke="none" d="M 807 490.5 C 807 475.312168 875.7242832 463 960.5 463 C 1045.2757168 463 1114 475.312168 1114 490.5 C 1114 505.687832 1045.2757168 518 960.5 518 C 875.7242832 518 807 505.687832 807 490.5 Z" opacity="0.2"/></g><g transform="translate(-22,-246) scale(1,1)"><path fill="#ffffff" stroke="none" d="M 800 483.5 C 800 468.312168 868.7242832 456 953.5 456 C 1038.2757168 456 1107 468.312168 1107 483.5 C 1107 498.687832 1038.2757168 511 953.5 511 C 868.7242832 511 800 498.687832 800 483.5 Z"/></g><g transform="translate(-22,-246) scale(1,1)"><path fill="none" stroke="#000000" d="M 800 483.5 C 800 468.312168 868.7242832 456 953.5 456 C 1038.2757168 456 1107 468.312168 1107 483.5 C 1107 498.687832 1038.2757168 511 953.5 511 C 868.7242832 511 800 498.687832 800 483.5 Z" stroke-miterlimit="10"/></g><g transform="translate(-22,-246) scale(1,1)"><g><path fill="none" stroke="none"/><text fill="#000000" stroke="none" font-family="Arial" font-size="13px" font-style="normal" font-weight="bold" text-decoration="none" x="876.912353515625" y="483">Recomendar lista médicos</text></g></g><g transform="translate(-22,-246) scale(1,1)"><g><path fill="none" stroke="none"/><text fill="#000000" stroke="none" font-family="Arial" font-size="13px" font-style="normal" font-weight="normal" text-decoration="none" x="900.40185546875" y="498">(from Diagnóstico)</text></g></g><g transform="translate(-22,-246) scale(1,1)"><path fill="#C0C0C0" stroke="none" d="M 255 666.5 C 255 651.312168 295.0705104 639 344.5 639 C 393.9294896 639 434 651.312168 434 666.5 C 434 681.687832 393.9294896 694 344.5 694 C 295.0705104 694 255 681.687832 255 666.5 Z" opacity="0.2"/></g><g transform="translate(-22,-246) scale(1,1)"><path fill="#ffffff" stroke="none" d="M 248 659.5 C 248 644.312168 288.0705104 632 337.5 632 C 386.9294896 632 427 644.312168 427 659.5 C 427 674.687832 386.9294896 687 337.5 687 C 288.0705104 687 248 674.687832 248 659.5 Z"/></g><g transform="translate(-22,-246) scale(1,1)"><path fill="none" stroke="#000000" d="M 248 659.5 C 248 644.312168 288.0705104 632 337.5 632 C 386.9294896 632 427 644.312168 427 659.5 C 427 674.687832 386.9294896 687 337.5 687 C 288.0705104 687 248 674.687832 248 659.5 Z" stroke-miterlimit="10"/></g><g transform="translate(-22,-246) scale(1,1)"><g><path fill="none" stroke="none"/><text fill="#000000" stroke="none" font-family="Arial" font-size="13px" font-style="normal" font-weight="bold" text-decoration="none" x="284.02734375" y="659">Acceder datos cita</text></g></g><g transform="translate(-22,-246) scale(1,1)"><g><path fill="none" stroke="none"/><text fill="#000000" stroke="none" font-family="Arial" font-size="13px" font-style="normal" font-weight="normal" text-decoration="none" x="278.619140625" y="674">(from Casos de uso)</text></g></g><g transform="translate(-22,-246) scale(1,1)"><path fill="none" stroke="#000000" d="M 631 393 L 368 631" stroke-miterlimit="10"/></g><g transform="translate(-22,-246) scale(1,1)"><path fill="#C0C0C0" stroke="none" d="M 39 562.5 C 39 547.312168 83.77152 535 139 535 C 194.22848 535 239 547.312168 239 562.5 C 239 577.687832 194.22848 590 139 590 C 83.77152 590 39 577.687832 39 562.5 Z" opacity="0.2"/></g><g transform="translate(-22,-246) scale(1,1)"><path fill="#ffffff" stroke="none" d="M 32 555.5 C 32 540.312168 76.77152 528 132 528 C 187.22848 528 232 540.312168 232 555.5 C 232 570.687832 187.22848 583 132 583 C 76.77152 583 32 570.687832 32 555.5 Z"/></g><g transform="translate(-22,-246) scale(1,1)"><path fill="none" stroke="#000000" d="M 32 555.5 C 32 540.312168 76.77152 528 132 528 C 187.22848 528 232 540.312168 232 555.5 C 232 570.687832 187.22848 583 132 583 C 76.77152 583 32 570.687832 32 555.5 Z" stroke-miterlimit="10"/></g><g transform="translate(-22,-246) scale(1,1)"><g><path fill="none" stroke="none"/><text fill="#000000" stroke="none" font-family="Arial" font-size="13px" font-style="normal" font-weight="bold" text-decoration="none" x="70.224609375" y="555">Aceptar-rechazar cita</text></g></g><g transform="translate(-22,-246) scale(1,1)"><g><path fill="none" stroke="none"/><text fill="#000000" stroke="none" font-family="Arial" font-size="13px" font-style="normal" font-weight="normal" text-decoration="none" x="73.119140625" y="570">(from Casos de uso)</text></g></g><g transform="translate(-22,-246) scale(1,1)"><path fill="#C0C0C0" stroke="none" d="M 239 490.5 C 239 475.312168 279.0705104 463 328.5 463 C 377.9294896 463 418 475.312168 418 490.5 C 418 505.687832 377.9294896 518 328.5 518 C 279.0705104 518 239 505.687832 239 490.5 Z" opacity="0.2"/></g><g transform="translate(-22,-246) scale(1,1)"><path fill="#ffffff" stroke="none" d="M 232 483.5 C 232 468.312168 272.0705104 456 321.5 456 C 370.9294896 456 411 468.312168 411 483.5 C 411 498.687832 370.9294896 511 321.5 511 C 272.0705104 511 232 498.687832 232 483.5 Z"/></g><g transform="translate(-22,-246) scale(1,1)"><path fill="none" stroke="#000000" d="M 232 483.5 C 232 468.312168 272.0705104 456 321.5 456 C 370.9294896 456 411 468.312168 411 483.5 C 411 498.687832 370.9294896 511 321.5 511 C 272.0705104 511 232 498.687832 232 483.5 Z" stroke-miterlimit="10"/></g><g transform="translate(-22,-246) scale(1,1)"><g><path fill="none" stroke="none"/><text fill="#000000" stroke="none" font-family="Arial" font-size="13px" font-style="normal" font-weight="bold" text-decoration="none" x="275.615966796875" y="483">Solicitar a baixa</text></g></g><g transform="translate(-22,-246) scale(1,1)"><g><path fill="none" stroke="none"/><text fill="#000000" stroke="none" font-family="Arial" font-size="13px" font-style="normal" font-weight="normal" text-decoration="none" x="262.619140625" y="498">(from Casos de uso)</text></g></g><g transform="translate(-22,-246) scale(1,1)"><path fill="none" stroke="#000000" d="M 631 368 L 397 455" stroke-miterlimit="10"/></g><g transform="translate(-22,-246) scale(1,1)"><path fill="#C0C0C0" stroke="none" d="M 231 418.5 C 231 403.312168 271.0705104 391 320.5 391 C 369.9294896 391 410 403.312168 410 418.5 C 410 433.687832 369.9294896 446 320.5 446 C 271.0705104 446 231 433.687832 231 418.5 Z" opacity="0.2"/></g><g transform="translate(-22,-246) scale(1,1)"><path fill="#ffffff" stroke="none" d="M 224 411.5 C 224 396.312168 264.0705104 384 313.5 384 C 362.9294896 384 403 396.312168 403 411.5 C 403 426.687832 362.9294896 439 313.5 439 C 264.0705104 439 224 426.687832 224 411.5 Z"/></g><g transform="translate(-22,-246) scale(1,1)"><path fill="none" stroke="#000000" d="M 224 411.5 C 224 396.312168 264.0705104 384 313.5 384 C 362.9294896 384 403 396.312168 403 411.5 C 403 426.687832 362.9294896 439 313.5 439 C 264.0705104 439 224 426.687832 224 411.5 Z" stroke-miterlimit="10"/></g><g transform="translate(-22,-246) scale(1,1)"><g><path fill="none" stroke="none"/><text fill="#000000" stroke="none" font-family="Arial" font-size="13px" font-style="normal" font-weight="bold" text-decoration="none" x="259.662353515625" y="411">Ver datos persoais</text></g></g><g transform="translate(-22,-246) scale(1,1)"><g><path fill="none" stroke="none"/><text fill="#000000" stroke="none" font-family="Arial" font-size="13px" font-style="normal" font-weight="normal" text-decoration="none" x="254.619140625" y="426">(from Casos de uso)</text></g></g><g transform="translate(-22,-246) scale(1,1)"><path fill="none" stroke="#000000" d="M 631 359 L 404 396" stroke-miterlimit="10"/></g><g transform="translate(-22,-246) scale(1,1)"><path fill="#C0C0C0" stroke="none" d="M 207 290.5 C 207 275.312168 258.2633904 263 321.5 263 C 384.7366096 263 436 275.312168 436 290.5 C 436 305.687832 384.7366096 318 321.5 318 C 258.2633904 318 207 305.687832 207 290.5 Z" opacity="0.2"/></g><g transform="translate(-22,-246) scale(1,1)"><path fill="#ffffff" stroke="none" d="M 200 283.5 C 200 268.312168 251.2633904 256 314.5 256 C 377.7366096 256 429 268.312168 429 283.5 C 429 298.687832 377.7366096 311 314.5 311 C 251.2633904 311 200 298.687832 200 283.5 Z"/></g><g transform="translate(-22,-246) scale(1,1)"><path fill="none" stroke="#000000" d="M 200 283.5 C 200 268.312168 251.2633904 256 314.5 256 C 377.7366096 256 429 268.312168 429 283.5 C 429 298.687832 377.7366096 311 314.5 311 C 251.2633904 311 200 298.687832 200 283.5 Z" stroke-miterlimit="10"/></g><g transform="translate(-22,-246) scale(1,1)"><g><path fill="none" stroke="none"/><text fill="#000000" stroke="none" font-family="Arial" font-size="13px" font-style="normal" font-weight="bold" text-decoration="none" x="244.050537109375" y="283">Modificar datos persoais</text></g></g><g transform="translate(-22,-246) scale(1,1)"><g><path fill="none" stroke="none"/><text fill="#000000" stroke="none" font-family="Arial" font-size="13px" font-style="normal" font-weight="normal" text-decoration="none" x="255.619140625" y="298">(from Casos de uso)</text></g></g><g transform="translate(-22,-246) scale(1,1)"><path fill="#C0C0C0" stroke="none" d="M 1215 354.5 C 1215 339.312168 1266.9349632 327 1331 327 C 1395.0650368 327 1447 339.312168 1447 354.5 C 1447 369.687832 1395.0650368 382 1331 382 C 1266.9349632 382 1215 369.687832 1215 354.5 Z" opacity="0.2"/></g><g transform="translate(-22,-246) scale(1,1)"><path fill="#ffffff" stroke="none" d="M 1208 347.5 C 1208 332.312168 1259.9349632 320 1324 320 C 1388.0650368 320 1440 332.312168 1440 347.5 C 1440 362.687832 1388.0650368 375 1324 375 C 1259.9349632 375 1208 362.687832 1208 347.5 Z"/></g><g transform="translate(-22,-246) scale(1,1)"><path fill="none" stroke="#000000" d="M 1208 347.5 C 1208 332.312168 1259.9349632 320 1324 320 C 1388.0650368 320 1440 332.312168 1440 347.5 C 1440 362.687832 1388.0650368 375 1324 375 C 1259.9349632 375 1208 362.687832 1208 347.5 Z" stroke-miterlimit="10"/></g><g transform="translate(-22,-246) scale(1,1)"><g><path fill="none" stroke="none"/><text fill="#000000" stroke="none" font-family="Arial" font-size="13px" font-style="normal" font-weight="bold" text-decoration="none" x="1268.724609375" y="347">Realizar predicción</text></g></g><g transform="translate(-22,-246) scale(1,1)"><g><path fill="none" stroke="none"/><text fill="#000000" stroke="none" font-family="Arial" font-size="13px" font-style="normal" font-weight="normal" text-decoration="none" x="1246.333251953125" y="362">(from Realizar diagnóstico)</text></g></g><g transform="translate(-22,-246) scale(1,1)"><path fill="none" stroke="#000000" d="M 1082 353 L 1207 350" stroke-miterlimit="10" stroke-dasharray="3"/></g><g transform="translate(-22,-246) scale(1,1)"><path fill="none" stroke="#000000" d="M 1196.9412500714632 354.45213992088776 L 1207 350 L 1196.7392513864208 346.03552804412305" stroke-miterlimit="10"/></g><g transform="translate(-22,-246) scale(1,1)"><g><path fill="none" stroke="none"/><text fill="#000000" stroke="none" font-family="Arial" font-size="13px" font-style="normal" font-weight="normal" text-decoration="none" x="1115.5" y="327.5">«include»</text></g></g><g transform="translate(-22,-246) scale(1,1)"><path fill="#C0C0C0" stroke="none" d="M 687 874.5 C 687 859.312168 747.6654096 847 822.5 847 C 897.3345904 847 958 859.312168 958 874.5 C 958 889.687832 897.3345904 902 822.5 902 C 747.6654096 902 687 889.687832 687 874.5 Z" opacity="0.2"/></g><g transform="translate(-22,-246) scale(1,1)"><path fill="#ffffff" stroke="none" d="M 680 867.5 C 680 852.312168 740.6654096 840 815.5 840 C 890.3345904 840 951 852.312168 951 867.5 C 951 882.687832 890.3345904 895 815.5 895 C 740.6654096 895 680 882.687832 680 867.5 Z"/></g><g transform="translate(-22,-246) scale(1,1)"><path fill="none" stroke="#000000" d="M 680 867.5 C 680 852.312168 740.6654096 840 815.5 840 C 890.3345904 840 951 852.312168 951 867.5 C 951 882.687832 890.3345904 895 815.5 895 C 740.6654096 895 680 882.687832 680 867.5 Z" stroke-miterlimit="10"/></g><g transform="translate(-22,-246) scale(1,1)"><g><path fill="none" stroke="none"/><text fill="#000000" stroke="none" font-family="Arial" font-size="13px" font-style="normal" font-weight="bold" text-decoration="none" x="729.873291015625" y="867">Recomendar medicación leve</text></g></g><g transform="translate(-22,-246) scale(1,1)"><g><path fill="none" stroke="none"/><text fill="#000000" stroke="none" font-family="Arial" font-size="13px" font-style="normal" font-weight="normal" text-decoration="none" x="762.40185546875" y="882">(from Diagnóstico)</text></g></g><g transform="translate(-22,-246) scale(1,1)"><path fill="#C0C0C0" stroke="none" d="M 1031 610.5 C 1031 595.312168 1105.7684384 583 1198 583 C 1290.2315616 583 1365 595.312168 1365 610.5 C 1365 625.687832 1290.2315616 638 1198 638 C 1105.7684384 638 1031 625.687832 1031 610.5 Z" opacity="0.2"/></g><g transform="translate(-22,-246) scale(1,1)"><path fill="#ffffff" stroke="none" d="M 1024 603.5 C 1024 588.312168 1098.7684384 576 1191 576 C 1283.2315616 576 1358 588.312168 1358 603.5 C 1358 618.687832 1283.2315616 631 1191 631 C 1098.7684384 631 1024 618.687832 1024 603.5 Z"/></g><g transform="translate(-22,-246) scale(1,1)"><path fill="none" stroke="#000000" d="M 1024 603.5 C 1024 588.312168 1098.7684384 576 1191 576 C 1283.2315616 576 1358 588.312168 1358 603.5 C 1358 618.687832 1283.2315616 631 1191 631 C 1098.7684384 631 1024 618.687832 1024 603.5 Z" stroke-miterlimit="10"/></g><g transform="translate(-22,-246) scale(1,1)"><g><path fill="none" stroke="none"/><text fill="#000000" stroke="none" font-family="Arial" font-size="13px" font-style="normal" font-weight="bold" text-decoration="none" x="1094.899658203125" y="603">Indicar satisfacción medicamento</text></g></g><g transform="translate(-22,-246) scale(1,1)"><g><path fill="none" stroke="none"/><text fill="#000000" stroke="none" font-family="Arial" font-size="13px" font-style="normal" font-weight="normal" text-decoration="none" x="1132.119140625" y="618">(from Casos de uso)</text></g></g><g transform="translate(-22,-246) scale(1,1)"><path fill="#C0C0C0" stroke="none" d="M 1503 698.5 C 1503 683.312168 1549.5623808 671 1607 671 C 1664.4376192 671 1711 683.312168 1711 698.5 C 1711 713.687832 1664.4376192 726 1607 726 C 1549.5623808 726 1503 713.687832 1503 698.5 Z" opacity="0.2"/></g><g transform="translate(-22,-246) scale(1,1)"><path fill="#ffffff" stroke="none" d="M 1496 691.5 C 1496 676.312168 1542.5623808 664 1600 664 C 1657.4376192 664 1704 676.312168 1704 691.5 C 1704 706.687832 1657.4376192 719 1600 719 C 1542.5623808 719 1496 706.687832 1496 691.5 Z"/></g><g transform="translate(-22,-246) scale(1,1)"><path fill="none" stroke="#000000" d="M 1496 691.5 C 1496 676.312168 1542.5623808 664 1600 664 C 1657.4376192 664 1704 676.312168 1704 691.5 C 1704 706.687832 1657.4376192 719 1600 719 C 1542.5623808 719 1496 706.687832 1496 691.5 Z" stroke-miterlimit="10"/></g><g transform="translate(-22,-246) scale(1,1)"><g><path fill="none" stroke="none"/><text fill="#000000" stroke="none" font-family="Arial" font-size="13px" font-style="normal" font-weight="bold" text-decoration="none" x="1536.4091796875" y="691">Comprobar fiabilidade</text></g></g><g transform="translate(-22,-246) scale(1,1)"><g><path fill="none" stroke="none"/><text fill="#000000" stroke="none" font-family="Arial" font-size="13px" font-style="normal" font-weight="normal" text-decoration="none" x="1541.119140625" y="706">(from Casos de uso)</text></g></g><g transform="translate(-22,-246) scale(1,1)"><path fill="none" stroke="#000000" d="M 1326 632 L 1495 668" stroke-miterlimit="10" stroke-dasharray="3"/></g><g transform="translate(-22,-246) scale(1,1)"><path fill="none" stroke="#000000" d="M 1484.18331261922 669.9998185183846 L 1495 668 L 1485.9373617675833 661.7655322385676" stroke-miterlimit="10"/></g><g transform="translate(-22,-246) scale(1,1)"><g><path fill="none" stroke="none"/><text fill="#000000" stroke="none" font-family="Arial" font-size="13px" font-style="normal" font-weight="normal" text-decoration="none" x="1405.5" y="644.5">«include»</text></g></g><g transform="translate(-22,-246) scale(1,1)"><path fill="#C0C0C0" stroke="none" d="M 1031 778.5 C 1031 763.312168 1102.4105744 751 1190.5 751 C 1278.5894256 751 1350 763.312168 1350 778.5 C 1350 793.687832 1278.5894256 806 1190.5 806 C 1102.4105744 806 1031 793.687832 1031 778.5 Z" opacity="0.2"/></g><g transform="translate(-22,-246) scale(1,1)"><path fill="#ffffff" stroke="none" d="M 1024 771.5 C 1024 756.312168 1095.4105744 744 1183.5 744 C 1271.5894256 744 1343 756.312168 1343 771.5 C 1343 786.687832 1271.5894256 799 1183.5 799 C 1095.4105744 799 1024 786.687832 1024 771.5 Z"/></g><g transform="translate(-22,-246) scale(1,1)"><path fill="none" stroke="#000000" d="M 1024 771.5 C 1024 756.312168 1095.4105744 744 1183.5 744 C 1271.5894256 744 1343 756.312168 1343 771.5 C 1343 786.687832 1271.5894256 799 1183.5 799 C 1095.4105744 799 1024 786.687832 1024 771.5 Z" stroke-miterlimit="10"/></g><g transform="translate(-22,-246) scale(1,1)"><g><path fill="none" stroke="none"/><text fill="#000000" stroke="none" font-family="Arial" font-size="13px" font-style="normal" font-weight="bold" text-decoration="none" x="1093.53466796875" y="771">Indicar satisfacción diagnóstico</text></g></g><g transform="translate(-22,-246) scale(1,1)"><g><path fill="none" stroke="none"/><text fill="#000000" stroke="none" font-family="Arial" font-size="13px" font-style="normal" font-weight="normal" text-decoration="none" x="1124.619140625" y="786">(from Casos de uso)</text></g></g><g transform="translate(-22,-246) scale(1,1)"><path fill="none" stroke="#000000" d="M 1329 743 L 1495 711" stroke-miterlimit="10" stroke-dasharray="3"/></g><g transform="translate(-22,-246) scale(1,1)"><path fill="none" stroke="#000000" d="M 1485.8178497774354 717.0570716761696 L 1495 711 L 1484.2242428553984 708.7902357681035" stroke-miterlimit="10"/></g><g transform="translate(-22,-246) scale(1,1)"><g><path fill="none" stroke="none"/><text fill="#000000" stroke="none" font-family="Arial" font-size="13px" font-style="normal" font-weight="normal" text-decoration="none" x="1378.5" y="703.5">«include»</text></g></g><g transform="translate(-22,-246) scale(1,1)"><path fill="none" stroke="#000000" d="M 189 584 L 282 631" stroke-miterlimit="10" stroke-dasharray="3"/></g><g transform="translate(-22,-246) scale(1,1)"><path fill="none" stroke="#000000" d="M 271.0311214175616 630.1731368651798 L 282 631 L 274.8285121020905 622.6591510426014" stroke-miterlimit="10"/></g><g transform="translate(-22,-246) scale(1,1)"><g><path fill="none" stroke="none"/><text fill="#000000" stroke="none" font-family="Arial" font-size="13px" font-style="normal" font-weight="normal" text-decoration="none" x="221.5" y="588.5">«extend»</text></g></g><g transform="translate(-22,-246) scale(1,1)"><path fill="none" stroke="#000000" d="M 314 312 L 313 383" stroke-miterlimit="10" stroke-dasharray="3"/></g><g transform="translate(-22,-246) scale(1,1)"><path fill="none" stroke="#000000" d="M 308.9340217804229 372.77904989162334 L 313 383 L 317.35222236058274 372.89761609697774" stroke-miterlimit="10"/></g><g transform="translate(-22,-246) scale(1,1)"><g><path fill="none" stroke="none"/><text fill="#000000" stroke="none" font-family="Arial" font-size="13px" font-style="normal" font-weight="normal" text-decoration="none" x="315.5" y="352.5">«extend»</text></g></g><g transform="translate(-22,-246) scale(1,1)"><path fill="none" stroke="#000000" d="M 1023 622 L 868 640" stroke-miterlimit="10" stroke-dasharray="3"/></g><g transform="translate(-22,-246) scale(1,1)"><path fill="none" stroke="#000000" d="M 877.6092496883062 634.6462797581694 L 868 640 L 878.5804175042902 643.009113729142" stroke-miterlimit="10"/></g><g transform="translate(-22,-246) scale(1,1)"><g><path fill="none" stroke="none"/><text fill="#000000" stroke="none" font-family="Arial" font-size="13px" font-style="normal" font-weight="normal" text-decoration="none" x="921.5" y="666.5">«extend»</text></g></g><g transform="translate(-22,-246) scale(1,1)"><path fill="none" stroke="#000000" d="M 1088 743 L 868 678" stroke-miterlimit="10" stroke-dasharray="3"/></g><g transform="translate(-22,-246) scale(1,1)"><path fill="none" stroke="#000000" d="M 878.9389357614178 676.8425526329147 L 868 678 L 876.5534345379951 684.9165567737301" stroke-miterlimit="10"/></g><g transform="translate(-22,-246) scale(1,1)"><g><path fill="none" stroke="none"/><text fill="#000000" stroke="none" font-family="Arial" font-size="13px" font-style="normal" font-weight="normal" text-decoration="none" x="942.5" y="744.5">«extend»</text></g></g><g transform="translate(-22,-246) scale(1,1)"><path fill="none" stroke="#000000" d="M 923 512 L 806 623" stroke-miterlimit="10" stroke-dasharray="3"/></g><g transform="translate(-22,-246) scale(1,1)"><path fill="none" stroke="#000000" d="M 810.4754071800323 612.9515806928197 L 806 623 L 816.2698961978849 619.0592853332588" stroke-miterlimit="10"/></g><g transform="translate(-22,-246) scale(1,1)"><g><path fill="none" stroke="none"/><text fill="#000000" stroke="none" font-family="Arial" font-size="13px" font-style="normal" font-weight="normal" text-decoration="none" x="857.5" y="594.5">«extend»</text></g></g><g transform="translate(-22,-246) scale(1,1)"><path fill="none" stroke="#000000" d="M 810 839 L 782 680" stroke-miterlimit="10" stroke-dasharray="3"/></g><g transform="translate(-22,-246) scale(1,1)"><path fill="none" stroke="#000000" d="M 787.9082588566973 689.278603196724 L 782 680 L 779.6168066622334 690.7387331429189" stroke-miterlimit="10"/></g><g transform="translate(-22,-246) scale(1,1)"><g><path fill="none" stroke="none"/><text fill="#000000" stroke="none" font-family="Arial" font-size="13px" font-style="normal" font-weight="normal" text-decoration="none" x="739.5" y="770.5">«extend»</text></g></g></g></svg>