<svg version="1.1" xmlns="http://www.w3.org/2000/svg" xmlns:xlink="http://www.w3.org/1999/xlink" width="1732" height="763"><defs/><g><g transform="translate(-22,-246) scale(1,1)"><path fill="#ffffff" stroke="none" d="M 668.9916257102273 313.68 C 668.9916257102273 308.886167936 672.8774680351727 305 677.6708984375 305 C 682.4643288398273 305 686.3501711647727 308.886167936 686.3501711647727 313.68 C 686.3501711647727 318.473832064 682.4643288398273 322.36 677.6708984375 322.36 C 672.8774680351727 322.36 668.9916257102273 318.473832064 668.9916257102273 313.68 Z"/></g><g transform="translate(-22,-246) scale(1,1)"><path fill="none" stroke="#000000" d="M 668.9916257102273 313.68 C 668.9916257102273 308.886167936 672.8774680351727 305 677.6708984375 305 C 682.4643288398273 305 686.3501711647727 308.886167936 686.3501711647727 313.68 C 686.3501711647727 318.473832064 682.4643288398273 322.36 677.6708984375 322.36 C 672.8774680351727 322.36 668.9916257102273 318.473832064 668.9916257102273 313.68 Z" stroke-miterlimit="10"/></g><g transform="translate(-22,-246) scale(1,1)"><path fill="none" stroke="#000000" d="M 677.6708984375 322.36 L 677.6708984375 339.64" stroke-miterlimit="10"/></g><g transform="translate(-22,-246) scale(1,1)"><path fill="none" stroke="#000000" d="M 668.4810802556818 328.84 L 686.8607166193182 328.84" stroke-miterlimit="10"/></g><g transform="translate(-22,-246) scale(1,1)"><path fill="none" stroke="#000000" d="M 677.6708984375 339.64 L 664.9072620738636 357" stroke-miterlimit="10"/></g><g transform="translate(-22,-246) scale(1,1)"><path fill="none" stroke="#000000" d="M 677.6708984375 339.64 L 690.4345348011364 357" stroke-miterlimit="10"/></g><g transform="translate(-22,-246) scale(1,1)"><g><path fill="none" stroke="none"/><text fill="#000000" stroke="none" font-family="Arial" font-size="13px" font-style="normal" font-weight="bold" text-decoration="none" x="653.4609375" y="377.5">Doentes</text></g></g><g transform="translate(-22,-246) scale(1,1)"><g><path fill="none" stroke="none"/><text fill="#000000" stroke="none" font-family="Arial" font-size="13px" font-style="normal" font-weight="normal" text-decoration="none" x="636.5" y="392.5">(from Actores)</text></g></g><g transform="translate(-22,-246) scale(1,1)"><path fill="#C0C0C0" stroke="none" d="M 895 362.5 C 895 347.312168 938.2045168 335 991.5 335 C 1044.7954832 335 1088 347.312168 1088 362.5 C 1088 377.687832 1044.7954832 390 991.5 390 C 938.2045168 390 895 377.687832 895 362.5 Z" opacity="0.2"/></g><g transform="translate(-22,-246) scale(1,1)"><path fill="#ffffff" stroke="none" d="M 888 355.5 C 888 340.312168 931.2045168 328 984.5 328 C 1037.7954832 328 1081 340.312168 1081 355.5 C 1081 370.687832 1037.7954832 383 984.5 383 C 931.2045168 383 888 370.687832 888 355.5 Z"/></g><g transform="translate(-22,-246) scale(1,1)"><path fill="none" stroke="#000000" d="M 888 355.5 C 888 340.312168 931.2045168 328 984.5 328 C 1037.7954832 328 1081 340.312168 1081 355.5 C 1081 370.687832 1037.7954832 383 984.5 383 C 931.2045168 383 888 370.687832 888 355.5 Z" stroke-miterlimit="10"/></g><g transform="translate(-22,-246) scale(1,1)"><g><path fill="none" stroke="none"/><text fill="#000000" stroke="none" font-family="Arial" font-size="13px" font-style="normal" font-weight="bold" text-decoration="none" x="925.96826171875" y="355">Realizar diagnóstico</text></g></g><g transform="translate(-22,-246) scale(1,1)"><g><path fill="none" stroke="none"/><text fill="#000000" stroke="none" font-family="Arial" font-size="13px" font-style="normal" font-weight="normal" text-decoration="none" x="941.155029296875" y="370">(from Doentes)</text></g></g><g transform="translate(-22,-246) scale(1,1)"><path fill="none" stroke="#000000" d="M 724 352 L 887 354" stroke-miterlimit="10"/></g><g transform="translate(-22,-246) scale(1,1)"><path fill="#C0C0C0" stroke="none" d="M 423 786.5 C 423 771.312168 463.0705104 759 512.5 759 C 561.9294896 759 602 771.312168 602 786.5 C 602 801.687832 561.9294896 814 512.5 814 C 463.0705104 814 423 801.687832 423 786.5 Z" opacity="0.2"/></g><g transform="translate(-22,-246) scale(1,1)"><path fill="#ffffff" stroke="none" d="M 416 779.5 C 416 764.312168 456.0705104 752 505.5 752 C 554.9294896 752 595 764.312168 595 779.5 C 595 794.687832 554.9294896 807 505.5 807 C 456.0705104 807 416 794.687832 416 779.5 Z"/></g><g transform="translate(-22,-246) scale(1,1)"><path fill="none" stroke="#000000" d="M 416 779.5 C 416 764.312168 456.0705104 752 505.5 752 C 554.9294896 752 595 764.312168 595 779.5 C 595 794.687832 554.9294896 807 505.5 807 C 456.0705104 807 416 794.687832 416 779.5 Z" stroke-miterlimit="10"/></g><g transform="translate(-22,-246) scale(1,1)"><g><path fill="none" stroke="none"/><text fill="#000000" stroke="none" font-family="Arial" font-size="13px" font-style="normal" font-weight="bold" text-decoration="none" x="458.88916015625" y="779">Enviar feedback</text></g></g><g transform="translate(-22,-246) scale(1,1)"><g><path fill="none" stroke="none"/><text fill="#000000" stroke="none" font-family="Arial" font-size="13px" font-style="normal" font-weight="normal" text-decoration="none" x="462.155029296875" y="794">(from Doentes)</text></g></g><g transform="translate(-22,-246) scale(1,1)"><path fill="none" stroke="#000000" d="M 658 399 L 516 751" stroke-miterlimit="10"/></g><g transform="translate(-22,-246) scale(1,1)"><path fill="#C0C0C0" stroke="none" d="M 735 786.5 C 735 771.312168 783.8009568 759 844 759 C 904.1990432 759 953 771.312168 953 786.5 C 953 801.687832 904.1990432 814 844 814 C 783.8009568 814 735 801.687832 735 786.5 Z" opacity="0.2"/></g><g transform="translate(-22,-246) scale(1,1)"><path fill="#ffffff" stroke="none" d="M 728 779.5 C 728 764.312168 776.8009568 752 837 752 C 897.1990432 752 946 764.312168 946 779.5 C 946 794.687832 897.1990432 807 837 807 C 776.8009568 807 728 794.687832 728 779.5 Z"/></g><g transform="translate(-22,-246) scale(1,1)"><path fill="none" stroke="#000000" d="M 728 779.5 C 728 764.312168 776.8009568 752 837 752 C 897.1990432 752 946 764.312168 946 779.5 C 946 794.687832 897.1990432 807 837 807 C 776.8009568 807 728 794.687832 728 779.5 Z" stroke-miterlimit="10"/></g><g transform="translate(-22,-246) scale(1,1)"><g><path fill="none" stroke="none"/><text fill="#000000" stroke="none" font-family="Arial" font-size="13px" font-style="normal" font-weight="bold" text-decoration="none" x="801.234130859375" y="779">Ver histórico</text></g></g><g transform="translate(-22,-246) scale(1,1)"><g><path fill="none" stroke="none"/><text fill="#000000" stroke="none" font-family="Arial" font-size="13px" font-style="normal" font-weight="normal" text-decoration="none" x="793.655029296875" y="794">(from Doentes)</text></g></g><g transform="translate(-22,-246) scale(1,1)"><path fill="none" stroke="#000000" d="M 695 399 L 827 751" stroke-miterlimit="10"/></g><g transform="translate(-22,-246) scale(1,1)"><path fill="#C0C0C0" stroke="none" d="M 1007 514.5 C 1007 499.312168 1075.7242832 487 1160.5 487 C 1245.2757168 487 1314 499.312168 1314 514.5 C 1314 529.687832 1245.2757168 542 1160.5 542 C 1075.7242832 542 1007 529.687832 1007 514.5 Z" opacity="0.2"/></g><g transform="translate(-22,-246) scale(1,1)"><path fill="#ffffff" stroke="none" d="M 1000 507.5 C 1000 492.312168 1068.7242832 480 1153.5 480 C 1238.2757168 480 1307 492.312168 1307 507.5 C 1307 522.687832 1238.2757168 535 1153.5 535 C 1068.7242832 535 1000 522.687832 1000 507.5 Z"/></g><g transform="translate(-22,-246) scale(1,1)"><path fill="none" stroke="#000000" d="M 1000 507.5 C 1000 492.312168 1068.7242832 480 1153.5 480 C 1238.2757168 480 1307 492.312168 1307 507.5 C 1307 522.687832 1238.2757168 535 1153.5 535 C 1068.7242832 535 1000 522.687832 1000 507.5 Z" stroke-miterlimit="10"/></g><g transform="translate(-22,-246) scale(1,1)"><g><path fill="none" stroke="none"/><text fill="#000000" stroke="none" font-family="Arial" font-size="13px" font-style="normal" font-weight="bold" text-decoration="none" x="1076.912353515625" y="507">Recomendar lista médicos</text></g></g><g transform="translate(-22,-246) scale(1,1)"><g><path fill="none" stroke="none"/><text fill="#000000" stroke="none" font-family="Arial" font-size="13px" font-style="normal" font-weight="normal" text-decoration="none" x="1110.155029296875" y="522">(from Doentes)</text></g></g><g transform="translate(-22,-246) scale(1,1)"><path fill="#C0C0C0" stroke="none" d="M 255 666.5 C 255 651.312168 295.0705104 639 344.5 639 C 393.9294896 639 434 651.312168 434 666.5 C 434 681.687832 393.9294896 694 344.5 694 C 295.0705104 694 255 681.687832 255 666.5 Z" opacity="0.2"/></g><g transform="translate(-22,-246) scale(1,1)"><path fill="#ffffff" stroke="none" d="M 248 659.5 C 248 644.312168 288.0705104 632 337.5 632 C 386.9294896 632 427 644.312168 427 659.5 C 427 674.687832 386.9294896 687 337.5 687 C 288.0705104 687 248 674.687832 248 659.5 Z"/></g><g transform="translate(-22,-246) scale(1,1)"><path fill="none" stroke="#000000" d="M 248 659.5 C 248 644.312168 288.0705104 632 337.5 632 C 386.9294896 632 427 644.312168 427 659.5 C 427 674.687832 386.9294896 687 337.5 687 C 288.0705104 687 248 674.687832 248 659.5 Z" stroke-miterlimit="10"/></g><g transform="translate(-22,-246) scale(1,1)"><g><path fill="none" stroke="none"/><text fill="#000000" stroke="none" font-family="Arial" font-size="13px" font-style="normal" font-weight="bold" text-decoration="none" x="284.02734375" y="659">Acceder datos cita</text></g></g><g transform="translate(-22,-246) scale(1,1)"><g><path fill="none" stroke="none"/><text fill="#000000" stroke="none" font-family="Arial" font-size="13px" font-style="normal" font-weight="normal" text-decoration="none" x="294.155029296875" y="674">(from Doentes)</text></g></g><g transform="translate(-22,-246) scale(1,1)"><path fill="none" stroke="#000000" d="M 631 393 L 368 631" stroke-miterlimit="10"/></g><g transform="translate(-22,-246) scale(1,1)"><path fill="#C0C0C0" stroke="none" d="M 39 562.5 C 39 547.312168 83.77152 535 139 535 C 194.22848 535 239 547.312168 239 562.5 C 239 577.687832 194.22848 590 139 590 C 83.77152 590 39 577.687832 39 562.5 Z" opacity="0.2"/></g><g transform="translate(-22,-246) scale(1,1)"><path fill="#ffffff" stroke="none" d="M 32 555.5 C 32 540.312168 76.77152 528 132 528 C 187.22848 528 232 540.312168 232 555.5 C 232 570.687832 187.22848 583 132 583 C 76.77152 583 32 570.687832 32 555.5 Z"/></g><g transform="translate(-22,-246) scale(1,1)"><path fill="none" stroke="#000000" d="M 32 555.5 C 32 540.312168 76.77152 528 132 528 C 187.22848 528 232 540.312168 232 555.5 C 232 570.687832 187.22848 583 132 583 C 76.77152 583 32 570.687832 32 555.5 Z" stroke-miterlimit="10"/></g><g transform="translate(-22,-246) scale(1,1)"><g><path fill="none" stroke="none"/><text fill="#000000" stroke="none" font-family="Arial" font-size="13px" font-style="normal" font-weight="bold" text-decoration="none" x="73.839599609375" y="555">Aceptar-rexeitar cita</text></g></g><g transform="translate(-22,-246) scale(1,1)"><g><path fill="none" stroke="none"/><text fill="#000000" stroke="none" font-family="Arial" font-size="13px" font-style="normal" font-weight="normal" text-decoration="none" x="88.655029296875" y="570">(from Doentes)</text></g></g><g transform="translate(-22,-246) scale(1,1)"><path fill="#C0C0C0" stroke="none" d="M 239 490.5 C 239 475.312168 279.0705104 463 328.5 463 C 377.9294896 463 418 475.312168 418 490.5 C 418 505.687832 377.9294896 518 328.5 518 C 279.0705104 518 239 505.687832 239 490.5 Z" opacity="0.2"/></g><g transform="translate(-22,-246) scale(1,1)"><path fill="#ffffff" stroke="none" d="M 232 483.5 C 232 468.312168 272.0705104 456 321.5 456 C 370.9294896 456 411 468.312168 411 483.5 C 411 498.687832 370.9294896 511 321.5 511 C 272.0705104 511 232 498.687832 232 483.5 Z"/></g><g transform="translate(-22,-246) scale(1,1)"><path fill="none" stroke="#000000" d="M 232 483.5 C 232 468.312168 272.0705104 456 321.5 456 C 370.9294896 456 411 468.312168 411 483.5 C 411 498.687832 370.9294896 511 321.5 511 C 272.0705104 511 232 498.687832 232 483.5 Z" stroke-miterlimit="10"/></g><g transform="translate(-22,-246) scale(1,1)"><g><path fill="none" stroke="none"/><text fill="#000000" stroke="none" font-family="Arial" font-size="13px" font-style="normal" font-weight="bold" text-decoration="none" x="275.615966796875" y="483">Solicitar a baixa</text></g></g><g transform="translate(-22,-246) scale(1,1)"><g><path fill="none" stroke="none"/><text fill="#000000" stroke="none" font-family="Arial" font-size="13px" font-style="normal" font-weight="normal" text-decoration="none" x="262.619140625" y="498">(from Casos de uso)</text></g></g><g transform="translate(-22,-246) scale(1,1)"><path fill="none" stroke="#000000" d="M 631 368 L 397 455" stroke-miterlimit="10"/></g><g transform="translate(-22,-246) scale(1,1)"><path fill="#C0C0C0" stroke="none" d="M 231 418.5 C 231 403.312168 271.0705104 391 320.5 391 C 369.9294896 391 410 403.312168 410 418.5 C 410 433.687832 369.9294896 446 320.5 446 C 271.0705104 446 231 433.687832 231 418.5 Z" opacity="0.2"/></g><g transform="translate(-22,-246) scale(1,1)"><path fill="#ffffff" stroke="none" d="M 224 411.5 C 224 396.312168 264.0705104 384 313.5 384 C 362.9294896 384 403 396.312168 403 411.5 C 403 426.687832 362.9294896 439 313.5 439 C 264.0705104 439 224 426.687832 224 411.5 Z"/></g><g transform="translate(-22,-246) scale(1,1)"><path fill="none" stroke="#000000" d="M 224 411.5 C 224 396.312168 264.0705104 384 313.5 384 C 362.9294896 384 403 396.312168 403 411.5 C 403 426.687832 362.9294896 439 313.5 439 C 264.0705104 439 224 426.687832 224 411.5 Z" stroke-miterlimit="10"/></g><g transform="translate(-22,-246) scale(1,1)"><g><path fill="none" stroke="none"/><text fill="#000000" stroke="none" font-family="Arial" font-size="13px" font-style="normal" font-weight="bold" text-decoration="none" x="259.662353515625" y="411">Ver datos persoais</text></g></g><g transform="translate(-22,-246) scale(1,1)"><g><path fill="none" stroke="none"/><text fill="#000000" stroke="none" font-family="Arial" font-size="13px" font-style="normal" font-weight="normal" text-decoration="none" x="254.619140625" y="426">(from Casos de uso)</text></g></g><g transform="translate(-22,-246) scale(1,1)"><path fill="none" stroke="#000000" d="M 631 359 L 404 396" stroke-miterlimit="10"/></g><g transform="translate(-22,-246) scale(1,1)"><path fill="#C0C0C0" stroke="none" d="M 207 290.5 C 207 275.312168 258.2633904 263 321.5 263 C 384.7366096 263 436 275.312168 436 290.5 C 436 305.687832 384.7366096 318 321.5 318 C 258.2633904 318 207 305.687832 207 290.5 Z" opacity="0.2"/></g><g transform="translate(-22,-246) scale(1,1)"><path fill="#ffffff" stroke="none" d="M 200 283.5 C 200 268.312168 251.2633904 256 314.5 256 C 377.7366096 256 429 268.312168 429 283.5 C 429 298.687832 377.7366096 311 314.5 311 C 251.2633904 311 200 298.687832 200 283.5 Z"/></g><g transform="translate(-22,-246) scale(1,1)"><path fill="none" stroke="#000000" d="M 200 283.5 C 200 268.312168 251.2633904 256 314.5 256 C 377.7366096 256 429 268.312168 429 283.5 C 429 298.687832 377.7366096 311 314.5 311 C 251.2633904 311 200 298.687832 200 283.5 Z" stroke-miterlimit="10"/></g><g transform="translate(-22,-246) scale(1,1)"><g><path fill="none" stroke="none"/><text fill="#000000" stroke="none" font-family="Arial" font-size="13px" font-style="normal" font-weight="bold" text-decoration="none" x="244.050537109375" y="283">Modificar datos persoais</text></g></g><g transform="translate(-22,-246) scale(1,1)"><g><path fill="none" stroke="none"/><text fill="#000000" stroke="none" font-family="Arial" font-size="13px" font-style="normal" font-weight="normal" text-decoration="none" x="255.619140625" y="298">(from Casos de uso)</text></g></g><g transform="translate(-22,-246) scale(1,1)"><path fill="#C0C0C0" stroke="none" d="M 1215 354.5 C 1215 339.312168 1266.9349632 327 1331 327 C 1395.0650368 327 1447 339.312168 1447 354.5 C 1447 369.687832 1395.0650368 382 1331 382 C 1266.9349632 382 1215 369.687832 1215 354.5 Z" opacity="0.2"/></g><g transform="translate(-22,-246) scale(1,1)"><path fill="#ffffff" stroke="none" d="M 1208 347.5 C 1208 332.312168 1259.9349632 320 1324 320 C 1388.0650368 320 1440 332.312168 1440 347.5 C 1440 362.687832 1388.0650368 375 1324 375 C 1259.9349632 375 1208 362.687832 1208 347.5 Z"/></g><g transform="translate(-22,-246) scale(1,1)"><path fill="none" stroke="#000000" d="M 1208 347.5 C 1208 332.312168 1259.9349632 320 1324 320 C 1388.0650368 320 1440 332.312168 1440 347.5 C 1440 362.687832 1388.0650368 375 1324 375 C 1259.9349632 375 1208 362.687832 1208 347.5 Z" stroke-miterlimit="10"/></g><g transform="translate(-22,-246) scale(1,1)"><g><path fill="none" stroke="none"/><text fill="#000000" stroke="none" font-family="Arial" font-size="13px" font-style="normal" font-weight="bold" text-decoration="none" x="1268.724609375" y="347">Realizar predicción</text></g></g><g transform="translate(-22,-246) scale(1,1)"><g><path fill="none" stroke="none"/><text fill="#000000" stroke="none" font-family="Arial" font-size="13px" font-style="normal" font-weight="normal" text-decoration="none" x="1246.333251953125" y="362">(from Realizar diagnóstico)</text></g></g><g transform="translate(-22,-246) scale(1,1)"><path fill="none" stroke="#000000" d="M 1082 353 L 1207 350" stroke-miterlimit="10" stroke-dasharray="3"/></g><g transform="translate(-22,-246) scale(1,1)"><path fill="none" stroke="#000000" d="M 1196.9412500714632 354.45213992088776 L 1207 350 L 1196.7392513864208 346.03552804412305" stroke-miterlimit="10"/></g><g transform="translate(-22,-246) scale(1,1)"><g><path fill="none" stroke="none"/><text fill="#000000" stroke="none" font-family="Arial" font-size="13px" font-style="normal" font-weight="normal" text-decoration="none" x="1115.5" y="327.5">«include»</text></g></g><g transform="translate(-22,-246) scale(1,1)"><path fill="#C0C0C0" stroke="none" d="M 679 978.5 C 679 963.312168 739.6654096 951 814.5 951 C 889.3345904 951 950 963.312168 950 978.5 C 950 993.687832 889.3345904 1006 814.5 1006 C 739.6654096 1006 679 993.687832 679 978.5 Z" opacity="0.2"/></g><g transform="translate(-22,-246) scale(1,1)"><path fill="#ffffff" stroke="none" d="M 672 971.5 C 672 956.312168 732.6654096 944 807.5 944 C 882.3345904 944 943 956.312168 943 971.5 C 943 986.687832 882.3345904 999 807.5 999 C 732.6654096 999 672 986.687832 672 971.5 Z"/></g><g transform="translate(-22,-246) scale(1,1)"><path fill="none" stroke="#000000" d="M 672 971.5 C 672 956.312168 732.6654096 944 807.5 944 C 882.3345904 944 943 956.312168 943 971.5 C 943 986.687832 882.3345904 999 807.5 999 C 732.6654096 999 672 986.687832 672 971.5 Z" stroke-miterlimit="10"/></g><g transform="translate(-22,-246) scale(1,1)"><g><path fill="none" stroke="none"/><text fill="#000000" stroke="none" font-family="Arial" font-size="13px" font-style="normal" font-weight="bold" text-decoration="none" x="721.873291015625" y="971">Recomendar medicación leve</text></g></g><g transform="translate(-22,-246) scale(1,1)"><g><path fill="none" stroke="none"/><text fill="#000000" stroke="none" font-family="Arial" font-size="13px" font-style="normal" font-weight="normal" text-decoration="none" x="764.155029296875" y="986">(from Doentes)</text></g></g><g transform="translate(-22,-246) scale(1,1)"><path fill="#C0C0C0" stroke="none" d="M 1071 738.5 C 1071 723.312168 1145.7684384 711 1238 711 C 1330.2315616 711 1405 723.312168 1405 738.5 C 1405 753.687832 1330.2315616 766 1238 766 C 1145.7684384 766 1071 753.687832 1071 738.5 Z" opacity="0.2"/></g><g transform="translate(-22,-246) scale(1,1)"><path fill="#ffffff" stroke="none" d="M 1064 731.5 C 1064 716.312168 1138.7684384 704 1231 704 C 1323.2315616 704 1398 716.312168 1398 731.5 C 1398 746.687832 1323.2315616 759 1231 759 C 1138.7684384 759 1064 746.687832 1064 731.5 Z"/></g><g transform="translate(-22,-246) scale(1,1)"><path fill="none" stroke="#000000" d="M 1064 731.5 C 1064 716.312168 1138.7684384 704 1231 704 C 1323.2315616 704 1398 716.312168 1398 731.5 C 1398 746.687832 1323.2315616 759 1231 759 C 1138.7684384 759 1064 746.687832 1064 731.5 Z" stroke-miterlimit="10"/></g><g transform="translate(-22,-246) scale(1,1)"><g><path fill="none" stroke="none"/><text fill="#000000" stroke="none" font-family="Arial" font-size="13px" font-style="normal" font-weight="bold" text-decoration="none" x="1134.899658203125" y="731">Indicar satisfacción medicamento</text></g></g><g transform="translate(-22,-246) scale(1,1)"><g><path fill="none" stroke="none"/><text fill="#000000" stroke="none" font-family="Arial" font-size="13px" font-style="normal" font-weight="normal" text-decoration="none" x="1187.655029296875" y="746">(from Doentes)</text></g></g><g transform="translate(-22,-246) scale(1,1)"><path fill="#C0C0C0" stroke="none" d="M 1543 826.5 C 1543 811.312168 1589.5623808 799 1647 799 C 1704.4376192 799 1751 811.312168 1751 826.5 C 1751 841.687832 1704.4376192 854 1647 854 C 1589.5623808 854 1543 841.687832 1543 826.5 Z" opacity="0.2"/></g><g transform="translate(-22,-246) scale(1,1)"><path fill="#ffffff" stroke="none" d="M 1536 819.5 C 1536 804.312168 1582.5623808 792 1640 792 C 1697.4376192 792 1744 804.312168 1744 819.5 C 1744 834.687832 1697.4376192 847 1640 847 C 1582.5623808 847 1536 834.687832 1536 819.5 Z"/></g><g transform="translate(-22,-246) scale(1,1)"><path fill="none" stroke="#000000" d="M 1536 819.5 C 1536 804.312168 1582.5623808 792 1640 792 C 1697.4376192 792 1744 804.312168 1744 819.5 C 1744 834.687832 1697.4376192 847 1640 847 C 1582.5623808 847 1536 834.687832 1536 819.5 Z" stroke-miterlimit="10"/></g><g transform="translate(-22,-246) scale(1,1)"><g><path fill="none" stroke="none"/><text fill="#000000" stroke="none" font-family="Arial" font-size="13px" font-style="normal" font-weight="bold" text-decoration="none" x="1576.4091796875" y="819">Comprobar fiabilidade</text></g></g><g transform="translate(-22,-246) scale(1,1)"><g><path fill="none" stroke="none"/><text fill="#000000" stroke="none" font-family="Arial" font-size="13px" font-style="normal" font-weight="normal" text-decoration="none" x="1596.655029296875" y="834">(from Doentes)</text></g></g><g transform="translate(-22,-246) scale(1,1)"><path fill="none" stroke="#000000" d="M 1366 760 L 1535 796" stroke-miterlimit="10" stroke-dasharray="3"/></g><g transform="translate(-22,-246) scale(1,1)"><path fill="none" stroke="#000000" d="M 1524.18331261922 797.9998185183846 L 1535 796 L 1525.9373617675833 789.7655322385676" stroke-miterlimit="10"/></g><g transform="translate(-22,-246) scale(1,1)"><g><path fill="none" stroke="none"/><text fill="#000000" stroke="none" font-family="Arial" font-size="13px" font-style="normal" font-weight="normal" text-decoration="none" x="1445.5" y="772.5">«include»</text></g></g><g transform="translate(-22,-246) scale(1,1)"><path fill="#C0C0C0" stroke="none" d="M 1071 906.5 C 1071 891.312168 1142.4105744 879 1230.5 879 C 1318.5894256 879 1390 891.312168 1390 906.5 C 1390 921.687832 1318.5894256 934 1230.5 934 C 1142.4105744 934 1071 921.687832 1071 906.5 Z" opacity="0.2"/></g><g transform="translate(-22,-246) scale(1,1)"><path fill="#ffffff" stroke="none" d="M 1064 899.5 C 1064 884.312168 1135.4105744 872 1223.5 872 C 1311.5894256 872 1383 884.312168 1383 899.5 C 1383 914.687832 1311.5894256 927 1223.5 927 C 1135.4105744 927 1064 914.687832 1064 899.5 Z"/></g><g transform="translate(-22,-246) scale(1,1)"><path fill="none" stroke="#000000" d="M 1064 899.5 C 1064 884.312168 1135.4105744 872 1223.5 872 C 1311.5894256 872 1383 884.312168 1383 899.5 C 1383 914.687832 1311.5894256 927 1223.5 927 C 1135.4105744 927 1064 914.687832 1064 899.5 Z" stroke-miterlimit="10"/></g><g transform="translate(-22,-246) scale(1,1)"><g><path fill="none" stroke="none"/><text fill="#000000" stroke="none" font-family="Arial" font-size="13px" font-style="normal" font-weight="bold" text-decoration="none" x="1133.53466796875" y="899">Indicar satisfacción diagnóstico</text></g></g><g transform="translate(-22,-246) scale(1,1)"><g><path fill="none" stroke="none"/><text fill="#000000" stroke="none" font-family="Arial" font-size="13px" font-style="normal" font-weight="normal" text-decoration="none" x="1180.155029296875" y="914">(from Doentes)</text></g></g><g transform="translate(-22,-246) scale(1,1)"><path fill="none" stroke="#000000" d="M 1369 871 L 1535 839" stroke-miterlimit="10" stroke-dasharray="3"/></g><g transform="translate(-22,-246) scale(1,1)"><path fill="none" stroke="#000000" d="M 1525.8178497774354 845.0570716761696 L 1535 839 L 1524.2242428553984 836.7902357681035" stroke-miterlimit="10"/></g><g transform="translate(-22,-246) scale(1,1)"><g><path fill="none" stroke="none"/><text fill="#000000" stroke="none" font-family="Arial" font-size="13px" font-style="normal" font-weight="normal" text-decoration="none" x="1418.5" y="831.5">«include»</text></g></g><g transform="translate(-22,-246) scale(1,1)"><path fill="none" stroke="#000000" d="M 189 584 L 282 631" stroke-miterlimit="10" stroke-dasharray="3"/></g><g transform="translate(-22,-246) scale(1,1)"><path fill="none" stroke="#000000" d="M 271.0311214175616 630.1731368651798 L 282 631 L 274.8285121020905 622.6591510426014" stroke-miterlimit="10"/></g><g transform="translate(-22,-246) scale(1,1)"><g><path fill="none" stroke="none"/><text fill="#000000" stroke="none" font-family="Arial" font-size="13px" font-style="normal" font-weight="normal" text-decoration="none" x="221.5" y="588.5">«extend»</text></g></g><g transform="translate(-22,-246) scale(1,1)"><path fill="none" stroke="#000000" d="M 314 312 L 313 383" stroke-miterlimit="10" stroke-dasharray="3"/></g><g transform="translate(-22,-246) scale(1,1)"><path fill="none" stroke="#000000" d="M 308.9340217804229 372.77904989162334 L 313 383 L 317.35222236058274 372.89761609697774" stroke-miterlimit="10"/></g><g transform="translate(-22,-246) scale(1,1)"><g><path fill="none" stroke="none"/><text fill="#000000" stroke="none" font-family="Arial" font-size="13px" font-style="normal" font-weight="normal" text-decoration="none" x="315.5" y="352.5">«extend»</text></g></g><g transform="translate(-22,-246) scale(1,1)"><path fill="none" stroke="#000000" d="M 1063 751 L 947 766" stroke-miterlimit="10" stroke-dasharray="3"/></g><g transform="translate(-22,-246) scale(1,1)"><path fill="none" stroke="#000000" d="M 956.5389203567515 760.5219530462444 L 947 766 L 957.6185994181163 768.8714711207986" stroke-miterlimit="10"/></g><g transform="translate(-22,-246) scale(1,1)"><g><path fill="none" stroke="none"/><text fill="#000000" stroke="none" font-family="Arial" font-size="13px" font-style="normal" font-weight="normal" text-decoration="none" x="982.5" y="793.5">«extend»</text></g></g><g transform="translate(-22,-246) scale(1,1)"><path fill="none" stroke="#000000" d="M 1133 871 L 930 808" stroke-miterlimit="10" stroke-dasharray="3"/></g><g transform="translate(-22,-246) scale(1,1)"><path fill="none" stroke="#000000" d="M 940.9537040484648 806.9918494067629 L 930 808 L 938.4583085327153 815.0325682908448" stroke-miterlimit="10"/></g><g transform="translate(-22,-246) scale(1,1)"><g><path fill="none" stroke="none"/><text fill="#000000" stroke="none" font-family="Arial" font-size="13px" font-style="normal" font-weight="normal" text-decoration="none" x="995.5" y="873.5">«extend»</text></g></g><g transform="translate(-22,-246) scale(1,1)"><path fill="none" stroke="#000000" d="M 1119 536 L 870 751" stroke-miterlimit="10" stroke-dasharray="3"/></g><g transform="translate(-22,-246) scale(1,1)"><path fill="none" stroke="#000000" d="M 874.9409494271512 741.1721305076668 L 870 751 L 880.4431320080836 747.5444256827932" stroke-miterlimit="10"/></g><g transform="translate(-22,-246) scale(1,1)"><g><path fill="none" stroke="none"/><text fill="#000000" stroke="none" font-family="Arial" font-size="13px" font-style="normal" font-weight="normal" text-decoration="none" x="986.5" y="671.5">«extend»</text></g></g><g transform="translate(-22,-246) scale(1,1)"><path fill="none" stroke="#000000" d="M 811 943 L 832 808" stroke-miterlimit="10" stroke-dasharray="3"/></g><g transform="translate(-22,-246) scale(1,1)"><path fill="none" stroke="#000000" d="M 834.5974194928959 818.6889387676198 L 832 808 L 826.2784318507412 817.3948740232845" stroke-miterlimit="10"/></g><g transform="translate(-22,-246) scale(1,1)"><g><path fill="none" stroke="none"/><text fill="#000000" stroke="none" font-family="Arial" font-size="13px" font-style="normal" font-weight="normal" text-decoration="none" x="764.5" y="876.5">«extend»</text></g></g></g></svg>