<svg version="1.1" xmlns="http://www.w3.org/2000/svg" xmlns:xlink="http://www.w3.org/1999/xlink" width="835.18359375" height="549"><defs/><g><g transform="translate(-46,-78) scale(1,1)"><rect fill="#C0C0C0" stroke="none" x="463" y="247" width="105.82080078125" height="100" opacity="0.2"/></g><g transform="translate(-46,-78) scale(1,1)"><rect fill="#ffffff" stroke="none" x="456" y="240" width="105.82080078125" height="100"/></g><g transform="translate(-46,-78) scale(1,1)"><path fill="none" stroke="#000000" d="M 456 240 L 561.82080078125 240 L 561.82080078125 340 L 456 340 L 456 240 Z Z" stroke-miterlimit="10"/></g><g transform="translate(-46,-78) scale(1,1)"><path fill="none" stroke="#000000" d="M 456 265 L 561.82080078125 265" stroke-miterlimit="10"/></g><g transform="translate(-46,-78) scale(1,1)"><path fill="none" stroke="#000000" d="M 456 303 L 561.82080078125 303" stroke-miterlimit="10"/></g><g transform="translate(-46,-78) scale(1,1)"><g><path fill="none" stroke="none"/><text fill="#000000" stroke="none" font-family="Arial" font-size="13px" font-style="italic" font-weight="bold" text-decoration="none" x="467.025390625" y="259.5">DatabaseLinker</text></g></g><g transform="translate(-46,-78) scale(1,1)"><g><path fill="none" stroke="none"/><text fill="#000000" stroke="none" font-family="Arial" font-size="13px" font-style="normal" font-weight="normal" text-decoration="none" x="461" y="282.5">-daos</text></g></g><g transform="translate(-46,-78) scale(1,1)"><g><path fill="none" stroke="none"/><text fill="#000000" stroke="none" font-family="Arial" font-size="13px" font-style="normal" font-weight="normal" text-decoration="none" x="461" y="297.5">-usuario</text></g></g><g transform="translate(-46,-78) scale(1,1)"><g><path fill="none" stroke="none"/><text fill="#000000" stroke="none" font-family="Arial" font-size="13px" font-style="normal" font-weight="normal" text-decoration="none" x="461" y="320.5">+getDAO()</text></g></g><g transform="translate(-46,-78) scale(1,1)"><g><path fill="none" stroke="none"/><text fill="#000000" stroke="none" font-family="Arial" font-size="13px" font-style="normal" font-weight="normal" text-decoration="none" x="461" y="335.5">+getUsuario()</text></g></g><g transform="translate(-46,-78) scale(1,1)"><rect fill="#C0C0C0" stroke="none" x="223" y="551" width="117.36083984375" height="57" opacity="0.2"/></g><g transform="translate(-46,-78) scale(1,1)"><rect fill="#ffffff" stroke="none" x="216" y="544" width="117.36083984375" height="57"/></g><g transform="translate(-46,-78) scale(1,1)"><path fill="none" stroke="#000000" d="M 216 544 L 333.36083984375 544 L 333.36083984375 601 L 216 601 L 216 544 Z Z" stroke-miterlimit="10"/></g><g transform="translate(-46,-78) scale(1,1)"><path fill="none" stroke="#000000" d="M 216 569 L 333.36083984375 569" stroke-miterlimit="10"/></g><g transform="translate(-46,-78) scale(1,1)"><path fill="none" stroke="#000000" d="M 216 579 L 333.36083984375 579" stroke-miterlimit="10"/></g><g transform="translate(-46,-78) scale(1,1)"><g><path fill="none" stroke="none"/><text fill="#000000" stroke="none" font-family="Arial" font-size="13px" font-style="normal" font-weight="bold" text-decoration="none" x="225.187744140625" y="563.5">AccesoController</text></g></g><g transform="translate(-46,-78) scale(1,1)"><g><path fill="none" stroke="none"/><text fill="#000000" stroke="none" font-family="Arial" font-size="13px" font-style="normal" font-weight="normal" text-decoration="none" x="221" y="596.5">+iniciarSesion()</text></g></g><g transform="translate(-46,-78) scale(1,1)"><rect fill="#C0C0C0" stroke="none" x="367" y="567" width="123.841796875" height="57" opacity="0.2"/></g><g transform="translate(-46,-78) scale(1,1)"><rect fill="#ffffff" stroke="none" x="360" y="560" width="123.841796875" height="57"/></g><g transform="translate(-46,-78) scale(1,1)"><path fill="none" stroke="#000000" d="M 360 560 L 483.841796875 560 L 483.841796875 617 L 360 617 L 360 560 Z Z" stroke-miterlimit="10"/></g><g transform="translate(-46,-78) scale(1,1)"><path fill="none" stroke="#000000" d="M 360 585 L 483.841796875 585" stroke-miterlimit="10"/></g><g transform="translate(-46,-78) scale(1,1)"><path fill="none" stroke="#000000" d="M 360 595 L 483.841796875 595" stroke-miterlimit="10"/></g><g transform="translate(-46,-78) scale(1,1)"><g><path fill="none" stroke="none"/><text fill="#000000" stroke="none" font-family="Arial" font-size="13px" font-style="normal" font-weight="bold" text-decoration="none" x="369.905029296875" y="579.5">RexistroController</text></g></g><g transform="translate(-46,-78) scale(1,1)"><g><path fill="none" stroke="none"/><text fill="#000000" stroke="none" font-family="Arial" font-size="13px" font-style="normal" font-weight="normal" text-decoration="none" x="365" y="612.5">+rexistrarse()</text></g></g><g transform="translate(-46,-78) scale(1,1)"><rect fill="#C0C0C0" stroke="none" x="527" y="535" width="208.36083984375" height="72" opacity="0.2"/></g><g transform="translate(-46,-78) scale(1,1)"><rect fill="#ffffff" stroke="none" x="520" y="528" width="208.36083984375" height="72"/></g><g transform="translate(-46,-78) scale(1,1)"><path fill="none" stroke="#000000" d="M 520 528 L 728.36083984375 528 L 728.36083984375 600 L 520 600 L 520 528 Z Z" stroke-miterlimit="10"/></g><g transform="translate(-46,-78) scale(1,1)"><path fill="none" stroke="#000000" d="M 520 553 L 728.36083984375 553" stroke-miterlimit="10"/></g><g transform="translate(-46,-78) scale(1,1)"><path fill="none" stroke="#000000" d="M 520 563 L 728.36083984375 563" stroke-miterlimit="10"/></g><g transform="translate(-46,-78) scale(1,1)"><g><path fill="none" stroke="none"/><text fill="#000000" stroke="none" font-family="Arial" font-size="13px" font-style="normal" font-weight="bold" text-decoration="none" x="532.77099609375" y="547.5">ContrasinalEsquecidoController</text></g></g><g transform="translate(-46,-78) scale(1,1)"><g><path fill="none" stroke="none"/><text fill="#000000" stroke="none" font-family="Arial" font-size="13px" font-style="normal" font-weight="normal" text-decoration="none" x="525" y="580.5">+solicitarCambio()</text></g></g><g transform="translate(-46,-78) scale(1,1)"><g><path fill="none" stroke="none"/><text fill="#000000" stroke="none" font-family="Arial" font-size="13px" font-style="normal" font-weight="normal" text-decoration="none" x="525" y="595.5">+cambiarContrasinal()</text></g></g><g transform="translate(-46,-78) scale(1,1)"><path fill="none" stroke="#000000" d="M 298 543 L 466 341" stroke-miterlimit="10"/></g><g transform="translate(-46,-78) scale(1,1)"><path fill="#FFFFFF" stroke="none" d="M 459.47618536096826 362.0104698318613 L 466 341 L 446.5303207355121 351.24361212356115"/></g><g transform="translate(-46,-78) scale(1,1)"><path fill="none" stroke="#000000" d="M 459.47618536096826 362.0104698318613 L 466 341 L 446.5303207355121 351.24361212356115 L 459.47618536096826 362.0104698318613" stroke-miterlimit="10"/></g><g transform="translate(-46,-78) scale(1,1)"><path fill="none" stroke="#000000" d="M 429 559 L 493 341" stroke-miterlimit="10"/></g><g transform="translate(-46,-78) scale(1,1)"><path fill="#FFFFFF" stroke="none" d="M 495.35266959261855 362.87384158733823 L 493 341 L 479.19644690582476 358.13073033983915"/></g><g transform="translate(-46,-78) scale(1,1)"><path fill="none" stroke="#000000" d="M 495.35266959261855 362.87384158733823 L 493 341 L 479.19644690582476 358.13073033983915 L 495.35266959261855 362.87384158733823" stroke-miterlimit="10"/></g><g transform="translate(-46,-78) scale(1,1)"><path fill="none" stroke="#000000" d="M 608 527 L 530 341" stroke-miterlimit="10"/></g><g transform="translate(-46,-78) scale(1,1)"><path fill="#FFFFFF" stroke="none" d="M 545.6243421886213 356.4880576952976 L 530 341 L 530.0963676893998 362.9997889369066"/></g><g transform="translate(-46,-78) scale(1,1)"><path fill="none" stroke="#000000" d="M 545.6243421886213 356.4880576952976 L 530 341 L 530.0963676893998 362.9997889369066 L 545.6243421886213 356.4880576952976" stroke-miterlimit="10"/></g><g transform="translate(-46,-78) scale(1,1)"><rect fill="#C0C0C0" stroke="none" x="687" y="471" width="134.68994140625" height="57" opacity="0.2"/></g><g transform="translate(-46,-78) scale(1,1)"><rect fill="#ffffff" stroke="none" x="680" y="464" width="134.68994140625" height="57"/></g><g transform="translate(-46,-78) scale(1,1)"><path fill="none" stroke="#000000" d="M 680 464 L 814.68994140625 464 L 814.68994140625 521 L 680 521 L 680 464 Z Z" stroke-miterlimit="10"/></g><g transform="translate(-46,-78) scale(1,1)"><path fill="none" stroke="#000000" d="M 680 489 L 814.68994140625 489" stroke-miterlimit="10"/></g><g transform="translate(-46,-78) scale(1,1)"><path fill="none" stroke="#000000" d="M 680 499 L 814.68994140625 499" stroke-miterlimit="10"/></g><g transform="translate(-46,-78) scale(1,1)"><g><path fill="none" stroke="none"/><text fill="#000000" stroke="none" font-family="Arial" font-size="13px" font-style="normal" font-weight="bold" text-decoration="none" x="694.240478515625" y="483.5">PrincipalController</text></g></g><g transform="translate(-46,-78) scale(1,1)"><g><path fill="none" stroke="none"/><text fill="#000000" stroke="none" font-family="Arial" font-size="13px" font-style="normal" font-weight="normal" text-decoration="none" x="685" y="516.5">+enviarFeedback()</text></g></g><g transform="translate(-46,-78) scale(1,1)"><rect fill="#C0C0C0" stroke="none" x="743" y="367" width="114.84716796875" height="87" opacity="0.2"/></g><g transform="translate(-46,-78) scale(1,1)"><rect fill="#ffffff" stroke="none" x="736" y="360" width="114.84716796875" height="87"/></g><g transform="translate(-46,-78) scale(1,1)"><path fill="none" stroke="#000000" d="M 736 360 L 850.84716796875 360 L 850.84716796875 447 L 736 447 L 736 360 Z Z" stroke-miterlimit="10"/></g><g transform="translate(-46,-78) scale(1,1)"><path fill="none" stroke="#000000" d="M 736 385 L 850.84716796875 385" stroke-miterlimit="10"/></g><g transform="translate(-46,-78) scale(1,1)"><path fill="none" stroke="#000000" d="M 736 395 L 850.84716796875 395" stroke-miterlimit="10"/></g><g transform="translate(-46,-78) scale(1,1)"><g><path fill="none" stroke="none"/><text fill="#000000" stroke="none" font-family="Arial" font-size="13px" font-style="normal" font-weight="bold" text-decoration="none" x="750.437255859375" y="379.5">PerfilController</text></g></g><g transform="translate(-46,-78) scale(1,1)"><g><path fill="none" stroke="none"/><text fill="#000000" stroke="none" font-family="Arial" font-size="13px" font-style="normal" font-weight="normal" text-decoration="none" x="741" y="412.5">+verDatos()</text></g></g><g transform="translate(-46,-78) scale(1,1)"><g><path fill="none" stroke="none"/><text fill="#000000" stroke="none" font-family="Arial" font-size="13px" font-style="normal" font-weight="normal" text-decoration="none" x="741" y="427.5">+solicitarBaja()</text></g></g><g transform="translate(-46,-78) scale(1,1)"><g><path fill="none" stroke="none"/><text fill="#000000" stroke="none" font-family="Arial" font-size="13px" font-style="normal" font-weight="normal" text-decoration="none" x="741" y="442.5">+actualizarDatos()</text></g></g><g transform="translate(-46,-78) scale(1,1)"><rect fill="#C0C0C0" stroke="none" x="647" y="111" width="188.5625" height="87" opacity="0.2"/></g><g transform="translate(-46,-78) scale(1,1)"><rect fill="#ffffff" stroke="none" x="640" y="104" width="188.5625" height="87"/></g><g transform="translate(-46,-78) scale(1,1)"><path fill="none" stroke="#000000" d="M 640 104 L 828.5625 104 L 828.5625 191 L 640 191 L 640 104 Z Z" stroke-miterlimit="10"/></g><g transform="translate(-46,-78) scale(1,1)"><path fill="none" stroke="#000000" d="M 640 129 L 828.5625 129" stroke-miterlimit="10"/></g><g transform="translate(-46,-78) scale(1,1)"><path fill="none" stroke="#000000" d="M 640 139 L 828.5625 139" stroke-miterlimit="10"/></g><g transform="translate(-46,-78) scale(1,1)"><g><path fill="none" stroke="none"/><text fill="#000000" stroke="none" font-family="Arial" font-size="13px" font-style="normal" font-weight="bold" text-decoration="none" x="672.140869140625" y="123.5">DiagnosticoController</text></g></g><g transform="translate(-46,-78) scale(1,1)"><g><path fill="none" stroke="none"/><text fill="#000000" stroke="none" font-family="Arial" font-size="13px" font-style="normal" font-weight="normal" text-decoration="none" x="645" y="156.5">+comezarDiagnostico()</text></g></g><g transform="translate(-46,-78) scale(1,1)"><g><path fill="none" stroke="none"/><text fill="#000000" stroke="none" font-family="Arial" font-size="13px" font-style="normal" font-weight="normal" text-decoration="none" x="645" y="171.5">+recomendarMedicacionLeve()</text></g></g><g transform="translate(-46,-78) scale(1,1)"><g><path fill="none" stroke="none"/><text fill="#000000" stroke="none" font-family="Arial" font-size="13px" font-style="normal" font-weight="normal" text-decoration="none" x="645" y="186.5">+realizarPrediccion()</text></g></g><g transform="translate(-46,-78) scale(1,1)"><rect fill="#C0C0C0" stroke="none" x="423" y="95" width="173.35986328125" height="102" opacity="0.2"/></g><g transform="translate(-46,-78) scale(1,1)"><rect fill="#ffffff" stroke="none" x="416" y="88" width="173.35986328125" height="102"/></g><g transform="translate(-46,-78) scale(1,1)"><path fill="none" stroke="#000000" d="M 416 88 L 589.35986328125 88 L 589.35986328125 190 L 416 190 L 416 88 Z Z" stroke-miterlimit="10"/></g><g transform="translate(-46,-78) scale(1,1)"><path fill="none" stroke="#000000" d="M 416 113 L 589.35986328125 113" stroke-miterlimit="10"/></g><g transform="translate(-46,-78) scale(1,1)"><path fill="none" stroke="#000000" d="M 416 123 L 589.35986328125 123" stroke-miterlimit="10"/></g><g transform="translate(-46,-78) scale(1,1)"><g><path fill="none" stroke="none"/><text fill="#000000" stroke="none" font-family="Arial" font-size="13px" font-style="normal" font-weight="bold" text-decoration="none" x="451.02587890625" y="107.5">HistorialController</text></g></g><g transform="translate(-46,-78) scale(1,1)"><g><path fill="none" stroke="none"/><text fill="#000000" stroke="none" font-family="Arial" font-size="13px" font-style="normal" font-weight="normal" text-decoration="none" x="421" y="140.5">+verHistoricoMedicaciones()</text></g></g><g transform="translate(-46,-78) scale(1,1)"><g><path fill="none" stroke="none"/><text fill="#000000" stroke="none" font-family="Arial" font-size="13px" font-style="normal" font-weight="normal" text-decoration="none" x="421" y="155.5">+verHistoricoDiagnosticos()</text></g></g><g transform="translate(-46,-78) scale(1,1)"><g><path fill="none" stroke="none"/><text fill="#000000" stroke="none" font-family="Arial" font-size="13px" font-style="normal" font-weight="normal" text-decoration="none" x="421" y="170.5">+recomendarListaMedicos()</text></g></g><g transform="translate(-46,-78) scale(1,1)"><g><path fill="none" stroke="none"/><text fill="#000000" stroke="none" font-family="Arial" font-size="13px" font-style="normal" font-weight="normal" text-decoration="none" x="421" y="185.5">+indicarSatisfaccion()</text></g></g><g transform="translate(-46,-78) scale(1,1)"><rect fill="#C0C0C0" stroke="none" x="711" y="215" width="167.18359375" height="132" opacity="0.2"/></g><g transform="translate(-46,-78) scale(1,1)"><rect fill="#ffffff" stroke="none" x="704" y="208" width="167.18359375" height="132"/></g><g transform="translate(-46,-78) scale(1,1)"><path fill="none" stroke="#000000" d="M 704 208 L 871.18359375 208 L 871.18359375 340 L 704 340 L 704 208 Z Z" stroke-miterlimit="10"/></g><g transform="translate(-46,-78) scale(1,1)"><path fill="none" stroke="#000000" d="M 704 233 L 871.18359375 233" stroke-miterlimit="10"/></g><g transform="translate(-46,-78) scale(1,1)"><path fill="none" stroke="#000000" d="M 704 243 L 871.18359375 243" stroke-miterlimit="10"/></g><g transform="translate(-46,-78) scale(1,1)"><g><path fill="none" stroke="none"/><text fill="#000000" stroke="none" font-family="Arial" font-size="13px" font-style="normal" font-weight="bold" text-decoration="none" x="737.013671875" y="227.5">GestionController</text></g></g><g transform="translate(-46,-78) scale(1,1)"><g><path fill="none" stroke="none"/><text fill="#000000" stroke="none" font-family="Arial" font-size="13px" font-style="normal" font-weight="normal" text-decoration="none" x="709" y="260.5">+confirmarUsuario()</text></g></g><g transform="translate(-46,-78) scale(1,1)"><g><path fill="none" stroke="none"/><text fill="#000000" stroke="none" font-family="Arial" font-size="13px" font-style="normal" font-weight="normal" text-decoration="none" x="709" y="275.5">+borrarUsuario()</text></g></g><g transform="translate(-46,-78) scale(1,1)"><g><path fill="none" stroke="none"/><text fill="#000000" stroke="none" font-family="Arial" font-size="13px" font-style="normal" font-weight="normal" text-decoration="none" x="709" y="290.5">+novaMedicacion()</text></g></g><g transform="translate(-46,-78) scale(1,1)"><g><path fill="none" stroke="none"/><text fill="#000000" stroke="none" font-family="Arial" font-size="13px" font-style="normal" font-weight="normal" text-decoration="none" x="709" y="305.5">+eliminarMedicacion()</text></g></g><g transform="translate(-46,-78) scale(1,1)"><g><path fill="none" stroke="none"/><text fill="#000000" stroke="none" font-family="Arial" font-size="13px" font-style="normal" font-weight="normal" text-decoration="none" x="709" y="320.5">+novoSintoma()</text></g></g><g transform="translate(-46,-78) scale(1,1)"><g><path fill="none" stroke="none"/><text fill="#000000" stroke="none" font-family="Arial" font-size="13px" font-style="normal" font-weight="normal" text-decoration="none" x="709" y="335.5">+eliminarSintoma()</text></g></g><g transform="translate(-46,-78) scale(1,1)"><rect fill="#C0C0C0" stroke="none" x="231" y="135" width="128.5771484375" height="87" opacity="0.2"/></g><g transform="translate(-46,-78) scale(1,1)"><rect fill="#ffffff" stroke="none" x="224" y="128" width="128.5771484375" height="87"/></g><g transform="translate(-46,-78) scale(1,1)"><path fill="none" stroke="#000000" d="M 224 128 L 352.5771484375 128 L 352.5771484375 215 L 224 215 L 224 128 Z Z" stroke-miterlimit="10"/></g><g transform="translate(-46,-78) scale(1,1)"><path fill="none" stroke="#000000" d="M 224 153 L 352.5771484375 153" stroke-miterlimit="10"/></g><g transform="translate(-46,-78) scale(1,1)"><path fill="none" stroke="#000000" d="M 224 163 L 352.5771484375 163" stroke-miterlimit="10"/></g><g transform="translate(-46,-78) scale(1,1)"><g><path fill="none" stroke="none"/><text fill="#000000" stroke="none" font-family="Arial" font-size="13px" font-style="normal" font-weight="bold" text-decoration="none" x="245.30224609375" y="147.5">CitasController</text></g></g><g transform="translate(-46,-78) scale(1,1)"><g><path fill="none" stroke="none"/><text fill="#000000" stroke="none" font-family="Arial" font-size="13px" font-style="normal" font-weight="normal" text-decoration="none" x="229" y="180.5">+accederDatosCita()</text></g></g><g transform="translate(-46,-78) scale(1,1)"><g><path fill="none" stroke="none"/><text fill="#000000" stroke="none" font-family="Arial" font-size="13px" font-style="normal" font-weight="normal" text-decoration="none" x="229" y="195.5">+aceptarCita()</text></g></g><g transform="translate(-46,-78) scale(1,1)"><g><path fill="none" stroke="none"/><text fill="#000000" stroke="none" font-family="Arial" font-size="13px" font-style="normal" font-weight="normal" text-decoration="none" x="229" y="210.5">+rexeitarCita()</text></g></g><g transform="translate(-46,-78) scale(1,1)"><rect fill="#C0C0C0" stroke="none" x="95" y="279" width="191.75537109375" height="72" opacity="0.2"/></g><g transform="translate(-46,-78) scale(1,1)"><rect fill="#ffffff" stroke="none" x="88" y="272" width="191.75537109375" height="72"/></g><g transform="translate(-46,-78) scale(1,1)"><path fill="none" stroke="#000000" d="M 88 272 L 279.75537109375 272 L 279.75537109375 344 L 88 344 L 88 272 Z Z" stroke-miterlimit="10"/></g><g transform="translate(-46,-78) scale(1,1)"><path fill="none" stroke="#000000" d="M 88 297 L 279.75537109375 297" stroke-miterlimit="10"/></g><g transform="translate(-46,-78) scale(1,1)"><path fill="none" stroke="#000000" d="M 88 307 L 279.75537109375 307" stroke-miterlimit="10"/></g><g transform="translate(-46,-78) scale(1,1)"><g><path fill="none" stroke="none"/><text fill="#000000" stroke="none" font-family="Arial" font-size="13px" font-style="normal" font-weight="bold" text-decoration="none" x="98.965087890625" y="291.5">DoentesPendientesController</text></g></g><g transform="translate(-46,-78) scale(1,1)"><g><path fill="none" stroke="none"/><text fill="#000000" stroke="none" font-family="Arial" font-size="13px" font-style="normal" font-weight="normal" text-decoration="none" x="93" y="324.5">+aceptarDoente()</text></g></g><g transform="translate(-46,-78) scale(1,1)"><g><path fill="none" stroke="none"/><text fill="#000000" stroke="none" font-family="Arial" font-size="13px" font-style="normal" font-weight="normal" text-decoration="none" x="93" y="339.5">+rexeitarDoente()</text></g></g><g transform="translate(-46,-78) scale(1,1)"><rect fill="#C0C0C0" stroke="none" x="63" y="415" width="230.76806640625" height="70" opacity="0.2"/></g><g transform="translate(-46,-78) scale(1,1)"><rect fill="#ffffff" stroke="none" x="56" y="408" width="230.76806640625" height="70"/></g><g transform="translate(-46,-78) scale(1,1)"><path fill="none" stroke="#000000" d="M 56 408 L 286.76806640625 408 L 286.76806640625 478 L 56 478 L 56 408 Z Z" stroke-miterlimit="10"/></g><g transform="translate(-46,-78) scale(1,1)"><path fill="none" stroke="#000000" d="M 56 433 L 286.76806640625 433" stroke-miterlimit="10"/></g><g transform="translate(-46,-78) scale(1,1)"><path fill="none" stroke="#000000" d="M 56 456 L 286.76806640625 456" stroke-miterlimit="10"/></g><g transform="translate(-46,-78) scale(1,1)"><g><path fill="none" stroke="none"/><text fill="#000000" stroke="none" font-family="Arial" font-size="13px" font-style="normal" font-weight="bold" text-decoration="none" x="108.161376953125" y="427.5">SatisfaccionController</text></g></g><g transform="translate(-46,-78) scale(1,1)"><g><path fill="none" stroke="none"/><text fill="#000000" stroke="none" font-family="Arial" font-size="13px" font-style="normal" font-weight="normal" text-decoration="none" x="61" y="450.5">-tipoSatisfaccion</text></g></g><g transform="translate(-46,-78) scale(1,1)"><g><path fill="none" stroke="none"/><text fill="#000000" stroke="none" font-family="Arial" font-size="13px" font-style="normal" font-weight="normal" text-decoration="none" x="61" y="473.5">+gardarSatisfaccion()</text></g></g><g transform="translate(-46,-78) scale(1,1)"><path fill="none" stroke="#000000" d="M 281 303 L 455 293" stroke-miterlimit="10"/></g><g transform="translate(-46,-78) scale(1,1)"><path fill="#FFFFFF" stroke="none" d="M 435.1911896497065 302.5713652373162 L 455 293 L 434.2250786095497 285.76103313858863"/></g><g transform="translate(-46,-78) scale(1,1)"><path fill="none" stroke="#000000" d="M 435.1911896497065 302.5713652373162 L 455 293 L 434.2250786095497 285.76103313858863 L 435.1911896497065 302.5713652373162" stroke-miterlimit="10"/></g><g transform="translate(-46,-78) scale(1,1)"><path fill="none" stroke="#000000" d="M 504 191 L 506 239" stroke-miterlimit="10"/></g><g transform="translate(-46,-78) scale(1,1)"><path fill="#FFFFFF" stroke="none" d="M 496.7421077962785 219.04275991164428 L 506 239 L 513.5655814434988 218.3417818430101"/></g><g transform="translate(-46,-78) scale(1,1)"><path fill="none" stroke="#000000" d="M 496.7421077962785 219.04275991164428 L 506 239 L 513.5655814434988 218.3417818430101 L 496.7421077962785 219.04275991164428" stroke-miterlimit="10"/></g><g transform="translate(-46,-78) scale(1,1)"><path fill="none" stroke="#000000" d="M 663 192 L 563 255" stroke-miterlimit="10"/></g><g transform="translate(-46,-78) scale(1,1)"><path fill="#FFFFFF" stroke="none" d="M 575.7094430370632 237.04254868619591 L 563 255 L 584.6847689534297 251.28909775979346"/></g><g transform="translate(-46,-78) scale(1,1)"><path fill="none" stroke="#000000" d="M 575.7094430370632 237.04254868619591 L 563 255 L 584.6847689534297 251.28909775979346 L 575.7094430370632 237.04254868619591" stroke-miterlimit="10"/></g><g transform="translate(-46,-78) scale(1,1)"><path fill="none" stroke="#000000" d="M 703 279 L 563 287" stroke-miterlimit="10"/></g><g transform="translate(-46,-78) scale(1,1)"><path fill="#FFFFFF" stroke="none" d="M 582.8119423053487 277.43511933741286 L 563 287 L 583.7725507303442 294.24576677483327"/></g><g transform="translate(-46,-78) scale(1,1)"><path fill="none" stroke="#000000" d="M 582.8119423053487 277.43511933741286 L 563 287 L 583.7725507303442 294.24576677483327 L 582.8119423053487 277.43511933741286" stroke-miterlimit="10"/></g><g transform="translate(-46,-78) scale(1,1)"><path fill="none" stroke="#000000" d="M 735 380 L 563 312" stroke-miterlimit="10"/></g><g transform="translate(-46,-78) scale(1,1)"><path fill="#FFFFFF" stroke="none" d="M 584.9971101049088 311.643423174448 L 563 312 L 578.8064436130499 327.3021678303263"/></g><g transform="translate(-46,-78) scale(1,1)"><path fill="none" stroke="#000000" d="M 584.9971101049088 311.643423174448 L 563 312 L 578.8064436130499 327.3021678303263 L 584.9971101049088 311.643423174448" stroke-miterlimit="10"/></g><g transform="translate(-46,-78) scale(1,1)"><path fill="none" stroke="#000000" d="M 713 463 L 563 336" stroke-miterlimit="10"/></g><g transform="translate(-46,-78) scale(1,1)"><path fill="#FFFFFF" stroke="none" d="M 583.9523005545265 342.7082860309315 L 563 336 L 573.0720392609536 355.55898834617494"/></g><g transform="translate(-46,-78) scale(1,1)"><path fill="none" stroke="#000000" d="M 583.9523005545265 342.7082860309315 L 563 336 L 573.0720392609536 355.55898834617494 L 583.9523005545265 342.7082860309315" stroke-miterlimit="10"/></g><g transform="translate(-46,-78) scale(1,1)"><path fill="none" stroke="#000000" d="M 354 206 L 455 261" stroke-miterlimit="10"/></g><g transform="translate(-46,-78) scale(1,1)"><path fill="#FFFFFF" stroke="none" d="M 433.1233725180162 258.67337798202834 L 455 261 L 441.17605856416293 243.88571815183158"/></g><g transform="translate(-46,-78) scale(1,1)"><path fill="none" stroke="#000000" d="M 433.1233725180162 258.67337798202834 L 455 261 L 441.17605856416293 243.88571815183158 L 433.1233725180162 258.67337798202834" stroke-miterlimit="10"/></g><g transform="translate(-46,-78) scale(1,1)"><path fill="none" stroke="#000000" d="M 250 407 L 455 314" stroke-miterlimit="10"/></g><g transform="translate(-46,-78) scale(1,1)"><path fill="#FFFFFF" stroke="none" d="M 439.9684887985825 330.06404902263625 L 455 314 L 433.0121185007769 314.73011449521533"/></g><g transform="translate(-46,-78) scale(1,1)"><path fill="none" stroke="#000000" d="M 439.9684887985825 330.06404902263625 L 455 314 L 433.0121185007769 314.73011449521533 L 439.9684887985825 330.06404902263625" stroke-miterlimit="10"/></g></g></svg>