<svg version="1.1" xmlns="http://www.w3.org/2000/svg" xmlns:xlink="http://www.w3.org/1999/xlink" width="1316.87158203125" height="977"><defs/><g><g transform="translate(-517,-454) scale(1,1)"><path fill="#C0C0C0" stroke="none" d="M 1015 784.5 L 1026.5 775 L 1037 784.5 L 1026.5 793 L 1015 784.5" opacity="0.2"/></g><g transform="translate(-517,-454) scale(1,1)"><path fill="#ffffff" stroke="none" d="M 1008 777 L 1019 768 L 1030 777 L 1019 786 L 1008 777"/></g><g transform="translate(-517,-454) scale(1,1)"><path fill="none" stroke="#000000" d="M 1008 777 L 1019 768 L 1030 777 L 1019 786 L 1008 777 L 1008 777" stroke-miterlimit="10"/></g><g transform="translate(-517,-454) scale(1,1)"><path fill="#C0C0C0" stroke="none" d="M 562 751 L 562 804 L 708.5 804 L 722 778 L 708.5 751" opacity="0.2"/></g><g transform="translate(-517,-454) scale(1,1)"><path fill="#d8f2ff" stroke="none" d="M 555 744 L 555 797 L 701.5 797 L 715 771 L 701.5 744"/></g><g transform="translate(-517,-454) scale(1,1)"><path fill="none" stroke="#000000" d="M 555 744 L 555 797 L 701.5 797 L 715 771 L 701.5 744 L 555 744" stroke-miterlimit="10"/></g><g transform="translate(-517,-454) scale(1,1)"><g><path fill="none" stroke="none"/><text fill="#000000" stroke="none" font-family="Arial" font-size="13px" font-style="normal" font-weight="bold" text-decoration="none" x="580.8037109375" y="763.5">Introducir nome de</text><text fill="#000000" stroke="none" font-family="Arial" font-size="13px" font-style="normal" font-weight="bold" text-decoration="none" x="575.02099609375" y="776.5">usuario e contrasinal</text></g></g><g transform="translate(-517,-454) scale(1,1)"><path fill="none" stroke="#000000" d="M 1017 484 L 1018 519" stroke-miterlimit="10"/></g><g transform="translate(-517,-454) scale(1,1)"><path fill="none" stroke="#000000" d="M 1013.5019556671291 508.96169351038094 L 1018 519 L 1021.9175569405878 508.7212477597107" stroke-miterlimit="10"/></g><g transform="translate(-517,-454) scale(1,1)"><path fill="none" stroke="#000000" d="M 1007 777 L 716 771" stroke-miterlimit="10"/></g><g transform="translate(-517,-454) scale(1,1)"><path fill="none" stroke="#000000" d="M 726.2472910804144 767.0008719058699 L 716 771 L 726.0737396059465 775.4181184175603" stroke-miterlimit="10"/></g><g transform="translate(-517,-454) scale(1,1)"><g><path fill="none" stroke="none"/><text fill="#000000" stroke="none" font-family="Arial" font-size="13px" font-style="normal" font-weight="normal" text-decoration="none" x="801.885009765625" y="760.5">[Pulsa login]</text></g></g><g transform="translate(-517,-454) scale(1,1)"><path fill="#C0C0C0" stroke="none" d="M 1190 711 L 1190 764 L 1464.5 764 L 1478 738 L 1464.5 711" opacity="0.2"/></g><g transform="translate(-517,-454) scale(1,1)"><path fill="#d8f2ff" stroke="none" d="M 1183 704 L 1183 757 L 1457.5 757 L 1471 731 L 1457.5 704"/></g><g transform="translate(-517,-454) scale(1,1)"><path fill="none" stroke="#000000" d="M 1183 704 L 1183 757 L 1457.5 757 L 1471 731 L 1457.5 704 L 1183 704" stroke-miterlimit="10"/></g><g transform="translate(-517,-454) scale(1,1)"><g><path fill="none" stroke="none"/><text fill="#000000" stroke="none" font-family="Arial" font-size="13px" font-style="normal" font-weight="bold" text-decoration="none" x="1250.04736328125" y="723.5">Introducir datos de rexistro</text></g></g><g transform="translate(-517,-454) scale(1,1)"><path fill="none" stroke="#000000" d="M 1031 775 L 1182 752" stroke-miterlimit="10"/></g><g transform="translate(-517,-454) scale(1,1)"><path fill="none" stroke="#000000" d="M 1172.5870772384333 757.6918261643148 L 1182 752 L 1171.319329606389 749.3687873626329" stroke-miterlimit="10"/></g><g transform="translate(-517,-454) scale(1,1)"><g><path fill="none" stroke="none"/><text fill="#000000" stroke="none" font-family="Arial" font-size="13px" font-style="normal" font-weight="normal" text-decoration="none" x="1074.5" y="747.5">[Pulsa rexistro]</text></g></g><g transform="translate(-517,-454) scale(1,1)"><path fill="#C0C0C0" stroke="none" d="M 544 1375 L 740 1375 Q 750 1375 750 1385 L 750 1418 Q 750 1428 740 1428 L 544 1428 Q 534 1428 534 1418 L 534 1385 Q 534 1375 544 1375 Z" opacity="0.2"/></g><g transform="translate(-517,-454) scale(1,1)"><path fill="#d8f2ff" stroke="none" d="M 537 1368 L 733 1368 Q 743 1368 743 1378 L 743 1411 Q 743 1421 733 1421 L 537 1421 Q 527 1421 527 1411 L 527 1378 Q 527 1368 537 1368 Z"/></g><g transform="translate(-517,-454) scale(1,1)"><path fill="none" stroke="#000000" d="M 537 1368 L 733 1368 Q 743 1368 743 1378 L 743 1411 Q 743 1421 733 1421 L 537 1421 Q 527 1421 527 1411 L 527 1378 Q 527 1368 537 1368 Z" stroke-miterlimit="10"/></g><g transform="translate(-517,-454) scale(1,1)"><g><path fill="none" stroke="none"/><text fill="#000000" stroke="none" font-family="Arial" font-size="13px" font-style="normal" font-weight="bold" text-decoration="none" x="558.761474609375" y="1387.5">Acceder a p치xina principal</text></g></g><g transform="translate(-517,-454) scale(1,1)"><path fill="#C0C0C0" stroke="none" d="M 807 1395.5 C 807 1388.59644 812.59644 1383 819.5 1383 C 826.40356 1383 832 1388.59644 832 1395.5 C 832 1402.40356 826.40356 1408 819.5 1408 C 812.59644 1408 807 1402.40356 807 1395.5 Z" opacity="0.2"/></g><g transform="translate(-517,-454) scale(1,1)"><path fill="none" stroke="#000000" d="M 800 1388.5 C 800 1381.59644 805.59644 1376 812.5 1376 C 819.40356 1376 825 1381.59644 825 1388.5 C 825 1395.40356 819.40356 1401 812.5 1401 C 805.59644 1401 800 1395.40356 800 1388.5 Z" stroke-miterlimit="10"/></g><g transform="translate(-517,-454) scale(1,1)"><path fill="#000000" stroke="none" d="M 805 1388.5 C 805 1384.357864 808.357864 1381 812.5 1381 C 816.642136 1381 820 1384.357864 820 1388.5 C 820 1392.642136 816.642136 1396 812.5 1396 C 808.357864 1396 805 1392.642136 805 1388.5 Z"/></g><g transform="translate(-517,-454) scale(1,1)"><path fill="none" stroke="#000000" d="M 744 1390 L 799 1388" stroke-miterlimit="10"/></g><g transform="translate(-517,-454) scale(1,1)"><path fill="none" stroke="#000000" d="M 788.9970098776579 1392.5760450841667 L 799 1388 L 788.6910653423201 1384.1625703623795" stroke-miterlimit="10"/></g><g transform="translate(-517,-454) scale(1,1)"><path fill="#C0C0C0" stroke="none" d="M 631 968.5 L 642.5 959 L 653 968.5 L 642.5 977 L 631 968.5" opacity="0.2"/></g><g transform="translate(-517,-454) scale(1,1)"><path fill="#ffffff" stroke="none" d="M 624 961 L 635 952 L 646 961 L 635 970 L 624 961"/></g><g transform="translate(-517,-454) scale(1,1)"><path fill="none" stroke="#000000" d="M 624 961 L 635 952 L 646 961 L 635 970 L 624 961 L 624 961" stroke-miterlimit="10"/></g><g transform="translate(-517,-454) scale(1,1)"><path fill="none" stroke="#000000" d="M 635 798 L 635 855" stroke-miterlimit="10"/></g><g transform="translate(-517,-454) scale(1,1)"><path fill="none" stroke="#000000" d="M 630.790482243984 844.8373251423759 L 635 855 L 639.209517756016 844.8373251423759" stroke-miterlimit="10"/></g><g transform="translate(-517,-454) scale(1,1)"><path fill="none" stroke="#000000" d="M 647 967 L 919 1095" stroke-miterlimit="10"/></g><g transform="translate(-517,-454) scale(1,1)"><path fill="none" stroke="#000000" d="M 908.0122215395443 1094.4816135573299 L 919 1095 L 911.5970219093234 1086.863912771549" stroke-miterlimit="10"/></g><g transform="translate(-517,-454) scale(1,1)"><g><path fill="none" stroke="none"/><text fill="#000000" stroke="none" font-family="Arial" font-size="13px" font-style="normal" font-weight="normal" text-decoration="none" x="765.236572265625" y="1052.5">[no]</text></g></g><g transform="translate(-517,-454) scale(1,1)"><path fill="#C0C0C0" stroke="none" d="M 1323 920.5 L 1334.5 911 L 1345 920.5 L 1334.5 929 L 1323 920.5" opacity="0.2"/></g><g transform="translate(-517,-454) scale(1,1)"><path fill="#ffffff" stroke="none" d="M 1316 913 L 1327 904 L 1338 913 L 1327 922 L 1316 913"/></g><g transform="translate(-517,-454) scale(1,1)"><path fill="none" stroke="#000000" d="M 1316 913 L 1327 904 L 1338 913 L 1327 922 L 1316 913 L 1316 913" stroke-miterlimit="10"/></g><g transform="translate(-517,-454) scale(1,1)"><path fill="none" stroke="#000000" d="M 1327 758 L 1327 815" stroke-miterlimit="10"/></g><g transform="translate(-517,-454) scale(1,1)"><path fill="none" stroke="#000000" d="M 1322.7904822439841 804.8373251423759 L 1327 815 L 1331.2095177560159 804.8373251423759" stroke-miterlimit="10"/></g><g transform="translate(-517,-454) scale(1,1)"><path fill="none" stroke="#000000" d="M 1339 919 L 1636 1063" stroke-miterlimit="10"/></g><g transform="translate(-517,-454) scale(1,1)"><path fill="none" stroke="#000000" d="M 1625.018980724089 1062.354077665604 L 1636 1063 L 1628.6919828684343 1054.778510742892" stroke-miterlimit="10"/></g><g transform="translate(-517,-454) scale(1,1)"><g><path fill="none" stroke="none"/><text fill="#000000" stroke="none" font-family="Arial" font-size="13px" font-style="normal" font-weight="normal" text-decoration="none" x="1492.427490234375" y="1024.5">[no]</text></g></g><g transform="translate(-517,-454) scale(1,1)"><path fill="none" stroke="#000000" d="M 1658 1063 L 1355 758" stroke-miterlimit="10"/></g><g transform="translate(-517,-454) scale(1,1)"><path fill="none" stroke="#000000" d="M 1365.148772851797 762.2429246520095 L 1355 758 L 1359.176065310728 768.176466897727" stroke-miterlimit="10"/></g><g transform="translate(-517,-454) scale(1,1)"><path fill="none" stroke="#000000" d="M 1312 1319 L 1200 1160 L 1026 673" stroke-miterlimit="10"/></g><g transform="translate(-517,-454) scale(1,1)"><path fill="none" stroke="#000000" d="M 1033.383417399828 681.153842499087 L 1026 673 L 1025.4552271879177 683.9865018355806" stroke-miterlimit="10"/></g><g transform="translate(-517,-454) scale(1,1)"><path fill="none" stroke="#000000" d="M 1327 1267 L 1327 1319" stroke-miterlimit="10"/></g><g transform="translate(-517,-454) scale(1,1)"><path fill="none" stroke="#000000" d="M 1322.7904822439841 1308.837325142376 L 1327 1319 L 1331.2095177560159 1308.837325142376" stroke-miterlimit="10"/></g><g transform="translate(-517,-454) scale(1,1)"><g><path fill="none" stroke="none"/><text fill="#000000" stroke="none" font-family="Arial" font-size="13px" font-style="normal" font-weight="normal" text-decoration="none" x="1332.858642578125" y="1298.5">[si]</text></g></g><g transform="translate(-517,-454) scale(1,1)"><path fill="#C0C0C0" stroke="none" d="M 937 527 L 1114.59521484375 527 Q 1124.59521484375 527 1124.59521484375 537 L 1124.59521484375 570 Q 1124.59521484375 580 1114.59521484375 580 L 937 580 Q 927 580 927 570 L 927 537 Q 927 527 937 527 Z" opacity="0.2"/></g><g transform="translate(-517,-454) scale(1,1)"><path fill="#d8f2ff" stroke="none" d="M 930 520 L 1107.59521484375 520 Q 1117.59521484375 520 1117.59521484375 530 L 1117.59521484375 563 Q 1117.59521484375 573 1107.59521484375 573 L 930 573 Q 920 573 920 563 L 920 530 Q 920 520 930 520 Z"/></g><g transform="translate(-517,-454) scale(1,1)"><path fill="none" stroke="#000000" d="M 930 520 L 1107.59521484375 520 Q 1117.59521484375 520 1117.59521484375 530 L 1117.59521484375 563 Q 1117.59521484375 573 1107.59521484375 573 L 930 573 Q 920 573 920 563 L 920 530 Q 920 520 930 520 Z" stroke-miterlimit="10"/></g><g transform="translate(-517,-454) scale(1,1)"><g><path fill="none" stroke="none"/><text fill="#000000" stroke="none" font-family="Arial" font-size="13px" font-style="normal" font-weight="bold" text-decoration="none" x="948.338623046875" y="539.5">Acceder p치xina de inicio</text></g></g><g transform="translate(-517,-454) scale(1,1)"><path fill="#C0C0C0" stroke="none" d="M 1015 480.5 C 1015 475.2532944 1019.2532944 471 1024.5 471 C 1029.7467056 471 1034 475.2532944 1034 480.5 C 1034 485.7467056 1029.7467056 490 1024.5 490 C 1019.2532944 490 1015 485.7467056 1015 480.5 Z" opacity="0.2"/></g><g transform="translate(-517,-454) scale(1,1)"><path fill="#000000" stroke="none" d="M 1008 473.5 C 1008 468.2532944 1012.2532944 464 1017.5 464 C 1022.7467056 464 1027 468.2532944 1027 473.5 C 1027 478.7467056 1022.7467056 483 1017.5 483 C 1012.2532944 483 1008 478.7467056 1008 473.5 Z"/></g><g transform="translate(-517,-454) scale(1,1)"><path fill="#C0C0C0" stroke="none" d="M 911 639 L 911 679 L 1130.08984375 679 L 1140.33984375 659.5 L 1130.08984375 639" opacity="0.2"/></g><g transform="translate(-517,-454) scale(1,1)"><path fill="#ffd8d8" stroke="none" d="M 904 632 L 904 672 L 1123.08984375 672 L 1133.33984375 652.5 L 1123.08984375 632"/></g><g transform="translate(-517,-454) scale(1,1)"><path fill="none" stroke="#000000" d="M 904 632 L 904 672 L 1123.08984375 672 L 1133.33984375 652.5 L 1123.08984375 632 L 904 632" stroke-miterlimit="10"/></g><g transform="translate(-517,-454) scale(1,1)"><g><path fill="none" stroke="none"/><text fill="#000000" stroke="none" font-family="Arial" font-size="13px" font-style="normal" font-weight="bold" text-decoration="none" x="917.87548828125" y="651.5">Amosar opci칩ns de inicio e rexistro</text></g></g><g transform="translate(-517,-454) scale(1,1)"><path fill="none" stroke="#000000" d="M 1018 574 L 1018 631" stroke-miterlimit="10"/></g><g transform="translate(-517,-454) scale(1,1)"><path fill="none" stroke="#000000" d="M 1013.790482243984 620.8373251423759 L 1018 631 L 1022.209517756016 620.8373251423759" stroke-miterlimit="10"/></g><g transform="translate(-517,-454) scale(1,1)"><path fill="none" stroke="#000000" d="M 1018 673 L 1019 767" stroke-miterlimit="10"/></g><g transform="translate(-517,-454) scale(1,1)"><path fill="none" stroke="#000000" d="M 1014.6826129814013 756.8826797356397 L 1019 767 L 1023.1011721285073 756.7931205957768" stroke-miterlimit="10"/></g><g transform="translate(-517,-454) scale(1,1)"><path fill="none" stroke="#000000" d="M 966 1095 L 1016 673" stroke-miterlimit="10"/></g><g transform="translate(-517,-454) scale(1,1)"><path fill="none" stroke="#000000" d="M 1018.9845334545337 683.5873773928565 L 1016 673 L 1010.6239774949089 682.5967901938488" stroke-miterlimit="10"/></g><g transform="translate(-517,-454) scale(1,1)"><path fill="none" stroke="#000000" d="M 635 971 L 635 1031" stroke-miterlimit="10"/></g><g transform="translate(-517,-454) scale(1,1)"><path fill="none" stroke="#000000" d="M 630.790482243984 1020.8373251423759 L 635 1031 L 639.209517756016 1020.8373251423759" stroke-miterlimit="10"/></g><g transform="translate(-517,-454) scale(1,1)"><g><path fill="none" stroke="none"/><text fill="#000000" stroke="none" font-family="Arial" font-size="13px" font-style="normal" font-weight="normal" text-decoration="none" x="614.858642578125" y="1003.5">[si]</text></g></g><g transform="translate(-517,-454) scale(1,1)"><path fill="#C0C0C0" stroke="none" d="M 799 1103 L 799 1143 L 1134.43603515625 1143 L 1144.68603515625 1123.5 L 1134.43603515625 1103" opacity="0.2"/></g><g transform="translate(-517,-454) scale(1,1)"><path fill="#ffd8d8" stroke="none" d="M 792 1096 L 792 1136 L 1127.43603515625 1136 L 1137.68603515625 1116.5 L 1127.43603515625 1096"/></g><g transform="translate(-517,-454) scale(1,1)"><path fill="none" stroke="#000000" d="M 792 1096 L 792 1136 L 1127.43603515625 1136 L 1137.68603515625 1116.5 L 1127.43603515625 1096 L 792 1096" stroke-miterlimit="10"/></g><g transform="translate(-517,-454) scale(1,1)"><g><path fill="none" stroke="none"/><text fill="#000000" stroke="none" font-family="Arial" font-size="13px" font-style="normal" font-weight="bold" text-decoration="none" x="837.30908203125" y="1115.5">Amosar erro de datos de acceso incorrectos</text></g></g><g transform="translate(-517,-454) scale(1,1)"><path fill="#C0C0C0" stroke="none" d="M 1265 1327 L 1265 1367 L 1393.7880859375 1367 L 1404.0380859375 1347.5 L 1393.7880859375 1327" opacity="0.2"/></g><g transform="translate(-517,-454) scale(1,1)"><path fill="#ffd8d8" stroke="none" d="M 1258 1320 L 1258 1360 L 1386.7880859375 1360 L 1397.0380859375 1340.5 L 1386.7880859375 1320"/></g><g transform="translate(-517,-454) scale(1,1)"><path fill="none" stroke="#000000" d="M 1258 1320 L 1258 1360 L 1386.7880859375 1360 L 1397.0380859375 1340.5 L 1386.7880859375 1320 L 1258 1320" stroke-miterlimit="10"/></g><g transform="translate(-517,-454) scale(1,1)"><g><path fill="none" stroke="none"/><text fill="#000000" stroke="none" font-family="Arial" font-size="13px" font-style="normal" font-weight="bold" text-decoration="none" x="1266.4609375" y="1339.5">Enviar os datos 치 BD</text></g></g><g transform="translate(-517,-454) scale(1,1)"><path fill="#C0C0C0" stroke="none" d="M 1543 1071 L 1543 1111 L 1820.62158203125 1111 L 1830.87158203125 1091.5 L 1820.62158203125 1071" opacity="0.2"/></g><g transform="translate(-517,-454) scale(1,1)"><path fill="#ffd8d8" stroke="none" d="M 1536 1064 L 1536 1104 L 1813.62158203125 1104 L 1823.87158203125 1084.5 L 1813.62158203125 1064"/></g><g transform="translate(-517,-454) scale(1,1)"><path fill="none" stroke="#000000" d="M 1536 1064 L 1536 1104 L 1813.62158203125 1104 L 1823.87158203125 1084.5 L 1813.62158203125 1064 L 1536 1064" stroke-miterlimit="10"/></g><g transform="translate(-517,-454) scale(1,1)"><g><path fill="none" stroke="none"/><text fill="#000000" stroke="none" font-family="Arial" font-size="13px" font-style="normal" font-weight="bold" text-decoration="none" x="1551.687744140625" y="1083.5">Amosar erro de datos de rexistro incorrectos</text></g></g><g transform="translate(-517,-454) scale(1,1)"><path fill="#C0C0C0" stroke="none" d="M 574 863 L 711.814453125 863 Q 721.814453125 863 721.814453125 873 L 721.814453125 893 Q 721.814453125 903 711.814453125 903 L 574 903 Q 564 903 564 893 L 564 873 Q 564 863 574 863 Z" opacity="0.2"/></g><g transform="translate(-517,-454) scale(1,1)"><path fill="#ffd8d8" stroke="none" d="M 567 856 L 704.814453125 856 Q 714.814453125 856 714.814453125 866 L 714.814453125 886 Q 714.814453125 896 704.814453125 896 L 567 896 Q 557 896 557 886 L 557 866 Q 557 856 567 856 Z"/></g><g transform="translate(-517,-454) scale(1,1)"><path fill="none" stroke="#000000" d="M 567 856 L 704.814453125 856 Q 714.814453125 856 714.814453125 866 L 714.814453125 886 Q 714.814453125 896 704.814453125 896 L 567 896 Q 557 896 557 886 L 557 866 Q 557 856 567 856 Z" stroke-miterlimit="10"/></g><g transform="translate(-517,-454) scale(1,1)"><g><path fill="none" stroke="none"/><text fill="#000000" stroke="none" font-family="Arial" font-size="13px" font-style="normal" font-weight="bold" text-decoration="none" x="566.543212890625" y="875.5">Comprobar existe nome</text></g></g><g transform="translate(-517,-454) scale(1,1)"><path fill="none" stroke="#000000" d="M 635 897 L 635 951" stroke-miterlimit="10"/></g><g transform="translate(-517,-454) scale(1,1)"><path fill="none" stroke="#000000" d="M 630.790482243984 940.8373251423759 L 635 951 L 639.209517756016 940.8373251423759" stroke-miterlimit="10"/></g><g transform="translate(-517,-454) scale(1,1)"><path fill="#C0C0C0" stroke="none" d="M 567 1039 L 717.80810546875 1039 Q 727.80810546875 1039 727.80810546875 1049 L 727.80810546875 1069 Q 727.80810546875 1079 717.80810546875 1079 L 567 1079 Q 557 1079 557 1069 L 557 1049 Q 557 1039 567 1039 Z" opacity="0.2"/></g><g transform="translate(-517,-454) scale(1,1)"><path fill="#ffd8d8" stroke="none" d="M 560 1032 L 710.80810546875 1032 Q 720.80810546875 1032 720.80810546875 1042 L 720.80810546875 1062 Q 720.80810546875 1072 710.80810546875 1072 L 560 1072 Q 550 1072 550 1062 L 550 1042 Q 550 1032 560 1032 Z"/></g><g transform="translate(-517,-454) scale(1,1)"><path fill="none" stroke="#000000" d="M 560 1032 L 710.80810546875 1032 Q 720.80810546875 1032 720.80810546875 1042 L 720.80810546875 1062 Q 720.80810546875 1072 710.80810546875 1072 L 560 1072 Q 550 1072 550 1062 L 550 1042 Q 550 1032 560 1032 Z" stroke-miterlimit="10"/></g><g transform="translate(-517,-454) scale(1,1)"><g><path fill="none" stroke="none"/><text fill="#000000" stroke="none" font-family="Arial" font-size="13px" font-style="normal" font-weight="bold" text-decoration="none" x="560.98095703125" y="1051.5">Comprobar usuario activo</text></g></g><g transform="translate(-517,-454) scale(1,1)"><path fill="#C0C0C0" stroke="none" d="M 549 1191 L 736.65625 1191 Q 746.65625 1191 746.65625 1201 L 746.65625 1221 Q 746.65625 1231 736.65625 1231 L 549 1231 Q 539 1231 539 1221 L 539 1201 Q 539 1191 549 1191 Z" opacity="0.2"/></g><g transform="translate(-517,-454) scale(1,1)"><path fill="#ffd8d8" stroke="none" d="M 542 1184 L 729.65625 1184 Q 739.65625 1184 739.65625 1194 L 739.65625 1214 Q 739.65625 1224 729.65625 1224 L 542 1224 Q 532 1224 532 1214 L 532 1194 Q 532 1184 542 1184 Z"/></g><g transform="translate(-517,-454) scale(1,1)"><path fill="none" stroke="#000000" d="M 542 1184 L 729.65625 1184 Q 739.65625 1184 739.65625 1194 L 739.65625 1214 Q 739.65625 1224 729.65625 1224 L 542 1224 Q 532 1224 532 1214 L 532 1194 Q 532 1184 542 1184 Z" stroke-miterlimit="10"/></g><g transform="translate(-517,-454) scale(1,1)"><g><path fill="none" stroke="none"/><text fill="#000000" stroke="none" font-family="Arial" font-size="13px" font-style="normal" font-weight="bold" text-decoration="none" x="544.7900390625" y="1203.5">Comprobar contrasinal correcto</text></g></g><g transform="translate(-517,-454) scale(1,1)"><path fill="#C0C0C0" stroke="none" d="M 631 1128.5 L 642.5 1119 L 653 1128.5 L 642.5 1137 L 631 1128.5" opacity="0.2"/></g><g transform="translate(-517,-454) scale(1,1)"><path fill="#ffffff" stroke="none" d="M 624 1121 L 635 1112 L 646 1121 L 635 1130 L 624 1121"/></g><g transform="translate(-517,-454) scale(1,1)"><path fill="none" stroke="#000000" d="M 624 1121 L 635 1112 L 646 1121 L 635 1130 L 624 1121 L 624 1121" stroke-miterlimit="10"/></g><g transform="translate(-517,-454) scale(1,1)"><path fill="none" stroke="#000000" d="M 635 1131 L 635 1183" stroke-miterlimit="10"/></g><g transform="translate(-517,-454) scale(1,1)"><path fill="none" stroke="#000000" d="M 630.790482243984 1172.837325142376 L 635 1183 L 639.209517756016 1172.837325142376" stroke-miterlimit="10"/></g><g transform="translate(-517,-454) scale(1,1)"><g><path fill="none" stroke="none"/><text fill="#000000" stroke="none" font-family="Arial" font-size="13px" font-style="normal" font-weight="normal" text-decoration="none" x="606.858642578125" y="1161.5">[si]</text></g></g><g transform="translate(-517,-454) scale(1,1)"><path fill="none" stroke="#000000" d="M 635 1073 L 635 1111" stroke-miterlimit="10"/></g><g transform="translate(-517,-454) scale(1,1)"><path fill="none" stroke="#000000" d="M 630.790482243984 1100.837325142376 L 635 1111 L 639.209517756016 1100.837325142376" stroke-miterlimit="10"/></g><g transform="translate(-517,-454) scale(1,1)"><path fill="none" stroke="#000000" d="M 647 1121 L 791 1119" stroke-miterlimit="10"/></g><g transform="translate(-517,-454) scale(1,1)"><path fill="none" stroke="#000000" d="M 780.89676508302 1123.3502464542041 L 791 1119 L 780.7798453106822 1114.9320228458832" stroke-miterlimit="10"/></g><g transform="translate(-517,-454) scale(1,1)"><g><path fill="none" stroke="none"/><text fill="#000000" stroke="none" font-family="Arial" font-size="13px" font-style="normal" font-weight="normal" text-decoration="none" x="743.5" y="1111.5">[no]</text></g></g><g transform="translate(-517,-454) scale(1,1)"><path fill="#C0C0C0" stroke="none" d="M 631 1304.5 L 642.5 1295 L 653 1304.5 L 642.5 1313 L 631 1304.5" opacity="0.2"/></g><g transform="translate(-517,-454) scale(1,1)"><path fill="#ffffff" stroke="none" d="M 624 1297 L 635 1288 L 646 1297 L 635 1306 L 624 1297"/></g><g transform="translate(-517,-454) scale(1,1)"><path fill="none" stroke="#000000" d="M 624 1297 L 635 1288 L 646 1297 L 635 1306 L 624 1297 L 624 1297" stroke-miterlimit="10"/></g><g transform="translate(-517,-454) scale(1,1)"><path fill="none" stroke="#000000" d="M 635 1225 L 635 1287" stroke-miterlimit="10"/></g><g transform="translate(-517,-454) scale(1,1)"><path fill="none" stroke="#000000" d="M 630.790482243984 1276.837325142376 L 635 1287 L 639.209517756016 1276.837325142376" stroke-miterlimit="10"/></g><g transform="translate(-517,-454) scale(1,1)"><path fill="none" stroke="#000000" d="M 635 1307 L 635 1367" stroke-miterlimit="10"/></g><g transform="translate(-517,-454) scale(1,1)"><path fill="none" stroke="#000000" d="M 630.790482243984 1356.837325142376 L 635 1367 L 639.209517756016 1356.837325142376" stroke-miterlimit="10"/></g><g transform="translate(-517,-454) scale(1,1)"><g><path fill="none" stroke="none"/><text fill="#000000" stroke="none" font-family="Arial" font-size="13px" font-style="normal" font-weight="normal" text-decoration="none" x="606.858642578125" y="1341.5">[si]</text></g></g><g transform="translate(-517,-454) scale(1,1)"><path fill="none" stroke="#000000" d="M 647 1290 L 926 1137" stroke-miterlimit="10"/></g><g transform="translate(-517,-454) scale(1,1)"><path fill="none" stroke="#000000" d="M 919.1133139940899 1145.5775028916348 L 926 1137 L 915.0651671649963 1138.1955880856406" stroke-miterlimit="10"/></g><g transform="translate(-517,-454) scale(1,1)"><g><path fill="none" stroke="none"/><text fill="#000000" stroke="none" font-family="Arial" font-size="13px" font-style="normal" font-weight="normal" text-decoration="none" x="767.5" y="1205.5">[no]</text></g></g><g transform="translate(-517,-454) scale(1,1)"><path fill="#C0C0C0" stroke="none" d="M 1270 823 L 1398.4072265625 823 Q 1408.4072265625 823 1408.4072265625 833 L 1408.4072265625 853 Q 1408.4072265625 863 1398.4072265625 863 L 1270 863 Q 1260 863 1260 853 L 1260 833 Q 1260 823 1270 823 Z" opacity="0.2"/></g><g transform="translate(-517,-454) scale(1,1)"><path fill="#ffd8d8" stroke="none" d="M 1263 816 L 1391.4072265625 816 Q 1401.4072265625 816 1401.4072265625 826 L 1401.4072265625 846 Q 1401.4072265625 856 1391.4072265625 856 L 1263 856 Q 1253 856 1253 846 L 1253 826 Q 1253 816 1263 816 Z"/></g><g transform="translate(-517,-454) scale(1,1)"><path fill="none" stroke="#000000" d="M 1263 816 L 1391.4072265625 816 Q 1401.4072265625 816 1401.4072265625 826 L 1401.4072265625 846 Q 1401.4072265625 856 1391.4072265625 856 L 1263 856 Q 1253 856 1253 846 L 1253 826 Q 1253 816 1263 816 Z" stroke-miterlimit="10"/></g><g transform="translate(-517,-454) scale(1,1)"><g><path fill="none" stroke="none"/><text fill="#000000" stroke="none" font-family="Arial" font-size="13px" font-style="normal" font-weight="bold" text-decoration="none" x="1262.536865234375" y="835.5">Comprobar nome libre</text></g></g><g transform="translate(-517,-454) scale(1,1)"><path fill="#C0C0C0" stroke="none" d="M 1245 999 L 1423.97900390625 999 Q 1433.97900390625 999 1433.97900390625 1009 L 1433.97900390625 1029 Q 1433.97900390625 1039 1423.97900390625 1039 L 1245 1039 Q 1235 1039 1235 1029 L 1235 1009 Q 1235 999 1245 999 Z" opacity="0.2"/></g><g transform="translate(-517,-454) scale(1,1)"><path fill="#ffd8d8" stroke="none" d="M 1238 992 L 1416.97900390625 992 Q 1426.97900390625 992 1426.97900390625 1002 L 1426.97900390625 1022 Q 1426.97900390625 1032 1416.97900390625 1032 L 1238 1032 Q 1228 1032 1228 1022 L 1228 1002 Q 1228 992 1238 992 Z"/></g><g transform="translate(-517,-454) scale(1,1)"><path fill="none" stroke="#000000" d="M 1238 992 L 1416.97900390625 992 Q 1426.97900390625 992 1426.97900390625 1002 L 1426.97900390625 1022 Q 1426.97900390625 1032 1416.97900390625 1032 L 1238 1032 Q 1228 1032 1228 1022 L 1228 1002 Q 1228 992 1238 992 Z" stroke-miterlimit="10"/></g><g transform="translate(-517,-454) scale(1,1)"><g><path fill="none" stroke="none"/><text fill="#000000" stroke="none" font-family="Arial" font-size="13px" font-style="normal" font-weight="bold" text-decoration="none" x="1240.056884765625" y="1011.5">Comprobar contrasinal seguro</text></g></g><g transform="translate(-517,-454) scale(1,1)"><path fill="#C0C0C0" stroke="none" d="M 1253 1167 L 1416.052734375 1167 Q 1426.052734375 1167 1426.052734375 1177 L 1426.052734375 1197 Q 1426.052734375 1207 1416.052734375 1207 L 1253 1207 Q 1243 1207 1243 1197 L 1243 1177 Q 1243 1167 1253 1167 Z" opacity="0.2"/></g><g transform="translate(-517,-454) scale(1,1)"><path fill="#ffd8d8" stroke="none" d="M 1246 1160 L 1409.052734375 1160 Q 1419.052734375 1160 1419.052734375 1170 L 1419.052734375 1190 Q 1419.052734375 1200 1409.052734375 1200 L 1246 1200 Q 1236 1200 1236 1190 L 1236 1170 Q 1236 1160 1246 1160 Z"/></g><g transform="translate(-517,-454) scale(1,1)"><path fill="none" stroke="#000000" d="M 1246 1160 L 1409.052734375 1160 Q 1419.052734375 1160 1419.052734375 1170 L 1419.052734375 1190 Q 1419.052734375 1200 1409.052734375 1200 L 1246 1200 Q 1236 1200 1236 1190 L 1236 1170 Q 1236 1160 1246 1160 Z" stroke-miterlimit="10"/></g><g transform="translate(-517,-454) scale(1,1)"><g><path fill="none" stroke="none"/><text fill="#000000" stroke="none" font-family="Arial" font-size="13px" font-style="normal" font-weight="bold" text-decoration="none" x="1247.31103515625" y="1179.5">Comprobar datos non nulos</text></g></g><g transform="translate(-517,-454) scale(1,1)"><path fill="none" stroke="#000000" d="M 1327 857 L 1327 903" stroke-miterlimit="10"/></g><g transform="translate(-517,-454) scale(1,1)"><path fill="none" stroke="#000000" d="M 1322.7904822439841 892.8373251423759 L 1327 903 L 1331.2095177560159 892.8373251423759" stroke-miterlimit="10"/></g><g transform="translate(-517,-454) scale(1,1)"><path fill="none" stroke="#000000" d="M 1327 923 L 1327 991" stroke-miterlimit="10"/></g><g transform="translate(-517,-454) scale(1,1)"><path fill="none" stroke="#000000" d="M 1322.7904822439841 980.8373251423759 L 1327 991 L 1331.2095177560159 980.8373251423759" stroke-miterlimit="10"/></g><g transform="translate(-517,-454) scale(1,1)"><g><path fill="none" stroke="none"/><text fill="#000000" stroke="none" font-family="Arial" font-size="13px" font-style="normal" font-weight="normal" text-decoration="none" x="1332.858642578125" y="962.5">[si]</text></g></g><g transform="translate(-517,-454) scale(1,1)"><path fill="#C0C0C0" stroke="none" d="M 1323 1096.5 L 1334.5 1087 L 1345 1096.5 L 1334.5 1105 L 1323 1096.5" opacity="0.2"/></g><g transform="translate(-517,-454) scale(1,1)"><path fill="#ffffff" stroke="none" d="M 1316 1089 L 1327 1080 L 1338 1089 L 1327 1098 L 1316 1089"/></g><g transform="translate(-517,-454) scale(1,1)"><path fill="none" stroke="#000000" d="M 1316 1089 L 1327 1080 L 1338 1089 L 1327 1098 L 1316 1089 L 1316 1089" stroke-miterlimit="10"/></g><g transform="translate(-517,-454) scale(1,1)"><path fill="#C0C0C0" stroke="none" d="M 1323 1264.5 L 1334.5 1255 L 1345 1264.5 L 1334.5 1273 L 1323 1264.5" opacity="0.2"/></g><g transform="translate(-517,-454) scale(1,1)"><path fill="#ffffff" stroke="none" d="M 1316 1257 L 1327 1248 L 1338 1257 L 1327 1266 L 1316 1257"/></g><g transform="translate(-517,-454) scale(1,1)"><path fill="none" stroke="#000000" d="M 1316 1257 L 1327 1248 L 1338 1257 L 1327 1266 L 1316 1257 L 1316 1257" stroke-miterlimit="10"/></g><g transform="translate(-517,-454) scale(1,1)"><path fill="none" stroke="#000000" d="M 1327 1033 L 1327 1079" stroke-miterlimit="10"/></g><g transform="translate(-517,-454) scale(1,1)"><path fill="none" stroke="#000000" d="M 1322.7904822439841 1068.837325142376 L 1327 1079 L 1331.2095177560159 1068.837325142376" stroke-miterlimit="10"/></g><g transform="translate(-517,-454) scale(1,1)"><path fill="none" stroke="#000000" d="M 1339 1089 L 1535 1086" stroke-miterlimit="10"/></g><g transform="translate(-517,-454) scale(1,1)"><path fill="none" stroke="#000000" d="M 1524.90293922383 1090.3645576731585 L 1535 1086 L 1524.7740915275472 1081.9465081826877" stroke-miterlimit="10"/></g><g transform="translate(-517,-454) scale(1,1)"><g><path fill="none" stroke="none"/><text fill="#000000" stroke="none" font-family="Arial" font-size="13px" font-style="normal" font-weight="normal" text-decoration="none" x="1471.5" y="1076.5">[no]</text></g></g><g transform="translate(-517,-454) scale(1,1)"><path fill="none" stroke="#000000" d="M 1327 1099 L 1327 1159" stroke-miterlimit="10"/></g><g transform="translate(-517,-454) scale(1,1)"><path fill="none" stroke="#000000" d="M 1322.7904822439841 1148.837325142376 L 1327 1159 L 1331.2095177560159 1148.837325142376" stroke-miterlimit="10"/></g><g transform="translate(-517,-454) scale(1,1)"><g><path fill="none" stroke="none"/><text fill="#000000" stroke="none" font-family="Arial" font-size="13px" font-style="normal" font-weight="normal" text-decoration="none" x="1332.858642578125" y="1134.5">[si]</text></g></g><g transform="translate(-517,-454) scale(1,1)"><path fill="none" stroke="#000000" d="M 1327 1201 L 1327 1247" stroke-miterlimit="10"/></g><g transform="translate(-517,-454) scale(1,1)"><path fill="none" stroke="#000000" d="M 1322.7904822439841 1236.837325142376 L 1327 1247 L 1331.2095177560159 1236.837325142376" stroke-miterlimit="10"/></g><g transform="translate(-517,-454) scale(1,1)"><path fill="none" stroke="#000000" d="M 1339 1251 L 1636 1105" stroke-miterlimit="10"/></g><g transform="translate(-517,-454) scale(1,1)"><path fill="none" stroke="#000000" d="M 1628.7367980346296 1113.261107505065 L 1636 1105 L 1625.0226555002166 1105.7056257741017" stroke-miterlimit="10"/></g><g transform="translate(-517,-454) scale(1,1)"><g><path fill="none" stroke="none"/><text fill="#000000" stroke="none" font-family="Arial" font-size="13px" font-style="normal" font-weight="normal" text-decoration="none" x="1487.5" y="1156.5">[no]</text></g></g></g></svg>