<svg version="1.1" xmlns="http://www.w3.org/2000/svg" xmlns:xlink="http://www.w3.org/1999/xlink" width="1354.53857421875" height="837"><defs/><g><g transform="translate(-6,-70) scale(1,1)"><path fill="#C0C0C0" stroke="none" d="M 463 96.5 C 463 91.2532944 467.2532944 87 472.5 87 C 477.7467056 87 482 91.2532944 482 96.5 C 482 101.7467056 477.7467056 106 472.5 106 C 467.2532944 106 463 101.7467056 463 96.5 Z" opacity="0.2"/></g><g transform="translate(-6,-70) scale(1,1)"><path fill="#000000" stroke="none" d="M 456 89.5 C 456 84.2532944 460.2532944 80 465.5 80 C 470.7467056 80 475 84.2532944 475 89.5 C 475 94.7467056 470.7467056 99 465.5 99 C 460.2532944 99 456 94.7467056 456 89.5 Z"/></g><g transform="translate(-6,-70) scale(1,1)"><path fill="#C0C0C0" stroke="none" d="M 385 151 L 562.59521484375 151 Q 572.59521484375 151 572.59521484375 161 L 572.59521484375 194 Q 572.59521484375 204 562.59521484375 204 L 385 204 Q 375 204 375 194 L 375 161 Q 375 151 385 151 Z" opacity="0.2"/></g><g transform="translate(-6,-70) scale(1,1)"><path fill="#ffffff" stroke="none" d="M 378 144 L 555.59521484375 144 Q 565.59521484375 144 565.59521484375 154 L 565.59521484375 187 Q 565.59521484375 197 555.59521484375 197 L 378 197 Q 368 197 368 187 L 368 154 Q 368 144 378 144 Z"/></g><g transform="translate(-6,-70) scale(1,1)"><path fill="none" stroke="#000000" d="M 378 144 L 555.59521484375 144 Q 565.59521484375 144 565.59521484375 154 L 565.59521484375 187 Q 565.59521484375 197 555.59521484375 197 L 378 197 Q 368 197 368 187 L 368 154 Q 368 144 378 144 Z" stroke-miterlimit="10"/></g><g transform="translate(-6,-70) scale(1,1)"><g><path fill="none" stroke="none"/><text fill="#000000" stroke="none" font-family="Arial" font-size="13px" font-style="normal" font-weight="bold" text-decoration="none" x="392.3681640625" y="163.5">Amosar a páxina de inicio</text></g></g><g transform="translate(-6,-70) scale(1,1)"><path fill="#C0C0C0" stroke="none" d="M 463 248.5 L 474.5 239 L 485 248.5 L 474.5 257 L 463 248.5" opacity="0.2"/></g><g transform="translate(-6,-70) scale(1,1)"><path fill="#ffffff" stroke="none" d="M 456 241 L 467 232 L 478 241 L 467 250 L 456 241"/></g><g transform="translate(-6,-70) scale(1,1)"><path fill="none" stroke="#000000" d="M 456 241 L 467 232 L 478 241 L 467 250 L 456 241 L 456 241" stroke-miterlimit="10"/></g><g transform="translate(-6,-70) scale(1,1)"><path fill="#C0C0C0" stroke="none" d="M 183 319 L 343 319 L 343 372 L 183 372 L 196.5 346" opacity="0.2"/></g><g transform="translate(-6,-70) scale(1,1)"><path fill="#ffffff" stroke="none" d="M 176 312 L 336 312 L 336 365 L 176 365 L 189.5 339"/></g><g transform="translate(-6,-70) scale(1,1)"><path fill="none" stroke="#000000" d="M 176 312 L 336 312 L 336 365 L 176 365 L 189.5 339 L 176 312" stroke-miterlimit="10"/></g><g transform="translate(-6,-70) scale(1,1)"><g><path fill="none" stroke="none"/><text fill="#000000" stroke="none" font-family="Arial" font-size="13px" font-style="normal" font-weight="bold" text-decoration="none" x="201.8037109375" y="331.5">Introducir nome de</text><text fill="#000000" stroke="none" font-family="Arial" font-size="13px" font-style="normal" font-weight="bold" text-decoration="none" x="196.02099609375" y="344.5">usuario e contrasinal</text></g></g><g transform="translate(-6,-70) scale(1,1)"><path fill="none" stroke="#000000" d="M 465 100 L 466 143" stroke-miterlimit="10"/></g><g transform="translate(-6,-70) scale(1,1)"><path fill="none" stroke="#000000" d="M 461.55534271416747 132.9379414824055 L 466 143 L 469.97210250362457 132.7422028826507" stroke-miterlimit="10"/></g><g transform="translate(-6,-70) scale(1,1)"><path fill="none" stroke="#000000" d="M 466 198 L 467 231" stroke-miterlimit="10"/></g><g transform="translate(-6,-70) scale(1,1)"><path fill="none" stroke="#000000" d="M 462.48459511274683 220.96949060594778 L 467 231 L 470.8997677957101 220.71448537313069" stroke-miterlimit="10"/></g><g transform="translate(-6,-70) scale(1,1)"><path fill="none" stroke="#000000" d="M 455 247 L 315 311" stroke-miterlimit="10"/></g><g transform="translate(-6,-70) scale(1,1)"><path fill="none" stroke="#000000" d="M 322.4925452936025 302.9463197838929 L 315 311 L 325.99284147977096 310.6032176911364" stroke-miterlimit="10"/></g><g transform="translate(-6,-70) scale(1,1)"><g><path fill="none" stroke="none"/><text fill="#000000" stroke="none" font-family="Arial" font-size="13px" font-style="normal" font-weight="normal" text-decoration="none" x="295.5" y="267.5">[ iniciar sesión ]</text></g></g><g transform="translate(-6,-70) scale(1,1)"><path fill="#C0C0C0" stroke="none" d="M 663 319 L 951 319 L 951 372 L 663 372 L 676.5 346" opacity="0.2"/></g><g transform="translate(-6,-70) scale(1,1)"><path fill="#ffffff" stroke="none" d="M 656 312 L 944 312 L 944 365 L 656 365 L 669.5 339"/></g><g transform="translate(-6,-70) scale(1,1)"><path fill="none" stroke="#000000" d="M 656 312 L 944 312 L 944 365 L 656 365 L 669.5 339 L 656 312" stroke-miterlimit="10"/></g><g transform="translate(-6,-70) scale(1,1)"><g><path fill="none" stroke="none"/><text fill="#000000" stroke="none" font-family="Arial" font-size="13px" font-style="normal" font-weight="bold" text-decoration="none" x="682.212890625" y="331.5">Introducir nome de usuario, contrasinal e</text><text fill="#000000" stroke="none" font-family="Arial" font-size="13px" font-style="normal" font-weight="bold" text-decoration="none" x="671.37744140625" y="344.5">datos persoais para rexistrarse como doente</text></g></g><g transform="translate(-6,-70) scale(1,1)"><path fill="none" stroke="#000000" d="M 479 244 L 707 311" stroke-miterlimit="10"/></g><g transform="translate(-6,-70) scale(1,1)"><path fill="none" stroke="#000000" d="M 696.0627745531384 312.1734988387395 L 707 311 L 698.4364247325709 304.09600270574526" stroke-miterlimit="10"/></g><g transform="translate(-6,-70) scale(1,1)"><g><path fill="none" stroke="none"/><text fill="#000000" stroke="none" font-family="Arial" font-size="13px" font-style="normal" font-weight="normal" text-decoration="none" x="630.5" y="284.5">[ rexistrarse ]</text></g></g><g transform="translate(-6,-70) scale(1,1)"><path fill="#C0C0C0" stroke="none" d="M 33 775 L 229 775 Q 239 775 239 785 L 239 818 Q 239 828 229 828 L 33 828 Q 23 828 23 818 L 23 785 Q 23 775 33 775 Z" opacity="0.2"/></g><g transform="translate(-6,-70) scale(1,1)"><path fill="#ffffff" stroke="none" d="M 26 768 L 222 768 Q 232 768 232 778 L 232 811 Q 232 821 222 821 L 26 821 Q 16 821 16 811 L 16 778 Q 16 768 26 768 Z"/></g><g transform="translate(-6,-70) scale(1,1)"><path fill="none" stroke="#000000" d="M 26 768 L 222 768 Q 232 768 232 778 L 232 811 Q 232 821 222 821 L 26 821 Q 16 821 16 811 L 16 778 Q 16 768 26 768 Z" stroke-miterlimit="10"/></g><g transform="translate(-6,-70) scale(1,1)"><g><path fill="none" stroke="none"/><text fill="#000000" stroke="none" font-family="Arial" font-size="13px" font-style="normal" font-weight="bold" text-decoration="none" x="30.419677734375" y="787.5">Crear sesión e acceder a páxina</text><text fill="#000000" stroke="none" font-family="Arial" font-size="13px" font-style="normal" font-weight="bold" text-decoration="none" x="100.15185546875" y="800.5">de inicio</text></g></g><g transform="translate(-6,-70) scale(1,1)"><path fill="#C0C0C0" stroke="none" d="M 705 775 L 925 775 Q 935 775 935 785 L 935 818 Q 935 828 925 828 L 705 828 Q 695 828 695 818 L 695 785 Q 695 775 705 775 Z" opacity="0.2"/></g><g transform="translate(-6,-70) scale(1,1)"><path fill="#ffffff" stroke="none" d="M 698 768 L 918 768 Q 928 768 928 778 L 928 811 Q 928 821 918 821 L 698 821 Q 688 821 688 811 L 688 778 Q 688 768 698 768 Z"/></g><g transform="translate(-6,-70) scale(1,1)"><path fill="none" stroke="#000000" d="M 698 768 L 918 768 Q 928 768 928 778 L 928 811 Q 928 821 918 821 L 698 821 Q 688 821 688 811 L 688 778 Q 688 768 698 768 Z" stroke-miterlimit="10"/></g><g transform="translate(-6,-70) scale(1,1)"><g><path fill="none" stroke="none"/><text fill="#000000" stroke="none" font-family="Arial" font-size="13px" font-style="normal" font-weight="bold" text-decoration="none" x="702.847900390625" y="787.5">Introducir os datos na base de datos</text><text fill="#000000" stroke="none" font-family="Arial" font-size="13px" font-style="normal" font-weight="bold" text-decoration="none" x="774.3955078125" y="800.5">de usuarios</text></g></g><g transform="translate(-6,-70) scale(1,1)"><path fill="#C0C0C0" stroke="none" d="M 119 891.5 C 119 884.59644 124.59644 879 131.5 879 C 138.40356 879 144 884.59644 144 891.5 C 144 898.40356 138.40356 904 131.5 904 C 124.59644 904 119 898.40356 119 891.5 Z" opacity="0.2"/></g><g transform="translate(-6,-70) scale(1,1)"><path fill="none" stroke="#000000" d="M 112 884.5 C 112 877.59644 117.59644 872 124.5 872 C 131.40356 872 137 877.59644 137 884.5 C 137 891.40356 131.40356 897 124.5 897 C 117.59644 897 112 891.40356 112 884.5 Z" stroke-miterlimit="10"/></g><g transform="translate(-6,-70) scale(1,1)"><path fill="#000000" stroke="none" d="M 117 884.5 C 117 880.357864 120.357864 877 124.5 877 C 128.642136 877 132 880.357864 132 884.5 C 132 888.642136 128.642136 892 124.5 892 C 120.357864 892 117 888.642136 117 884.5 Z"/></g><g transform="translate(-6,-70) scale(1,1)"><path fill="none" stroke="#000000" d="M 124 822 L 124 871" stroke-miterlimit="10"/></g><g transform="translate(-6,-70) scale(1,1)"><path fill="none" stroke="#000000" d="M 119.79048224398402 860.8373251423759 L 124 871 L 128.209517756016 860.8373251423759" stroke-miterlimit="10"/></g><g transform="translate(-6,-70) scale(1,1)"><path fill="#C0C0C0" stroke="none" d="M 271 775 L 271 828 L 537.5 828 L 551 802 L 537.5 775" opacity="0.2"/></g><g transform="translate(-6,-70) scale(1,1)"><path fill="#ffffff" stroke="none" d="M 264 768 L 264 821 L 530.5 821 L 544 795 L 530.5 768"/></g><g transform="translate(-6,-70) scale(1,1)"><path fill="none" stroke="#000000" d="M 264 768 L 264 821 L 530.5 821 L 544 795 L 530.5 768 L 264 768" stroke-miterlimit="10"/></g><g transform="translate(-6,-70) scale(1,1)"><g><path fill="none" stroke="none"/><text fill="#000000" stroke="none" font-family="Arial" font-size="13px" font-style="normal" font-weight="bold" text-decoration="none" x="281.886962890625" y="787.5">Mostrar error xénerico de datos de acceso</text><text fill="#000000" stroke="none" font-family="Arial" font-size="13px" font-style="normal" font-weight="bold" text-decoration="none" x="372.2109375" y="800.5">incorrectos</text></g></g><g transform="translate(-6,-70) scale(1,1)"><path fill="#C0C0C0" stroke="none" d="M 191 408.5 L 202.5 399 L 213 408.5 L 202.5 417 L 191 408.5" opacity="0.2"/></g><g transform="translate(-6,-70) scale(1,1)"><path fill="#ffffff" stroke="none" d="M 184 401 L 195 392 L 206 401 L 195 410 L 184 401"/></g><g transform="translate(-6,-70) scale(1,1)"><path fill="none" stroke="#000000" d="M 184 401 L 195 392 L 206 401 L 195 410 L 184 401 L 184 401" stroke-miterlimit="10"/></g><g transform="translate(-6,-70) scale(1,1)"><path fill="#C0C0C0" stroke="none" d="M 191 520.5 L 202.5 511 L 213 520.5 L 202.5 529 L 191 520.5" opacity="0.2"/></g><g transform="translate(-6,-70) scale(1,1)"><path fill="#ffffff" stroke="none" d="M 184 513 L 195 504 L 206 513 L 195 522 L 184 513"/></g><g transform="translate(-6,-70) scale(1,1)"><path fill="none" stroke="#000000" d="M 184 513 L 195 504 L 206 513 L 195 522 L 184 513 L 184 513" stroke-miterlimit="10"/></g><g transform="translate(-6,-70) scale(1,1)"><path fill="#C0C0C0" stroke="none" d="M 191 616.5 L 202.5 607 L 213 616.5 L 202.5 625 L 191 616.5" opacity="0.2"/></g><g transform="translate(-6,-70) scale(1,1)"><path fill="#ffffff" stroke="none" d="M 184 609 L 195 600 L 206 609 L 195 618 L 184 609"/></g><g transform="translate(-6,-70) scale(1,1)"><path fill="none" stroke="#000000" d="M 184 609 L 195 600 L 206 609 L 195 618 L 184 609 L 184 609" stroke-miterlimit="10"/></g><g transform="translate(-6,-70) scale(1,1)"><path fill="none" stroke="#000000" d="M 229 366 L 205 391" stroke-miterlimit="10"/></g><g transform="translate(-6,-70) scale(1,1)"><path fill="none" stroke="#000000" d="M 209.0012830616035 380.7535501825791 L 205 391 L 215.0746685352927 386.5840002373207" stroke-miterlimit="10"/></g><g transform="translate(-6,-70) scale(1,1)"><path fill="none" stroke="#000000" d="M 195 411 L 195 503" stroke-miterlimit="10"/></g><g transform="translate(-6,-70) scale(1,1)"><path fill="none" stroke="#000000" d="M 190.790482243984 492.83732514237585 L 195 503 L 199.209517756016 492.83732514237585" stroke-miterlimit="10"/></g><g transform="translate(-6,-70) scale(1,1)"><g><path fill="none" stroke="none"/><text fill="#000000" stroke="none" font-family="Arial" font-size="13px" font-style="normal" font-weight="normal" text-decoration="none" x="169.575927734375" y="459.5">[ * ]</text></g></g><g transform="translate(-6,-70) scale(1,1)"><path fill="none" stroke="#000000" d="M 207 407 L 391 499" stroke-miterlimit="10"/></g><g transform="translate(-6,-70) scale(1,1)"><path fill="none" stroke="#000000" d="M 380.02767370306094 498.22022077900255 L 391 499 L 383.7927808450386 490.6900064950472" stroke-miterlimit="10"/></g><g transform="translate(-6,-70) scale(1,1)"><g><path fill="none" stroke="none"/><text fill="#000000" stroke="none" font-family="Arial" font-size="13px" font-style="normal" font-weight="normal" text-decoration="none" x="278.5" y="436.5">[ usuario no existe ]</text></g></g><g transform="translate(-6,-70) scale(1,1)"><path fill="none" stroke="#000000" d="M 195 523 L 195 599" stroke-miterlimit="10"/></g><g transform="translate(-6,-70) scale(1,1)"><path fill="none" stroke="#000000" d="M 190.790482243984 588.8373251423759 L 195 599 L 199.209517756016 588.8373251423759" stroke-miterlimit="10"/></g><g transform="translate(-6,-70) scale(1,1)"><g><path fill="none" stroke="none"/><text fill="#000000" stroke="none" font-family="Arial" font-size="13px" font-style="normal" font-weight="normal" text-decoration="none" x="170.575927734375" y="555.5">[ * ]</text></g></g><g transform="translate(-6,-70) scale(1,1)"><path fill="none" stroke="#000000" d="M 207 513 L 391 505" stroke-miterlimit="10"/></g><g transform="translate(-6,-70) scale(1,1)"><path fill="none" stroke="#000000" d="M 381.02976686499363 509.6469830248906 L 391 505 L 380.6640673312673 501.23589374918504" stroke-miterlimit="10"/></g><g transform="translate(-6,-70) scale(1,1)"><g><path fill="none" stroke="none"/><text fill="#000000" stroke="none" font-family="Arial" font-size="13px" font-style="normal" font-weight="normal" text-decoration="none" x="219.5" y="507.5">[ usuario suspendido ]</text></g></g><g transform="translate(-6,-70) scale(1,1)"><path fill="none" stroke="#000000" d="M 191 619 L 134 767" stroke-miterlimit="10"/></g><g transform="translate(-6,-70) scale(1,1)"><path fill="none" stroke="#000000" d="M 133.7242307968209 756.0034573002885 L 134 767 L 141.58073163896307 759.0292718138162" stroke-miterlimit="10"/></g><g transform="translate(-6,-70) scale(1,1)"><g><path fill="none" stroke="none"/><text fill="#000000" stroke="none" font-family="Arial" font-size="13px" font-style="normal" font-weight="normal" text-decoration="none" x="132.575927734375" y="711.5">[ * ]</text></g></g><g transform="translate(-6,-70) scale(1,1)"><path fill="none" stroke="#000000" d="M 207 603 L 391 511" stroke-miterlimit="10"/></g><g transform="translate(-6,-70) scale(1,1)"><path fill="none" stroke="#000000" d="M 383.7927808450386 519.3099935049528 L 391 511 L 380.02767370306094 511.77977922099745" stroke-miterlimit="10"/></g><g transform="translate(-6,-70) scale(1,1)"><g><path fill="none" stroke="none"/><text fill="#000000" stroke="none" font-family="Arial" font-size="13px" font-style="normal" font-weight="normal" text-decoration="none" x="244.5" y="604.5">[ contrasinal incorrecto ]</text></g></g><g transform="translate(-6,-70) scale(1,1)"><path fill="#C0C0C0" stroke="none" d="M 399 512.5 L 410.5 503 L 421 512.5 L 410.5 521 L 399 512.5" opacity="0.2"/></g><g transform="translate(-6,-70) scale(1,1)"><path fill="#ffffff" stroke="none" d="M 392 505 L 403 496 L 414 505 L 403 514 L 392 505"/></g><g transform="translate(-6,-70) scale(1,1)"><path fill="none" stroke="#000000" d="M 392 505 L 403 496 L 414 505 L 403 514 L 392 505 L 392 505" stroke-miterlimit="10"/></g><g transform="translate(-6,-70) scale(1,1)"><path fill="none" stroke="#000000" d="M 403 515 L 404 767" stroke-miterlimit="10"/></g><g transform="translate(-6,-70) scale(1,1)"><path fill="none" stroke="#000000" d="M 399.7501876300022 756.8541094614709 L 404 767 L 408.1691568553744 756.8207008534338" stroke-miterlimit="10"/></g><g transform="translate(-6,-70) scale(1,1)"><path fill="#C0C0C0" stroke="none" d="M 799 536.5 L 810.5 527 L 821 536.5 L 810.5 545 L 799 536.5" opacity="0.2"/></g><g transform="translate(-6,-70) scale(1,1)"><path fill="#ffffff" stroke="none" d="M 792 529 L 803 520 L 814 529 L 803 538 L 792 529"/></g><g transform="translate(-6,-70) scale(1,1)"><path fill="none" stroke="#000000" d="M 792 529 L 803 520 L 814 529 L 803 538 L 792 529 L 792 529" stroke-miterlimit="10"/></g><g transform="translate(-6,-70) scale(1,1)"><path fill="none" stroke="#000000" d="M 800 366 L 803 519" stroke-miterlimit="10"/></g><g transform="translate(-6,-70) scale(1,1)"><path fill="none" stroke="#000000" d="M 798.592061382689 508.92180188992006 L 803 519 L 807.0094789384244 508.75675448686644" stroke-miterlimit="10"/></g><g transform="translate(-6,-70) scale(1,1)"><path fill="none" stroke="#000000" d="M 815 529 L 1200 528 L 1199 369" stroke-miterlimit="10"/></g><g transform="translate(-6,-70) scale(1,1)"><path fill="none" stroke="#000000" d="M 1203.2733494339075 379.1359994384236 L 1199 369 L 1194.8544804260832 379.188948300108" stroke-miterlimit="10"/></g><g transform="translate(-6,-70) scale(1,1)"><g><path fill="none" stroke="none"/><text fill="#000000" stroke="none" font-family="Arial" font-size="13px" font-style="normal" font-weight="normal" text-decoration="none" x="999.114990234375" y="545.5">[ usuario usado ] [contrasinal non seguro] [datos incorrectos]</text></g></g><g transform="translate(-6,-70) scale(1,1)"><path fill="none" stroke="#000000" d="M 545 793 L 592 792 L 592 184 L 567 181" stroke-miterlimit="10"/></g><g transform="translate(-6,-70) scale(1,1)"><path fill="none" stroke="#000000" d="M 577.5918284049461 178.0313014568373 L 567 181 L 576.5887405614707 186.39036681913274" stroke-miterlimit="10"/></g><g transform="translate(-6,-70) scale(1,1)"><path fill="#C0C0C0" stroke="none" d="M 1063 319 L 1063 375 L 1336.62158203125 375 L 1350.87158203125 347.5 L 1336.62158203125 319" opacity="0.2"/></g><g transform="translate(-6,-70) scale(1,1)"><path fill="#ffffff" stroke="none" d="M 1056 312 L 1056 368 L 1329.62158203125 368 L 1343.87158203125 340.5 L 1329.62158203125 312"/></g><g transform="translate(-6,-70) scale(1,1)"><path fill="none" stroke="#000000" d="M 1056 312 L 1056 368 L 1329.62158203125 368 L 1343.87158203125 340.5 L 1329.62158203125 312 L 1056 312" stroke-miterlimit="10"/></g><g transform="translate(-6,-70) scale(1,1)"><g><path fill="none" stroke="none"/><text fill="#000000" stroke="none" font-family="Arial" font-size="13px" font-style="normal" font-weight="bold" text-decoration="none" x="1071.687744140625" y="331.5">Amosar erro de datos de rexistro incorrectos</text></g></g><g transform="translate(-6,-70) scale(1,1)"><path fill="none" stroke="#000000" d="M 1055 339 L 945 339" stroke-miterlimit="10"/></g><g transform="translate(-6,-70) scale(1,1)"><path fill="none" stroke="#000000" d="M 955.1626748576241 334.790482243984 L 945 339 L 955.1626748576241 343.209517756016" stroke-miterlimit="10"/></g><g transform="translate(-6,-70) scale(1,1)"><path fill="none" stroke="#000000" d="M 687 793 L 608 792 L 608 176 L 567 174" stroke-miterlimit="10"/></g><g transform="translate(-6,-70) scale(1,1)"><path fill="none" stroke="#000000" d="M 577.3557036232365 170.29063314463417 L 567 174 L 576.9455067132864 178.69966979861084" stroke-miterlimit="10"/></g><g transform="translate(-6,-70) scale(1,1)"><path fill="none" stroke="#000000" d="M 803 539 L 807 767" stroke-miterlimit="10"/></g><g transform="translate(-6,-70) scale(1,1)"><path fill="none" stroke="#000000" d="M 802.612864802295 756.9127285772089 L 807 767 L 811.0306049784455 756.7650489249958" stroke-miterlimit="10"/></g></g></svg>