<svg version="1.1" xmlns="http://www.w3.org/2000/svg" xmlns:xlink="http://www.w3.org/1999/xlink" width="821" height="459"><defs/><g><g transform="translate(-78,-14) scale(1,1)"><path fill="#ffffff" stroke="none" d="M 128.24162571022728 33.68 C 128.24162571022728 28.886167936 132.12746803517274 25 136.9208984375 25 C 141.71432883982726 25 145.60017116477272 28.886167936 145.60017116477272 33.68 C 145.60017116477272 38.473832064 141.71432883982726 42.36 136.9208984375 42.36 C 132.12746803517274 42.36 128.24162571022728 38.473832064 128.24162571022728 33.68 Z"/></g><g transform="translate(-78,-14) scale(1,1)"><path fill="none" stroke="#000000" d="M 128.24162571022728 33.68 C 128.24162571022728 28.886167936 132.12746803517274 25 136.9208984375 25 C 141.71432883982726 25 145.60017116477272 28.886167936 145.60017116477272 33.68 C 145.60017116477272 38.473832064 141.71432883982726 42.36 136.9208984375 42.36 C 132.12746803517274 42.36 128.24162571022728 38.473832064 128.24162571022728 33.68 Z" stroke-miterlimit="10"/></g><g transform="translate(-78,-14) scale(1,1)"><path fill="none" stroke="#000000" d="M 136.9208984375 42.36 L 136.9208984375 59.64" stroke-miterlimit="10"/></g><g transform="translate(-78,-14) scale(1,1)"><path fill="none" stroke="#000000" d="M 127.73108025568183 48.84 L 146.11071661931817 48.84" stroke-miterlimit="10"/></g><g transform="translate(-78,-14) scale(1,1)"><path fill="none" stroke="#000000" d="M 136.9208984375 59.64 L 124.15726207386365 77" stroke-miterlimit="10"/></g><g transform="translate(-78,-14) scale(1,1)"><path fill="none" stroke="#000000" d="M 136.9208984375 59.64 L 149.68453480113635 77" stroke-miterlimit="10"/></g><g transform="translate(-78,-14) scale(1,1)"><g><path fill="none" stroke="none"/><text fill="#000000" stroke="none" font-family="Arial" font-size="13px" font-style="normal" font-weight="bold" text-decoration="none" x="96.82275390625" y="97.5">Administrador</text></g></g><g transform="translate(-78,-14) scale(1,1)"><g><path fill="none" stroke="none"/><text fill="#000000" stroke="none" font-family="Arial" font-size="13px" font-style="normal" font-weight="normal" text-decoration="none" x="95.75" y="112.5">(from Actores)</text></g></g><g transform="translate(-78,-14) scale(1,1)"><path fill="#C0C0C0" stroke="none" d="M 231 314.5 C 231 299.312168 271.0705104 287 320.5 287 C 369.9294896 287 410 299.312168 410 314.5 C 410 329.687832 369.9294896 342 320.5 342 C 271.0705104 342 231 329.687832 231 314.5 Z" opacity="0.2"/></g><g transform="translate(-78,-14) scale(1,1)"><path fill="#ffffff" stroke="none" d="M 224 307.5 C 224 292.312168 264.0705104 280 313.5 280 C 362.9294896 280 403 292.312168 403 307.5 C 403 322.687832 362.9294896 335 313.5 335 C 264.0705104 335 224 322.687832 224 307.5 Z"/></g><g transform="translate(-78,-14) scale(1,1)"><path fill="none" stroke="#000000" d="M 224 307.5 C 224 292.312168 264.0705104 280 313.5 280 C 362.9294896 280 403 292.312168 403 307.5 C 403 322.687832 362.9294896 335 313.5 335 C 264.0705104 335 224 322.687832 224 307.5 Z" stroke-miterlimit="10"/></g><g transform="translate(-78,-14) scale(1,1)"><g><path fill="none" stroke="none"/><text fill="#000000" stroke="none" font-family="Arial" font-size="13px" font-style="normal" font-weight="bold" text-decoration="none" x="259.662353515625" y="307">Ver datos persoais</text></g></g><g transform="translate(-78,-14) scale(1,1)"><g><path fill="none" stroke="none"/><text fill="#000000" stroke="none" font-family="Arial" font-size="13px" font-style="normal" font-weight="normal" text-decoration="none" x="254.619140625" y="322">(from Casos de uso)</text></g></g><g transform="translate(-78,-14) scale(1,1)"><path fill="none" stroke="#000000" d="M 172 119 L 292 279" stroke-miterlimit="10"/></g><g transform="translate(-78,-14) scale(1,1)"><path fill="#C0C0C0" stroke="none" d="M 167 442.5 C 167 427.312168 218.2633904 415 281.5 415 C 344.7366096 415 396 427.312168 396 442.5 C 396 457.687832 344.7366096 470 281.5 470 C 218.2633904 470 167 457.687832 167 442.5 Z" opacity="0.2"/></g><g transform="translate(-78,-14) scale(1,1)"><path fill="#ffffff" stroke="none" d="M 160 435.5 C 160 420.312168 211.2633904 408 274.5 408 C 337.7366096 408 389 420.312168 389 435.5 C 389 450.687832 337.7366096 463 274.5 463 C 211.2633904 463 160 450.687832 160 435.5 Z"/></g><g transform="translate(-78,-14) scale(1,1)"><path fill="none" stroke="#000000" d="M 160 435.5 C 160 420.312168 211.2633904 408 274.5 408 C 337.7366096 408 389 420.312168 389 435.5 C 389 450.687832 337.7366096 463 274.5 463 C 211.2633904 463 160 450.687832 160 435.5 Z" stroke-miterlimit="10"/></g><g transform="translate(-78,-14) scale(1,1)"><g><path fill="none" stroke="none"/><text fill="#000000" stroke="none" font-family="Arial" font-size="13px" font-style="normal" font-weight="bold" text-decoration="none" x="204.050537109375" y="435">Modificar datos persoais</text></g></g><g transform="translate(-78,-14) scale(1,1)"><g><path fill="none" stroke="none"/><text fill="#000000" stroke="none" font-family="Arial" font-size="13px" font-style="normal" font-weight="normal" text-decoration="none" x="215.619140625" y="450">(from Casos de uso)</text></g></g><g transform="translate(-78,-14) scale(1,1)"><path fill="#C0C0C0" stroke="none" d="M 487 66.5 C 487 51.312168 542.9644 39 612 39 C 681.0356 39 737 51.312168 737 66.5 C 737 81.687832 681.0356 94 612 94 C 542.9644 94 487 81.687832 487 66.5 Z" opacity="0.2"/></g><g transform="translate(-78,-14) scale(1,1)"><path fill="#ffffff" stroke="none" d="M 480 59.5 C 480 44.312168 535.9644 32 605 32 C 674.0356 32 730 44.312168 730 59.5 C 730 74.687832 674.0356 87 605 87 C 535.9644 87 480 74.687832 480 59.5 Z"/></g><g transform="translate(-78,-14) scale(1,1)"><path fill="none" stroke="#000000" d="M 480 59.5 C 480 44.312168 535.9644 32 605 32 C 674.0356 32 730 44.312168 730 59.5 C 730 74.687832 674.0356 87 605 87 C 535.9644 87 480 74.687832 480 59.5 Z" stroke-miterlimit="10"/></g><g transform="translate(-78,-14) scale(1,1)"><g><path fill="none" stroke="none"/><text fill="#000000" stroke="none" font-family="Arial" font-size="13px" font-style="normal" font-weight="bold" text-decoration="none" x="528.041015625" y="59">Engadir ou borrar usuarios</text></g></g><g transform="translate(-78,-14) scale(1,1)"><g><path fill="none" stroke="none"/><text fill="#000000" stroke="none" font-family="Arial" font-size="13px" font-style="normal" font-weight="normal" text-decoration="none" x="546.119140625" y="74">(from Casos de uso)</text></g></g><g transform="translate(-78,-14) scale(1,1)"><path fill="none" stroke="#000000" d="M 187 70 L 479 62" stroke-miterlimit="10"/></g><g transform="translate(-78,-14) scale(1,1)"><path fill="#C0C0C0" stroke="none" d="M 463 138.5 C 463 123.312168 559.9303408 111 679.5 111 C 799.0696592 111 896 123.312168 896 138.5 C 896 153.68783200000001 799.0696592 166 679.5 166 C 559.9303408 166 463 153.68783200000001 463 138.5 Z" opacity="0.2"/></g><g transform="translate(-78,-14) scale(1,1)"><path fill="#ffffff" stroke="none" d="M 456 131.5 C 456 116.312168 552.9303408 104 672.5 104 C 792.0696592 104 889 116.312168 889 131.5 C 889 146.68783200000001 792.0696592 159 672.5 159 C 552.9303408 159 456 146.68783200000001 456 131.5 Z"/></g><g transform="translate(-78,-14) scale(1,1)"><path fill="none" stroke="#000000" d="M 456 131.5 C 456 116.312168 552.9303408 104 672.5 104 C 792.0696592 104 889 116.312168 889 131.5 C 889 146.68783200000001 792.0696592 159 672.5 159 C 552.9303408 159 456 146.68783200000001 456 131.5 Z" stroke-miterlimit="10"/></g><g transform="translate(-78,-14) scale(1,1)"><g><path fill="none" stroke="none"/><text fill="#000000" stroke="none" font-family="Arial" font-size="13px" font-style="normal" font-weight="bold" text-decoration="none" x="561.212890625" y="131">Actualizar fármacos para unha doenza</text></g></g><g transform="translate(-78,-14) scale(1,1)"><g><path fill="none" stroke="none"/><text fill="#000000" stroke="none" font-family="Arial" font-size="13px" font-style="normal" font-weight="normal" text-decoration="none" x="613.619140625" y="146">(from Casos de uso)</text></g></g><g transform="translate(-78,-14) scale(1,1)"><path fill="none" stroke="#000000" d="M 187 77 L 455 107" stroke-miterlimit="10"/></g><g transform="translate(-78,-14) scale(1,1)"><path fill="#C0C0C0" stroke="none" d="M 471 218.5 C 471 203.31216799999999 558.0806064 191 665.5 191 C 772.9193936 191 860 203.31216799999999 860 218.5 C 860 233.68783200000001 772.9193936 246 665.5 246 C 558.0806064 246 471 233.68783200000001 471 218.5 Z" opacity="0.2"/></g><g transform="translate(-78,-14) scale(1,1)"><path fill="#ffffff" stroke="none" d="M 464 211.5 C 464 196.31216799999999 551.0806064 184 658.5 184 C 765.9193936 184 853 196.31216799999999 853 211.5 C 853 226.68783200000001 765.9193936 239 658.5 239 C 551.0806064 239 464 226.68783200000001 464 211.5 Z"/></g><g transform="translate(-78,-14) scale(1,1)"><path fill="none" stroke="#000000" d="M 464 211.5 C 464 196.31216799999999 551.0806064 184 658.5 184 C 765.9193936 184 853 196.31216799999999 853 211.5 C 853 226.68783200000001 765.9193936 239 658.5 239 C 551.0806064 239 464 226.68783200000001 464 211.5 Z" stroke-miterlimit="10"/></g><g transform="translate(-78,-14) scale(1,1)"><g><path fill="none" stroke="none"/><text fill="#000000" stroke="none" font-family="Arial" font-size="13px" font-style="normal" font-weight="bold" text-decoration="none" x="547.571533203125" y="211">Actualizar síntomas para unha doenza</text></g></g><g transform="translate(-78,-14) scale(1,1)"><g><path fill="none" stroke="none"/><text fill="#000000" stroke="none" font-family="Arial" font-size="13px" font-style="normal" font-weight="normal" text-decoration="none" x="599.619140625" y="226">(from Casos de uso)</text></g></g><g transform="translate(-78,-14) scale(1,1)"><path fill="none" stroke="#000000" d="M 187 85 L 554 183" stroke-miterlimit="10"/></g><g transform="translate(-78,-14) scale(1,1)"><path fill="#C0C0C0" stroke="none" d="M 423 426.5 C 423 411.312168 485.2324128 399 562 399 C 638.7675872 399 701 411.312168 701 426.5 C 701 441.687832 638.7675872 454 562 454 C 485.2324128 454 423 441.687832 423 426.5 Z" opacity="0.2"/></g><g transform="translate(-78,-14) scale(1,1)"><path fill="#ffffff" stroke="none" d="M 416 419.5 C 416 404.312168 478.2324128 392 555 392 C 631.7675872 392 694 404.312168 694 419.5 C 694 434.687832 631.7675872 447 555 447 C 478.2324128 447 416 434.687832 416 419.5 Z"/></g><g transform="translate(-78,-14) scale(1,1)"><path fill="none" stroke="#000000" d="M 416 419.5 C 416 404.312168 478.2324128 392 555 392 C 631.7675872 392 694 404.312168 694 419.5 C 694 434.687832 631.7675872 447 555 447 C 478.2324128 447 416 434.687832 416 419.5 Z" stroke-miterlimit="10"/></g><g transform="translate(-78,-14) scale(1,1)"><g><path fill="none" stroke="none"/><text fill="#000000" stroke="none" font-family="Arial" font-size="13px" font-style="normal" font-weight="bold" text-decoration="none" x="466.834228515625" y="419">Responder mensaxes doentes</text></g></g><g transform="translate(-78,-14) scale(1,1)"><g><path fill="none" stroke="none"/><text fill="#000000" stroke="none" font-family="Arial" font-size="13px" font-style="normal" font-weight="normal" text-decoration="none" x="496.119140625" y="434">(from Casos de uso)</text></g></g><g transform="translate(-78,-14) scale(1,1)"><path fill="#C0C0C0" stroke="none" d="M 463 314.5 C 463 299.312168 510.2339536 287 568.5 287 C 626.7660464 287 674 299.312168 674 314.5 C 674 329.687832 626.7660464 342 568.5 342 C 510.2339536 342 463 329.687832 463 314.5 Z" opacity="0.2"/></g><g transform="translate(-78,-14) scale(1,1)"><path fill="#ffffff" stroke="none" d="M 456 307.5 C 456 292.312168 503.2339536 280 561.5 280 C 619.7660464 280 667 292.312168 667 307.5 C 667 322.687832 619.7660464 335 561.5 335 C 503.2339536 335 456 322.687832 456 307.5 Z"/></g><g transform="translate(-78,-14) scale(1,1)"><path fill="none" stroke="#000000" d="M 456 307.5 C 456 292.312168 503.2339536 280 561.5 280 C 619.7660464 280 667 292.312168 667 307.5 C 667 322.687832 619.7660464 335 561.5 335 C 503.2339536 335 456 322.687832 456 307.5 Z" stroke-miterlimit="10"/></g><g transform="translate(-78,-14) scale(1,1)"><g><path fill="none" stroke="none"/><text fill="#000000" stroke="none" font-family="Arial" font-size="13px" font-style="normal" font-weight="bold" text-decoration="none" x="495.37646484375" y="307">Ver mensaxes doentes</text></g></g><g transform="translate(-78,-14) scale(1,1)"><g><path fill="none" stroke="none"/><text fill="#000000" stroke="none" font-family="Arial" font-size="13px" font-style="normal" font-weight="normal" text-decoration="none" x="502.619140625" y="322">(from Casos de uso)</text></g></g><g transform="translate(-78,-14) scale(1,1)"><path fill="none" stroke="#000000" d="M 187 99 L 511 279" stroke-miterlimit="10"/></g><g transform="translate(-78,-14) scale(1,1)"><path fill="none" stroke="#000000" d="M 557 391 L 559 336" stroke-miterlimit="10" stroke-dasharray="3"/></g><g transform="translate(-78,-14) scale(1,1)"><path fill="none" stroke="#000000" d="M 562.8374296376205 346.3089346576798 L 559 336 L 554.4239549158333 346.0029901223421" stroke-miterlimit="10"/></g><g transform="translate(-78,-14) scale(1,1)"><g><path fill="none" stroke="none"/><text fill="#000000" stroke="none" font-family="Arial" font-size="13px" font-style="normal" font-weight="normal" text-decoration="none" x="501.5" y="367.5">«extend»</text></g></g><g transform="translate(-78,-14) scale(1,1)"><path fill="none" stroke="#000000" d="M 283 407 L 304 336" stroke-miterlimit="10" stroke-dasharray="3"/></g><g transform="translate(-78,-14) scale(1,1)"><path fill="none" stroke="#000000" d="M 305.1542271416951 346.93927601376686 L 304 336 L 297.0809255883163 344.55139808952805" stroke-miterlimit="10"/></g><g transform="translate(-78,-14) scale(1,1)"><g><path fill="none" stroke="none"/><text fill="#000000" stroke="none" font-family="Arial" font-size="13px" font-style="normal" font-weight="normal" text-decoration="none" x="223.5" y="380.5">«extend»</text></g></g></g></svg>