<svg version="1.1" xmlns="http://www.w3.org/2000/svg" xmlns:xlink="http://www.w3.org/1999/xlink" width="725" height="609"><defs/><g><g transform="translate(-112,-46) scale(1,1)"><path fill="#ffffff" stroke="none" d="M 294.99162571022725 264.68 C 294.99162571022725 259.886167936 298.87746803517274 256 303.6708984375 256 C 308.46432883982726 256 312.35017116477275 259.886167936 312.35017116477275 264.68 C 312.35017116477275 269.473832064 308.46432883982726 273.36 303.6708984375 273.36 C 298.87746803517274 273.36 294.99162571022725 269.473832064 294.99162571022725 264.68 Z"/></g><g transform="translate(-112,-46) scale(1,1)"><path fill="none" stroke="#000000" d="M 294.99162571022725 264.68 C 294.99162571022725 259.886167936 298.87746803517274 256 303.6708984375 256 C 308.46432883982726 256 312.35017116477275 259.886167936 312.35017116477275 264.68 C 312.35017116477275 269.473832064 308.46432883982726 273.36 303.6708984375 273.36 C 298.87746803517274 273.36 294.99162571022725 269.473832064 294.99162571022725 264.68 Z" stroke-miterlimit="10"/></g><g transform="translate(-112,-46) scale(1,1)"><path fill="none" stroke="#000000" d="M 303.6708984375 273.36 L 303.6708984375 290.64" stroke-miterlimit="10"/></g><g transform="translate(-112,-46) scale(1,1)"><path fill="none" stroke="#000000" d="M 294.48108025568183 279.84 L 312.86071661931817 279.84" stroke-miterlimit="10"/></g><g transform="translate(-112,-46) scale(1,1)"><path fill="none" stroke="#000000" d="M 303.6708984375 290.64 L 290.90726207386365 308" stroke-miterlimit="10"/></g><g transform="translate(-112,-46) scale(1,1)"><path fill="none" stroke="#000000" d="M 303.6708984375 290.64 L 316.43453480113635 308" stroke-miterlimit="10"/></g><g transform="translate(-112,-46) scale(1,1)"><g><path fill="none" stroke="none"/><text fill="#000000" stroke="none" font-family="Arial" font-size="13px" font-style="normal" font-weight="bold" text-decoration="none" x="279.46728515625" y="328.5">Médicos</text></g></g><g transform="translate(-112,-46) scale(1,1)"><g><path fill="none" stroke="none"/><text fill="#000000" stroke="none" font-family="Arial" font-size="13px" font-style="normal" font-weight="normal" text-decoration="none" x="262.5" y="343.5">(from Actores)</text></g></g><g transform="translate(-112,-46) scale(1,1)"><path fill="#C0C0C0" stroke="none" d="M 367 90.5 C 367 75.312168 420.2781088 63 486 63 C 551.7218912 63 605 75.312168 605 90.5 C 605 105.687832 551.7218912 118 486 118 C 420.2781088 118 367 105.687832 367 90.5 Z" opacity="0.2"/></g><g transform="translate(-112,-46) scale(1,1)"><path fill="#ffffff" stroke="none" d="M 360 83.5 C 360 68.312168 413.2781088 56 479 56 C 544.7218912 56 598 68.312168 598 83.5 C 598 98.687832 544.7218912 111 479 111 C 413.2781088 111 360 98.687832 360 83.5 Z"/></g><g transform="translate(-112,-46) scale(1,1)"><path fill="none" stroke="#000000" d="M 360 83.5 C 360 68.312168 413.2781088 56 479 56 C 544.7218912 56 598 68.312168 598 83.5 C 598 98.687832 544.7218912 111 479 111 C 413.2781088 111 360 98.687832 360 83.5 Z" stroke-miterlimit="10"/></g><g transform="translate(-112,-46) scale(1,1)"><g><path fill="none" stroke="none"/><text fill="#000000" stroke="none" font-family="Arial" font-size="13px" font-style="normal" font-weight="bold" text-decoration="none" x="404.208740234375" y="83">Aceptar-rechazar doentes</text></g></g><g transform="translate(-112,-46) scale(1,1)"><g><path fill="none" stroke="none"/><text fill="#000000" stroke="none" font-family="Arial" font-size="13px" font-style="normal" font-weight="normal" text-decoration="none" x="420.119140625" y="98">(from Casos de uso)</text></g></g><g transform="translate(-112,-46) scale(1,1)"><path fill="none" stroke="#000000" d="M 342 254 L 456 112" stroke-miterlimit="10"/></g><g transform="translate(-112,-46) scale(1,1)"><path fill="#C0C0C0" stroke="none" d="M 511 274.5 C 511 259.312168 551.0705104 247 600.5 247 C 649.9294896 247 690 259.312168 690 274.5 C 690 289.687832 649.9294896 302 600.5 302 C 551.0705104 302 511 289.687832 511 274.5 Z" opacity="0.2"/></g><g transform="translate(-112,-46) scale(1,1)"><path fill="#ffffff" stroke="none" d="M 504 267.5 C 504 252.31216799999999 544.0705104 240 593.5 240 C 642.9294896 240 683 252.31216799999999 683 267.5 C 683 282.687832 642.9294896 295 593.5 295 C 544.0705104 295 504 282.687832 504 267.5 Z"/></g><g transform="translate(-112,-46) scale(1,1)"><path fill="none" stroke="#000000" d="M 504 267.5 C 504 252.31216799999999 544.0705104 240 593.5 240 C 642.9294896 240 683 252.31216799999999 683 267.5 C 683 282.687832 642.9294896 295 593.5 295 C 544.0705104 295 504 282.687832 504 267.5 Z" stroke-miterlimit="10"/></g><g transform="translate(-112,-46) scale(1,1)"><g><path fill="none" stroke="none"/><text fill="#000000" stroke="none" font-family="Arial" font-size="13px" font-style="normal" font-weight="bold" text-decoration="none" x="541.119140625" y="267">Acceder lista citas</text></g></g><g transform="translate(-112,-46) scale(1,1)"><g><path fill="none" stroke="none"/><text fill="#000000" stroke="none" font-family="Arial" font-size="13px" font-style="normal" font-weight="normal" text-decoration="none" x="534.619140625" y="282">(from Casos de uso)</text></g></g><g transform="translate(-112,-46) scale(1,1)"><path fill="none" stroke="#000000" d="M 350 296 L 503 278" stroke-miterlimit="10"/></g><g transform="translate(-112,-46) scale(1,1)"><path fill="#C0C0C0" stroke="none" d="M 655 170.5 C 655 155.31216799999999 695.0705104 143 744.5 143 C 793.9294896 143 834 155.31216799999999 834 170.5 C 834 185.68783200000001 793.9294896 198 744.5 198 C 695.0705104 198 655 185.68783200000001 655 170.5 Z" opacity="0.2"/></g><g transform="translate(-112,-46) scale(1,1)"><path fill="#ffffff" stroke="none" d="M 648 163.5 C 648 148.31216799999999 688.0705104 136 737.5 136 C 786.9294896 136 827 148.31216799999999 827 163.5 C 827 178.68783200000001 786.9294896 191 737.5 191 C 688.0705104 191 648 178.68783200000001 648 163.5 Z"/></g><g transform="translate(-112,-46) scale(1,1)"><path fill="none" stroke="#000000" d="M 648 163.5 C 648 148.31216799999999 688.0705104 136 737.5 136 C 786.9294896 136 827 148.31216799999999 827 163.5 C 827 178.68783200000001 786.9294896 191 737.5 191 C 688.0705104 191 648 178.68783200000001 648 163.5 Z" stroke-miterlimit="10"/></g><g transform="translate(-112,-46) scale(1,1)"><g><path fill="none" stroke="none"/><text fill="#000000" stroke="none" font-family="Arial" font-size="13px" font-style="normal" font-weight="bold" text-decoration="none" x="684.024169921875" y="163">Propoñer hora cita</text></g></g><g transform="translate(-112,-46) scale(1,1)"><g><path fill="none" stroke="none"/><text fill="#000000" stroke="none" font-family="Arial" font-size="13px" font-style="normal" font-weight="normal" text-decoration="none" x="678.619140625" y="178">(from Casos de uso)</text></g></g><g transform="translate(-112,-46) scale(1,1)"><path fill="#C0C0C0" stroke="none" d="M 255 546.5 C 255 531.312168 295.0705104 519 344.5 519 C 393.9294896 519 434 531.312168 434 546.5 C 434 561.687832 393.9294896 574 344.5 574 C 295.0705104 574 255 561.687832 255 546.5 Z" opacity="0.2"/></g><g transform="translate(-112,-46) scale(1,1)"><path fill="#ffffff" stroke="none" d="M 248 539.5 C 248 524.312168 288.0705104 512 337.5 512 C 386.9294896 512 427 524.312168 427 539.5 C 427 554.687832 386.9294896 567 337.5 567 C 288.0705104 567 248 554.687832 248 539.5 Z"/></g><g transform="translate(-112,-46) scale(1,1)"><path fill="none" stroke="#000000" d="M 248 539.5 C 248 524.312168 288.0705104 512 337.5 512 C 386.9294896 512 427 524.312168 427 539.5 C 427 554.687832 386.9294896 567 337.5 567 C 288.0705104 567 248 554.687832 248 539.5 Z" stroke-miterlimit="10"/></g><g transform="translate(-112,-46) scale(1,1)"><g><path fill="none" stroke="none"/><text fill="#000000" stroke="none" font-family="Arial" font-size="13px" font-style="normal" font-weight="bold" text-decoration="none" x="291.615966796875" y="539">Solicitar a baixa</text></g></g><g transform="translate(-112,-46) scale(1,1)"><g><path fill="none" stroke="none"/><text fill="#000000" stroke="none" font-family="Arial" font-size="13px" font-style="normal" font-weight="normal" text-decoration="none" x="278.619140625" y="554">(from Casos de uso)</text></g></g><g transform="translate(-112,-46) scale(1,1)"><path fill="none" stroke="#000000" d="M 310 350 L 333 511" stroke-miterlimit="10"/></g><g transform="translate(-112,-46) scale(1,1)"><path fill="#C0C0C0" stroke="none" d="M 129 623.5 C 129 608.312168 169.0705104 596 218.5 596 C 267.9294896 596 308 608.312168 308 623.5 C 308 638.687832 267.9294896 651 218.5 651 C 169.0705104 651 129 638.687832 129 623.5 Z" opacity="0.2"/></g><g transform="translate(-112,-46) scale(1,1)"><path fill="#ffffff" stroke="none" d="M 122 616.5 C 122 601.312168 162.0705104 589 211.5 589 C 260.9294896 589 301 601.312168 301 616.5 C 301 631.687832 260.9294896 644 211.5 644 C 162.0705104 644 122 631.687832 122 616.5 Z"/></g><g transform="translate(-112,-46) scale(1,1)"><path fill="none" stroke="#000000" d="M 122 616.5 C 122 601.312168 162.0705104 589 211.5 589 C 260.9294896 589 301 601.312168 301 616.5 C 301 631.687832 260.9294896 644 211.5 644 C 162.0705104 644 122 631.687832 122 616.5 Z" stroke-miterlimit="10"/></g><g transform="translate(-112,-46) scale(1,1)"><g><path fill="none" stroke="none"/><text fill="#000000" stroke="none" font-family="Arial" font-size="13px" font-style="normal" font-weight="bold" text-decoration="none" x="157.662353515625" y="616">Ver datos persoais</text></g></g><g transform="translate(-112,-46) scale(1,1)"><g><path fill="none" stroke="none"/><text fill="#000000" stroke="none" font-family="Arial" font-size="13px" font-style="normal" font-weight="normal" text-decoration="none" x="152.619140625" y="631">(from Casos de uso)</text></g></g><g transform="translate(-112,-46) scale(1,1)"><path fill="none" stroke="#000000" d="M 289 350 L 219 588" stroke-miterlimit="10"/></g><g transform="translate(-112,-46) scale(1,1)"><path fill="#C0C0C0" stroke="none" d="M 415 610.5 C 415 595.312168 466.2633904 583 529.5 583 C 592.7366096 583 644 595.312168 644 610.5 C 644 625.687832 592.7366096 638 529.5 638 C 466.2633904 638 415 625.687832 415 610.5 Z" opacity="0.2"/></g><g transform="translate(-112,-46) scale(1,1)"><path fill="#ffffff" stroke="none" d="M 408 603.5 C 408 588.312168 459.2633904 576 522.5 576 C 585.7366096 576 637 588.312168 637 603.5 C 637 618.687832 585.7366096 631 522.5 631 C 459.2633904 631 408 618.687832 408 603.5 Z"/></g><g transform="translate(-112,-46) scale(1,1)"><path fill="none" stroke="#000000" d="M 408 603.5 C 408 588.312168 459.2633904 576 522.5 576 C 585.7366096 576 637 588.312168 637 603.5 C 637 618.687832 585.7366096 631 522.5 631 C 459.2633904 631 408 618.687832 408 603.5 Z" stroke-miterlimit="10"/></g><g transform="translate(-112,-46) scale(1,1)"><g><path fill="none" stroke="none"/><text fill="#000000" stroke="none" font-family="Arial" font-size="13px" font-style="normal" font-weight="bold" text-decoration="none" x="452.050537109375" y="603">Modificar datos persoais</text></g></g><g transform="translate(-112,-46) scale(1,1)"><g><path fill="none" stroke="none"/><text fill="#000000" stroke="none" font-family="Arial" font-size="13px" font-style="normal" font-weight="normal" text-decoration="none" x="463.619140625" y="618">(from Casos de uso)</text></g></g><g transform="translate(-112,-46) scale(1,1)"><path fill="none" stroke="#000000" d="M 697 192 L 632 239" stroke-miterlimit="10" stroke-dasharray="3"/></g><g transform="translate(-112,-46) scale(1,1)"><path fill="none" stroke="#000000" d="M 637.7687786193553 229.6340407196663 L 632 239 L 642.7018758003511 236.45640916146905" stroke-miterlimit="10"/></g><g transform="translate(-112,-46) scale(1,1)"><g><path fill="none" stroke="none"/><text fill="#000000" stroke="none" font-family="Arial" font-size="13px" font-style="normal" font-weight="normal" text-decoration="none" x="655.5" y="227.5">«extend»</text></g></g><g transform="translate(-112,-46) scale(1,1)"><path fill="none" stroke="#000000" d="M 647 135 L 573 112" stroke-miterlimit="10" stroke-dasharray="3"/></g><g transform="translate(-112,-46) scale(1,1)"><path fill="none" stroke="#000000" d="M 583.9541315125101 110.99650470522687 L 573 112 L 581.4553190023281 119.03616234668232" stroke-miterlimit="10"/></g><g transform="translate(-112,-46) scale(1,1)"><g><path fill="none" stroke="none"/><text fill="#000000" stroke="none" font-family="Arial" font-size="13px" font-style="normal" font-weight="normal" text-decoration="none" x="567.5" y="148.5">«extend»</text></g></g><g transform="translate(-112,-46) scale(1,1)"><path fill="none" stroke="#000000" d="M 407 608 L 302 612" stroke-miterlimit="10" stroke-dasharray="3"/></g><g transform="translate(-112,-46) scale(1,1)"><path fill="none" stroke="#000000" d="M 311.9950622530009 607.4066645497378 L 302 612 L 312.31555494262363 615.8195976523336" stroke-miterlimit="10"/></g><g transform="translate(-112,-46) scale(1,1)"><g><path fill="none" stroke="none"/><text fill="#000000" stroke="none" font-family="Arial" font-size="13px" font-style="normal" font-weight="normal" text-decoration="none" x="328.5" y="645.5">«extend»</text></g></g></g></svg>