<svg version="1.1" xmlns="http://www.w3.org/2000/svg" xmlns:xlink="http://www.w3.org/1999/xlink" width="777.33984375" height="382"><defs/><g><g transform="translate(-14,-30) scale(1,1)"><rect fill="#C0C0C0" stroke="none" x="545" y="207" width="101.36083984375" height="44" opacity="0.2"/></g><g transform="translate(-14,-30) scale(1,1)"><rect fill="#ffffff" stroke="none" x="538" y="200" width="101.36083984375" height="44"/></g><g transform="translate(-14,-30) scale(1,1)"><path fill="none" stroke="#000000" d="M 538 200 L 639.36083984375 200 L 639.36083984375 244 L 538 244 L 538 200 Z Z" stroke-miterlimit="10"/></g><g transform="translate(-14,-30) scale(1,1)"><rect fill="#ffffff" stroke="none" x="528" y="207" width="20" height="10"/></g><g transform="translate(-14,-30) scale(1,1)"><path fill="none" stroke="#000000" d="M 528 207 L 548 207 L 548 217 L 528 217 L 528 207 Z Z" stroke-miterlimit="10"/></g><g transform="translate(-14,-30) scale(1,1)"><rect fill="#ffffff" stroke="none" x="528" y="227" width="20" height="10"/></g><g transform="translate(-14,-30) scale(1,1)"><path fill="none" stroke="#000000" d="M 528 227 L 548 227 L 548 237 L 528 237 L 528 227 Z Z" stroke-miterlimit="10"/></g><g transform="translate(-14,-30) scale(1,1)"><g><path fill="none" stroke="none"/><text fill="#000000" stroke="none" font-family="Arial" font-size="13px" font-style="normal" font-weight="bold" text-decoration="none" x="554.30908203125" y="219.5">Sistema DAO</text></g></g><g transform="translate(-14,-30) scale(1,1)"><path fill="#C0C0C0" stroke="none" d="M 571.97177734375 335 L 599.41177734375 335 L 611.17177734375 346.76 L 611.17177734375 384 L 571.97177734375 384" opacity="0.2"/></g><g transform="translate(-14,-30) scale(1,1)"><path fill="#ffffff" stroke="none" d="M 564.97177734375 328 L 592.41177734375 328 L 604.17177734375 339.76 L 604.17177734375 377 L 564.97177734375 377"/></g><g transform="translate(-14,-30) scale(1,1)"><path fill="none" stroke="#000000" d="M 564.97177734375 328 L 592.41177734375 328 L 604.17177734375 339.76 L 604.17177734375 377 L 564.97177734375 377 L 564.97177734375 328" stroke-miterlimit="10"/></g><g transform="translate(-14,-30) scale(1,1)"><path fill="none" stroke="#000000" d="M 592.41177734375 328 L 592.41177734375 339.76 L 604.17177734375 339.76 L 592.41177734375 328" stroke-miterlimit="10"/></g><g transform="translate(-14,-30) scale(1,1)"><g><path fill="none" stroke="none"/><text fill="#000000" stroke="none" font-family="Arial" font-size="13px" font-style="normal" font-weight="bold" text-decoration="none" x="543.013671875" y="396.5">Base de datos</text></g></g><g transform="translate(-14,-30) scale(1,1)"><path fill="#C0C0C0" stroke="none" d="M 273.233154296875 82.5 C 273.233154296875 76.1487248 278.381879096875 71 284.733154296875 71 C 291.084429496875 71 296.233154296875 76.1487248 296.233154296875 82.5 C 296.233154296875 88.8512752 291.084429496875 94 284.733154296875 94 C 278.381879096875 94 273.233154296875 88.8512752 273.233154296875 82.5 Z" opacity="0.2"/></g><g transform="translate(-14,-30) scale(1,1)"><path fill="none" stroke="#000000" d="M 279.08336793898474 86.30971166877434 A 11.5 11.5 0 1 1 274.91663206101526 63.69028833122566" stroke-miterlimit="10"/></g><g transform="translate(-14,-30) scale(1,1)"><path fill="#ffffff" stroke="none" d="M 269.233154296875 75.5 C 269.233154296875 70.8055792 273.038733496875 67 277.733154296875 67 C 282.427575096875 67 286.233154296875 70.8055792 286.233154296875 75.5 C 286.233154296875 80.1944208 282.427575096875 84 277.733154296875 84 C 273.038733496875 84 269.233154296875 80.1944208 269.233154296875 75.5 Z"/></g><g transform="translate(-14,-30) scale(1,1)"><path fill="none" stroke="#000000" d="M 269.233154296875 75.5 C 269.233154296875 70.8055792 273.038733496875 67 277.733154296875 67 C 282.427575096875 67 286.233154296875 70.8055792 286.233154296875 75.5 C 286.233154296875 80.1944208 282.427575096875 84 277.733154296875 84 C 273.038733496875 84 269.233154296875 80.1944208 269.233154296875 75.5 Z" stroke-miterlimit="10"/></g><g transform="translate(-14,-30) scale(1,1)"><g><path fill="none" stroke="none"/><text fill="#000000" stroke="none" font-family="Arial" font-size="13px" font-style="normal" font-weight="bold" text-decoration="none" x="247.385009765625" y="106.5">Predicción</text></g></g><g transform="translate(-14,-30) scale(1,1)"><rect fill="#C0C0C0" stroke="none" x="353" y="47" width="107.841796875" height="44" opacity="0.2"/></g><g transform="translate(-14,-30) scale(1,1)"><rect fill="#ffffff" stroke="none" x="346" y="40" width="107.841796875" height="44"/></g><g transform="translate(-14,-30) scale(1,1)"><path fill="none" stroke="#000000" d="M 346 40 L 453.841796875 40 L 453.841796875 84 L 346 84 L 346 40 Z Z" stroke-miterlimit="10"/></g><g transform="translate(-14,-30) scale(1,1)"><rect fill="#ffffff" stroke="none" x="336" y="47" width="20" height="10"/></g><g transform="translate(-14,-30) scale(1,1)"><path fill="none" stroke="#000000" d="M 336 47 L 356 47 L 356 57 L 336 57 L 336 47 Z Z" stroke-miterlimit="10"/></g><g transform="translate(-14,-30) scale(1,1)"><rect fill="#ffffff" stroke="none" x="336" y="67" width="20" height="10"/></g><g transform="translate(-14,-30) scale(1,1)"><path fill="none" stroke="#000000" d="M 336 67 L 356 67 L 356 77 L 336 77 L 336 67 Z Z" stroke-miterlimit="10"/></g><g transform="translate(-14,-30) scale(1,1)"><g><path fill="none" stroke="none"/><text fill="#000000" stroke="none" font-family="Arial" font-size="13px" font-style="normal" font-weight="bold" text-decoration="none" x="364.0927734375" y="59.5">Controladores</text></g></g><g transform="translate(-14,-30) scale(1,1)"><path fill="none" stroke="#000000" d="M 335 75 L 289.233154296875 76.25468249198718" stroke-miterlimit="10"/></g><g transform="translate(-14,-30) scale(1,1)"><path fill="none" stroke="#000000" d="M 222 79 L 266.233154296875 76.98336631373355" stroke-miterlimit="10"/></g><g transform="translate(-14,-30) scale(1,1)"><path fill="none" stroke="#000000" d="M 583 245 L 584 327" stroke-miterlimit="10" stroke-dasharray="3"/></g><g transform="translate(-14,-30) scale(1,1)"><path fill="none" stroke="#000000" d="M 579.6668693865233 316.8894125251521 L 584 327 L 588.0852789246883 316.7867489941989" stroke-miterlimit="10"/></g><g transform="translate(-14,-30) scale(1,1)"><path fill="#C0C0C0" stroke="none" d="M 242.11630859375 327 L 269.55630859375003 327 L 281.31630859375 338.76 L 281.31630859375 376 L 242.11630859375 376" opacity="0.2"/></g><g transform="translate(-14,-30) scale(1,1)"><path fill="#ffffff" stroke="none" d="M 235.11630859374998 320 L 262.55630859375003 320 L 274.31630859375 331.76 L 274.31630859375 369 L 235.11630859374998 369"/></g><g transform="translate(-14,-30) scale(1,1)"><path fill="none" stroke="#000000" d="M 235.11630859374998 320 L 262.55630859375003 320 L 274.31630859375 331.76 L 274.31630859375 369 L 235.11630859374998 369 L 235.11630859374998 320" stroke-miterlimit="10"/></g><g transform="translate(-14,-30) scale(1,1)"><path fill="none" stroke="#000000" d="M 262.55630859375003 320 L 262.55630859375003 331.76 L 274.31630859375 331.76 L 262.55630859375003 320" stroke-miterlimit="10"/></g><g transform="translate(-14,-30) scale(1,1)"><g><path fill="none" stroke="none"/><text fill="#000000" stroke="none" font-family="Arial" font-size="13px" font-style="normal" font-weight="bold" text-decoration="none" x="208.108642578125" y="388.5">Interface gráfica</text></g></g><g transform="translate(-14,-30) scale(1,1)"><path fill="none" stroke="#000000" d="M 252 245 L 253 319" stroke-miterlimit="10" stroke-dasharray="3"/></g><g transform="translate(-14,-30) scale(1,1)"><path fill="none" stroke="#000000" d="M 248.65354564582952 308.8951331257105 L 253 319 L 257.07181254184565 308.78137276225084" stroke-miterlimit="10"/></g><g transform="translate(-14,-30) scale(1,1)"><rect fill="#C0C0C0" stroke="none" x="41" y="47" width="187.33984375" height="44" opacity="0.2"/></g><g transform="translate(-14,-30) scale(1,1)"><rect fill="#ffffff" stroke="none" x="34" y="40" width="187.33984375" height="44"/></g><g transform="translate(-14,-30) scale(1,1)"><path fill="none" stroke="#000000" d="M 34 40 L 221.33984375 40 L 221.33984375 84 L 34 84 L 34 40 Z Z" stroke-miterlimit="10"/></g><g transform="translate(-14,-30) scale(1,1)"><rect fill="#ffffff" stroke="none" x="24" y="47" width="20" height="10"/></g><g transform="translate(-14,-30) scale(1,1)"><path fill="none" stroke="#000000" d="M 24 47 L 44 47 L 44 57 L 24 57 L 24 47 Z Z" stroke-miterlimit="10"/></g><g transform="translate(-14,-30) scale(1,1)"><rect fill="#ffffff" stroke="none" x="24" y="67" width="20" height="10"/></g><g transform="translate(-14,-30) scale(1,1)"><path fill="none" stroke="#000000" d="M 24 67 L 44 67 L 44 77 L 24 77 L 24 67 Z Z" stroke-miterlimit="10"/></g><g transform="translate(-14,-30) scale(1,1)"><g><path fill="none" stroke="none"/><text fill="#000000" stroke="none" font-family="Arial" font-size="13px" font-style="normal" font-weight="bold" text-decoration="none" x="65.464111328125" y="59.5">Sistema de diagnóstico</text></g></g><g transform="translate(-14,-30) scale(1,1)"><rect fill="#C0C0C0" stroke="none" x="601" y="47" width="187.33984375" height="44" opacity="0.2"/></g><g transform="translate(-14,-30) scale(1,1)"><rect fill="#ffffff" stroke="none" x="594" y="40" width="187.33984375" height="44"/></g><g transform="translate(-14,-30) scale(1,1)"><path fill="none" stroke="#000000" d="M 594 40 L 781.33984375 40 L 781.33984375 84 L 594 84 L 594 40 Z Z" stroke-miterlimit="10"/></g><g transform="translate(-14,-30) scale(1,1)"><rect fill="#ffffff" stroke="none" x="584" y="47" width="20" height="10"/></g><g transform="translate(-14,-30) scale(1,1)"><path fill="none" stroke="#000000" d="M 584 47 L 604 47 L 604 57 L 584 57 L 584 47 Z Z" stroke-miterlimit="10"/></g><g transform="translate(-14,-30) scale(1,1)"><rect fill="#ffffff" stroke="none" x="584" y="67" width="20" height="10"/></g><g transform="translate(-14,-30) scale(1,1)"><path fill="none" stroke="#000000" d="M 584 67 L 604 67 L 604 77 L 584 77 L 584 67 Z Z" stroke-miterlimit="10"/></g><g transform="translate(-14,-30) scale(1,1)"><g><path fill="none" stroke="none"/><text fill="#000000" stroke="none" font-family="Arial" font-size="13px" font-style="normal" font-weight="bold" text-decoration="none" x="613.905029296875" y="59.5">Sistema de recomendación</text></g></g><g transform="translate(-14,-30) scale(1,1)"><path fill="#C0C0C0" stroke="none" d="M 522.206787109375 82.5 C 522.206787109375 76.1487248 527.355511909375 71 533.706787109375 71 C 540.058062309375 71 545.206787109375 76.1487248 545.206787109375 82.5 C 545.206787109375 88.8512752 540.058062309375 94 533.706787109375 94 C 527.355511909375 94 522.206787109375 88.8512752 522.206787109375 82.5 Z" opacity="0.2"/></g><g transform="translate(-14,-30) scale(1,1)"><path fill="none" stroke="#000000" d="M 526.4179056082321 86.49240422638397 A 11.5 11.5 0 0 1 525.5820943917679 63.50759577361603" stroke-miterlimit="10"/></g><g transform="translate(-14,-30) scale(1,1)"><path fill="#ffffff" stroke="none" d="M 518.206787109375 75.5 C 518.206787109375 70.8055792 522.012366309375 67 526.706787109375 67 C 531.401207909375 67 535.206787109375 70.8055792 535.206787109375 75.5 C 535.206787109375 80.1944208 531.401207909375 84 526.706787109375 84 C 522.012366309375 84 518.206787109375 80.1944208 518.206787109375 75.5 Z"/></g><g transform="translate(-14,-30) scale(1,1)"><path fill="none" stroke="#000000" d="M 518.206787109375 75.5 C 518.206787109375 70.8055792 522.012366309375 67 526.706787109375 67 C 531.401207909375 67 535.206787109375 70.8055792 535.206787109375 75.5 C 535.206787109375 80.1944208 531.401207909375 84 526.706787109375 84 C 522.012366309375 84 518.206787109375 80.1944208 518.206787109375 75.5 Z" stroke-miterlimit="10"/></g><g transform="translate(-14,-30) scale(1,1)"><g><path fill="none" stroke="none"/><text fill="#000000" stroke="none" font-family="Arial" font-size="13px" font-style="normal" font-weight="bold" text-decoration="none" x="479.734130859375" y="106.5">Recomendación</text></g></g><g transform="translate(-14,-30) scale(1,1)"><path fill="none" stroke="#000000" d="M 583 79 L 538.206787109375 75.87191336495536" stroke-miterlimit="10"/></g><g transform="translate(-14,-30) scale(1,1)"><path fill="none" stroke="#000000" d="M 455 74 L 515.206787109375 75.39248046875" stroke-miterlimit="10"/></g><g transform="translate(-14,-30) scale(1,1)"><path fill="#C0C0C0" stroke="none" d="M 446.7099609375 154.5 C 446.7099609375 148.1487248 451.8586857375 143 458.2099609375 143 C 464.5612361375 143 469.7099609375 148.1487248 469.7099609375 154.5 C 469.7099609375 160.8512752 464.5612361375 166 458.2099609375 166 C 451.8586857375 166 446.7099609375 160.8512752 446.7099609375 154.5 Z" opacity="0.2"/></g><g transform="translate(-14,-30) scale(1,1)"><path fill="none" stroke="#000000" d="M 443.81600695312414 155.97999130859486 A 11.5 11.5 0 0 1 458.18399304687586 138.02000869140514" stroke-miterlimit="10"/></g><g transform="translate(-14,-30) scale(1,1)"><path fill="#ffffff" stroke="none" d="M 442.7099609375 147.5 C 442.7099609375 142.8055792 446.5155401375 139 451.2099609375 139 C 455.9043817375 139 459.7099609375 142.8055792 459.7099609375 147.5 C 459.7099609375 152.1944208 455.9043817375 156 451.2099609375 156 C 446.5155401375 156 442.7099609375 152.1944208 442.7099609375 147.5 Z"/></g><g transform="translate(-14,-30) scale(1,1)"><path fill="none" stroke="#000000" d="M 442.7099609375 147.5 C 442.7099609375 142.8055792 446.5155401375 139 451.2099609375 139 C 455.9043817375 139 459.7099609375 142.8055792 459.7099609375 147.5 C 459.7099609375 152.1944208 455.9043817375 156 451.2099609375 156 C 446.5155401375 156 442.7099609375 152.1944208 442.7099609375 147.5 Z" stroke-miterlimit="10"/></g><g transform="translate(-14,-30) scale(1,1)"><g><path fill="none" stroke="none"/><text fill="#000000" stroke="none" font-family="Arial" font-size="13px" font-style="normal" font-weight="bold" text-decoration="none" x="433.50634765625" y="178.5">Linker</text></g></g><g transform="translate(-14,-30) scale(1,1)"><path fill="none" stroke="#000000" d="M 407 85 L 439.7099609375 137.96796875" stroke-miterlimit="10"/></g><g transform="translate(-14,-30) scale(1,1)"><path fill="none" stroke="#000000" d="M 534 199 L 462.7099609375 156.75830078125" stroke-miterlimit="10"/></g><g transform="translate(-14,-30) scale(1,1)"><rect fill="#C0C0C0" stroke="none" x="201" y="207" width="127.3671875" height="44" opacity="0.2"/></g><g transform="translate(-14,-30) scale(1,1)"><rect fill="#ffffff" stroke="none" x="194" y="200" width="127.3671875" height="44"/></g><g transform="translate(-14,-30) scale(1,1)"><path fill="none" stroke="#000000" d="M 194 200 L 321.3671875 200 L 321.3671875 244 L 194 244 L 194 200 Z Z" stroke-miterlimit="10"/></g><g transform="translate(-14,-30) scale(1,1)"><rect fill="#ffffff" stroke="none" x="184" y="207" width="20" height="10"/></g><g transform="translate(-14,-30) scale(1,1)"><path fill="none" stroke="#000000" d="M 184 207 L 204 207 L 204 217 L 184 217 L 184 207 Z Z" stroke-miterlimit="10"/></g><g transform="translate(-14,-30) scale(1,1)"><rect fill="#ffffff" stroke="none" x="184" y="227" width="20" height="10"/></g><g transform="translate(-14,-30) scale(1,1)"><path fill="none" stroke="#000000" d="M 184 227 L 204 227 L 204 237 L 184 237 L 184 227 Z Z" stroke-miterlimit="10"/></g><g transform="translate(-14,-30) scale(1,1)"><g><path fill="none" stroke="none"/><text fill="#000000" stroke="none" font-family="Arial" font-size="13px" font-style="normal" font-weight="bold" text-decoration="none" x="213.1845703125" y="219.5">Biblioteca gráfica</text></g></g><g transform="translate(-14,-30) scale(1,1)"><path fill="#C0C0C0" stroke="none" d="M 334.7099609375 154.5 C 334.7099609375 148.1487248 339.8586857375 143 346.2099609375 143 C 352.5612361375 143 357.7099609375 148.1487248 357.7099609375 154.5 C 357.7099609375 160.8512752 352.5612361375 166 346.2099609375 166 C 339.8586857375 166 334.7099609375 160.8512752 334.7099609375 154.5 Z" opacity="0.2"/></g><g transform="translate(-14,-30) scale(1,1)"><path fill="none" stroke="#000000" d="M 331.51589920525635 138.2685490727991 A 11.5 11.5 0 0 1 346.48410079474365 155.7314509272009" stroke-miterlimit="10"/></g><g transform="translate(-14,-30) scale(1,1)"><path fill="#ffffff" stroke="none" d="M 330.7099609375 147.5 C 330.7099609375 142.8055792 334.5155401375 139 339.2099609375 139 C 343.9043817375 139 347.7099609375 142.8055792 347.7099609375 147.5 C 347.7099609375 152.1944208 343.9043817375 156 339.2099609375 156 C 334.5155401375 156 330.7099609375 152.1944208 330.7099609375 147.5 Z"/></g><g transform="translate(-14,-30) scale(1,1)"><path fill="none" stroke="#000000" d="M 330.7099609375 147.5 C 330.7099609375 142.8055792 334.5155401375 139 339.2099609375 139 C 343.9043817375 139 347.7099609375 142.8055792 347.7099609375 147.5 C 347.7099609375 152.1944208 343.9043817375 156 339.2099609375 156 C 334.5155401375 156 330.7099609375 152.1944208 330.7099609375 147.5 Z" stroke-miterlimit="10"/></g><g transform="translate(-14,-30) scale(1,1)"><g><path fill="none" stroke="none"/><text fill="#000000" stroke="none" font-family="Arial" font-size="13px" font-style="normal" font-weight="bold" text-decoration="none" x="321.626953125" y="178.5">Vistas</text></g></g><g transform="translate(-14,-30) scale(1,1)"><path fill="none" stroke="#000000" d="M 284 199 L 327.9473684210526 159" stroke-miterlimit="10"/></g><g transform="translate(-14,-30) scale(1,1)"><path fill="none" stroke="#000000" d="M 381 85 L 350.7099609375 136.962890625" stroke-miterlimit="10"/></g></g></svg>