<svg version="1.1" xmlns="http://www.w3.org/2000/svg" xmlns:xlink="http://www.w3.org/1999/xlink" width="1042.72998046875" height="480"><defs/><g><g transform="translate(-30,2) scale(1,1)"><rect fill="#C0C0C0" stroke="none" x="543" y="159" width="105.82080078125" height="115" opacity="0.2"/></g><g transform="translate(-30,2) scale(1,1)"><rect fill="#ffffff" stroke="none" x="536" y="152" width="105.82080078125" height="115"/></g><g transform="translate(-30,2) scale(1,1)"><path fill="none" stroke="#000000" d="M 536 152 L 641.82080078125 152 L 641.82080078125 267 L 536 267 L 536 152 Z Z" stroke-miterlimit="10"/></g><g transform="translate(-30,2) scale(1,1)"><path fill="none" stroke="#000000" d="M 536 177 L 641.82080078125 177" stroke-miterlimit="10"/></g><g transform="translate(-30,2) scale(1,1)"><path fill="none" stroke="#000000" d="M 536 200 L 641.82080078125 200" stroke-miterlimit="10"/></g><g transform="translate(-30,2) scale(1,1)"><g><path fill="none" stroke="none"/><text fill="#000000" stroke="none" font-family="Arial" font-size="13px" font-style="italic" font-weight="bold" text-decoration="none" x="575.5517578125" y="171.5">DAO</text></g></g><g transform="translate(-30,2) scale(1,1)"><g><path fill="none" stroke="none"/><text fill="#000000" stroke="none" font-family="Arial" font-size="13px" font-style="normal" font-weight="normal" text-decoration="none" x="541" y="194.5">#conexion</text><path fill="none" stroke="#000000" d="M 541 194.5 L 600.26806640625 194.5" stroke-miterlimit="10"/></g></g><g transform="translate(-30,2) scale(1,1)"><g><path fill="none" stroke="none"/><text fill="#000000" stroke="none" font-family="Arial" font-size="13px" font-style="normal" font-weight="normal" text-decoration="none" x="541" y="217.5">+seleccionar()</text></g></g><g transform="translate(-30,2) scale(1,1)"><g><path fill="none" stroke="none"/><text fill="#000000" stroke="none" font-family="Arial" font-size="13px" font-style="normal" font-weight="normal" text-decoration="none" x="541" y="232.5">+actualizar()</text></g></g><g transform="translate(-30,2) scale(1,1)"><g><path fill="none" stroke="none"/><text fill="#000000" stroke="none" font-family="Arial" font-size="13px" font-style="normal" font-weight="normal" text-decoration="none" x="541" y="247.5">+insertar()</text></g></g><g transform="translate(-30,2) scale(1,1)"><g><path fill="none" stroke="none"/><text fill="#000000" stroke="none" font-family="Arial" font-size="13px" font-style="normal" font-weight="normal" text-decoration="none" x="541" y="262.5">+eliminar()</text></g></g><g transform="translate(-30,2) scale(1,1)"><rect fill="#C0C0C0" stroke="none" x="47" y="351" width="126.72998046875" height="44" opacity="0.2"/></g><g transform="translate(-30,2) scale(1,1)"><rect fill="#ffffff" stroke="none" x="40" y="344" width="126.72998046875" height="44"/></g><g transform="translate(-30,2) scale(1,1)"><path fill="none" stroke="#000000" d="M 40 344 L 166.72998046875 344 L 166.72998046875 388 L 40 388 L 40 344 Z Z" stroke-miterlimit="10"/></g><g transform="translate(-30,2) scale(1,1)"><path fill="none" stroke="#000000" d="M 40 369 L 166.72998046875 369" stroke-miterlimit="10"/></g><g transform="translate(-30,2) scale(1,1)"><path fill="none" stroke="#000000" d="M 40 379 L 166.72998046875 379" stroke-miterlimit="10"/></g><g transform="translate(-30,2) scale(1,1)"><g><path fill="none" stroke="none"/><text fill="#000000" stroke="none" font-family="Arial" font-size="13px" font-style="normal" font-weight="bold" text-decoration="none" x="66.8818359375" y="363.5">UsuarioDAO</text></g></g><g transform="translate(-30,2) scale(1,1)"><rect fill="#C0C0C0" stroke="none" x="263" y="351" width="126.72998046875" height="44" opacity="0.2"/></g><g transform="translate(-30,2) scale(1,1)"><rect fill="#ffffff" stroke="none" x="256" y="344" width="126.72998046875" height="44"/></g><g transform="translate(-30,2) scale(1,1)"><path fill="none" stroke="#000000" d="M 256 344 L 382.72998046875 344 L 382.72998046875 388 L 256 388 L 256 344 Z Z" stroke-miterlimit="10"/></g><g transform="translate(-30,2) scale(1,1)"><path fill="none" stroke="#000000" d="M 256 369 L 382.72998046875 369" stroke-miterlimit="10"/></g><g transform="translate(-30,2) scale(1,1)"><path fill="none" stroke="#000000" d="M 256 379 L 382.72998046875 379" stroke-miterlimit="10"/></g><g transform="translate(-30,2) scale(1,1)"><g><path fill="none" stroke="none"/><text fill="#000000" stroke="none" font-family="Arial" font-size="13px" font-style="normal" font-weight="bold" text-decoration="none" x="284.319580078125" y="363.5">DoenteDAO</text></g></g><g transform="translate(-30,2) scale(1,1)"><rect fill="#C0C0C0" stroke="none" x="439" y="351" width="126.72998046875" height="44" opacity="0.2"/></g><g transform="translate(-30,2) scale(1,1)"><rect fill="#ffffff" stroke="none" x="432" y="344" width="126.72998046875" height="44"/></g><g transform="translate(-30,2) scale(1,1)"><path fill="none" stroke="#000000" d="M 432 344 L 558.72998046875 344 L 558.72998046875 388 L 432 388 L 432 344 Z Z" stroke-miterlimit="10"/></g><g transform="translate(-30,2) scale(1,1)"><path fill="none" stroke="#000000" d="M 432 369 L 558.72998046875 369" stroke-miterlimit="10"/></g><g transform="translate(-30,2) scale(1,1)"><path fill="none" stroke="#000000" d="M 432 379 L 558.72998046875 379" stroke-miterlimit="10"/></g><g transform="translate(-30,2) scale(1,1)"><g><path fill="none" stroke="none"/><text fill="#000000" stroke="none" font-family="Arial" font-size="13px" font-style="normal" font-weight="bold" text-decoration="none" x="460.325927734375" y="363.5">MedicoDAO</text></g></g><g transform="translate(-30,2) scale(1,1)"><rect fill="#C0C0C0" stroke="none" x="615" y="351" width="126.72998046875" height="44" opacity="0.2"/></g><g transform="translate(-30,2) scale(1,1)"><rect fill="#ffffff" stroke="none" x="608" y="344" width="126.72998046875" height="44"/></g><g transform="translate(-30,2) scale(1,1)"><path fill="none" stroke="#000000" d="M 608 344 L 734.72998046875 344 L 734.72998046875 388 L 608 388 L 608 344 Z Z" stroke-miterlimit="10"/></g><g transform="translate(-30,2) scale(1,1)"><path fill="none" stroke="#000000" d="M 608 369 L 734.72998046875 369" stroke-miterlimit="10"/></g><g transform="translate(-30,2) scale(1,1)"><path fill="none" stroke="#000000" d="M 608 379 L 734.72998046875 379" stroke-miterlimit="10"/></g><g transform="translate(-30,2) scale(1,1)"><g><path fill="none" stroke="none"/><text fill="#000000" stroke="none" font-family="Arial" font-size="13px" font-style="normal" font-weight="bold" text-decoration="none" x="617.181396484375" y="363.5">AdministradorDAO</text></g></g><g transform="translate(-30,2) scale(1,1)"><rect fill="#C0C0C0" stroke="none" x="943" y="351" width="126.72998046875" height="44" opacity="0.2"/></g><g transform="translate(-30,2) scale(1,1)"><rect fill="#ffffff" stroke="none" x="936" y="344" width="126.72998046875" height="44"/></g><g transform="translate(-30,2) scale(1,1)"><path fill="none" stroke="#000000" d="M 936 344 L 1062.72998046875 344 L 1062.72998046875 388 L 936 388 L 936 344 Z Z" stroke-miterlimit="10"/></g><g transform="translate(-30,2) scale(1,1)"><path fill="none" stroke="#000000" d="M 936 369 L 1062.72998046875 369" stroke-miterlimit="10"/></g><g transform="translate(-30,2) scale(1,1)"><path fill="none" stroke="#000000" d="M 936 379 L 1062.72998046875 379" stroke-miterlimit="10"/></g><g transform="translate(-30,2) scale(1,1)"><g><path fill="none" stroke="none"/><text fill="#000000" stroke="none" font-family="Arial" font-size="13px" font-style="normal" font-weight="bold" text-decoration="none" x="958.905029296875" y="363.5">MensaxeDAO</text></g></g><g transform="translate(-30,2) scale(1,1)"><rect fill="#C0C0C0" stroke="none" x="911" y="431" width="126.72998046875" height="44" opacity="0.2"/></g><g transform="translate(-30,2) scale(1,1)"><rect fill="#ffffff" stroke="none" x="904" y="424" width="126.72998046875" height="44"/></g><g transform="translate(-30,2) scale(1,1)"><path fill="none" stroke="#000000" d="M 904 424 L 1030.72998046875 424 L 1030.72998046875 468 L 904 468 L 904 424 Z Z" stroke-miterlimit="10"/></g><g transform="translate(-30,2) scale(1,1)"><path fill="none" stroke="#000000" d="M 904 449 L 1030.72998046875 449" stroke-miterlimit="10"/></g><g transform="translate(-30,2) scale(1,1)"><path fill="none" stroke="#000000" d="M 904 459 L 1030.72998046875 459" stroke-miterlimit="10"/></g><g transform="translate(-30,2) scale(1,1)"><g><path fill="none" stroke="none"/><text fill="#000000" stroke="none" font-family="Arial" font-size="13px" font-style="normal" font-weight="bold" text-decoration="none" x="914.260498046875" y="443.5">MedicamentoDAO</text></g></g><g transform="translate(-30,2) scale(1,1)"><rect fill="#C0C0C0" stroke="none" x="335" y="431" width="126.72998046875" height="44" opacity="0.2"/></g><g transform="translate(-30,2) scale(1,1)"><rect fill="#ffffff" stroke="none" x="328" y="424" width="126.72998046875" height="44"/></g><g transform="translate(-30,2) scale(1,1)"><path fill="none" stroke="#000000" d="M 328 424 L 454.72998046875 424 L 454.72998046875 468 L 328 468 L 328 424 Z Z" stroke-miterlimit="10"/></g><g transform="translate(-30,2) scale(1,1)"><path fill="none" stroke="#000000" d="M 328 449 L 454.72998046875 449" stroke-miterlimit="10"/></g><g transform="translate(-30,2) scale(1,1)"><path fill="none" stroke="#000000" d="M 328 459 L 454.72998046875 459" stroke-miterlimit="10"/></g><g transform="translate(-30,2) scale(1,1)"><g><path fill="none" stroke="none"/><text fill="#000000" stroke="none" font-family="Arial" font-size="13px" font-style="normal" font-weight="bold" text-decoration="none" x="343.31640625" y="443.5">DiagnosticoDAO</text></g></g><g transform="translate(-30,2) scale(1,1)"><rect fill="#C0C0C0" stroke="none" x="135" y="431" width="126.72998046875" height="44" opacity="0.2"/></g><g transform="translate(-30,2) scale(1,1)"><rect fill="#ffffff" stroke="none" x="128" y="424" width="126.72998046875" height="44"/></g><g transform="translate(-30,2) scale(1,1)"><path fill="none" stroke="#000000" d="M 128 424 L 254.72998046875 424 L 254.72998046875 468 L 128 468 L 128 424 Z Z" stroke-miterlimit="10"/></g><g transform="translate(-30,2) scale(1,1)"><path fill="none" stroke="#000000" d="M 128 449 L 254.72998046875 449" stroke-miterlimit="10"/></g><g transform="translate(-30,2) scale(1,1)"><path fill="none" stroke="#000000" d="M 128 459 L 254.72998046875 459" stroke-miterlimit="10"/></g><g transform="translate(-30,2) scale(1,1)"><g><path fill="none" stroke="none"/><text fill="#000000" stroke="none" font-family="Arial" font-size="13px" font-style="normal" font-weight="bold" text-decoration="none" x="165.720458984375" y="443.5">CitaDAO</text></g></g><g transform="translate(-30,2) scale(1,1)"><rect fill="#C0C0C0" stroke="none" x="719" y="431" width="126.72998046875" height="44" opacity="0.2"/></g><g transform="translate(-30,2) scale(1,1)"><rect fill="#ffffff" stroke="none" x="712" y="424" width="126.72998046875" height="44"/></g><g transform="translate(-30,2) scale(1,1)"><path fill="none" stroke="#000000" d="M 712 424 L 838.72998046875 424 L 838.72998046875 468 L 712 468 L 712 424 Z Z" stroke-miterlimit="10"/></g><g transform="translate(-30,2) scale(1,1)"><path fill="none" stroke="#000000" d="M 712 449 L 838.72998046875 449" stroke-miterlimit="10"/></g><g transform="translate(-30,2) scale(1,1)"><path fill="none" stroke="#000000" d="M 712 459 L 838.72998046875 459" stroke-miterlimit="10"/></g><g transform="translate(-30,2) scale(1,1)"><g><path fill="none" stroke="none"/><text fill="#000000" stroke="none" font-family="Arial" font-size="13px" font-style="normal" font-weight="bold" text-decoration="none" x="740.6845703125" y="443.5">RecetaDAO</text></g></g><g transform="translate(-30,2) scale(1,1)"><rect fill="#C0C0C0" stroke="none" x="783" y="351" width="126.72998046875" height="44" opacity="0.2"/></g><g transform="translate(-30,2) scale(1,1)"><rect fill="#ffffff" stroke="none" x="776" y="344" width="126.72998046875" height="44"/></g><g transform="translate(-30,2) scale(1,1)"><path fill="none" stroke="#000000" d="M 776 344 L 902.72998046875 344 L 902.72998046875 388 L 776 388 L 776 344 Z Z" stroke-miterlimit="10"/></g><g transform="translate(-30,2) scale(1,1)"><path fill="none" stroke="#000000" d="M 776 369 L 902.72998046875 369" stroke-miterlimit="10"/></g><g transform="translate(-30,2) scale(1,1)"><path fill="none" stroke="#000000" d="M 776 379 L 902.72998046875 379" stroke-miterlimit="10"/></g><g transform="translate(-30,2) scale(1,1)"><g><path fill="none" stroke="none"/><text fill="#000000" stroke="none" font-family="Arial" font-size="13px" font-style="normal" font-weight="bold" text-decoration="none" x="802.87548828125" y="363.5">DoenzaDAO</text></g></g><g transform="translate(-30,2) scale(1,1)"><rect fill="#C0C0C0" stroke="none" x="511" y="431" width="126.72998046875" height="44" opacity="0.2"/></g><g transform="translate(-30,2) scale(1,1)"><rect fill="#ffffff" stroke="none" x="504" y="424" width="126.72998046875" height="44"/></g><g transform="translate(-30,2) scale(1,1)"><path fill="none" stroke="#000000" d="M 504 424 L 630.72998046875 424 L 630.72998046875 468 L 504 468 L 504 424 Z Z" stroke-miterlimit="10"/></g><g transform="translate(-30,2) scale(1,1)"><path fill="none" stroke="#000000" d="M 504 449 L 630.72998046875 449" stroke-miterlimit="10"/></g><g transform="translate(-30,2) scale(1,1)"><path fill="none" stroke="#000000" d="M 504 459 L 630.72998046875 459" stroke-miterlimit="10"/></g><g transform="translate(-30,2) scale(1,1)"><g><path fill="none" stroke="none"/><text fill="#000000" stroke="none" font-family="Arial" font-size="13px" font-style="normal" font-weight="bold" text-decoration="none" x="529.4345703125" y="443.5">SintomaDAO</text></g></g><g transform="translate(-30,2) scale(1,1)"><path fill="none" stroke="#000000" d="M 168 345 L 535 226" stroke-miterlimit="10"/></g><g transform="translate(-30,2) scale(1,1)"><path fill="#FFFFFF" stroke="none" d="M 518.2624241143601 240.27772928278327 L 535 226 L 513.0688673948379 224.26062578644138"/></g><g transform="translate(-30,2) scale(1,1)"><path fill="none" stroke="#000000" d="M 518.2624241143601 240.27772928278327 L 535 226 L 513.0688673948379 224.26062578644138 L 518.2624241143601 240.27772928278327" stroke-miterlimit="10"/></g><g transform="translate(-30,2) scale(1,1)"><path fill="none" stroke="#000000" d="M 358 343 L 535 240" stroke-miterlimit="10"/></g><g transform="translate(-30,2) scale(1,1)"><path fill="#FFFFFF" stroke="none" d="M 521.66703952783 257.49949042251086 L 535 240 L 513.1981648917698 242.94618158190283"/></g><g transform="translate(-30,2) scale(1,1)"><path fill="none" stroke="#000000" d="M 521.66703952783 257.49949042251086 L 535 240 L 513.1981648917698 242.94618158190283 L 521.66703952783 257.49949042251086" stroke-miterlimit="10"/></g><g transform="translate(-30,2) scale(1,1)"><path fill="none" stroke="#000000" d="M 509 343 L 553 268" stroke-miterlimit="10"/></g><g transform="translate(-30,2) scale(1,1)"><path fill="#FFFFFF" stroke="none" d="M 549.9767038742759 289.7912753306497 L 553 268 L 535.4534482509599 281.270965364971"/></g><g transform="translate(-30,2) scale(1,1)"><path fill="none" stroke="#000000" d="M 549.9767038742759 289.7912753306497 L 553 268 L 535.4534482509599 281.270965364971 L 549.9767038742759 289.7912753306497" stroke-miterlimit="10"/></g><g transform="translate(-30,2) scale(1,1)"><path fill="none" stroke="#000000" d="M 659 343 L 619 268" stroke-miterlimit="10"/></g><g transform="translate(-30,2) scale(1,1)"><path fill="#FFFFFF" stroke="none" d="M 635.9934312001451 281.97223303720403 L 619 268 L 621.1363097083239 289.8960311661753"/></g><g transform="translate(-30,2) scale(1,1)"><path fill="none" stroke="#000000" d="M 635.9934312001451 281.97223303720403 L 619 268 L 621.1363097083239 289.8960311661753 L 635.9934312001451 281.97223303720403" stroke-miterlimit="10"/></g><g transform="translate(-30,2) scale(1,1)"><path fill="none" stroke="#000000" d="M 802 343 L 643 243" stroke-miterlimit="10"/></g><g transform="translate(-30,2) scale(1,1)"><path fill="#FFFFFF" stroke="none" d="M 664.687604276551 246.69429570334128 L 643 243 L 655.7231905080987 260.9477135951805"/></g><g transform="translate(-30,2) scale(1,1)"><path fill="none" stroke="#000000" d="M 664.687604276551 246.69429570334128 L 643 243 L 655.7231905080987 260.9477135951805 L 664.687604276551 246.69429570334128" stroke-miterlimit="10"/></g><g transform="translate(-30,2) scale(1,1)"><path fill="none" stroke="#000000" d="M 939 343 L 643 230" stroke-miterlimit="10"/></g><g transform="translate(-30,2) scale(1,1)"><path fill="#FFFFFF" stroke="none" d="M 664.9913655484265 229.38368732328357 L 643 230 L 658.986042579882 245.11444483380717"/></g><g transform="translate(-30,2) scale(1,1)"><path fill="none" stroke="#000000" d="M 664.9913655484265 229.38368732328357 L 643 230 L 658.986042579882 245.11444483380717 L 664.9913655484265 229.38368732328357" stroke-miterlimit="10"/></g><g transform="translate(-30,2) scale(1,1)"><path fill="none" stroke="#000000" d="M 230 423 L 535 241" stroke-miterlimit="10"/></g><g transform="translate(-30,2) scale(1,1)"><path fill="#FFFFFF" stroke="none" d="M 521.8600763259986 258.6448974449107 L 535 241 L 513.2318442292024 244.18549750247752"/></g><g transform="translate(-30,2) scale(1,1)"><path fill="none" stroke="#000000" d="M 521.8600763259986 258.6448974449107 L 535 241 L 513.2318442292024 244.18549750247752 L 521.8600763259986 258.6448974449107" stroke-miterlimit="10"/></g><g transform="translate(-30,2) scale(1,1)"><path fill="none" stroke="#000000" d="M 410 423 L 539 268" stroke-miterlimit="10"/></g><g transform="translate(-30,2) scale(1,1)"><path fill="#FFFFFF" stroke="none" d="M 532.4690476823669 289.00825223155897 L 539 268 L 519.5268417147829 278.2369969424084"/></g><g transform="translate(-30,2) scale(1,1)"><path fill="none" stroke="#000000" d="M 532.4690476823669 289.00825223155897 L 539 268 L 519.5268417147829 278.2369969424084 L 532.4690476823669 289.00825223155897" stroke-miterlimit="10"/></g><g transform="translate(-30,2) scale(1,1)"><path fill="none" stroke="#000000" d="M 569 423 L 583 268" stroke-miterlimit="10"/></g><g transform="translate(-30,2) scale(1,1)"><path fill="#FFFFFF" stroke="none" d="M 589.5565072527775 289.0002907752316 L 583 268 L 572.7867027252822 287.4855987533933"/></g><g transform="translate(-30,2) scale(1,1)"><path fill="none" stroke="#000000" d="M 589.5565072527775 289.0002907752316 L 583 268 L 572.7867027252822 287.4855987533933 L 589.5565072527775 289.0002907752316" stroke-miterlimit="10"/></g><g transform="translate(-30,2) scale(1,1)"><path fill="none" stroke="#000000" d="M 930 423 L 643 243" stroke-miterlimit="10"/></g><g transform="translate(-30,2) scale(1,1)"><path fill="#FFFFFF" stroke="none" d="M 664.6922316364064 246.66702694733624 L 643 243 L 655.745744467917 260.9317037104276"/></g><g transform="translate(-30,2) scale(1,1)"><path fill="none" stroke="#000000" d="M 664.6922316364064 246.66702694733624 L 643 243 L 655.745744467917 260.9317037104276 L 664.6922316364064 246.66702694733624" stroke-miterlimit="10"/></g><g transform="translate(-30,2) scale(1,1)"><path fill="none" stroke="#000000" d="M 757 423 L 635 268" stroke-miterlimit="10"/></g><g transform="translate(-30,2) scale(1,1)"><path fill="#FFFFFF" stroke="none" d="M 654.1866831777863 278.764348035773 L 635 268 L 640.9554902923434 289.17857727463775"/></g><g transform="translate(-30,2) scale(1,1)"><path fill="none" stroke="#000000" d="M 654.1866831777863 278.764348035773 L 635 268 L 640.9554902923434 289.17857727463775 L 654.1866831777863 278.764348035773" stroke-miterlimit="10"/></g><g transform="translate(-30,2) scale(1,1)"><rect fill="#C0C0C0" stroke="none" x="543" y="15" width="105.82080078125" height="100" opacity="0.2"/></g><g transform="translate(-30,2) scale(1,1)"><rect fill="#ffffff" stroke="none" x="536" y="8" width="105.82080078125" height="100"/></g><g transform="translate(-30,2) scale(1,1)"><path fill="none" stroke="#000000" d="M 536 8 L 641.82080078125 8 L 641.82080078125 108 L 536 108 L 536 8 Z Z" stroke-miterlimit="10"/></g><g transform="translate(-30,2) scale(1,1)"><path fill="none" stroke="#000000" d="M 536 33 L 641.82080078125 33" stroke-miterlimit="10"/></g><g transform="translate(-30,2) scale(1,1)"><path fill="none" stroke="#000000" d="M 536 71 L 641.82080078125 71" stroke-miterlimit="10"/></g><g transform="translate(-30,2) scale(1,1)"><g><path fill="none" stroke="none"/><text fill="#000000" stroke="none" font-family="Arial" font-size="13px" font-style="italic" font-weight="bold" text-decoration="none" x="547.025390625" y="27.5">DatabaseLinker</text></g></g><g transform="translate(-30,2) scale(1,1)"><g><path fill="none" stroke="none"/><text fill="#000000" stroke="none" font-family="Arial" font-size="13px" font-style="normal" font-weight="normal" text-decoration="none" x="541" y="50.5">-daos</text></g></g><g transform="translate(-30,2) scale(1,1)"><g><path fill="none" stroke="none"/><text fill="#000000" stroke="none" font-family="Arial" font-size="13px" font-style="normal" font-weight="normal" text-decoration="none" x="541" y="65.5">-usuario</text></g></g><g transform="translate(-30,2) scale(1,1)"><g><path fill="none" stroke="none"/><text fill="#000000" stroke="none" font-family="Arial" font-size="13px" font-style="normal" font-weight="normal" text-decoration="none" x="541" y="88.5">+getDAO()</text></g></g><g transform="translate(-30,2) scale(1,1)"><g><path fill="none" stroke="none"/><text fill="#000000" stroke="none" font-family="Arial" font-size="13px" font-style="normal" font-weight="normal" text-decoration="none" x="541" y="103.5">+getUsuario()</text></g></g><g transform="translate(-30,2) scale(1,1)"><path fill="none" stroke="#000000" d="M 588 151 L 588 109" stroke-miterlimit="10"/></g><g transform="translate(-30,2) scale(1,1)"><path fill="#FFFFFF" stroke="none" d="M 592.209517756016 119.16267485762415 L 588 109 L 583.790482243984 119.16267485762415 L 588 131"/></g><g transform="translate(-30,2) scale(1,1)"><path fill="none" stroke="#000000" d="M 592.209517756016 119.16267485762415 L 588 109 L 583.790482243984 119.16267485762415 L 588 131 L 592.209517756016 119.16267485762415" stroke-miterlimit="10"/></g><g transform="translate(-30,2) scale(1,1)"><g><path fill="none" stroke="none"/><text fill="#000000" stroke="none" font-family="Arial" font-size="13px" font-style="normal" font-weight="normal" text-decoration="none" x="596.5" y="124.5">1</text></g></g></g></svg>