<svg version="1.1" xmlns="http://www.w3.org/2000/svg" xmlns:xlink="http://www.w3.org/1999/xlink" width="515.8251953125" height="989"><defs/><g><g transform="translate(-62,-78) scale(1,1)"><path fill="#C0C0C0" stroke="none" d="M 275 104.5 C 275 99.2532944 279.2532944 95 284.5 95 C 289.7467056 95 294 99.2532944 294 104.5 C 294 109.7467056 289.7467056 114 284.5 114 C 279.2532944 114 275 109.7467056 275 104.5 Z" opacity="0.2"/></g><g transform="translate(-62,-78) scale(1,1)"><path fill="#000000" stroke="none" d="M 268 97.5 C 268 92.2532944 272.2532944 88 277.5 88 C 282.7467056 88 287 92.2532944 287 97.5 C 287 102.7467056 282.7467056 107 277.5 107 C 272.2532944 107 268 102.7467056 268 97.5 Z"/></g><g transform="translate(-62,-78) scale(1,1)"><path fill="#C0C0C0" stroke="none" d="M 200 151 L 369.6162109375 151 Q 379.6162109375 151 379.6162109375 161 L 379.6162109375 181 Q 379.6162109375 191 369.6162109375 191 L 200 191 Q 190 191 190 181 L 190 161 Q 190 151 200 151 Z" opacity="0.2"/></g><g transform="translate(-62,-78) scale(1,1)"><path fill="#d8f2ff" stroke="none" d="M 193 144 L 362.6162109375 144 Q 372.6162109375 144 372.6162109375 154 L 372.6162109375 174 Q 372.6162109375 184 362.6162109375 184 L 193 184 Q 183 184 183 174 L 183 154 Q 183 144 193 144 Z"/></g><g transform="translate(-62,-78) scale(1,1)"><path fill="none" stroke="#000000" d="M 193 144 L 362.6162109375 144 Q 372.6162109375 144 372.6162109375 154 L 372.6162109375 174 Q 372.6162109375 184 362.6162109375 184 L 193 184 Q 183 184 183 174 L 183 154 Q 183 144 193 144 Z" stroke-miterlimit="10"/></g><g transform="translate(-62,-78) scale(1,1)"><g><path fill="none" stroke="none"/><text fill="#000000" stroke="none" font-family="Arial" font-size="13px" font-style="normal" font-weight="bold" text-decoration="none" x="193.61279296875" y="163.5">Acceder ventana de contacto</text></g></g><g transform="translate(-62,-78) scale(1,1)"><path fill="#C0C0C0" stroke="none" d="M 237 327 L 332.89453125 327 Q 342.89453125 327 342.89453125 337 L 342.89453125 357 Q 342.89453125 367 332.89453125 367 L 237 367 Q 227 367 227 357 L 227 337 Q 227 327 237 327 Z" opacity="0.2"/></g><g transform="translate(-62,-78) scale(1,1)"><path fill="#d8f2ff" stroke="none" d="M 230 320 L 325.89453125 320 Q 335.89453125 320 335.89453125 330 L 335.89453125 350 Q 335.89453125 360 325.89453125 360 L 230 360 Q 220 360 220 350 L 220 330 Q 220 320 230 320 Z"/></g><g transform="translate(-62,-78) scale(1,1)"><path fill="none" stroke="#000000" d="M 230 320 L 325.89453125 320 Q 335.89453125 320 335.89453125 330 L 335.89453125 350 Q 335.89453125 360 325.89453125 360 L 230 360 Q 220 360 220 350 L 220 330 Q 220 320 230 320 Z" stroke-miterlimit="10"/></g><g transform="translate(-62,-78) scale(1,1)"><g><path fill="none" stroke="none"/><text fill="#000000" stroke="none" font-family="Arial" font-size="13px" font-style="normal" font-weight="bold" text-decoration="none" x="229.54638671875" y="339.5">Cubrir formulario</text></g></g><g transform="translate(-62,-78) scale(1,1)"><path fill="#C0C0C0" stroke="none" d="M 253 663 L 316 663 Q 319 663 319 666 L 319 665 Q 319 668 316 668 L 253 668 Q 250 668 250 665 L 250 666 Q 250 663 253 663 Z" opacity="0.2"/></g><g transform="translate(-62,-78) scale(1,1)"><path fill="#000000" stroke="none" d="M 246 656 L 309 656 Q 312 656 312 659 L 312 659 Q 312 662 309 662 L 246 662 Q 243 662 243 659 L 243 659 Q 243 656 246 656 Z"/></g><g transform="translate(-62,-78) scale(1,1)"><path fill="none" stroke="#000000" d="M 277 108 L 277 143" stroke-miterlimit="10"/></g><g transform="translate(-62,-78) scale(1,1)"><path fill="none" stroke="#000000" d="M 272.790482243984 132.83732514237585 L 277 143 L 281.209517756016 132.83732514237585" stroke-miterlimit="10"/></g><g transform="translate(-62,-78) scale(1,1)"><path fill="none" stroke="#000000" d="M 277 185 L 277 231" stroke-miterlimit="10"/></g><g transform="translate(-62,-78) scale(1,1)"><path fill="none" stroke="#000000" d="M 272.790482243984 220.83732514237585 L 277 231 L 281.209517756016 220.83732514237585" stroke-miterlimit="10"/></g><g transform="translate(-62,-78) scale(1,1)"><path fill="none" stroke="#000000" d="M 277 361 L 277 407" stroke-miterlimit="10"/></g><g transform="translate(-62,-78) scale(1,1)"><path fill="none" stroke="#000000" d="M 272.790482243984 396.83732514237585 L 277 407 L 281.209517756016 396.83732514237585" stroke-miterlimit="10"/></g><g transform="translate(-62,-78) scale(1,1)"><path fill="none" stroke="#000000" d="M 277 449 L 277 495" stroke-miterlimit="10"/></g><g transform="translate(-62,-78) scale(1,1)"><path fill="none" stroke="#000000" d="M 272.790482243984 484.83732514237585 L 277 495 L 281.209517756016 484.83732514237585" stroke-miterlimit="10"/></g><g transform="translate(-62,-78) scale(1,1)"><path fill="none" stroke="#000000" d="M 270 662 L 189 711" stroke-miterlimit="10"/></g><g transform="translate(-62,-78) scale(1,1)"><path fill="none" stroke="#000000" d="M 195.51657723491576 702.1380464263585 L 189 711 L 199.87426341941708 709.3415684864525" stroke-miterlimit="10"/></g><g transform="translate(-62,-78) scale(1,1)"><path fill="none" stroke="#000000" d="M 285 662 L 379 711" stroke-miterlimit="10"/></g><g transform="translate(-62,-78) scale(1,1)"><path fill="none" stroke="#000000" d="M 368.0423950849453 710.0351712454689 L 379 711 L 371.9340402140146 702.5695663039891" stroke-miterlimit="10"/></g><g transform="translate(-62,-78) scale(1,1)"><path fill="#C0C0C0" stroke="none" d="M 253 911 L 316 911 Q 319 911 319 914 L 319 913 Q 319 916 316 916 L 253 916 Q 250 916 250 913 L 250 914 Q 250 911 253 911 Z" opacity="0.2"/></g><g transform="translate(-62,-78) scale(1,1)"><path fill="#000000" stroke="none" d="M 246 904 L 309 904 Q 312 904 312 907 L 312 907 Q 312 910 309 910 L 246 910 Q 243 910 243 907 L 243 907 Q 243 904 246 904 Z"/></g><g transform="translate(-62,-78) scale(1,1)"><path fill="#C0C0C0" stroke="none" d="M 271 1051.5 C 271 1044.59644 276.59644 1039 283.5 1039 C 290.40356 1039 296 1044.59644 296 1051.5 C 296 1058.40356 290.40356 1064 283.5 1064 C 276.59644 1064 271 1058.40356 271 1051.5 Z" opacity="0.2"/></g><g transform="translate(-62,-78) scale(1,1)"><path fill="none" stroke="#000000" d="M 264 1044.5 C 264 1037.59644 269.59644 1032 276.5 1032 C 283.40356 1032 289 1037.59644 289 1044.5 C 289 1051.40356 283.40356 1057 276.5 1057 C 269.59644 1057 264 1051.40356 264 1044.5 Z" stroke-miterlimit="10"/></g><g transform="translate(-62,-78) scale(1,1)"><path fill="#000000" stroke="none" d="M 269 1044.5 C 269 1040.357864 272.357864 1037 276.5 1037 C 280.642136 1037 284 1040.357864 284 1044.5 C 284 1048.642136 280.642136 1052 276.5 1052 C 272.357864 1052 269 1048.642136 269 1044.5 Z"/></g><g transform="translate(-62,-78) scale(1,1)"><path fill="none" stroke="#000000" d="M 169 753 L 275 903" stroke-miterlimit="10"/></g><g transform="translate(-62,-78) scale(1,1)"><path fill="none" stroke="#000000" d="M 265.697242396695 897.1298465970513 L 275 903 L 272.5727822927987 892.2711317371379" stroke-miterlimit="10"/></g><g transform="translate(-62,-78) scale(1,1)"><path fill="none" stroke="#000000" d="M 277 993 L 276 1031" stroke-miterlimit="10"/></g><g transform="translate(-62,-78) scale(1,1)"><path fill="none" stroke="#000000" d="M 272.0592853332588 1020.7301038021151 L 276 1031 L 280.4754071800324 1020.9515806928197" stroke-miterlimit="10"/></g><g transform="translate(-62,-78) scale(1,1)"><path fill="none" stroke="#000000" d="M 402 753 L 279 903" stroke-miterlimit="10"/></g><g transform="translate(-62,-78) scale(1,1)"><path fill="none" stroke="#000000" d="M 282.1888601945546 892.4723615820268 L 279 903 L 288.6990291830543 897.8107001525965" stroke-miterlimit="10"/></g><g transform="translate(-62,-78) scale(1,1)"><path fill="none" stroke="#000000" d="M 277 910 L 277 951" stroke-miterlimit="10"/></g><g transform="translate(-62,-78) scale(1,1)"><path fill="none" stroke="#000000" d="M 272.790482243984 940.8373251423759 L 277 951 L 281.209517756016 940.8373251423759" stroke-miterlimit="10"/></g><g transform="translate(-62,-78) scale(1,1)"><path fill="#C0C0C0" stroke="none" d="M 273 600.5 L 284.5 591 L 295 600.5 L 284.5 609 L 273 600.5" opacity="0.2"/></g><g transform="translate(-62,-78) scale(1,1)"><path fill="#ffffff" stroke="none" d="M 266 593 L 277 584 L 288 593 L 277 602 L 266 593"/></g><g transform="translate(-62,-78) scale(1,1)"><path fill="none" stroke="#000000" d="M 266 593 L 277 584 L 288 593 L 277 602 L 266 593 L 266 593" stroke-miterlimit="10"/></g><g transform="translate(-62,-78) scale(1,1)"><path fill="none" stroke="#000000" d="M 277 603 L 277 655" stroke-miterlimit="10"/></g><g transform="translate(-62,-78) scale(1,1)"><path fill="none" stroke="#000000" d="M 272.790482243984 644.8373251423759 L 277 655 L 281.209517756016 644.8373251423759" stroke-miterlimit="10"/></g><g transform="translate(-62,-78) scale(1,1)"><g><path fill="none" stroke="none"/><text fill="#000000" stroke="none" font-family="Arial" font-size="13px" font-style="normal" font-weight="normal" text-decoration="none" x="280.5" y="634.5">[no]</text></g></g><g transform="translate(-62,-78) scale(1,1)"><path fill="none" stroke="#000000" d="M 289 593 L 392 592 L 392 336 L 337 338" stroke-miterlimit="10"/></g><g transform="translate(-62,-78) scale(1,1)"><path fill="none" stroke="#000000" d="M 347.0029901223421 333.4239549158333 L 337 338 L 347.3089346576798 341.83742963762046" stroke-miterlimit="10"/></g><g transform="translate(-62,-78) scale(1,1)"><g><path fill="none" stroke="none"/><text fill="#000000" stroke="none" font-family="Arial" font-size="13px" font-style="normal" font-weight="normal" text-decoration="none" x="396.489501953125" y="466.5">[si]</text></g></g><g transform="translate(-62,-78) scale(1,1)"><path fill="#C0C0C0" stroke="none" d="M 203 239 L 203 279 L 354.90625 279 L 365.15625 259.5 L 354.90625 239" opacity="0.2"/></g><g transform="translate(-62,-78) scale(1,1)"><path fill="#ffd8d8" stroke="none" d="M 196 232 L 196 272 L 347.90625 272 L 358.15625 252.5 L 347.90625 232"/></g><g transform="translate(-62,-78) scale(1,1)"><path fill="none" stroke="#000000" d="M 196 232 L 196 272 L 347.90625 272 L 358.15625 252.5 L 347.90625 232 L 196 232" stroke-miterlimit="10"/></g><g transform="translate(-62,-78) scale(1,1)"><g><path fill="none" stroke="none"/><text fill="#000000" stroke="none" font-family="Arial" font-size="13px" font-style="normal" font-weight="bold" text-decoration="none" x="206.63818359375" y="251.5">Amosar formulario vacío</text></g></g><g transform="translate(-62,-78) scale(1,1)"><path fill="none" stroke="#000000" d="M 277 273 L 277 319" stroke-miterlimit="10"/></g><g transform="translate(-62,-78) scale(1,1)"><path fill="none" stroke="#000000" d="M 272.790482243984 308.83732514237585 L 277 319 L 281.209517756016 308.83732514237585" stroke-miterlimit="10"/></g><g transform="translate(-62,-78) scale(1,1)"><path fill="#C0C0C0" stroke="none" d="M 224 415 L 344.96630859375 415 L 344.96630859375 455 L 224 455 L 234.25 435.5" opacity="0.2"/></g><g transform="translate(-62,-78) scale(1,1)"><path fill="#ffd8d8" stroke="none" d="M 217 408 L 337.96630859375 408 L 337.96630859375 448 L 217 448 L 227.25 428.5"/></g><g transform="translate(-62,-78) scale(1,1)"><path fill="none" stroke="#000000" d="M 217 408 L 337.96630859375 408 L 337.96630859375 448 L 217 448 L 227.25 428.5 L 217 408" stroke-miterlimit="10"/></g><g transform="translate(-62,-78) scale(1,1)"><g><path fill="none" stroke="none"/><text fill="#000000" stroke="none" font-family="Arial" font-size="13px" font-style="normal" font-weight="bold" text-decoration="none" x="226.552734375" y="427.5">Recibir formulario</text></g></g><g transform="translate(-62,-78) scale(1,1)"><path fill="#C0C0C0" stroke="none" d="M 217 503 L 352.63720703125 503 Q 362.63720703125 503 362.63720703125 513 L 362.63720703125 533 Q 362.63720703125 543 352.63720703125 543 L 217 543 Q 207 543 207 533 L 207 513 Q 207 503 217 503 Z" opacity="0.2"/></g><g transform="translate(-62,-78) scale(1,1)"><path fill="#ffd8d8" stroke="none" d="M 210 496 L 345.63720703125 496 Q 355.63720703125 496 355.63720703125 506 L 355.63720703125 526 Q 355.63720703125 536 345.63720703125 536 L 210 536 Q 200 536 200 526 L 200 506 Q 200 496 210 496 Z"/></g><g transform="translate(-62,-78) scale(1,1)"><path fill="none" stroke="#000000" d="M 210 496 L 345.63720703125 496 Q 355.63720703125 496 355.63720703125 506 L 355.63720703125 526 Q 355.63720703125 536 345.63720703125 536 L 210 536 Q 200 536 200 526 L 200 506 Q 200 496 210 496 Z" stroke-miterlimit="10"/></g><g transform="translate(-62,-78) scale(1,1)"><g><path fill="none" stroke="none"/><text fill="#000000" stroke="none" font-family="Arial" font-size="13px" font-style="normal" font-weight="bold" text-decoration="none" x="209.898681640625" y="515.5">Comprobar corpo vacío</text></g></g><g transform="translate(-62,-78) scale(1,1)"><path fill="none" stroke="#000000" d="M 277 537 L 277 583" stroke-miterlimit="10"/></g><g transform="translate(-62,-78) scale(1,1)"><path fill="none" stroke="#000000" d="M 272.790482243984 572.8373251423759 L 277 583 L 281.209517756016 572.8373251423759" stroke-miterlimit="10"/></g><g transform="translate(-62,-78) scale(1,1)"><path fill="#C0C0C0" stroke="none" d="M 79 719 L 79 759 L 234.5498046875 759 L 244.7998046875 739.5 L 234.5498046875 719" opacity="0.2"/></g><g transform="translate(-62,-78) scale(1,1)"><path fill="#ffd8d8" stroke="none" d="M 72 712 L 72 752 L 227.5498046875 752 L 237.7998046875 732.5 L 227.5498046875 712"/></g><g transform="translate(-62,-78) scale(1,1)"><path fill="none" stroke="#000000" d="M 72 712 L 72 752 L 227.5498046875 752 L 237.7998046875 732.5 L 227.5498046875 712 L 72 712" stroke-miterlimit="10"/></g><g transform="translate(-62,-78) scale(1,1)"><g><path fill="none" stroke="none"/><text fill="#000000" stroke="none" font-family="Arial" font-size="13px" font-style="normal" font-weight="bold" text-decoration="none" x="80.844970703125" y="731.5">Rexistrar mensaxe na BD</text></g></g><g transform="translate(-62,-78) scale(1,1)"><path fill="#C0C0C0" stroke="none" d="M 279 719 L 279 759 L 564.5751953125 759 L 574.8251953125 739.5 L 564.5751953125 719" opacity="0.2"/></g><g transform="translate(-62,-78) scale(1,1)"><path fill="#ffd8d8" stroke="none" d="M 272 712 L 272 752 L 557.5751953125 752 L 567.8251953125 732.5 L 557.5751953125 712"/></g><g transform="translate(-62,-78) scale(1,1)"><path fill="none" stroke="#000000" d="M 272 712 L 272 752 L 557.5751953125 752 L 567.8251953125 732.5 L 557.5751953125 712 L 272 712" stroke-miterlimit="10"/></g><g transform="translate(-62,-78) scale(1,1)"><g><path fill="none" stroke="none"/><text fill="#000000" stroke="none" font-family="Arial" font-size="13px" font-style="normal" font-weight="bold" text-decoration="none" x="287.67822265625" y="731.5">Enviar copia ao servidor de correo electrónico</text></g></g><g transform="translate(-62,-78) scale(1,1)"><path fill="#C0C0C0" stroke="none" d="M 151 959 L 151 999 L 408.37890625 999 L 418.62890625 979.5 L 408.37890625 959" opacity="0.2"/></g><g transform="translate(-62,-78) scale(1,1)"><path fill="#ffd8d8" stroke="none" d="M 144 952 L 144 992 L 401.37890625 992 L 411.62890625 972.5 L 401.37890625 952"/></g><g transform="translate(-62,-78) scale(1,1)"><path fill="none" stroke="#000000" d="M 144 952 L 144 992 L 401.37890625 992 L 411.62890625 972.5 L 401.37890625 952 L 144 952" stroke-miterlimit="10"/></g><g transform="translate(-62,-78) scale(1,1)"><g><path fill="none" stroke="none"/><text fill="#000000" stroke="none" font-family="Arial" font-size="13px" font-style="normal" font-weight="bold" text-decoration="none" x="158.589599609375" y="971.5">Amosar aviso de confirmación ao usuario</text></g></g></g></svg>