<svg version="1.1" xmlns="http://www.w3.org/2000/svg" xmlns:xlink="http://www.w3.org/1999/xlink" width="1360" height="788"><defs/><g><g transform="translate(-3,-54) scale(1,1)"><path fill="#C0C0C0" stroke="none" d="M 164 80.5 C 164 75.2532944 168.2532944 71 173.5 71 C 178.7467056 71 183 75.2532944 183 80.5 C 183 85.7467056 178.7467056 90 173.5 90 C 168.2532944 90 164 85.7467056 164 80.5 Z" opacity="0.2"/></g><g transform="translate(-3,-54) scale(1,1)"><path fill="#000000" stroke="none" d="M 157 73.5 C 157 68.2532944 161.2532944 64 166.5 64 C 171.7467056 64 176 68.2532944 176 73.5 C 176 78.7467056 171.7467056 83 166.5 83 C 161.2532944 83 157 78.7467056 157 73.5 Z"/></g><g transform="translate(-3,-54) scale(1,1)"><path fill="#C0C0C0" stroke="none" d="M 112 799 L 112 839 L 224.15087890625 839 L 234.40087890625 819.5 L 224.15087890625 799" opacity="0.2"/></g><g transform="translate(-3,-54) scale(1,1)"><path fill="#ffd8d8" stroke="none" d="M 105 792 L 105 832 L 217.15087890625 832 L 227.40087890625 812.5 L 217.15087890625 792"/></g><g transform="translate(-3,-54) scale(1,1)"><path fill="none" stroke="#000000" d="M 105 792 L 105 832 L 217.15087890625 832 L 227.40087890625 812.5 L 217.15087890625 792 L 105 792" stroke-miterlimit="10"/></g><g transform="translate(-3,-54) scale(1,1)"><g><path fill="none" stroke="none"/><text fill="#000000" stroke="none" font-family="Arial" font-size="13px" font-style="normal" font-weight="bold" text-decoration="none" x="116.70458984375" y="811.5">Introducir en lista</text></g></g><g transform="translate(-3,-54) scale(1,1)"><path fill="#C0C0C0" stroke="none" d="M 89 127 L 258.60986328125 127 Q 268.60986328125 127 268.60986328125 137 L 268.60986328125 157 Q 268.60986328125 167 258.60986328125 167 L 89 167 Q 79 167 79 157 L 79 137 Q 79 127 89 127 Z" opacity="0.2"/></g><g transform="translate(-3,-54) scale(1,1)"><path fill="#d8f2ff" stroke="none" d="M 82 120 L 251.60986328125 120 Q 261.60986328125 120 261.60986328125 130 L 261.60986328125 150 Q 261.60986328125 160 251.60986328125 160 L 82 160 Q 72 160 72 150 L 72 130 Q 72 120 82 120 Z"/></g><g transform="translate(-3,-54) scale(1,1)"><path fill="none" stroke="#000000" d="M 82 120 L 251.60986328125 120 Q 261.60986328125 120 261.60986328125 130 L 261.60986328125 150 Q 261.60986328125 160 251.60986328125 160 L 82 160 Q 72 160 72 150 L 72 130 Q 72 120 82 120 Z" stroke-miterlimit="10"/></g><g transform="translate(-3,-54) scale(1,1)"><g><path fill="none" stroke="none"/><text fill="#000000" stroke="none" font-family="Arial" font-size="13px" font-style="normal" font-weight="bold" text-decoration="none" x="83.333251953125" y="139.5">Acceder ventana diagnóstico</text></g></g><g transform="translate(-3,-54) scale(1,1)"><path fill="#C0C0C0" stroke="none" d="M 119 471 L 227.92626953125 471 Q 237.92626953125 471 237.92626953125 481 L 237.92626953125 501 Q 237.92626953125 511 227.92626953125 511 L 119 511 Q 109 511 109 501 L 109 481 Q 109 471 119 471 Z" opacity="0.2"/></g><g transform="translate(-3,-54) scale(1,1)"><path fill="#ffd8d8" stroke="none" d="M 112 464 L 220.92626953125 464 Q 230.92626953125 464 230.92626953125 474 L 230.92626953125 494 Q 230.92626953125 504 220.92626953125 504 L 112 504 Q 102 504 102 494 L 102 474 Q 102 464 112 464 Z"/></g><g transform="translate(-3,-54) scale(1,1)"><path fill="none" stroke="#000000" d="M 112 464 L 220.92626953125 464 Q 230.92626953125 464 230.92626953125 474 L 230.92626953125 494 Q 230.92626953125 504 220.92626953125 504 L 112 504 Q 102 504 102 494 L 102 474 Q 102 464 112 464 Z" stroke-miterlimit="10"/></g><g transform="translate(-3,-54) scale(1,1)"><g><path fill="none" stroke="none"/><text fill="#000000" stroke="none" font-family="Arial" font-size="13px" font-style="normal" font-weight="bold" text-decoration="none" x="110.10546875" y="483.5">Normalizar en tabla</text></g></g><g transform="translate(-3,-54) scale(1,1)"><path fill="none" stroke="#000000" d="M 166 84 L 166 119" stroke-miterlimit="10"/></g><g transform="translate(-3,-54) scale(1,1)"><path fill="none" stroke="#000000" d="M 161.790482243984 108.83732514237585 L 166 119 L 170.209517756016 108.83732514237585" stroke-miterlimit="10"/></g><g transform="translate(-3,-54) scale(1,1)"><path fill="none" stroke="#000000" d="M 166 249 L 166 295" stroke-miterlimit="10"/></g><g transform="translate(-3,-54) scale(1,1)"><path fill="none" stroke="#000000" d="M 161.790482243984 284.83732514237585 L 166 295 L 170.209517756016 284.83732514237585" stroke-miterlimit="10"/></g><g transform="translate(-3,-54) scale(1,1)"><path fill="none" stroke="#000000" d="M 166 409 L 166 463" stroke-miterlimit="10"/></g><g transform="translate(-3,-54) scale(1,1)"><path fill="none" stroke="#000000" d="M 161.790482243984 452.83732514237585 L 166 463 L 170.209517756016 452.83732514237585" stroke-miterlimit="10"/></g><g transform="translate(-3,-54) scale(1,1)"><path fill="#C0C0C0" stroke="none" d="M 162 584.5 L 173.5 575 L 184 584.5 L 173.5 593 L 162 584.5" opacity="0.2"/></g><g transform="translate(-3,-54) scale(1,1)"><path fill="#ffffff" stroke="none" d="M 155 577 L 166 568 L 177 577 L 166 586 L 155 577"/></g><g transform="translate(-3,-54) scale(1,1)"><path fill="none" stroke="#000000" d="M 155 577 L 166 568 L 177 577 L 166 586 L 155 577 L 155 577" stroke-miterlimit="10"/></g><g transform="translate(-3,-54) scale(1,1)"><path fill="none" stroke="#000000" d="M 166 505 L 166 567" stroke-miterlimit="10"/></g><g transform="translate(-3,-54) scale(1,1)"><path fill="none" stroke="#000000" d="M 161.790482243984 556.8373251423759 L 166 567 L 170.209517756016 556.8373251423759" stroke-miterlimit="10"/></g><g transform="translate(-3,-54) scale(1,1)"><path fill="#C0C0C0" stroke="none" d="M 142 303 L 205 303 Q 208 303 208 306 L 208 305 Q 208 308 205 308 L 142 308 Q 139 308 139 305 L 139 306 Q 139 303 142 303 Z" opacity="0.2"/></g><g transform="translate(-3,-54) scale(1,1)"><path fill="#000000" stroke="none" d="M 135 296 L 198 296 Q 201 296 201 299 L 201 299 Q 201 302 198 302 L 135 302 Q 132 302 132 299 L 132 299 Q 132 296 135 296 Z"/></g><g transform="translate(-3,-54) scale(1,1)"><path fill="none" stroke="#000000" d="M 166 302 L 166 367" stroke-miterlimit="10"/></g><g transform="translate(-3,-54) scale(1,1)"><path fill="none" stroke="#000000" d="M 161.790482243984 356.83732514237585 L 166 367 L 170.209517756016 356.83732514237585" stroke-miterlimit="10"/></g><g transform="translate(-3,-54) scale(1,1)"><path fill="#C0C0C0" stroke="none" d="M 542 287 L 669.4853515625 287 L 669.4853515625 327 L 542 327 L 552.25 307.5" opacity="0.2"/></g><g transform="translate(-3,-54) scale(1,1)"><path fill="#ffd8d8" stroke="none" d="M 535 280 L 662.4853515625 280 L 662.4853515625 320 L 535 320 L 545.25 300.5"/></g><g transform="translate(-3,-54) scale(1,1)"><path fill="none" stroke="#000000" d="M 535 280 L 662.4853515625 280 L 662.4853515625 320 L 535 320 L 545.25 300.5 L 535 280" stroke-miterlimit="10"/></g><g transform="translate(-3,-54) scale(1,1)"><g><path fill="none" stroke="none"/><text fill="#000000" stroke="none" font-family="Arial" font-size="13px" font-style="normal" font-weight="bold" text-decoration="none" x="544.54638671875" y="299.5">Predicción iniciada</text></g></g><g transform="translate(-3,-54) scale(1,1)"><path fill="none" stroke="#000000" d="M 202 298 L 534 300" stroke-miterlimit="10"/></g><g transform="translate(-3,-54) scale(1,1)"><path fill="none" stroke="#000000" d="M 523.8121514571733 304.14822155488645 L 534 300 L 523.8628676183414 295.72933880099015" stroke-miterlimit="10"/></g><g transform="translate(-3,-54) scale(1,1)"><path fill="none" stroke="#000000" d="M 166 587 L 166 647" stroke-miterlimit="10"/></g><g transform="translate(-3,-54) scale(1,1)"><path fill="none" stroke="#000000" d="M 161.790482243984 636.8373251423759 L 166 647 L 170.209517756016 636.8373251423759" stroke-miterlimit="10"/></g><g transform="translate(-3,-54) scale(1,1)"><g><path fill="none" stroke="none"/><text fill="#000000" stroke="none" font-family="Arial" font-size="13px" font-style="normal" font-weight="normal" text-decoration="none" x="27.661376953125" y="611.5">[Atopada coincidencia]</text></g></g><g transform="translate(-3,-54) scale(1,1)"><path fill="none" stroke="#000000" d="M 598 321 L 598 351" stroke-miterlimit="10"/></g><g transform="translate(-3,-54) scale(1,1)"><path fill="none" stroke="#000000" d="M 593.790482243984 340.83732514237585 L 598 351 L 602.209517756016 340.83732514237585" stroke-miterlimit="10"/></g><g transform="translate(-3,-54) scale(1,1)"><path fill="#C0C0C0" stroke="none" d="M 594 520.5 L 605.5 511 L 616 520.5 L 605.5 529 L 594 520.5" opacity="0.2"/></g><g transform="translate(-3,-54) scale(1,1)"><path fill="#ffffff" stroke="none" d="M 587 513 L 598 504 L 609 513 L 598 522 L 587 513"/></g><g transform="translate(-3,-54) scale(1,1)"><path fill="none" stroke="#000000" d="M 587 513 L 598 504 L 609 513 L 598 522 L 587 513 L 587 513" stroke-miterlimit="10"/></g><g transform="translate(-3,-54) scale(1,1)"><path fill="none" stroke="#000000" d="M 598 465 L 598 503" stroke-miterlimit="10"/></g><g transform="translate(-3,-54) scale(1,1)"><path fill="none" stroke="#000000" d="M 593.790482243984 492.83732514237585 L 598 503 L 602.209517756016 492.83732514237585" stroke-miterlimit="10"/></g><g transform="translate(-3,-54) scale(1,1)"><path fill="none" stroke="#000000" d="M 610 513 L 823 515" stroke-miterlimit="10"/></g><g transform="translate(-3,-54) scale(1,1)"><path fill="none" stroke="#000000" d="M 812.7982488675736 519.1139122295009 L 823 515 L 812.8772973595974 510.69524782897014" stroke-miterlimit="10"/></g><g transform="translate(-3,-54) scale(1,1)"><g><path fill="none" stroke="none"/><text fill="#000000" stroke="none" font-family="Arial" font-size="13px" font-style="normal" font-weight="normal" text-decoration="none" x="675.5" y="505.5">[Non atopada]</text></g></g><g transform="translate(-3,-54) scale(1,1)"><path fill="none" stroke="#000000" d="M 598 523 L 601 607" stroke-miterlimit="10"/></g><g transform="translate(-3,-54) scale(1,1)"><path fill="none" stroke="#000000" d="M 596.4304429001526 596.9940443779101 L 601 607 L 604.8441142603102 596.6935561150473" stroke-miterlimit="10"/></g><g transform="translate(-3,-54) scale(1,1)"><g><path fill="none" stroke="none"/><text fill="#000000" stroke="none" font-family="Arial" font-size="13px" font-style="normal" font-weight="normal" text-decoration="none" x="601.5" y="567.5">[Doenza atopada]</text></g></g><g transform="translate(-3,-54) scale(1,1)"><path fill="#C0C0C0" stroke="none" d="M 927 632.5 L 938.5 623 L 949 632.5 L 938.5 641 L 927 632.5" opacity="0.2"/></g><g transform="translate(-3,-54) scale(1,1)"><path fill="#ffffff" stroke="none" d="M 920 625 L 931 616 L 942 625 L 931 634 L 920 625"/></g><g transform="translate(-3,-54) scale(1,1)"><path fill="none" stroke="#000000" d="M 920 625 L 931 616 L 942 625 L 931 634 L 920 625 L 920 625" stroke-miterlimit="10"/></g><g transform="translate(-3,-54) scale(1,1)"><path fill="none" stroke="#000000" d="M 919 625 L 750 627" stroke-miterlimit="10"/></g><g transform="translate(-3,-54) scale(1,1)"><path fill="none" stroke="#000000" d="M 760.1121499952782 622.6705170663234 L 750 627 L 760.2117765754708 631.0889630926026" stroke-miterlimit="10"/></g><g transform="translate(-3,-54) scale(1,1)"><g><path fill="none" stroke="none"/><text fill="#000000" stroke="none" font-family="Arial" font-size="13px" font-style="normal" font-weight="normal" text-decoration="none" x="762.34814453125" y="620.5">[Imposible atopar doenza]</text></g></g><g transform="translate(-3,-54) scale(1,1)"><path fill="#C0C0C0" stroke="none" d="M 391 584.5 L 402.5 575 L 413 584.5 L 402.5 593 L 391 584.5" opacity="0.2"/></g><g transform="translate(-3,-54) scale(1,1)"><path fill="#ffffff" stroke="none" d="M 384 577 L 395 568 L 406 577 L 395 586 L 384 577"/></g><g transform="translate(-3,-54) scale(1,1)"><path fill="none" stroke="#000000" d="M 384 577 L 395 568 L 406 577 L 395 586 L 384 577 L 384 577" stroke-miterlimit="10"/></g><g transform="translate(-3,-54) scale(1,1)"><path fill="none" stroke="#000000" d="M 178 577 L 383 577" stroke-miterlimit="10"/></g><g transform="translate(-3,-54) scale(1,1)"><path fill="none" stroke="#000000" d="M 372.83732514237585 581.209517756016 L 383 577 L 372.83732514237585 572.790482243984" stroke-miterlimit="10"/></g><g transform="translate(-3,-54) scale(1,1)"><g><path fill="none" stroke="none"/><text fill="#000000" stroke="none" font-family="Arial" font-size="13px" font-style="normal" font-weight="normal" text-decoration="none" x="310.937744140625" y="569.5">[*]</text></g></g><g transform="translate(-3,-54) scale(1,1)"><path fill="none" stroke="#000000" d="M 228 810 L 328 808 L 392 587" stroke-miterlimit="10"/></g><g transform="translate(-3,-54) scale(1,1)"><path fill="none" stroke="#000000" d="M 393.21649739822385 597.93252642714 L 392 587 L 385.12972998744806 595.5906571317117" stroke-miterlimit="10"/></g><g transform="translate(-3,-54) scale(1,1)"><path fill="none" stroke="#000000" d="M 383 567 L 191 409" stroke-miterlimit="10"/></g><g transform="translate(-3,-54) scale(1,1)"><path fill="none" stroke="#000000" d="M 201.52206902965926 412.20718932011897 L 191 409 L 196.1724010461798 418.70805167979023" stroke-miterlimit="10"/></g><g transform="translate(-3,-54) scale(1,1)"><path fill="#C0C0C0" stroke="none" d="M 78 215 L 78 255 L 258.064453125 255 L 268.314453125 235.5 L 258.064453125 215" opacity="0.2"/></g><g transform="translate(-3,-54) scale(1,1)"><path fill="#ffd8d8" stroke="none" d="M 71 208 L 71 248 L 251.064453125 248 L 261.314453125 228.5 L 251.064453125 208"/></g><g transform="translate(-3,-54) scale(1,1)"><path fill="none" stroke="#000000" d="M 71 208 L 71 248 L 251.064453125 248 L 261.314453125 228.5 L 251.064453125 208 L 71 208" stroke-miterlimit="10"/></g><g transform="translate(-3,-54) scale(1,1)"><g><path fill="none" stroke="none"/><text fill="#000000" stroke="none" font-family="Arial" font-size="13px" font-style="normal" font-weight="bold" text-decoration="none" x="84.8818359375" y="227.5">Amosar formulario síntomas</text></g></g><g transform="translate(-3,-54) scale(1,1)"><path fill="none" stroke="#000000" d="M 166 161 L 166 207" stroke-miterlimit="10"/></g><g transform="translate(-3,-54) scale(1,1)"><path fill="none" stroke="#000000" d="M 161.790482243984 196.83732514237585 L 166 207 L 170.209517756016 196.83732514237585" stroke-miterlimit="10"/></g><g transform="translate(-3,-54) scale(1,1)"><g><path fill="none" stroke="none"/><text fill="#000000" stroke="none" font-family="Arial" font-size="13px" font-style="normal" font-weight="normal" text-decoration="none" x="503" y="234">* O sistema queda en espera de</text><text fill="#000000" stroke="none" font-family="Arial" font-size="13px" font-style="normal" font-weight="normal" text-decoration="none" x="503" y="247">que o usuario introduza os</text><text fill="#000000" stroke="none" font-family="Arial" font-size="13px" font-style="normal" font-weight="normal" text-decoration="none" x="503" y="260">síntomas e inicie a predicción</text></g></g><g transform="translate(-3,-54) scale(1,1)"><path fill="#C0C0C0" stroke="none" d="M 89 655 L 258.578125 655 Q 268.578125 655 268.578125 665 L 268.578125 685 Q 268.578125 695 258.578125 695 L 89 695 Q 79 695 79 685 L 79 665 Q 79 655 89 655 Z" opacity="0.2"/></g><g transform="translate(-3,-54) scale(1,1)"><path fill="#ffd8d8" stroke="none" d="M 82 648 L 251.578125 648 Q 261.578125 648 261.578125 658 L 261.578125 678 Q 261.578125 688 251.578125 688 L 82 688 Q 72 688 72 678 L 72 658 Q 72 648 82 648 Z"/></g><g transform="translate(-3,-54) scale(1,1)"><path fill="none" stroke="#000000" d="M 82 648 L 251.578125 648 Q 261.578125 648 261.578125 658 L 261.578125 678 Q 261.578125 688 251.578125 688 L 82 688 Q 72 688 72 678 L 72 658 Q 72 648 82 648 Z" stroke-miterlimit="10"/></g><g transform="translate(-3,-54) scale(1,1)"><g><path fill="none" stroke="none"/><text fill="#000000" stroke="none" font-family="Arial" font-size="13px" font-style="normal" font-weight="bold" text-decoration="none" x="84.0537109375" y="667.5">Comprobar síntoma repetido</text></g></g><g transform="translate(-3,-54) scale(1,1)"><path fill="#C0C0C0" stroke="none" d="M 162 744.5 L 173.5 735 L 184 744.5 L 173.5 753 L 162 744.5" opacity="0.2"/></g><g transform="translate(-3,-54) scale(1,1)"><path fill="#ffffff" stroke="none" d="M 155 737 L 166 728 L 177 737 L 166 746 L 155 737"/></g><g transform="translate(-3,-54) scale(1,1)"><path fill="none" stroke="#000000" d="M 155 737 L 166 728 L 177 737 L 166 746 L 155 737 L 155 737" stroke-miterlimit="10"/></g><g transform="translate(-3,-54) scale(1,1)"><path fill="#C0C0C0" stroke="none" d="M 112 375 L 112 415 L 224.8681640625 415 L 235.1181640625 395.5 L 224.8681640625 375" opacity="0.2"/></g><g transform="translate(-3,-54) scale(1,1)"><path fill="#d8f2ff" stroke="none" d="M 105 368 L 105 408 L 217.8681640625 408 L 228.1181640625 388.5 L 217.8681640625 368"/></g><g transform="translate(-3,-54) scale(1,1)"><path fill="none" stroke="#000000" d="M 105 368 L 105 408 L 217.8681640625 408 L 228.1181640625 388.5 L 217.8681640625 368 L 105 368" stroke-miterlimit="10"/></g><g transform="translate(-3,-54) scale(1,1)"><g><path fill="none" stroke="none"/><text fill="#000000" stroke="none" font-family="Arial" font-size="13px" font-style="normal" font-weight="bold" text-decoration="none" x="114.536865234375" y="387.5">Introducir síntoma</text></g></g><g transform="translate(-3,-54) scale(1,1)"><path fill="none" stroke="#000000" d="M 166 689 L 166 727" stroke-miterlimit="10"/></g><g transform="translate(-3,-54) scale(1,1)"><path fill="none" stroke="#000000" d="M 161.790482243984 716.8373251423759 L 166 727 L 170.209517756016 716.8373251423759" stroke-miterlimit="10"/></g><g transform="translate(-3,-54) scale(1,1)"><path fill="none" stroke="#000000" d="M 166 747 L 166 791" stroke-miterlimit="10"/></g><g transform="translate(-3,-54) scale(1,1)"><path fill="none" stroke="#000000" d="M 161.790482243984 780.8373251423759 L 166 791 L 170.209517756016 780.8373251423759" stroke-miterlimit="10"/></g><g transform="translate(-3,-54) scale(1,1)"><g><path fill="none" stroke="none"/><text fill="#000000" stroke="none" font-family="Arial" font-size="13px" font-style="normal" font-weight="normal" text-decoration="none" x="170.937744140625" y="771.5">[*]</text></g></g><g transform="translate(-3,-54) scale(1,1)"><path fill="none" stroke="#000000" d="M 178 737 L 270 736 L 387 587" stroke-miterlimit="10"/></g><g transform="translate(-3,-54) scale(1,1)"><path fill="none" stroke="#000000" d="M 384.03444176754215 597.592708075365 L 387 587 L 377.4128579526054 592.3932093750454" stroke-miterlimit="10"/></g><g transform="translate(-3,-54) scale(1,1)"><g><path fill="none" stroke="none"/><text fill="#000000" stroke="none" font-family="Arial" font-size="13px" font-style="normal" font-weight="normal" text-decoration="none" x="200.5" y="725.5">[Repetido]</text></g></g><g transform="translate(-3,-54) scale(1,1)"><path fill="#C0C0C0" stroke="none" d="M 477 359 L 477 399 L 723.5244140625 399 L 733.7744140625 379.5 L 723.5244140625 359" opacity="0.2"/></g><g transform="translate(-3,-54) scale(1,1)"><path fill="#ffd8d8" stroke="none" d="M 470 352 L 470 392 L 716.5244140625 392 L 726.7744140625 372.5 L 716.5244140625 352"/></g><g transform="translate(-3,-54) scale(1,1)"><path fill="none" stroke="#000000" d="M 470 352 L 470 392 L 716.5244140625 392 L 726.7744140625 372.5 L 716.5244140625 352 L 470 352" stroke-miterlimit="10"/></g><g transform="translate(-3,-54) scale(1,1)"><g><path fill="none" stroke="none"/><text fill="#000000" stroke="none" font-family="Arial" font-size="13px" font-style="normal" font-weight="bold" text-decoration="none" x="484.2119140625" y="371.5">Enviar datos ao algoritmo de prediccion</text></g></g><g transform="translate(-3,-54) scale(1,1)"><path fill="#C0C0C0" stroke="none" d="M 545 431 L 666.18359375 431 Q 676.18359375 431 676.18359375 441 L 676.18359375 461 Q 676.18359375 471 666.18359375 471 L 545 471 Q 535 471 535 461 L 535 441 Q 535 431 545 431 Z" opacity="0.2"/></g><g transform="translate(-3,-54) scale(1,1)"><path fill="#ffd8d8" stroke="none" d="M 538 424 L 659.18359375 424 Q 669.18359375 424 669.18359375 434 L 669.18359375 454 Q 669.18359375 464 659.18359375 464 L 538 464 Q 528 464 528 454 L 528 434 Q 528 424 538 424 Z"/></g><g transform="translate(-3,-54) scale(1,1)"><path fill="none" stroke="#000000" d="M 538 424 L 659.18359375 424 Q 669.18359375 424 669.18359375 434 L 669.18359375 454 Q 669.18359375 464 659.18359375 464 L 538 464 Q 528 464 528 454 L 528 434 Q 528 424 538 424 Z" stroke-miterlimit="10"/></g><g transform="translate(-3,-54) scale(1,1)"><g><path fill="none" stroke="none"/><text fill="#000000" stroke="none" font-family="Arial" font-size="13px" font-style="normal" font-weight="bold" text-decoration="none" x="537.53369140625" y="443.5">Comprobar resultado</text></g></g><g transform="translate(-3,-54) scale(1,1)"><path fill="none" stroke="#000000" d="M 598 393 L 598 423" stroke-miterlimit="10"/></g><g transform="translate(-3,-54) scale(1,1)"><path fill="none" stroke="#000000" d="M 593.790482243984 412.83732514237585 L 598 423 L 602.209517756016 412.83732514237585" stroke-miterlimit="10"/></g><g transform="translate(-3,-54) scale(1,1)"><path fill="#C0C0C0" stroke="none" d="M 841 503 L 1027.208984375 503 Q 1037.208984375 503 1037.208984375 513 L 1037.208984375 533 Q 1037.208984375 543 1027.208984375 543 L 841 543 Q 831 543 831 533 L 831 513 Q 831 503 841 503 Z" opacity="0.2"/></g><g transform="translate(-3,-54) scale(1,1)"><path fill="#ffd8d8" stroke="none" d="M 834 496 L 1020.208984375 496 Q 1030.208984375 496 1030.208984375 506 L 1030.208984375 526 Q 1030.208984375 536 1020.208984375 536 L 834 536 Q 824 536 824 526 L 824 506 Q 824 496 834 496 Z"/></g><g transform="translate(-3,-54) scale(1,1)"><path fill="none" stroke="#000000" d="M 834 496 L 1020.208984375 496 Q 1030.208984375 496 1030.208984375 506 L 1030.208984375 526 Q 1030.208984375 536 1020.208984375 536 L 834 536 Q 824 536 824 526 L 824 506 Q 824 496 834 496 Z" stroke-miterlimit="10"/></g><g transform="translate(-3,-54) scale(1,1)"><g><path fill="none" stroke="none"/><text fill="#000000" stroke="none" font-family="Arial" font-size="13px" font-style="normal" font-weight="bold" text-decoration="none" x="834.965087890625" y="515.5">Comprobar doenzas candidatas</text></g></g><g transform="translate(-3,-54) scale(1,1)"><path fill="none" stroke="#000000" d="M 928 537 L 931 615" stroke-miterlimit="10"/></g><g transform="translate(-3,-54) scale(1,1)"><path fill="none" stroke="#000000" d="M 926.4030090188141 605.0066184942785 L 931 615 L 934.8158243338299 604.6830486744702" stroke-miterlimit="10"/></g><g transform="translate(-3,-54) scale(1,1)"><path fill="#C0C0C0" stroke="none" d="M 463 615 L 463 655 L 745.6171875 655 L 755.8671875 635.5 L 745.6171875 615" opacity="0.2"/></g><g transform="translate(-3,-54) scale(1,1)"><path fill="#ffd8d8" stroke="none" d="M 456 608 L 456 648 L 738.6171875 648 L 748.8671875 628.5 L 738.6171875 608"/></g><g transform="translate(-3,-54) scale(1,1)"><path fill="none" stroke="#000000" d="M 456 608 L 456 648 L 738.6171875 648 L 748.8671875 628.5 L 738.6171875 608 L 456 608" stroke-miterlimit="10"/></g><g transform="translate(-3,-54) scale(1,1)"><g><path fill="none" stroke="none"/><text fill="#000000" stroke="none" font-family="Arial" font-size="13px" font-style="normal" font-weight="bold" text-decoration="none" x="473.0810546875" y="627.5">Introducir diagnóstico no rexistro do paciente</text></g></g><g transform="translate(-3,-54) scale(1,1)"><path fill="#C0C0C0" stroke="none" d="M 1111 615 L 1111 655 L 1284.57080078125 655 L 1294.82080078125 635.5 L 1284.57080078125 615" opacity="0.2"/></g><g transform="translate(-3,-54) scale(1,1)"><path fill="#ffd8d8" stroke="none" d="M 1104 608 L 1104 648 L 1277.57080078125 648 L 1287.82080078125 628.5 L 1277.57080078125 608"/></g><g transform="translate(-3,-54) scale(1,1)"><path fill="none" stroke="#000000" d="M 1104 608 L 1104 648 L 1277.57080078125 648 L 1287.82080078125 628.5 L 1277.57080078125 608 L 1104 608" stroke-miterlimit="10"/></g><g transform="translate(-3,-54) scale(1,1)"><g><path fill="none" stroke="none"/><text fill="#000000" stroke="none" font-family="Arial" font-size="13px" font-style="normal" font-weight="bold" text-decoration="none" x="1114.61279296875" y="627.5">Preguntar síntoma asociado</text></g></g><g transform="translate(-3,-54) scale(1,1)"><path fill="none" stroke="#000000" d="M 943 625 L 1103 627" stroke-miterlimit="10"/></g><g transform="translate(-3,-54) scale(1,1)"><path fill="none" stroke="#000000" d="M 1092.7855041467444 631.0821654135796 L 1103 627 L 1092.890733869894 622.6637875616284" stroke-miterlimit="10"/></g><g transform="translate(-3,-54) scale(1,1)"><g><path fill="none" stroke="none"/><text fill="#000000" stroke="none" font-family="Arial" font-size="13px" font-style="normal" font-weight="normal" text-decoration="none" x="958.5" y="620.5">[Hai posibles doenzas]</text></g></g><g transform="translate(-3,-54) scale(1,1)"><path fill="#C0C0C0" stroke="none" d="M 1151 703 L 1261.87353515625 703 L 1261.87353515625 743 L 1151 743 L 1161.25 723.5" opacity="0.2"/></g><g transform="translate(-3,-54) scale(1,1)"><path fill="#ffd8d8" stroke="none" d="M 1144 696 L 1254.87353515625 696 L 1254.87353515625 736 L 1144 736 L 1154.25 716.5"/></g><g transform="translate(-3,-54) scale(1,1)"><path fill="none" stroke="#000000" d="M 1144 696 L 1254.87353515625 696 L 1254.87353515625 736 L 1144 736 L 1154.25 716.5 L 1144 696" stroke-miterlimit="10"/></g><g transform="translate(-3,-54) scale(1,1)"><g><path fill="none" stroke="none"/><text fill="#000000" stroke="none" font-family="Arial" font-size="13px" font-style="normal" font-weight="bold" text-decoration="none" x="1152.4736328125" y="715.5">Recibir resposta</text></g></g><g transform="translate(-3,-54) scale(1,1)"><path fill="none" stroke="#000000" d="M 1196 649 L 1198 695" stroke-miterlimit="10"/></g><g transform="translate(-3,-54) scale(1,1)"><path fill="none" stroke="#000000" d="M 1193.3530169751095 685.0297668649936 L 1198 695 L 1201.7641062508148 684.6640673312673" stroke-miterlimit="10"/></g><g transform="translate(-3,-54) scale(1,1)"><path fill="none" stroke="#000000" d="M 1256 715 L 1352 712 L 1352 368 L 728 371" stroke-miterlimit="10"/></g><g transform="translate(-3,-54) scale(1,1)"><path fill="none" stroke="#000000" d="M 738.1423195778596 366.74167244325105 L 728 371 L 738.1827952423563 375.16061065857485" stroke-miterlimit="10"/></g><g transform="translate(-3,-54) scale(1,1)"><path fill="#C0C0C0" stroke="none" d="M 599 707.5 C 599 700.59644 604.59644 695 611.5 695 C 618.40356 695 624 700.59644 624 707.5 C 624 714.40356 618.40356 720 611.5 720 C 604.59644 720 599 714.40356 599 707.5 Z" opacity="0.2"/></g><g transform="translate(-3,-54) scale(1,1)"><path fill="none" stroke="#000000" d="M 592 700.5 C 592 693.59644 597.59644 688 604.5 688 C 611.40356 688 617 693.59644 617 700.5 C 617 707.40356 611.40356 713 604.5 713 C 597.59644 713 592 707.40356 592 700.5 Z" stroke-miterlimit="10"/></g><g transform="translate(-3,-54) scale(1,1)"><path fill="#000000" stroke="none" d="M 597 700.5 C 597 696.357864 600.357864 693 604.5 693 C 608.642136 693 612 696.357864 612 700.5 C 612 704.642136 608.642136 708 604.5 708 C 600.357864 708 597 704.642136 597 700.5 Z"/></g><g transform="translate(-3,-54) scale(1,1)"><path fill="none" stroke="#000000" d="M 603 649 L 604 687" stroke-miterlimit="10"/></g><g transform="translate(-3,-54) scale(1,1)"><path fill="none" stroke="#000000" d="M 599.5245928199677 676.9515806928197 L 604 687 L 607.9407146667412 676.7301038021151" stroke-miterlimit="10"/></g></g></svg>