<svg version="1.1" xmlns="http://www.w3.org/2000/svg" xmlns:xlink="http://www.w3.org/1999/xlink" width="1454.82080078125" height="788"><defs/><g><g transform="translate(-3,-54) scale(1,1)"><path fill="#C0C0C0" stroke="none" d="M 164 80.5 C 164 75.2532944 168.2532944 71 173.5 71 C 178.7467056 71 183 75.2532944 183 80.5 C 183 85.7467056 178.7467056 90 173.5 90 C 168.2532944 90 164 85.7467056 164 80.5 Z" opacity="0.2"/></g><g transform="translate(-3,-54) scale(1,1)"><path fill="#000000" stroke="none" d="M 157 73.5 C 157 68.2532944 161.2532944 64 166.5 64 C 171.7467056 64 176 68.2532944 176 73.5 C 176 78.7467056 171.7467056 83 166.5 83 C 161.2532944 83 157 78.7467056 157 73.5 Z"/></g><g transform="translate(-3,-54) scale(1,1)"><path fill="#C0C0C0" stroke="none" d="M 112 799 L 112 839 L 224.15087890625 839 L 234.40087890625 819.5 L 224.15087890625 799" opacity="0.2"/></g><g transform="translate(-3,-54) scale(1,1)"><path fill="#ffd8d8" stroke="none" d="M 105 792 L 105 832 L 217.15087890625 832 L 227.40087890625 812.5 L 217.15087890625 792"/></g><g transform="translate(-3,-54) scale(1,1)"><path fill="none" stroke="#000000" d="M 105 792 L 105 832 L 217.15087890625 832 L 227.40087890625 812.5 L 217.15087890625 792 L 105 792" stroke-miterlimit="10"/></g><g transform="translate(-3,-54) scale(1,1)"><g><path fill="none" stroke="none"/><text fill="#000000" stroke="none" font-family="Arial" font-size="13px" font-style="normal" font-weight="bold" text-decoration="none" x="116.70458984375" y="811.5">Introducir en lista</text></g></g><g transform="translate(-3,-54) scale(1,1)"><path fill="#C0C0C0" stroke="none" d="M 89 127 L 258.60986328125 127 Q 268.60986328125 127 268.60986328125 137 L 268.60986328125 157 Q 268.60986328125 167 258.60986328125 167 L 89 167 Q 79 167 79 157 L 79 137 Q 79 127 89 127 Z" opacity="0.2"/></g><g transform="translate(-3,-54) scale(1,1)"><path fill="#d8f2ff" stroke="none" d="M 82 120 L 251.60986328125 120 Q 261.60986328125 120 261.60986328125 130 L 261.60986328125 150 Q 261.60986328125 160 251.60986328125 160 L 82 160 Q 72 160 72 150 L 72 130 Q 72 120 82 120 Z"/></g><g transform="translate(-3,-54) scale(1,1)"><path fill="none" stroke="#000000" d="M 82 120 L 251.60986328125 120 Q 261.60986328125 120 261.60986328125 130 L 261.60986328125 150 Q 261.60986328125 160 251.60986328125 160 L 82 160 Q 72 160 72 150 L 72 130 Q 72 120 82 120 Z" stroke-miterlimit="10"/></g><g transform="translate(-3,-54) scale(1,1)"><g><path fill="none" stroke="none"/><text fill="#000000" stroke="none" font-family="Arial" font-size="13px" font-style="normal" font-weight="bold" text-decoration="none" x="83.333251953125" y="139.5">Acceder ventana diagnóstico</text></g></g><g transform="translate(-3,-54) scale(1,1)"><path fill="#C0C0C0" stroke="none" d="M 119 471 L 227.92626953125 471 Q 237.92626953125 471 237.92626953125 481 L 237.92626953125 501 Q 237.92626953125 511 227.92626953125 511 L 119 511 Q 109 511 109 501 L 109 481 Q 109 471 119 471 Z" opacity="0.2"/></g><g transform="translate(-3,-54) scale(1,1)"><path fill="#ffd8d8" stroke="none" d="M 112 464 L 220.92626953125 464 Q 230.92626953125 464 230.92626953125 474 L 230.92626953125 494 Q 230.92626953125 504 220.92626953125 504 L 112 504 Q 102 504 102 494 L 102 474 Q 102 464 112 464 Z"/></g><g transform="translate(-3,-54) scale(1,1)"><path fill="none" stroke="#000000" d="M 112 464 L 220.92626953125 464 Q 230.92626953125 464 230.92626953125 474 L 230.92626953125 494 Q 230.92626953125 504 220.92626953125 504 L 112 504 Q 102 504 102 494 L 102 474 Q 102 464 112 464 Z" stroke-miterlimit="10"/></g><g transform="translate(-3,-54) scale(1,1)"><g><path fill="none" stroke="none"/><text fill="#000000" stroke="none" font-family="Arial" font-size="13px" font-style="normal" font-weight="bold" text-decoration="none" x="110.10546875" y="483.5">Normalizar en tabla</text></g></g><g transform="translate(-3,-54) scale(1,1)"><path fill="none" stroke="#000000" d="M 166 84 L 166 119" stroke-miterlimit="10"/></g><g transform="translate(-3,-54) scale(1,1)"><path fill="none" stroke="#000000" d="M 161.790482243984 108.83732514237585 L 166 119 L 170.209517756016 108.83732514237585" stroke-miterlimit="10"/></g><g transform="translate(-3,-54) scale(1,1)"><path fill="none" stroke="#000000" d="M 164 249 L 166 367" stroke-miterlimit="10"/></g><g transform="translate(-3,-54) scale(1,1)"><path fill="none" stroke="#000000" d="M 161.61886276530458 356.9101220755271 L 166 367 L 170.0366892537772 356.76744705029876" stroke-miterlimit="10"/></g><g transform="translate(-3,-54) scale(1,1)"><path fill="none" stroke="#000000" d="M 166 409 L 166 463" stroke-miterlimit="10"/></g><g transform="translate(-3,-54) scale(1,1)"><path fill="none" stroke="#000000" d="M 161.790482243984 452.83732514237585 L 166 463 L 170.209517756016 452.83732514237585" stroke-miterlimit="10"/></g><g transform="translate(-3,-54) scale(1,1)"><path fill="#C0C0C0" stroke="none" d="M 162 584.5 L 173.5 575 L 184 584.5 L 173.5 593 L 162 584.5" opacity="0.2"/></g><g transform="translate(-3,-54) scale(1,1)"><path fill="#ffffff" stroke="none" d="M 155 577 L 166 568 L 177 577 L 166 586 L 155 577"/></g><g transform="translate(-3,-54) scale(1,1)"><path fill="none" stroke="#000000" d="M 155 577 L 166 568 L 177 577 L 166 586 L 155 577 L 155 577" stroke-miterlimit="10"/></g><g transform="translate(-3,-54) scale(1,1)"><path fill="none" stroke="#000000" d="M 166 505 L 166 567" stroke-miterlimit="10"/></g><g transform="translate(-3,-54) scale(1,1)"><path fill="none" stroke="#000000" d="M 161.790482243984 556.8373251423759 L 166 567 L 170.209517756016 556.8373251423759" stroke-miterlimit="10"/></g><g transform="translate(-3,-54) scale(1,1)"><path fill="#C0C0C0" stroke="none" d="M 327 455 L 574.4306640625 455 L 574.4306640625 495 L 327 495 L 337.25 475.5" opacity="0.2"/></g><g transform="translate(-3,-54) scale(1,1)"><path fill="#ffd8d8" stroke="none" d="M 320 448 L 567.4306640625 448 L 567.4306640625 488 L 320 488 L 330.25 468.5"/></g><g transform="translate(-3,-54) scale(1,1)"><path fill="none" stroke="#000000" d="M 320 448 L 567.4306640625 448 L 567.4306640625 488 L 320 488 L 330.25 468.5 L 320 448" stroke-miterlimit="10"/></g><g transform="translate(-3,-54) scale(1,1)"><g><path fill="none" stroke="none"/><text fill="#000000" stroke="none" font-family="Arial" font-size="13px" font-style="normal" font-weight="bold" text-decoration="none" x="333.516845703125" y="467.5">Preguntar se desexa iniciar predicción</text></g></g><g transform="translate(-3,-54) scale(1,1)"><path fill="none" stroke="#000000" d="M 166 587 L 166 647" stroke-miterlimit="10"/></g><g transform="translate(-3,-54) scale(1,1)"><path fill="none" stroke="#000000" d="M 161.790482243984 636.8373251423759 L 166 647 L 170.209517756016 636.8373251423759" stroke-miterlimit="10"/></g><g transform="translate(-3,-54) scale(1,1)"><g><path fill="none" stroke="none"/><text fill="#000000" stroke="none" font-family="Arial" font-size="13px" font-style="normal" font-weight="normal" text-decoration="none" x="27.661376953125" y="611.5">[Atopada coincidencia]</text></g></g><g transform="translate(-3,-54) scale(1,1)"><path fill="#C0C0C0" stroke="none" d="M 754 520.5 L 765.5 511 L 776 520.5 L 765.5 529 L 754 520.5" opacity="0.2"/></g><g transform="translate(-3,-54) scale(1,1)"><path fill="#ffffff" stroke="none" d="M 747 513 L 758 504 L 769 513 L 758 522 L 747 513"/></g><g transform="translate(-3,-54) scale(1,1)"><path fill="none" stroke="#000000" d="M 747 513 L 758 504 L 769 513 L 758 522 L 747 513 L 747 513" stroke-miterlimit="10"/></g><g transform="translate(-3,-54) scale(1,1)"><path fill="none" stroke="#000000" d="M 758 465 L 758 503" stroke-miterlimit="10"/></g><g transform="translate(-3,-54) scale(1,1)"><path fill="none" stroke="#000000" d="M 753.790482243984 492.83732514237585 L 758 503 L 762.209517756016 492.83732514237585" stroke-miterlimit="10"/></g><g transform="translate(-3,-54) scale(1,1)"><path fill="none" stroke="#000000" d="M 770 513 L 983 515" stroke-miterlimit="10"/></g><g transform="translate(-3,-54) scale(1,1)"><path fill="none" stroke="#000000" d="M 972.7982488675736 519.1139122295009 L 983 515 L 972.8772973595974 510.69524782897014" stroke-miterlimit="10"/></g><g transform="translate(-3,-54) scale(1,1)"><g><path fill="none" stroke="none"/><text fill="#000000" stroke="none" font-family="Arial" font-size="13px" font-style="normal" font-weight="normal" text-decoration="none" x="835.5" y="505.5">[Non atopada]</text></g></g><g transform="translate(-3,-54) scale(1,1)"><path fill="none" stroke="#000000" d="M 758 523 L 761 607" stroke-miterlimit="10"/></g><g transform="translate(-3,-54) scale(1,1)"><path fill="none" stroke="#000000" d="M 756.4304429001526 596.9940443779101 L 761 607 L 764.8441142603102 596.6935561150473" stroke-miterlimit="10"/></g><g transform="translate(-3,-54) scale(1,1)"><g><path fill="none" stroke="none"/><text fill="#000000" stroke="none" font-family="Arial" font-size="13px" font-style="normal" font-weight="normal" text-decoration="none" x="761.5" y="567.5">[Doenza atopada]</text></g></g><g transform="translate(-3,-54) scale(1,1)"><path fill="#C0C0C0" stroke="none" d="M 1087 632.5 L 1098.5 623 L 1109 632.5 L 1098.5 641 L 1087 632.5" opacity="0.2"/></g><g transform="translate(-3,-54) scale(1,1)"><path fill="#ffffff" stroke="none" d="M 1080 625 L 1091 616 L 1102 625 L 1091 634 L 1080 625"/></g><g transform="translate(-3,-54) scale(1,1)"><path fill="none" stroke="#000000" d="M 1080 625 L 1091 616 L 1102 625 L 1091 634 L 1080 625 L 1080 625" stroke-miterlimit="10"/></g><g transform="translate(-3,-54) scale(1,1)"><path fill="none" stroke="#000000" d="M 1079 625 L 910 627" stroke-miterlimit="10"/></g><g transform="translate(-3,-54) scale(1,1)"><path fill="none" stroke="#000000" d="M 920.1121499952782 622.6705170663234 L 910 627 L 920.2117765754708 631.0889630926026" stroke-miterlimit="10"/></g><g transform="translate(-3,-54) scale(1,1)"><g><path fill="none" stroke="none"/><text fill="#000000" stroke="none" font-family="Arial" font-size="13px" font-style="normal" font-weight="normal" text-decoration="none" x="922.34814453125" y="620.5">[Imposible atopar doenza]</text></g></g><g transform="translate(-3,-54) scale(1,1)"><path fill="#C0C0C0" stroke="none" d="M 391 584.5 L 402.5 575 L 413 584.5 L 402.5 593 L 391 584.5" opacity="0.2"/></g><g transform="translate(-3,-54) scale(1,1)"><path fill="#ffffff" stroke="none" d="M 384 577 L 395 568 L 406 577 L 395 586 L 384 577"/></g><g transform="translate(-3,-54) scale(1,1)"><path fill="none" stroke="#000000" d="M 384 577 L 395 568 L 406 577 L 395 586 L 384 577 L 384 577" stroke-miterlimit="10"/></g><g transform="translate(-3,-54) scale(1,1)"><path fill="none" stroke="#000000" d="M 178 577 L 383 577" stroke-miterlimit="10"/></g><g transform="translate(-3,-54) scale(1,1)"><path fill="none" stroke="#000000" d="M 372.83732514237585 581.209517756016 L 383 577 L 372.83732514237585 572.790482243984" stroke-miterlimit="10"/></g><g transform="translate(-3,-54) scale(1,1)"><g><path fill="none" stroke="none"/><text fill="#000000" stroke="none" font-family="Arial" font-size="13px" font-style="normal" font-weight="normal" text-decoration="none" x="247.5" y="568.5">[Non]</text></g></g><g transform="translate(-3,-54) scale(1,1)"><path fill="none" stroke="#000000" d="M 228 810 L 328 808 L 392 587" stroke-miterlimit="10"/></g><g transform="translate(-3,-54) scale(1,1)"><path fill="none" stroke="#000000" d="M 393.21649739822385 597.93252642714 L 392 587 L 385.12972998744806 595.5906571317117" stroke-miterlimit="10"/></g><g transform="translate(-3,-54) scale(1,1)"><path fill="none" stroke="#000000" d="M 383 567 L 191 409" stroke-miterlimit="10"/></g><g transform="translate(-3,-54) scale(1,1)"><path fill="none" stroke="#000000" d="M 201.52206902965926 412.20718932011897 L 191 409 L 196.1724010461798 418.70805167979023" stroke-miterlimit="10"/></g><g transform="translate(-3,-54) scale(1,1)"><path fill="none" stroke="#000000" d="M 166 161 L 164 207" stroke-miterlimit="10"/></g><g transform="translate(-3,-54) scale(1,1)"><path fill="none" stroke="#000000" d="M 160.23589374918507 196.6640673312673 L 164 207 L 168.64698302489055 197.02976686499363" stroke-miterlimit="10"/></g><g transform="translate(-3,-54) scale(1,1)"><g><path fill="none" stroke="none"/><text fill="#000000" stroke="none" font-family="Arial" font-size="13px" font-style="normal" font-weight="normal" text-decoration="none" x="663" y="234">* O sistema queda en espera de</text><text fill="#000000" stroke="none" font-family="Arial" font-size="13px" font-style="normal" font-weight="normal" text-decoration="none" x="663" y="247">que o usuario introduza os</text><text fill="#000000" stroke="none" font-family="Arial" font-size="13px" font-style="normal" font-weight="normal" text-decoration="none" x="663" y="260">síntomas e inicie a predicción</text></g></g><g transform="translate(-3,-54) scale(1,1)"><path fill="#C0C0C0" stroke="none" d="M 89 655 L 258.578125 655 Q 268.578125 655 268.578125 665 L 268.578125 685 Q 268.578125 695 258.578125 695 L 89 695 Q 79 695 79 685 L 79 665 Q 79 655 89 655 Z" opacity="0.2"/></g><g transform="translate(-3,-54) scale(1,1)"><path fill="#ffd8d8" stroke="none" d="M 82 648 L 251.578125 648 Q 261.578125 648 261.578125 658 L 261.578125 678 Q 261.578125 688 251.578125 688 L 82 688 Q 72 688 72 678 L 72 658 Q 72 648 82 648 Z"/></g><g transform="translate(-3,-54) scale(1,1)"><path fill="none" stroke="#000000" d="M 82 648 L 251.578125 648 Q 261.578125 648 261.578125 658 L 261.578125 678 Q 261.578125 688 251.578125 688 L 82 688 Q 72 688 72 678 L 72 658 Q 72 648 82 648 Z" stroke-miterlimit="10"/></g><g transform="translate(-3,-54) scale(1,1)"><g><path fill="none" stroke="none"/><text fill="#000000" stroke="none" font-family="Arial" font-size="13px" font-style="normal" font-weight="bold" text-decoration="none" x="84.0537109375" y="667.5">Comprobar síntoma repetido</text></g></g><g transform="translate(-3,-54) scale(1,1)"><path fill="#C0C0C0" stroke="none" d="M 162 744.5 L 173.5 735 L 184 744.5 L 173.5 753 L 162 744.5" opacity="0.2"/></g><g transform="translate(-3,-54) scale(1,1)"><path fill="#ffffff" stroke="none" d="M 155 737 L 166 728 L 177 737 L 166 746 L 155 737"/></g><g transform="translate(-3,-54) scale(1,1)"><path fill="none" stroke="#000000" d="M 155 737 L 166 728 L 177 737 L 166 746 L 155 737 L 155 737" stroke-miterlimit="10"/></g><g transform="translate(-3,-54) scale(1,1)"><path fill="#C0C0C0" stroke="none" d="M 112 375 L 112 415 L 224.8681640625 415 L 235.1181640625 395.5 L 224.8681640625 375" opacity="0.2"/></g><g transform="translate(-3,-54) scale(1,1)"><path fill="#d8f2ff" stroke="none" d="M 105 368 L 105 408 L 217.8681640625 408 L 228.1181640625 388.5 L 217.8681640625 368"/></g><g transform="translate(-3,-54) scale(1,1)"><path fill="none" stroke="#000000" d="M 105 368 L 105 408 L 217.8681640625 408 L 228.1181640625 388.5 L 217.8681640625 368 L 105 368" stroke-miterlimit="10"/></g><g transform="translate(-3,-54) scale(1,1)"><g><path fill="none" stroke="none"/><text fill="#000000" stroke="none" font-family="Arial" font-size="13px" font-style="normal" font-weight="bold" text-decoration="none" x="114.536865234375" y="387.5">Introducir síntoma</text></g></g><g transform="translate(-3,-54) scale(1,1)"><path fill="none" stroke="#000000" d="M 166 689 L 166 727" stroke-miterlimit="10"/></g><g transform="translate(-3,-54) scale(1,1)"><path fill="none" stroke="#000000" d="M 161.790482243984 716.8373251423759 L 166 727 L 170.209517756016 716.8373251423759" stroke-miterlimit="10"/></g><g transform="translate(-3,-54) scale(1,1)"><path fill="none" stroke="#000000" d="M 166 747 L 166 791" stroke-miterlimit="10"/></g><g transform="translate(-3,-54) scale(1,1)"><path fill="none" stroke="#000000" d="M 161.790482243984 780.8373251423759 L 166 791 L 170.209517756016 780.8373251423759" stroke-miterlimit="10"/></g><g transform="translate(-3,-54) scale(1,1)"><g><path fill="none" stroke="none"/><text fill="#000000" stroke="none" font-family="Arial" font-size="13px" font-style="normal" font-weight="normal" text-decoration="none" x="174.5" y="772.5">[Nuevo]</text></g></g><g transform="translate(-3,-54) scale(1,1)"><path fill="none" stroke="#000000" d="M 178 737 L 270 736 L 387 587" stroke-miterlimit="10"/></g><g transform="translate(-3,-54) scale(1,1)"><path fill="none" stroke="#000000" d="M 384.03444176754215 597.592708075365 L 387 587 L 377.4128579526054 592.3932093750454" stroke-miterlimit="10"/></g><g transform="translate(-3,-54) scale(1,1)"><g><path fill="none" stroke="none"/><text fill="#000000" stroke="none" font-family="Arial" font-size="13px" font-style="normal" font-weight="normal" text-decoration="none" x="200.5" y="725.5">[Repetido]</text></g></g><g transform="translate(-3,-54) scale(1,1)"><path fill="#C0C0C0" stroke="none" d="M 637 359 L 637 399 L 883.5244140625 399 L 893.7744140625 379.5 L 883.5244140625 359" opacity="0.2"/></g><g transform="translate(-3,-54) scale(1,1)"><path fill="#ffd8d8" stroke="none" d="M 630 352 L 630 392 L 876.5244140625 392 L 886.7744140625 372.5 L 876.5244140625 352"/></g><g transform="translate(-3,-54) scale(1,1)"><path fill="none" stroke="#000000" d="M 630 352 L 630 392 L 876.5244140625 392 L 886.7744140625 372.5 L 876.5244140625 352 L 630 352" stroke-miterlimit="10"/></g><g transform="translate(-3,-54) scale(1,1)"><g><path fill="none" stroke="none"/><text fill="#000000" stroke="none" font-family="Arial" font-size="13px" font-style="normal" font-weight="bold" text-decoration="none" x="644.2119140625" y="371.5">Enviar datos ao algoritmo de prediccion</text></g></g><g transform="translate(-3,-54) scale(1,1)"><path fill="#C0C0C0" stroke="none" d="M 705 431 L 826.18359375 431 Q 836.18359375 431 836.18359375 441 L 836.18359375 461 Q 836.18359375 471 826.18359375 471 L 705 471 Q 695 471 695 461 L 695 441 Q 695 431 705 431 Z" opacity="0.2"/></g><g transform="translate(-3,-54) scale(1,1)"><path fill="#ffd8d8" stroke="none" d="M 698 424 L 819.18359375 424 Q 829.18359375 424 829.18359375 434 L 829.18359375 454 Q 829.18359375 464 819.18359375 464 L 698 464 Q 688 464 688 454 L 688 434 Q 688 424 698 424 Z"/></g><g transform="translate(-3,-54) scale(1,1)"><path fill="none" stroke="#000000" d="M 698 424 L 819.18359375 424 Q 829.18359375 424 829.18359375 434 L 829.18359375 454 Q 829.18359375 464 819.18359375 464 L 698 464 Q 688 464 688 454 L 688 434 Q 688 424 698 424 Z" stroke-miterlimit="10"/></g><g transform="translate(-3,-54) scale(1,1)"><g><path fill="none" stroke="none"/><text fill="#000000" stroke="none" font-family="Arial" font-size="13px" font-style="normal" font-weight="bold" text-decoration="none" x="697.53369140625" y="443.5">Comprobar resultado</text></g></g><g transform="translate(-3,-54) scale(1,1)"><path fill="none" stroke="#000000" d="M 758 393 L 758 423" stroke-miterlimit="10"/></g><g transform="translate(-3,-54) scale(1,1)"><path fill="none" stroke="#000000" d="M 753.790482243984 412.83732514237585 L 758 423 L 762.209517756016 412.83732514237585" stroke-miterlimit="10"/></g><g transform="translate(-3,-54) scale(1,1)"><path fill="#C0C0C0" stroke="none" d="M 1001 503 L 1187.208984375 503 Q 1197.208984375 503 1197.208984375 513 L 1197.208984375 533 Q 1197.208984375 543 1187.208984375 543 L 1001 543 Q 991 543 991 533 L 991 513 Q 991 503 1001 503 Z" opacity="0.2"/></g><g transform="translate(-3,-54) scale(1,1)"><path fill="#ffd8d8" stroke="none" d="M 994 496 L 1180.208984375 496 Q 1190.208984375 496 1190.208984375 506 L 1190.208984375 526 Q 1190.208984375 536 1180.208984375 536 L 994 536 Q 984 536 984 526 L 984 506 Q 984 496 994 496 Z"/></g><g transform="translate(-3,-54) scale(1,1)"><path fill="none" stroke="#000000" d="M 994 496 L 1180.208984375 496 Q 1190.208984375 496 1190.208984375 506 L 1190.208984375 526 Q 1190.208984375 536 1180.208984375 536 L 994 536 Q 984 536 984 526 L 984 506 Q 984 496 994 496 Z" stroke-miterlimit="10"/></g><g transform="translate(-3,-54) scale(1,1)"><g><path fill="none" stroke="none"/><text fill="#000000" stroke="none" font-family="Arial" font-size="13px" font-style="normal" font-weight="bold" text-decoration="none" x="994.965087890625" y="515.5">Comprobar doenzas candidatas</text></g></g><g transform="translate(-3,-54) scale(1,1)"><path fill="none" stroke="#000000" d="M 1088 537 L 1091 615" stroke-miterlimit="10"/></g><g transform="translate(-3,-54) scale(1,1)"><path fill="none" stroke="#000000" d="M 1086.4030090188141 605.0066184942785 L 1091 615 L 1094.81582433383 604.6830486744702" stroke-miterlimit="10"/></g><g transform="translate(-3,-54) scale(1,1)"><path fill="#C0C0C0" stroke="none" d="M 623 615 L 623 655 L 905.6171875 655 L 915.8671875 635.5 L 905.6171875 615" opacity="0.2"/></g><g transform="translate(-3,-54) scale(1,1)"><path fill="#ffd8d8" stroke="none" d="M 616 608 L 616 648 L 898.6171875 648 L 908.8671875 628.5 L 898.6171875 608"/></g><g transform="translate(-3,-54) scale(1,1)"><path fill="none" stroke="#000000" d="M 616 608 L 616 648 L 898.6171875 648 L 908.8671875 628.5 L 898.6171875 608 L 616 608" stroke-miterlimit="10"/></g><g transform="translate(-3,-54) scale(1,1)"><g><path fill="none" stroke="none"/><text fill="#000000" stroke="none" font-family="Arial" font-size="13px" font-style="normal" font-weight="bold" text-decoration="none" x="633.0810546875" y="627.5">Introducir diagnóstico no rexistro do paciente</text></g></g><g transform="translate(-3,-54) scale(1,1)"><path fill="#C0C0C0" stroke="none" d="M 1271 615 L 1271 655 L 1444.57080078125 655 L 1454.82080078125 635.5 L 1444.57080078125 615" opacity="0.2"/></g><g transform="translate(-3,-54) scale(1,1)"><path fill="#ffd8d8" stroke="none" d="M 1264 608 L 1264 648 L 1437.57080078125 648 L 1447.82080078125 628.5 L 1437.57080078125 608"/></g><g transform="translate(-3,-54) scale(1,1)"><path fill="none" stroke="#000000" d="M 1264 608 L 1264 648 L 1437.57080078125 648 L 1447.82080078125 628.5 L 1437.57080078125 608 L 1264 608" stroke-miterlimit="10"/></g><g transform="translate(-3,-54) scale(1,1)"><g><path fill="none" stroke="none"/><text fill="#000000" stroke="none" font-family="Arial" font-size="13px" font-style="normal" font-weight="bold" text-decoration="none" x="1274.61279296875" y="627.5">Preguntar síntoma asociado</text></g></g><g transform="translate(-3,-54) scale(1,1)"><path fill="none" stroke="#000000" d="M 1103 625 L 1263 627" stroke-miterlimit="10"/></g><g transform="translate(-3,-54) scale(1,1)"><path fill="none" stroke="#000000" d="M 1252.7855041467444 631.0821654135796 L 1263 627 L 1252.890733869894 622.6637875616284" stroke-miterlimit="10"/></g><g transform="translate(-3,-54) scale(1,1)"><g><path fill="none" stroke="none"/><text fill="#000000" stroke="none" font-family="Arial" font-size="13px" font-style="normal" font-weight="normal" text-decoration="none" x="1118.5" y="620.5">[Hai posibles doenzas]</text></g></g><g transform="translate(-3,-54) scale(1,1)"><path fill="none" stroke="#000000" d="M 1355 607 L 1351 401" stroke-miterlimit="10"/></g><g transform="translate(-3,-54) scale(1,1)"><path fill="none" stroke="#000000" d="M 1355.4060207072573 411.0790367360785 L 1351 401 L 1346.9885718962405 411.2424823440594" stroke-miterlimit="10"/></g><g transform="translate(-3,-54) scale(1,1)"><path fill="#C0C0C0" stroke="none" d="M 759 707.5 C 759 700.59644 764.59644 695 771.5 695 C 778.40356 695 784 700.59644 784 707.5 C 784 714.40356 778.40356 720 771.5 720 C 764.59644 720 759 714.40356 759 707.5 Z" opacity="0.2"/></g><g transform="translate(-3,-54) scale(1,1)"><path fill="none" stroke="#000000" d="M 752 700.5 C 752 693.59644 757.59644 688 764.5 688 C 771.40356 688 777 693.59644 777 700.5 C 777 707.40356 771.40356 713 764.5 713 C 757.59644 713 752 707.40356 752 700.5 Z" stroke-miterlimit="10"/></g><g transform="translate(-3,-54) scale(1,1)"><path fill="#000000" stroke="none" d="M 757 700.5 C 757 696.357864 760.357864 693 764.5 693 C 768.642136 693 772 696.357864 772 700.5 C 772 704.642136 768.642136 708 764.5 708 C 760.357864 708 757 704.642136 757 700.5 Z"/></g><g transform="translate(-3,-54) scale(1,1)"><path fill="none" stroke="#000000" d="M 763 649 L 764 687" stroke-miterlimit="10"/></g><g transform="translate(-3,-54) scale(1,1)"><path fill="none" stroke="#000000" d="M 759.5245928199677 676.9515806928197 L 764 687 L 767.9407146667412 676.7301038021151" stroke-miterlimit="10"/></g><g transform="translate(-3,-54) scale(1,1)"><path fill="#C0C0C0" stroke="none" d="M 1295 367 L 1295 407 L 1412.21630859375 407 L 1422.46630859375 387.5 L 1412.21630859375 367" opacity="0.2"/></g><g transform="translate(-3,-54) scale(1,1)"><path fill="#d8f2ff" stroke="none" d="M 1288 360 L 1288 400 L 1405.21630859375 400 L 1415.46630859375 380.5 L 1405.21630859375 360"/></g><g transform="translate(-3,-54) scale(1,1)"><path fill="none" stroke="#000000" d="M 1288 360 L 1288 400 L 1405.21630859375 400 L 1415.46630859375 380.5 L 1405.21630859375 360 L 1288 360" stroke-miterlimit="10"/></g><g transform="translate(-3,-54) scale(1,1)"><g><path fill="none" stroke="none"/><text fill="#000000" stroke="none" font-family="Arial" font-size="13px" font-style="normal" font-weight="bold" text-decoration="none" x="1297.90185546875" y="379.5">Introducir resposta</text></g></g><g transform="translate(-3,-54) scale(1,1)"><path fill="#C0C0C0" stroke="none" d="M 89 215 L 254.9853515625 215 Q 264.9853515625 215 264.9853515625 225 L 264.9853515625 245 Q 264.9853515625 255 254.9853515625 255 L 89 255 Q 79 255 79 245 L 79 225 Q 79 215 89 215 Z" opacity="0.2"/></g><g transform="translate(-3,-54) scale(1,1)"><path fill="#ffd8d8" stroke="none" d="M 82 208 L 247.9853515625 208 Q 257.9853515625 208 257.9853515625 218 L 257.9853515625 238 Q 257.9853515625 248 247.9853515625 248 L 82 248 Q 72 248 72 238 L 72 218 Q 72 208 82 208 Z"/></g><g transform="translate(-3,-54) scale(1,1)"><path fill="none" stroke="#000000" d="M 82 208 L 247.9853515625 208 Q 257.9853515625 208 257.9853515625 218 L 257.9853515625 238 Q 257.9853515625 248 247.9853515625 248 L 82 248 Q 72 248 72 238 L 72 218 Q 72 208 82 208 Z" stroke-miterlimit="10"/></g><g transform="translate(-3,-54) scale(1,1)"><g><path fill="none" stroke="none"/><text fill="#000000" stroke="none" font-family="Arial" font-size="13px" font-style="normal" font-weight="bold" text-decoration="none" x="83.71728515625" y="227.5">Amosar formulario síntomas</text></g></g><g transform="translate(-3,-54) scale(1,1)"><path fill="#C0C0C0" stroke="none" d="M 439 384.5 L 450.5 375 L 461 384.5 L 450.5 393 L 439 384.5" opacity="0.2"/></g><g transform="translate(-3,-54) scale(1,1)"><path fill="#ffffff" stroke="none" d="M 432 377 L 443 368 L 454 377 L 443 386 L 432 377"/></g><g transform="translate(-3,-54) scale(1,1)"><path fill="none" stroke="#000000" d="M 432 377 L 443 368 L 454 377 L 443 386 L 432 377 L 432 377" stroke-miterlimit="10"/></g><g transform="translate(-3,-54) scale(1,1)"><path fill="none" stroke="#000000" d="M 399 567 L 434 489" stroke-miterlimit="10"/></g><g transform="translate(-3,-54) scale(1,1)"><path fill="none" stroke="#000000" d="M 433.6800751604743 499.9953466565204 L 434 489 L 425.99889479417897 496.5486631588238" stroke-miterlimit="10"/></g><g transform="translate(-3,-54) scale(1,1)"><path fill="none" stroke="#000000" d="M 443 447 L 443 387" stroke-miterlimit="10"/></g><g transform="translate(-3,-54) scale(1,1)"><path fill="none" stroke="#000000" d="M 447.209517756016 397.16267485762415 L 443 387 L 438.790482243984 397.16267485762415" stroke-miterlimit="10"/></g><g transform="translate(-3,-54) scale(1,1)"><path fill="none" stroke="#000000" d="M 455 377 L 629 374" stroke-miterlimit="10"/></g><g transform="translate(-3,-54) scale(1,1)"><path fill="none" stroke="#000000" d="M 618.9114024175906 378.3840847186388 L 629 374 L 618.7662682029703 369.96630027066186" stroke-miterlimit="10"/></g><g transform="translate(-3,-54) scale(1,1)"><g><path fill="none" stroke="none"/><text fill="#000000" stroke="none" font-family="Arial" font-size="13px" font-style="normal" font-weight="normal" text-decoration="none" x="530.858642578125" y="396.5">[Si]</text></g></g><g transform="translate(-3,-54) scale(1,1)"><path fill="none" stroke="#000000" d="M 431 377 L 229 385" stroke-miterlimit="10"/></g><g transform="translate(-3,-54) scale(1,1)"><path fill="none" stroke="#000000" d="M 238.9881312916924 380.3916127224467 L 229 385 L 239.321297262029 388.8040534734455" stroke-miterlimit="10"/></g><g transform="translate(-3,-54) scale(1,1)"><g><path fill="none" stroke="none"/><text fill="#000000" stroke="none" font-family="Arial" font-size="13px" font-style="normal" font-weight="normal" text-decoration="none" x="314.5" y="401.5">[Non]</text></g></g><g transform="translate(-3,-54) scale(1,1)"><path fill="none" stroke="#000000" d="M 1287 379 L 888 374" stroke-miterlimit="10"/></g><g transform="translate(-3,-54) scale(1,1)"><path fill="none" stroke="#000000" d="M 898.2146237156028 369.9181545413079 L 888 374 L 898.1091303001683 378.33652909297496" stroke-miterlimit="10"/></g></g></svg>