<svg version="1.1" xmlns="http://www.w3.org/2000/svg" xmlns:xlink="http://www.w3.org/1999/xlink" width="692" height="211"><defs/><g><g transform="translate(-57,-34) scale(1,1)"><path fill="#ffffff" stroke="none" d="M 123.13933078835228 77.68 C 123.13933078835228 72.886167936 127.02517311329774 69 131.818603515625 69 C 136.61203391795226 69 140.49787624289772 72.886167936 140.49787624289772 77.68 C 140.49787624289772 82.473832064 136.61203391795226 86.36 131.818603515625 86.36 C 127.02517311329774 86.36 123.13933078835228 82.473832064 123.13933078835228 77.68 Z"/></g><g transform="translate(-57,-34) scale(1,1)"><path fill="none" stroke="#000000" d="M 123.13933078835228 77.68 C 123.13933078835228 72.886167936 127.02517311329774 69 131.818603515625 69 C 136.61203391795226 69 140.49787624289772 72.886167936 140.49787624289772 77.68 C 140.49787624289772 82.473832064 136.61203391795226 86.36 131.818603515625 86.36 C 127.02517311329774 86.36 123.13933078835228 82.473832064 123.13933078835228 77.68 Z" stroke-miterlimit="10"/></g><g transform="translate(-57,-34) scale(1,1)"><path fill="none" stroke="#000000" d="M 131.818603515625 86.36 L 131.818603515625 103.64" stroke-miterlimit="10"/></g><g transform="translate(-57,-34) scale(1,1)"><path fill="none" stroke="#000000" d="M 122.62878533380683 92.84 L 141.00842169744317 92.84" stroke-miterlimit="10"/></g><g transform="translate(-57,-34) scale(1,1)"><path fill="none" stroke="#000000" d="M 131.818603515625 103.64 L 119.05496715198865 121" stroke-miterlimit="10"/></g><g transform="translate(-57,-34) scale(1,1)"><path fill="none" stroke="#000000" d="M 131.818603515625 103.64 L 144.58223987926135 121" stroke-miterlimit="10"/></g><g transform="translate(-57,-34) scale(1,1)"><g><path fill="none" stroke="none"/><text fill="#000000" stroke="none" font-family="Arial" font-size="13px" font-style="normal" font-weight="bold" text-decoration="none" x="76.181396484375" y="141.5">Usuarios an贸nimos</text></g></g><g transform="translate(-57,-34) scale(1,1)"><g><path fill="none" stroke="none"/><text fill="#000000" stroke="none" font-family="Arial" font-size="13px" font-style="normal" font-weight="normal" text-decoration="none" x="90.647705078125" y="156.5">(from Actores)</text></g></g><g transform="translate(-57,-34) scale(1,1)"><path fill="#C0C0C0" stroke="none" d="M 522 78.5 C 522 63.312168 572.1441024 51 634 51 C 695.8558976 51 746 63.312168 746 78.5 C 746 93.687832 695.8558976 106 634 106 C 572.1441024 106 522 93.687832 522 78.5 Z" opacity="0.2"/></g><g transform="translate(-57,-34) scale(1,1)"><path fill="#ffffff" stroke="none" d="M 515 71.5 C 515 56.312168 565.1441024 44 627 44 C 688.8558976 44 739 56.312168 739 71.5 C 739 86.687832 688.8558976 99 627 99 C 565.1441024 99 515 86.687832 515 71.5 Z"/></g><g transform="translate(-57,-34) scale(1,1)"><path fill="none" stroke="#000000" d="M 515 71.5 C 515 56.312168 565.1441024 44 627 44 C 688.8558976 44 739 56.312168 739 71.5 C 739 86.687832 688.8558976 99 627 99 C 565.1441024 99 515 86.687832 515 71.5 Z" stroke-miterlimit="10"/></g><g transform="translate(-57,-34) scale(1,1)"><g><path fill="none" stroke="none"/><text fill="#000000" stroke="none" font-family="Arial" font-size="13px" font-style="normal" font-weight="bold" text-decoration="none" x="589.06640625" y="71">Iniciar sesi贸n</text></g></g><g transform="translate(-57,-34) scale(1,1)"><g><path fill="none" stroke="none"/><text fill="#000000" stroke="none" font-family="Arial" font-size="13px" font-style="normal" font-weight="normal" text-decoration="none" x="552.227783203125" y="86">(from Usuarios an贸nimos)</text></g></g><g transform="translate(-57,-34) scale(1,1)"><path fill="none" stroke="#000000" d="M 198 109 L 514 81" stroke-miterlimit="10"/></g><g transform="translate(-57,-34) scale(1,1)"><path fill="#C0C0C0" stroke="none" d="M 506 214.5 C 506 199.31216799999999 556.1441024 187 618 187 C 679.8558976 187 730 199.31216799999999 730 214.5 C 730 229.68783200000001 679.8558976 242 618 242 C 556.1441024 242 506 229.68783200000001 506 214.5 Z" opacity="0.2"/></g><g transform="translate(-57,-34) scale(1,1)"><path fill="#ffffff" stroke="none" d="M 499 207.5 C 499 192.31216799999999 549.1441024 180 611 180 C 672.8558976 180 723 192.31216799999999 723 207.5 C 723 222.68783200000001 672.8558976 235 611 235 C 549.1441024 235 499 222.68783200000001 499 207.5 Z"/></g><g transform="translate(-57,-34) scale(1,1)"><path fill="none" stroke="#000000" d="M 499 207.5 C 499 192.31216799999999 549.1441024 180 611 180 C 672.8558976 180 723 192.31216799999999 723 207.5 C 723 222.68783200000001 672.8558976 235 611 235 C 549.1441024 235 499 222.68783200000001 499 207.5 Z" stroke-miterlimit="10"/></g><g transform="translate(-57,-34) scale(1,1)"><g><path fill="none" stroke="none"/><text fill="#000000" stroke="none" font-family="Arial" font-size="13px" font-style="normal" font-weight="bold" text-decoration="none" x="578.1318359375" y="207">Rexistrarse</text></g></g><g transform="translate(-57,-34) scale(1,1)"><g><path fill="none" stroke="none"/><text fill="#000000" stroke="none" font-family="Arial" font-size="13px" font-style="normal" font-weight="normal" text-decoration="none" x="536.227783203125" y="222">(from Usuarios an贸nimos)</text></g></g><g transform="translate(-57,-34) scale(1,1)"><path fill="none" stroke="#000000" d="M 198 128 L 498 185" stroke-miterlimit="10"/></g></g></svg>