<svg version="1.1" xmlns="http://www.w3.org/2000/svg" xmlns:xlink="http://www.w3.org/1999/xlink" width="957" height="547"><defs/><g><g transform="translate(-30,-14) scale(1,1)"><path fill="#ffffff" stroke="none" d="M 128.24162571022728 33.68 C 128.24162571022728 28.886167936 132.12746803517274 25 136.9208984375 25 C 141.71432883982726 25 145.60017116477272 28.886167936 145.60017116477272 33.68 C 145.60017116477272 38.473832064 141.71432883982726 42.36 136.9208984375 42.36 C 132.12746803517274 42.36 128.24162571022728 38.473832064 128.24162571022728 33.68 Z"/></g><g transform="translate(-30,-14) scale(1,1)"><path fill="none" stroke="#000000" d="M 128.24162571022728 33.68 C 128.24162571022728 28.886167936 132.12746803517274 25 136.9208984375 25 C 141.71432883982726 25 145.60017116477272 28.886167936 145.60017116477272 33.68 C 145.60017116477272 38.473832064 141.71432883982726 42.36 136.9208984375 42.36 C 132.12746803517274 42.36 128.24162571022728 38.473832064 128.24162571022728 33.68 Z" stroke-miterlimit="10"/></g><g transform="translate(-30,-14) scale(1,1)"><path fill="none" stroke="#000000" d="M 136.9208984375 42.36 L 136.9208984375 59.64" stroke-miterlimit="10"/></g><g transform="translate(-30,-14) scale(1,1)"><path fill="none" stroke="#000000" d="M 127.73108025568183 48.84 L 146.11071661931817 48.84" stroke-miterlimit="10"/></g><g transform="translate(-30,-14) scale(1,1)"><path fill="none" stroke="#000000" d="M 136.9208984375 59.64 L 124.15726207386365 77" stroke-miterlimit="10"/></g><g transform="translate(-30,-14) scale(1,1)"><path fill="none" stroke="#000000" d="M 136.9208984375 59.64 L 149.68453480113635 77" stroke-miterlimit="10"/></g><g transform="translate(-30,-14) scale(1,1)"><g><path fill="none" stroke="none"/><text fill="#000000" stroke="none" font-family="Arial" font-size="13px" font-style="normal" font-weight="bold" text-decoration="none" x="96.82275390625" y="97.5">Administrador</text></g></g><g transform="translate(-30,-14) scale(1,1)"><g><path fill="none" stroke="none"/><text fill="#000000" stroke="none" font-family="Arial" font-size="13px" font-style="normal" font-weight="normal" text-decoration="none" x="95.75" y="112.5">(from Actores)</text></g></g><g transform="translate(-30,-14) scale(1,1)"><path fill="#C0C0C0" stroke="none" d="M 327 530.5 C 327 515.312168 367.0705104 503 416.5 503 C 465.9294896 503 506 515.312168 506 530.5 C 506 545.687832 465.9294896 558 416.5 558 C 367.0705104 558 327 545.687832 327 530.5 Z" opacity="0.2"/></g><g transform="translate(-30,-14) scale(1,1)"><path fill="#ffffff" stroke="none" d="M 320 523.5 C 320 508.312168 360.0705104 496 409.5 496 C 458.9294896 496 499 508.312168 499 523.5 C 499 538.687832 458.9294896 551 409.5 551 C 360.0705104 551 320 538.687832 320 523.5 Z"/></g><g transform="translate(-30,-14) scale(1,1)"><path fill="none" stroke="#000000" d="M 320 523.5 C 320 508.312168 360.0705104 496 409.5 496 C 458.9294896 496 499 508.312168 499 523.5 C 499 538.687832 458.9294896 551 409.5 551 C 360.0705104 551 320 538.687832 320 523.5 Z" stroke-miterlimit="10"/></g><g transform="translate(-30,-14) scale(1,1)"><g><path fill="none" stroke="none"/><text fill="#000000" stroke="none" font-family="Arial" font-size="13px" font-style="normal" font-weight="bold" text-decoration="none" x="355.662353515625" y="523">Ver datos persoais</text></g></g><g transform="translate(-30,-14) scale(1,1)"><g><path fill="none" stroke="none"/><text fill="#000000" stroke="none" font-family="Arial" font-size="13px" font-style="normal" font-weight="normal" text-decoration="none" x="350.619140625" y="538">(from Casos de uso)</text></g></g><g transform="translate(-30,-14) scale(1,1)"><path fill="none" stroke="#000000" d="M 165 119 L 392 495" stroke-miterlimit="10"/></g><g transform="translate(-30,-14) scale(1,1)"><path fill="#C0C0C0" stroke="none" d="M 47 442.5 C 47 427.312168 98.26339039999999 415 161.5 415 C 224.7366096 415 276 427.312168 276 442.5 C 276 457.687832 224.7366096 470 161.5 470 C 98.26339039999999 470 47 457.687832 47 442.5 Z" opacity="0.2"/></g><g transform="translate(-30,-14) scale(1,1)"><path fill="#ffffff" stroke="none" d="M 40 435.5 C 40 420.312168 91.26339039999999 408 154.5 408 C 217.7366096 408 269 420.312168 269 435.5 C 269 450.687832 217.7366096 463 154.5 463 C 91.26339039999999 463 40 450.687832 40 435.5 Z"/></g><g transform="translate(-30,-14) scale(1,1)"><path fill="none" stroke="#000000" d="M 40 435.5 C 40 420.312168 91.26339039999999 408 154.5 408 C 217.7366096 408 269 420.312168 269 435.5 C 269 450.687832 217.7366096 463 154.5 463 C 91.26339039999999 463 40 450.687832 40 435.5 Z" stroke-miterlimit="10"/></g><g transform="translate(-30,-14) scale(1,1)"><g><path fill="none" stroke="none"/><text fill="#000000" stroke="none" font-family="Arial" font-size="13px" font-style="normal" font-weight="bold" text-decoration="none" x="84.050537109375" y="435">Modificar datos persoais</text></g></g><g transform="translate(-30,-14) scale(1,1)"><g><path fill="none" stroke="none"/><text fill="#000000" stroke="none" font-family="Arial" font-size="13px" font-style="normal" font-weight="normal" text-decoration="none" x="95.619140625" y="450">(from Casos de uso)</text></g></g><g transform="translate(-30,-14) scale(1,1)"><path fill="#C0C0C0" stroke="none" d="M 595 77.5 C 595 62.312168 650.9644 50 720 50 C 789.0356 50 845 62.312168 845 77.5 C 845 92.687832 789.0356 105 720 105 C 650.9644 105 595 92.687832 595 77.5 Z" opacity="0.2"/></g><g transform="translate(-30,-14) scale(1,1)"><path fill="#ffffff" stroke="none" d="M 588 70.5 C 588 55.312168 643.9644 43 713 43 C 782.0356 43 838 55.312168 838 70.5 C 838 85.687832 782.0356 98 713 98 C 643.9644 98 588 85.687832 588 70.5 Z"/></g><g transform="translate(-30,-14) scale(1,1)"><path fill="none" stroke="#000000" d="M 588 70.5 C 588 55.312168 643.9644 43 713 43 C 782.0356 43 838 55.312168 838 70.5 C 838 85.687832 782.0356 98 713 98 C 643.9644 98 588 85.687832 588 70.5 Z" stroke-miterlimit="10"/></g><g transform="translate(-30,-14) scale(1,1)"><g><path fill="none" stroke="none"/><text fill="#000000" stroke="none" font-family="Arial" font-size="13px" font-style="normal" font-weight="bold" text-decoration="none" x="636.041015625" y="70">Engadir ou borrar usuarios</text></g></g><g transform="translate(-30,-14) scale(1,1)"><g><path fill="none" stroke="none"/><text fill="#000000" stroke="none" font-family="Arial" font-size="13px" font-style="normal" font-weight="normal" text-decoration="none" x="654.119140625" y="85">(from Casos de uso)</text></g></g><g transform="translate(-30,-14) scale(1,1)"><path fill="none" stroke="#000000" d="M 187 71 L 587 70" stroke-miterlimit="10"/></g><g transform="translate(-30,-14) scale(1,1)"><path fill="#C0C0C0" stroke="none" d="M 551 146.5 C 551 131.31216799999999 647.9303408 119 767.5 119 C 887.0696592 119 984 131.31216799999999 984 146.5 C 984 161.68783200000001 887.0696592 174 767.5 174 C 647.9303408 174 551 161.68783200000001 551 146.5 Z" opacity="0.2"/></g><g transform="translate(-30,-14) scale(1,1)"><path fill="#ffffff" stroke="none" d="M 544 139.5 C 544 124.312168 640.9303408 112 760.5 112 C 880.0696592 112 977 124.312168 977 139.5 C 977 154.68783200000001 880.0696592 167 760.5 167 C 640.9303408 167 544 154.68783200000001 544 139.5 Z"/></g><g transform="translate(-30,-14) scale(1,1)"><path fill="none" stroke="#000000" d="M 544 139.5 C 544 124.312168 640.9303408 112 760.5 112 C 880.0696592 112 977 124.312168 977 139.5 C 977 154.68783200000001 880.0696592 167 760.5 167 C 640.9303408 167 544 154.68783200000001 544 139.5 Z" stroke-miterlimit="10"/></g><g transform="translate(-30,-14) scale(1,1)"><g><path fill="none" stroke="none"/><text fill="#000000" stroke="none" font-family="Arial" font-size="13px" font-style="normal" font-weight="bold" text-decoration="none" x="649.212890625" y="139">Actualizar fármacos para unha doenza</text></g></g><g transform="translate(-30,-14) scale(1,1)"><g><path fill="none" stroke="none"/><text fill="#000000" stroke="none" font-family="Arial" font-size="13px" font-style="normal" font-weight="normal" text-decoration="none" x="701.619140625" y="154">(from Casos de uso)</text></g></g><g transform="translate(-30,-14) scale(1,1)"><path fill="none" stroke="#000000" d="M 187 77 L 543 115" stroke-miterlimit="10"/></g><g transform="translate(-30,-14) scale(1,1)"><path fill="#C0C0C0" stroke="none" d="M 591 218.5 C 591 203.31216799999999 678.0806064 191 785.5 191 C 892.9193936 191 980 203.31216799999999 980 218.5 C 980 233.68783200000001 892.9193936 246 785.5 246 C 678.0806064 246 591 233.68783200000001 591 218.5 Z" opacity="0.2"/></g><g transform="translate(-30,-14) scale(1,1)"><path fill="#ffffff" stroke="none" d="M 584 211.5 C 584 196.31216799999999 671.0806064 184 778.5 184 C 885.9193936 184 973 196.31216799999999 973 211.5 C 973 226.68783200000001 885.9193936 239 778.5 239 C 671.0806064 239 584 226.68783200000001 584 211.5 Z"/></g><g transform="translate(-30,-14) scale(1,1)"><path fill="none" stroke="#000000" d="M 584 211.5 C 584 196.31216799999999 671.0806064 184 778.5 184 C 885.9193936 184 973 196.31216799999999 973 211.5 C 973 226.68783200000001 885.9193936 239 778.5 239 C 671.0806064 239 584 226.68783200000001 584 211.5 Z" stroke-miterlimit="10"/></g><g transform="translate(-30,-14) scale(1,1)"><g><path fill="none" stroke="none"/><text fill="#000000" stroke="none" font-family="Arial" font-size="13px" font-style="normal" font-weight="bold" text-decoration="none" x="667.571533203125" y="211">Actualizar síntomas para unha doenza</text></g></g><g transform="translate(-30,-14) scale(1,1)"><g><path fill="none" stroke="none"/><text fill="#000000" stroke="none" font-family="Arial" font-size="13px" font-style="normal" font-weight="normal" text-decoration="none" x="719.619140625" y="226">(from Casos de uso)</text></g></g><g transform="translate(-30,-14) scale(1,1)"><path fill="none" stroke="#000000" d="M 187 82 L 650 183" stroke-miterlimit="10"/></g><g transform="translate(-30,-14) scale(1,1)"><path fill="#C0C0C0" stroke="none" d="M 543 402.5 C 543 387.312168 605.2324128 375 682 375 C 758.7675872 375 821 387.312168 821 402.5 C 821 417.687832 758.7675872 430 682 430 C 605.2324128 430 543 417.687832 543 402.5 Z" opacity="0.2"/></g><g transform="translate(-30,-14) scale(1,1)"><path fill="#ffffff" stroke="none" d="M 536 395.5 C 536 380.312168 598.2324128 368 675 368 C 751.7675872 368 814 380.312168 814 395.5 C 814 410.687832 751.7675872 423 675 423 C 598.2324128 423 536 410.687832 536 395.5 Z"/></g><g transform="translate(-30,-14) scale(1,1)"><path fill="none" stroke="#000000" d="M 536 395.5 C 536 380.312168 598.2324128 368 675 368 C 751.7675872 368 814 380.312168 814 395.5 C 814 410.687832 751.7675872 423 675 423 C 598.2324128 423 536 410.687832 536 395.5 Z" stroke-miterlimit="10"/></g><g transform="translate(-30,-14) scale(1,1)"><g><path fill="none" stroke="none"/><text fill="#000000" stroke="none" font-family="Arial" font-size="13px" font-style="normal" font-weight="bold" text-decoration="none" x="586.834228515625" y="395">Responder mensaxes doentes</text></g></g><g transform="translate(-30,-14) scale(1,1)"><g><path fill="none" stroke="none"/><text fill="#000000" stroke="none" font-family="Arial" font-size="13px" font-style="normal" font-weight="normal" text-decoration="none" x="616.119140625" y="410">(from Casos de uso)</text></g></g><g transform="translate(-30,-14) scale(1,1)"><path fill="#C0C0C0" stroke="none" d="M 591 290.5 C 591 275.312168 638.2339536 263 696.5 263 C 754.7660464 263 802 275.312168 802 290.5 C 802 305.687832 754.7660464 318 696.5 318 C 638.2339536 318 591 305.687832 591 290.5 Z" opacity="0.2"/></g><g transform="translate(-30,-14) scale(1,1)"><path fill="#ffffff" stroke="none" d="M 584 283.5 C 584 268.312168 631.2339536 256 689.5 256 C 747.7660464 256 795 268.312168 795 283.5 C 795 298.687832 747.7660464 311 689.5 311 C 631.2339536 311 584 298.687832 584 283.5 Z"/></g><g transform="translate(-30,-14) scale(1,1)"><path fill="none" stroke="#000000" d="M 584 283.5 C 584 268.312168 631.2339536 256 689.5 256 C 747.7660464 256 795 268.312168 795 283.5 C 795 298.687832 747.7660464 311 689.5 311 C 631.2339536 311 584 298.687832 584 283.5 Z" stroke-miterlimit="10"/></g><g transform="translate(-30,-14) scale(1,1)"><g><path fill="none" stroke="none"/><text fill="#000000" stroke="none" font-family="Arial" font-size="13px" font-style="normal" font-weight="bold" text-decoration="none" x="623.37646484375" y="283">Ver mensaxes doentes</text></g></g><g transform="translate(-30,-14) scale(1,1)"><g><path fill="none" stroke="none"/><text fill="#000000" stroke="none" font-family="Arial" font-size="13px" font-style="normal" font-weight="normal" text-decoration="none" x="630.619140625" y="298">(from Casos de uso)</text></g></g><g transform="translate(-30,-14) scale(1,1)"><path fill="none" stroke="#000000" d="M 187 90 L 616 255" stroke-miterlimit="10"/></g><g transform="translate(-30,-14) scale(1,1)"><path fill="none" stroke="#000000" d="M 679 367 L 685 312" stroke-miterlimit="10" stroke-dasharray="3"/></g><g transform="translate(-30,-14) scale(1,1)"><path fill="none" stroke="#000000" d="M 688.0825739786939 322.55924891580264 L 685 312 L 679.7131924512429 321.6462254764444" stroke-miterlimit="10"/></g><g transform="translate(-30,-14) scale(1,1)"><g><path fill="none" stroke="none"/><text fill="#000000" stroke="none" font-family="Arial" font-size="13px" font-style="normal" font-weight="normal" text-decoration="none" x="625.5" y="341.5">«extend»</text></g></g><g transform="translate(-30,-14) scale(1,1)"><path fill="none" stroke="#000000" d="M 238 464 L 328 495" stroke-miterlimit="10" stroke-dasharray="3"/></g><g transform="translate(-30,-14) scale(1,1)"><path fill="none" stroke="#000000" d="M 317.0204471396054 495.6703871909583 L 328 495 L 319.76224838927163 487.710319046766" stroke-miterlimit="10"/></g><g transform="translate(-30,-14) scale(1,1)"><g><path fill="none" stroke="none"/><text fill="#000000" stroke="none" font-family="Arial" font-size="13px" font-style="normal" font-weight="normal" text-decoration="none" x="266.5" y="456.5">«extend»</text></g></g></g></svg>