<svg version="1.1" xmlns="http://www.w3.org/2000/svg" xmlns:xlink="http://www.w3.org/1999/xlink" width="587.8251953125" height="821"><defs/><g><g transform="translate(-22,-110) scale(1,1)"><path fill="#C0C0C0" stroke="none" d="M 271 136.5 C 271 131.2532944 275.2532944 127 280.5 127 C 285.7467056 127 290 131.2532944 290 136.5 C 290 141.7467056 285.7467056 146 280.5 146 C 275.2532944 146 271 141.7467056 271 136.5 Z" opacity="0.2"/></g><g transform="translate(-22,-110) scale(1,1)"><path fill="#000000" stroke="none" d="M 264 129.5 C 264 124.2532944 268.2532944 120 273.5 120 C 278.7467056 120 283 124.2532944 283 129.5 C 283 134.7467056 278.7467056 139 273.5 139 C 268.2532944 139 264 134.7467056 264 129.5 Z"/></g><g transform="translate(-22,-110) scale(1,1)"><path fill="#C0C0C0" stroke="none" d="M 209 183 L 358.3671875 183 Q 368.3671875 183 368.3671875 193 L 368.3671875 213 Q 368.3671875 223 358.3671875 223 L 209 223 Q 199 223 199 213 L 199 193 Q 199 183 209 183 Z" opacity="0.2"/></g><g transform="translate(-22,-110) scale(1,1)"><path fill="#ffffff" stroke="none" d="M 202 176 L 351.3671875 176 Q 361.3671875 176 361.3671875 186 L 361.3671875 206 Q 361.3671875 216 351.3671875 216 L 202 216 Q 192 216 192 206 L 192 186 Q 192 176 202 176 Z"/></g><g transform="translate(-22,-110) scale(1,1)"><path fill="none" stroke="#000000" d="M 202 176 L 351.3671875 176 Q 361.3671875 176 361.3671875 186 L 361.3671875 206 Q 361.3671875 216 351.3671875 216 L 202 216 Q 192 216 192 206 L 192 186 Q 192 176 202 176 Z" stroke-miterlimit="10"/></g><g transform="translate(-22,-110) scale(1,1)"><g><path fill="none" stroke="none"/><text fill="#000000" stroke="none" font-family="Arial" font-size="13px" font-style="normal" font-weight="bold" text-decoration="none" x="202.609619140625" y="195.5">Abrir ventana de contacto</text></g></g><g transform="translate(-22,-110) scale(1,1)"><path fill="#C0C0C0" stroke="none" d="M 233 271 L 328.89453125 271 Q 338.89453125 271 338.89453125 281 L 338.89453125 301 Q 338.89453125 311 328.89453125 311 L 233 311 Q 223 311 223 301 L 223 281 Q 223 271 233 271 Z" opacity="0.2"/></g><g transform="translate(-22,-110) scale(1,1)"><path fill="#ffffff" stroke="none" d="M 226 264 L 321.89453125 264 Q 331.89453125 264 331.89453125 274 L 331.89453125 294 Q 331.89453125 304 321.89453125 304 L 226 304 Q 216 304 216 294 L 216 274 Q 216 264 226 264 Z"/></g><g transform="translate(-22,-110) scale(1,1)"><path fill="none" stroke="#000000" d="M 226 264 L 321.89453125 264 Q 331.89453125 264 331.89453125 274 L 331.89453125 294 Q 331.89453125 304 321.89453125 304 L 226 304 Q 216 304 216 294 L 216 274 Q 216 264 226 264 Z" stroke-miterlimit="10"/></g><g transform="translate(-22,-110) scale(1,1)"><g><path fill="none" stroke="none"/><text fill="#000000" stroke="none" font-family="Arial" font-size="13px" font-style="normal" font-weight="bold" text-decoration="none" x="225.54638671875" y="283.5">Cubrir formulario</text></g></g><g transform="translate(-22,-110) scale(1,1)"><path fill="#C0C0C0" stroke="none" d="M 223 351 L 339.63720703125 351 L 339.63720703125 391 L 223 391 L 233.25 371.5" opacity="0.2"/></g><g transform="translate(-22,-110) scale(1,1)"><path fill="#ffffff" stroke="none" d="M 216 344 L 332.63720703125 344 L 332.63720703125 384 L 216 384 L 226.25 364.5"/></g><g transform="translate(-22,-110) scale(1,1)"><path fill="none" stroke="#000000" d="M 216 344 L 332.63720703125 344 L 332.63720703125 384 L 216 384 L 226.25 364.5 L 216 344" stroke-miterlimit="10"/></g><g transform="translate(-22,-110) scale(1,1)"><g><path fill="none" stroke="none"/><text fill="#000000" stroke="none" font-family="Arial" font-size="13px" font-style="normal" font-weight="bold" text-decoration="none" x="231.0498046875" y="363.5">Pulsar "Enviar"</text></g></g><g transform="translate(-22,-110) scale(1,1)"><path fill="#C0C0C0" stroke="none" d="M 250 575 L 313 575 Q 316 575 316 578 L 316 577 Q 316 580 313 580 L 250 580 Q 247 580 247 577 L 247 578 Q 247 575 250 575 Z" opacity="0.2"/></g><g transform="translate(-22,-110) scale(1,1)"><path fill="#000000" stroke="none" d="M 243 568 L 306 568 Q 309 568 309 571 L 309 571 Q 309 574 306 574 L 243 574 Q 240 574 240 571 L 240 571 Q 240 568 243 568 Z"/></g><g transform="translate(-22,-110) scale(1,1)"><path fill="#C0C0C0" stroke="none" d="M 321 647 L 596.8251953125 647 Q 606.8251953125 647 606.8251953125 657 L 606.8251953125 677 Q 606.8251953125 687 596.8251953125 687 L 321 687 Q 311 687 311 677 L 311 657 Q 311 647 321 647 Z" opacity="0.2"/></g><g transform="translate(-22,-110) scale(1,1)"><path fill="#ffffff" stroke="none" d="M 314 640 L 589.8251953125 640 Q 599.8251953125 640 599.8251953125 650 L 599.8251953125 670 Q 599.8251953125 680 589.8251953125 680 L 314 680 Q 304 680 304 670 L 304 650 Q 304 640 314 640 Z"/></g><g transform="translate(-22,-110) scale(1,1)"><path fill="none" stroke="#000000" d="M 314 640 L 589.8251953125 640 Q 599.8251953125 640 599.8251953125 650 L 599.8251953125 670 Q 599.8251953125 680 589.8251953125 680 L 314 680 Q 304 680 304 670 L 304 650 Q 304 640 314 640 Z" stroke-miterlimit="10"/></g><g transform="translate(-22,-110) scale(1,1)"><g><path fill="none" stroke="none"/><text fill="#000000" stroke="none" font-family="Arial" font-size="13px" font-style="normal" font-weight="bold" text-decoration="none" x="319.67822265625" y="659.5">Enviar copia ao servidor de correo electrónico</text></g></g><g transform="translate(-22,-110) scale(1,1)"><path fill="#C0C0C0" stroke="none" d="M 65 647 L 278.7197265625 647 Q 288.7197265625 647 288.7197265625 657 L 288.7197265625 677 Q 288.7197265625 687 278.7197265625 687 L 65 687 Q 55 687 55 677 L 55 657 Q 55 647 65 647 Z" opacity="0.2"/></g><g transform="translate(-22,-110) scale(1,1)"><path fill="#ffffff" stroke="none" d="M 58 640 L 271.7197265625 640 Q 281.7197265625 640 281.7197265625 650 L 281.7197265625 670 Q 281.7197265625 680 271.7197265625 680 L 58 680 Q 48 680 48 670 L 48 650 Q 48 640 58 640 Z"/></g><g transform="translate(-22,-110) scale(1,1)"><path fill="none" stroke="#000000" d="M 58 640 L 271.7197265625 640 Q 281.7197265625 640 281.7197265625 650 L 281.7197265625 670 Q 281.7197265625 680 271.7197265625 680 L 58 680 Q 48 680 48 670 L 48 650 Q 48 640 58 640 Z" stroke-miterlimit="10"/></g><g transform="translate(-22,-110) scale(1,1)"><g><path fill="none" stroke="none"/><text fill="#000000" stroke="none" font-family="Arial" font-size="13px" font-style="normal" font-weight="bold" text-decoration="none" x="58.996826171875" y="659.5">Rexistrar mensaxe na base de datos</text></g></g><g transform="translate(-22,-110) scale(1,1)"><path fill="none" stroke="#000000" d="M 273 140 L 275 175" stroke-miterlimit="10"/></g><g transform="translate(-22,-110) scale(1,1)"><path fill="none" stroke="#000000" d="M 270.21755966870643 165.09402884732563 L 275 175 L 278.6228833874166 164.61372463482792" stroke-miterlimit="10"/></g><g transform="translate(-22,-110) scale(1,1)"><path fill="none" stroke="#000000" d="M 275 217 L 274 263" stroke-miterlimit="10"/></g><g transform="translate(-22,-110) scale(1,1)"><path fill="none" stroke="#000000" d="M 270.0123521078249 252.74823604017186 L 274 263 L 278.42939894957703 252.9312153193404" stroke-miterlimit="10"/></g><g transform="translate(-22,-110) scale(1,1)"><path fill="none" stroke="#000000" d="M 273 305 L 274 343" stroke-miterlimit="10"/></g><g transform="translate(-22,-110) scale(1,1)"><path fill="none" stroke="#000000" d="M 269.5245928199676 332.9515806928197 L 274 343 L 277.9407146667412 332.7301038021151" stroke-miterlimit="10"/></g><g transform="translate(-22,-110) scale(1,1)"><path fill="none" stroke="#000000" d="M 274 385 L 275 463" stroke-miterlimit="10"/></g><g transform="translate(-22,-110) scale(1,1)"><path fill="none" stroke="#000000" d="M 270.66054815422046 452.8921239778992 L 275 463 L 279.07889185183717 452.7841964945964" stroke-miterlimit="10"/></g><g transform="translate(-22,-110) scale(1,1)"><path fill="none" stroke="#000000" d="M 269 574 L 190 639" stroke-miterlimit="10"/></g><g transform="translate(-22,-110) scale(1,1)"><path fill="none" stroke="#000000" d="M 195.1731643018065 629.2923550174868 L 190 639 L 200.52232115448624 635.7936379615129" stroke-miterlimit="10"/></g><g transform="translate(-22,-110) scale(1,1)"><path fill="none" stroke="#000000" d="M 282 574 L 410 639" stroke-miterlimit="10"/></g><g transform="translate(-22,-110) scale(1,1)"><path fill="none" stroke="#000000" d="M 399.0327450101813 638.15187383704 L 410 639 L 402.844695386828 630.6452638645665" stroke-miterlimit="10"/></g><g transform="translate(-22,-110) scale(1,1)"><path fill="#C0C0C0" stroke="none" d="M 39 751 L 39 791 L 295.64892578125 791 L 305.89892578125 771.5 L 295.64892578125 751" opacity="0.2"/></g><g transform="translate(-22,-110) scale(1,1)"><path fill="#ffffff" stroke="none" d="M 32 744 L 32 784 L 288.64892578125 784 L 298.89892578125 764.5 L 288.64892578125 744"/></g><g transform="translate(-22,-110) scale(1,1)"><path fill="none" stroke="#000000" d="M 32 744 L 32 784 L 288.64892578125 784 L 298.89892578125 764.5 L 288.64892578125 744 L 32 744" stroke-miterlimit="10"/></g><g transform="translate(-22,-110) scale(1,1)"><g><path fill="none" stroke="none"/><text fill="#000000" stroke="none" font-family="Arial" font-size="13px" font-style="normal" font-weight="bold" text-decoration="none" x="46.589599609375" y="763.5">Mostrar aviso de confirmación ao usuario</text></g></g><g transform="translate(-22,-110) scale(1,1)"><path fill="#C0C0C0" stroke="none" d="M 258 839 L 321 839 Q 324 839 324 842 L 324 841 Q 324 844 321 844 L 258 844 Q 255 844 255 841 L 255 842 Q 255 839 258 839 Z" opacity="0.2"/></g><g transform="translate(-22,-110) scale(1,1)"><path fill="#000000" stroke="none" d="M 251 832 L 314 832 Q 317 832 317 835 L 317 835 Q 317 838 314 838 L 251 838 Q 248 838 248 835 L 248 835 Q 248 832 251 832 Z"/></g><g transform="translate(-22,-110) scale(1,1)"><path fill="#C0C0C0" stroke="none" d="M 279 915.5 C 279 908.59644 284.59644 903 291.5 903 C 298.40356 903 304 908.59644 304 915.5 C 304 922.40356 298.40356 928 291.5 928 C 284.59644 928 279 922.40356 279 915.5 Z" opacity="0.2"/></g><g transform="translate(-22,-110) scale(1,1)"><path fill="none" stroke="#000000" d="M 272 908.5 C 272 901.59644 277.59644 896 284.5 896 C 291.40356 896 297 901.59644 297 908.5 C 297 915.40356 291.40356 921 284.5 921 C 277.59644 921 272 915.40356 272 908.5 Z" stroke-miterlimit="10"/></g><g transform="translate(-22,-110) scale(1,1)"><path fill="#000000" stroke="none" d="M 277 908.5 C 277 904.357864 280.357864 901 284.5 901 C 288.642136 901 292 904.357864 292 908.5 C 292 912.642136 288.642136 916 284.5 916 C 280.357864 916 277 912.642136 277 908.5 Z"/></g><g transform="translate(-22,-110) scale(1,1)"><path fill="none" stroke="#000000" d="M 164 681 L 165 743" stroke-miterlimit="10"/></g><g transform="translate(-22,-110) scale(1,1)"><path fill="none" stroke="#000000" d="M 160.62713688711733 732.9065333905545 L 165 743 L 169.04507752489903 732.7707601544613" stroke-miterlimit="10"/></g><g transform="translate(-22,-110) scale(1,1)"><path fill="none" stroke="#000000" d="M 200 785 L 277 831" stroke-miterlimit="10"/></g><g transform="translate(-22,-110) scale(1,1)"><path fill="none" stroke="#000000" d="M 266.1167234363997 829.4017849831175 L 277 831 L 270.4344700165814 822.1742526641178" stroke-miterlimit="10"/></g><g transform="translate(-22,-110) scale(1,1)"><path fill="none" stroke="#000000" d="M 431 681 L 285 831" stroke-miterlimit="10"/></g><g transform="translate(-22,-110) scale(1,1)"><path fill="none" stroke="#000000" d="M 289.07181254184565 820.7813727622508 L 285 831 L 295.1048668742895 826.6535456458295" stroke-miterlimit="10"/></g><g transform="translate(-22,-110) scale(1,1)"><path fill="none" stroke="#000000" d="M 282 838 L 284 895" stroke-miterlimit="10"/></g><g transform="translate(-22,-110) scale(1,1)"><path fill="none" stroke="#000000" d="M 279.4367053428536 884.9911867900305 L 284 895 L 287.85056309577834 884.6959637109805" stroke-miterlimit="10"/></g><g transform="translate(-22,-110) scale(1,1)"><path fill="#C0C0C0" stroke="none" d="M 271 480.5 L 282.5 471 L 293 480.5 L 282.5 489 L 271 480.5" opacity="0.2"/></g><g transform="translate(-22,-110) scale(1,1)"><path fill="#ffffff" stroke="none" d="M 264 473 L 275 464 L 286 473 L 275 482 L 264 473"/></g><g transform="translate(-22,-110) scale(1,1)"><path fill="none" stroke="#000000" d="M 264 473 L 275 464 L 286 473 L 275 482 L 264 473 L 264 473" stroke-miterlimit="10"/></g><g transform="translate(-22,-110) scale(1,1)"><path fill="none" stroke="#000000" d="M 275 483 L 274 567" stroke-miterlimit="10"/></g><g transform="translate(-22,-110) scale(1,1)"><path fill="none" stroke="#000000" d="M 269.9117561580347 556.7879354541487 L 274 567 L 278.33019514648834 556.888154965916" stroke-miterlimit="10"/></g><g transform="translate(-22,-110) scale(1,1)"><g><path fill="none" stroke="none"/><text fill="#000000" stroke="none" font-family="Arial" font-size="13px" font-style="normal" font-weight="normal" text-decoration="none" x="281.937744140625" y="530.5">[*]</text></g></g><g transform="translate(-22,-110) scale(1,1)"><path fill="none" stroke="#000000" d="M 287 473 L 392 472 L 392 280 L 333 282" stroke-miterlimit="10"/></g><g transform="translate(-22,-110) scale(1,1)"><path fill="none" stroke="#000000" d="M 343.01422734267186 277.44859903663905 L 333 282 L 343.29945454743853 285.86280157725554" stroke-miterlimit="10"/></g><g transform="translate(-22,-110) scale(1,1)"><g><path fill="none" stroke="none"/><text fill="#000000" stroke="none" font-family="Arial" font-size="13px" font-style="normal" font-weight="normal" text-decoration="none" x="401.5" y="378.5">[Corpo vacio]</text></g></g></g></svg>