<svg version="1.1" xmlns="http://www.w3.org/2000/svg" xmlns:xlink="http://www.w3.org/1999/xlink" width="1069.37353515625" height="1573"><defs/><g><g transform="translate(-198,-126) scale(1,1)"><path fill="#C0C0C0" stroke="none" d="M 367 152.5 C 367 147.2532944 371.2532944 143 376.5 143 C 381.7467056 143 386 147.2532944 386 152.5 C 386 157.7467056 381.7467056 162 376.5 162 C 371.2532944 162 367 157.7467056 367 152.5 Z" opacity="0.2"/></g><g transform="translate(-198,-126) scale(1,1)"><path fill="#000000" stroke="none" d="M 360 145.5 C 360 140.2532944 364.2532944 136 369.5 136 C 374.7467056 136 379 140.2532944 379 145.5 C 379 150.7467056 374.7467056 155 369.5 155 C 364.2532944 155 360 150.7467056 360 145.5 Z"/></g><g transform="translate(-198,-126) scale(1,1)"><path fill="#C0C0C0" stroke="none" d="M 319 775 L 319 815 L 431.15087890625 815 L 441.40087890625 795.5 L 431.15087890625 775" opacity="0.2"/></g><g transform="translate(-198,-126) scale(1,1)"><path fill="#ffffff" stroke="none" d="M 312 768 L 312 808 L 424.15087890625 808 L 434.40087890625 788.5 L 424.15087890625 768"/></g><g transform="translate(-198,-126) scale(1,1)"><path fill="none" stroke="#000000" d="M 312 768 L 312 808 L 424.15087890625 808 L 434.40087890625 788.5 L 424.15087890625 768 L 312 768" stroke-miterlimit="10"/></g><g transform="translate(-198,-126) scale(1,1)"><g><path fill="none" stroke="none"/><text fill="#000000" stroke="none" font-family="Arial" font-size="13px" font-style="normal" font-weight="bold" text-decoration="none" x="321.168701171875" y="787.5">Introducir en tabla</text></g></g><g transform="translate(-198,-126) scale(1,1)"><path fill="#C0C0C0" stroke="none" d="M 313 391 L 448.3818359375 391 L 448.3818359375 431 L 313 431 L 323.25 411.5" opacity="0.2"/></g><g transform="translate(-198,-126) scale(1,1)"><path fill="#ffffff" stroke="none" d="M 306 384 L 441.3818359375 384 L 441.3818359375 424 L 306 424 L 316.25 404.5"/></g><g transform="translate(-198,-126) scale(1,1)"><path fill="none" stroke="#000000" d="M 306 384 L 441.3818359375 384 L 441.3818359375 424 L 306 424 L 316.25 404.5 L 306 384" stroke-miterlimit="10"/></g><g transform="translate(-198,-126) scale(1,1)"><g><path fill="none" stroke="none"/><text fill="#000000" stroke="none" font-family="Arial" font-size="13px" font-style="normal" font-weight="bold" text-decoration="none" x="315.879638671875" y="403.5">Síntoma introducido</text></g></g><g transform="translate(-198,-126) scale(1,1)"><path fill="#C0C0C0" stroke="none" d="M 304 223 L 456.26806640625 223 Q 466.26806640625 223 466.26806640625 233 L 466.26806640625 253 Q 466.26806640625 263 456.26806640625 263 L 304 263 Q 294 263 294 253 L 294 233 Q 294 223 304 223 Z" opacity="0.2"/></g><g transform="translate(-198,-126) scale(1,1)"><path fill="#ffffff" stroke="none" d="M 297 216 L 449.26806640625 216 Q 459.26806640625 216 459.26806640625 226 L 459.26806640625 246 Q 459.26806640625 256 449.26806640625 256 L 297 256 Q 287 256 287 246 L 287 226 Q 287 216 297 216 Z"/></g><g transform="translate(-198,-126) scale(1,1)"><path fill="none" stroke="#000000" d="M 297 216 L 449.26806640625 216 Q 459.26806640625 216 459.26806640625 226 L 459.26806640625 246 Q 459.26806640625 256 449.26806640625 256 L 297 256 Q 287 256 287 246 L 287 226 Q 287 216 297 216 Z" stroke-miterlimit="10"/></g><g transform="translate(-198,-126) scale(1,1)"><g><path fill="none" stroke="none"/><text fill="#000000" stroke="none" font-family="Arial" font-size="13px" font-style="normal" font-weight="bold" text-decoration="none" x="297.260498046875" y="235.5">Abrir ventana de síntomas</text></g></g><g transform="translate(-198,-126) scale(1,1)"><path fill="#C0C0C0" stroke="none" d="M 326 519 L 434.92626953125 519 Q 444.92626953125 519 444.92626953125 529 L 444.92626953125 549 Q 444.92626953125 559 434.92626953125 559 L 326 559 Q 316 559 316 549 L 316 529 Q 316 519 326 519 Z" opacity="0.2"/></g><g transform="translate(-198,-126) scale(1,1)"><path fill="#ffffff" stroke="none" d="M 319 512 L 427.92626953125 512 Q 437.92626953125 512 437.92626953125 522 L 437.92626953125 542 Q 437.92626953125 552 427.92626953125 552 L 319 552 Q 309 552 309 542 L 309 522 Q 309 512 319 512 Z"/></g><g transform="translate(-198,-126) scale(1,1)"><path fill="none" stroke="#000000" d="M 319 512 L 427.92626953125 512 Q 437.92626953125 512 437.92626953125 522 L 437.92626953125 542 Q 437.92626953125 552 427.92626953125 552 L 319 552 Q 309 552 309 542 L 309 522 Q 309 512 319 512 Z" stroke-miterlimit="10"/></g><g transform="translate(-198,-126) scale(1,1)"><g><path fill="none" stroke="none"/><text fill="#000000" stroke="none" font-family="Arial" font-size="13px" font-style="normal" font-weight="bold" text-decoration="none" x="317.10546875" y="531.5">Normalizar en tabla</text></g></g><g transform="translate(-198,-126) scale(1,1)"><path fill="none" stroke="#000000" d="M 369 156 L 372 215" stroke-miterlimit="10"/></g><g transform="translate(-198,-126) scale(1,1)"><path fill="none" stroke="#000000" d="M 367.27983403526963 205.0642044472825 L 372 215 L 375.6880070498229 204.6366702262035" stroke-miterlimit="10"/></g><g transform="translate(-198,-126) scale(1,1)"><path fill="none" stroke="#000000" d="M 372 257 L 370 303" stroke-miterlimit="10"/></g><g transform="translate(-198,-126) scale(1,1)"><path fill="none" stroke="#000000" d="M 366.23589374918504 292.6640673312673 L 370 303 L 374.6469830248906 293.02976686499363" stroke-miterlimit="10"/></g><g transform="translate(-198,-126) scale(1,1)"><path fill="none" stroke="#000000" d="M 373 425 L 373 511" stroke-miterlimit="10"/></g><g transform="translate(-198,-126) scale(1,1)"><path fill="none" stroke="#000000" d="M 368.790482243984 500.83732514237585 L 373 511 L 377.209517756016 500.83732514237585" stroke-miterlimit="10"/></g><g transform="translate(-198,-126) scale(1,1)"><path fill="#C0C0C0" stroke="none" d="M 369 672.5 L 380.5 663 L 391 672.5 L 380.5 681 L 369 672.5" opacity="0.2"/></g><g transform="translate(-198,-126) scale(1,1)"><path fill="#ffffff" stroke="none" d="M 362 665 L 373 656 L 384 665 L 373 674 L 362 665"/></g><g transform="translate(-198,-126) scale(1,1)"><path fill="none" stroke="#000000" d="M 362 665 L 373 656 L 384 665 L 373 674 L 362 665 L 362 665" stroke-miterlimit="10"/></g><g transform="translate(-198,-126) scale(1,1)"><path fill="none" stroke="#000000" d="M 373 553 L 373 655" stroke-miterlimit="10"/></g><g transform="translate(-198,-126) scale(1,1)"><path fill="none" stroke="#000000" d="M 368.790482243984 644.8373251423759 L 373 655 L 377.209517756016 644.8373251423759" stroke-miterlimit="10"/></g><g transform="translate(-198,-126) scale(1,1)"><path fill="#C0C0C0" stroke="none" d="M 346 311 L 409 311 Q 412 311 412 314 L 412 313 Q 412 316 409 316 L 346 316 Q 343 316 343 313 L 343 314 Q 343 311 346 311 Z" opacity="0.2"/></g><g transform="translate(-198,-126) scale(1,1)"><path fill="#000000" stroke="none" d="M 339 304 L 402 304 Q 405 304 405 307 L 405 307 Q 405 310 402 310 L 339 310 Q 336 310 336 307 L 336 307 Q 336 304 339 304 Z"/></g><g transform="translate(-198,-126) scale(1,1)"><path fill="none" stroke="#000000" d="M 370 310 L 372 383" stroke-miterlimit="10"/></g><g transform="translate(-198,-126) scale(1,1)"><path fill="none" stroke="#000000" d="M 367.51373619694095 372.9564230928736 L 372 383 L 375.92961378106287 372.7258511042675" stroke-miterlimit="10"/></g><g transform="translate(-198,-126) scale(1,1)"><path fill="#C0C0C0" stroke="none" d="M 679 383 L 788.42626953125 383 L 788.42626953125 423 L 679 423 L 689.25 403.5" opacity="0.2"/></g><g transform="translate(-198,-126) scale(1,1)"><path fill="#ffffff" stroke="none" d="M 672 376 L 781.42626953125 376 L 781.42626953125 416 L 672 416 L 682.25 396.5"/></g><g transform="translate(-198,-126) scale(1,1)"><path fill="none" stroke="#000000" d="M 672 376 L 781.42626953125 376 L 781.42626953125 416 L 672 416 L 682.25 396.5 L 672 376" stroke-miterlimit="10"/></g><g transform="translate(-198,-126) scale(1,1)"><g><path fill="none" stroke="none"/><text fill="#000000" stroke="none" font-family="Arial" font-size="13px" font-style="normal" font-weight="bold" text-decoration="none" x="680.11181640625" y="395.5">Enviar síntomas</text></g></g><g transform="translate(-198,-126) scale(1,1)"><path fill="none" stroke="#000000" d="M 386 310 L 671 382" stroke-miterlimit="10"/></g><g transform="translate(-198,-126) scale(1,1)"><path fill="none" stroke="#000000" d="M 660.1158250495405 383.59208531423076 L 671 382 L 662.1779517629892 375.4295004068294" stroke-miterlimit="10"/></g><g transform="translate(-198,-126) scale(1,1)"><path fill="none" stroke="#000000" d="M 373 675 L 373 767" stroke-miterlimit="10"/></g><g transform="translate(-198,-126) scale(1,1)"><path fill="none" stroke="#000000" d="M 368.790482243984 756.8373251423759 L 373 767 L 377.209517756016 756.8373251423759" stroke-miterlimit="10"/></g><g transform="translate(-198,-126) scale(1,1)"><g><path fill="none" stroke="none"/><text fill="#000000" stroke="none" font-family="Arial" font-size="13px" font-style="normal" font-weight="normal" text-decoration="none" x="207.5" y="724.5">[Encontrado y sin introducir]</text></g></g><g transform="translate(-198,-126) scale(1,1)"><path fill="#C0C0C0" stroke="none" d="M 689 503 L 783.4853515625 503 Q 793.4853515625 503 793.4853515625 513 L 793.4853515625 533 Q 793.4853515625 543 783.4853515625 543 L 689 543 Q 679 543 679 533 L 679 513 Q 679 503 689 503 Z" opacity="0.2"/></g><g transform="translate(-198,-126) scale(1,1)"><path fill="#ffffff" stroke="none" d="M 682 496 L 776.4853515625 496 Q 786.4853515625 496 786.4853515625 506 L 786.4853515625 526 Q 786.4853515625 536 776.4853515625 536 L 682 536 Q 672 536 672 526 L 672 506 Q 672 496 682 496 Z"/></g><g transform="translate(-198,-126) scale(1,1)"><path fill="none" stroke="#000000" d="M 682 496 L 776.4853515625 496 Q 786.4853515625 496 786.4853515625 506 L 786.4853515625 526 Q 786.4853515625 536 776.4853515625 536 L 682 536 Q 672 536 672 526 L 672 506 Q 672 496 682 496 Z" stroke-miterlimit="10"/></g><g transform="translate(-198,-126) scale(1,1)"><g><path fill="none" stroke="none"/><text fill="#000000" stroke="none" font-family="Arial" font-size="13px" font-style="normal" font-weight="bold" text-decoration="none" x="680.470458984375" y="515.5">Hacer predicción</text></g></g><g transform="translate(-198,-126) scale(1,1)"><path fill="none" stroke="#000000" d="M 727 417 L 728 495" stroke-miterlimit="10"/></g><g transform="translate(-198,-126) scale(1,1)"><path fill="none" stroke="#000000" d="M 723.6605481542205 484.8921239778992 L 728 495 L 732.0788918518372 484.7841964945964" stroke-miterlimit="10"/></g><g transform="translate(-198,-126) scale(1,1)"><path fill="#C0C0C0" stroke="none" d="M 727 616.5 L 738.5 607 L 749 616.5 L 738.5 625 L 727 616.5" opacity="0.2"/></g><g transform="translate(-198,-126) scale(1,1)"><path fill="#ffffff" stroke="none" d="M 720 609 L 731 600 L 742 609 L 731 618 L 720 609"/></g><g transform="translate(-198,-126) scale(1,1)"><path fill="none" stroke="#000000" d="M 720 609 L 731 600 L 742 609 L 731 618 L 720 609 L 720 609" stroke-miterlimit="10"/></g><g transform="translate(-198,-126) scale(1,1)"><path fill="none" stroke="#000000" d="M 729 537 L 731 599" stroke-miterlimit="10"/></g><g transform="translate(-198,-126) scale(1,1)"><path fill="none" stroke="#000000" d="M 726.4650129238797 588.9783288709207 L 731 599 L 734.8796715000755 588.7068882716885" stroke-miterlimit="10"/></g><g transform="translate(-198,-126) scale(1,1)"><path fill="none" stroke="#000000" d="M 719 609 L 599 609" stroke-miterlimit="10"/></g><g transform="translate(-198,-126) scale(1,1)"><path fill="none" stroke="#000000" d="M 609.1626748576241 604.790482243984 L 599 609 L 609.1626748576241 613.209517756016" stroke-miterlimit="10"/></g><g transform="translate(-198,-126) scale(1,1)"><g><path fill="none" stroke="none"/><text fill="#000000" stroke="none" font-family="Arial" font-size="13px" font-style="normal" font-weight="normal" text-decoration="none" x="651.937744140625" y="630.5">[*]</text></g></g><g transform="translate(-198,-126) scale(1,1)"><path fill="#C0C0C0" stroke="none" d="M 727 736.5 L 738.5 727 L 749 736.5 L 738.5 745 L 727 736.5" opacity="0.2"/></g><g transform="translate(-198,-126) scale(1,1)"><path fill="#ffffff" stroke="none" d="M 720 729 L 731 720 L 742 729 L 731 738 L 720 729"/></g><g transform="translate(-198,-126) scale(1,1)"><path fill="none" stroke="#000000" d="M 720 729 L 731 720 L 742 729 L 731 738 L 720 729 L 720 729" stroke-miterlimit="10"/></g><g transform="translate(-198,-126) scale(1,1)"><path fill="none" stroke="#000000" d="M 731 619 L 731 719" stroke-miterlimit="10"/></g><g transform="translate(-198,-126) scale(1,1)"><path fill="none" stroke="#000000" d="M 726.790482243984 708.8373251423759 L 731 719 L 735.209517756016 708.8373251423759" stroke-miterlimit="10"/></g><g transform="translate(-198,-126) scale(1,1)"><g><path fill="none" stroke="none"/><text fill="#000000" stroke="none" font-family="Arial" font-size="13px" font-style="normal" font-weight="normal" text-decoration="none" x="734.5" y="674.5">[Doenza atopada]</text></g></g><g transform="translate(-198,-126) scale(1,1)"><path fill="#C0C0C0" stroke="none" d="M 583 616.5 L 594.5 607 L 605 616.5 L 594.5 625 L 583 616.5" opacity="0.2"/></g><g transform="translate(-198,-126) scale(1,1)"><path fill="#ffffff" stroke="none" d="M 576 609 L 587 600 L 598 609 L 587 618 L 576 609"/></g><g transform="translate(-198,-126) scale(1,1)"><path fill="none" stroke="#000000" d="M 576 609 L 587 600 L 598 609 L 587 618 L 576 609 L 576 609" stroke-miterlimit="10"/></g><g transform="translate(-198,-126) scale(1,1)"><path fill="#C0C0C0" stroke="none" d="M 553 959 L 687.22802734375 959 Q 697.22802734375 959 697.22802734375 969 L 697.22802734375 989 Q 697.22802734375 999 687.22802734375 999 L 553 999 Q 543 999 543 989 L 543 969 Q 543 959 553 959 Z" opacity="0.2"/></g><g transform="translate(-198,-126) scale(1,1)"><path fill="#ffffff" stroke="none" d="M 546 952 L 680.22802734375 952 Q 690.22802734375 952 690.22802734375 962 L 690.22802734375 982 Q 690.22802734375 992 680.22802734375 992 L 546 992 Q 536 992 536 982 L 536 962 Q 536 952 546 952 Z"/></g><g transform="translate(-198,-126) scale(1,1)"><path fill="none" stroke="#000000" d="M 546 952 L 680.22802734375 952 Q 690.22802734375 952 690.22802734375 962 L 690.22802734375 982 Q 690.22802734375 992 680.22802734375 992 L 546 992 Q 536 992 536 982 L 536 962 Q 536 952 546 952 Z" stroke-miterlimit="10"/></g><g transform="translate(-198,-126) scale(1,1)"><g><path fill="none" stroke="none"/><text fill="#000000" stroke="none" font-family="Arial" font-size="13px" font-style="normal" font-weight="bold" text-decoration="none" x="546.2763671875" y="971.5">Consultar especialistas</text></g></g><g transform="translate(-198,-126) scale(1,1)"><path fill="none" stroke="#000000" d="M 726 739 L 623 951" stroke-miterlimit="10"/></g><g transform="translate(-198,-126) scale(1,1)"><path fill="none" stroke="#000000" d="M 623.6548146619025 940.0195073990938 L 623 951 L 631.2274046667211 943.6986431089821" stroke-miterlimit="10"/></g><g transform="translate(-198,-126) scale(1,1)"><g><path fill="none" stroke="none"/><text fill="#000000" stroke="none" font-family="Arial" font-size="13px" font-style="normal" font-weight="normal" text-decoration="none" x="676.5" y="875.5">[Doenza grave]</text></g></g><g transform="translate(-198,-126) scale(1,1)"><path fill="none" stroke="#000000" d="M 588 619 L 611 951" stroke-miterlimit="10"/></g><g transform="translate(-198,-126) scale(1,1)"><path fill="none" stroke="#000000" d="M 606.0981901080794 941.1525505950287 L 611 951 L 614.4970952369823 940.570698733689" stroke-miterlimit="10"/></g><g transform="translate(-198,-126) scale(1,1)"><g><path fill="none" stroke="none"/><text fill="#000000" stroke="none" font-family="Arial" font-size="13px" font-style="normal" font-weight="normal" text-decoration="none" x="450.34814453125" y="884.5">[Imposible atopar doenza]</text></g></g><g transform="translate(-198,-126) scale(1,1)"><path fill="#C0C0C0" stroke="none" d="M 873 951 L 1062.10986328125 951 Q 1072.10986328125 951 1072.10986328125 961 L 1072.10986328125 981 Q 1072.10986328125 991 1062.10986328125 991 L 873 991 Q 863 991 863 981 L 863 961 Q 863 951 873 951 Z" opacity="0.2"/></g><g transform="translate(-198,-126) scale(1,1)"><path fill="#ffffff" stroke="none" d="M 866 944 L 1055.10986328125 944 Q 1065.10986328125 944 1065.10986328125 954 L 1065.10986328125 974 Q 1065.10986328125 984 1055.10986328125 984 L 866 984 Q 856 984 856 974 L 856 954 Q 856 944 866 944 Z"/></g><g transform="translate(-198,-126) scale(1,1)"><path fill="none" stroke="#000000" d="M 866 944 L 1055.10986328125 944 Q 1065.10986328125 944 1065.10986328125 954 L 1065.10986328125 974 Q 1065.10986328125 984 1055.10986328125 984 L 866 984 Q 856 984 856 974 L 856 954 Q 856 944 866 944 Z" stroke-miterlimit="10"/></g><g transform="translate(-198,-126) scale(1,1)"><g><path fill="none" stroke="none"/><text fill="#000000" stroke="none" font-family="Arial" font-size="13px" font-style="normal" font-weight="bold" text-decoration="none" x="868.07275390625" y="963.5">Calcular medicamentos óptimos</text></g></g><g transform="translate(-198,-126) scale(1,1)"><path fill="none" stroke="#000000" d="M 741 739 L 940 943" stroke-miterlimit="10"/></g><g transform="translate(-198,-126) scale(1,1)"><path fill="none" stroke="#000000" d="M 929.8903304825021 938.6647281230614 L 940 943 L 935.916884271093 932.7858839861517" stroke-miterlimit="10"/></g><g transform="translate(-198,-126) scale(1,1)"><g><path fill="none" stroke="none"/><text fill="#000000" stroke="none" font-family="Arial" font-size="13px" font-style="normal" font-weight="normal" text-decoration="none" x="838.937744140625" y="875.5">[*]</text></g></g><g transform="translate(-198,-126) scale(1,1)"><path fill="#C0C0C0" stroke="none" d="M 575 1071 L 575 1111 L 651.78173828125 1111 L 662.03173828125 1091.5 L 651.78173828125 1071" opacity="0.2"/></g><g transform="translate(-198,-126) scale(1,1)"><path fill="#ffffff" stroke="none" d="M 568 1064 L 568 1104 L 644.78173828125 1104 L 655.03173828125 1084.5 L 644.78173828125 1064"/></g><g transform="translate(-198,-126) scale(1,1)"><path fill="none" stroke="#000000" d="M 568 1064 L 568 1104 L 644.78173828125 1104 L 655.03173828125 1084.5 L 644.78173828125 1064 L 568 1064" stroke-miterlimit="10"/></g><g transform="translate(-198,-126) scale(1,1)"><g><path fill="none" stroke="none"/><text fill="#000000" stroke="none" font-family="Arial" font-size="13px" font-style="normal" font-weight="bold" text-decoration="none" x="575.75634765625" y="1083.5">Amosar lista</text></g></g><g transform="translate(-198,-126) scale(1,1)"><path fill="#C0C0C0" stroke="none" d="M 927 1071 L 927 1111 L 1003.78173828125 1111 L 1014.03173828125 1091.5 L 1003.78173828125 1071" opacity="0.2"/></g><g transform="translate(-198,-126) scale(1,1)"><path fill="#ffffff" stroke="none" d="M 920 1064 L 920 1104 L 996.78173828125 1104 L 1007.03173828125 1084.5 L 996.78173828125 1064"/></g><g transform="translate(-198,-126) scale(1,1)"><path fill="none" stroke="#000000" d="M 920 1064 L 920 1104 L 996.78173828125 1104 L 1007.03173828125 1084.5 L 996.78173828125 1064 L 920 1064" stroke-miterlimit="10"/></g><g transform="translate(-198,-126) scale(1,1)"><g><path fill="none" stroke="none"/><text fill="#000000" stroke="none" font-family="Arial" font-size="13px" font-style="normal" font-weight="bold" text-decoration="none" x="927.75634765625" y="1083.5">Amosar lista</text></g></g><g transform="translate(-198,-126) scale(1,1)"><path fill="none" stroke="#000000" d="M 613 993 L 611 1063" stroke-miterlimit="10"/></g><g transform="translate(-198,-126) scale(1,1)"><path fill="none" stroke="#000000" d="M 607.0824430594122 1052.7212477597106 L 611 1063 L 615.4980443328709 1052.9616935103809" stroke-miterlimit="10"/></g><g transform="translate(-198,-126) scale(1,1)"><path fill="none" stroke="#000000" d="M 961 985 L 962 1063" stroke-miterlimit="10"/></g><g transform="translate(-198,-126) scale(1,1)"><path fill="none" stroke="#000000" d="M 957.6605481542205 1052.8921239778992 L 962 1063 L 966.0788918518372 1052.7841964945965" stroke-miterlimit="10"/></g><g transform="translate(-198,-126) scale(1,1)"><path fill="#C0C0C0" stroke="none" d="M 807 1683.5 C 807 1676.59644 812.59644 1671 819.5 1671 C 826.40356 1671 832 1676.59644 832 1683.5 C 832 1690.40356 826.40356 1696 819.5 1696 C 812.59644 1696 807 1690.40356 807 1683.5 Z" opacity="0.2"/></g><g transform="translate(-198,-126) scale(1,1)"><path fill="none" stroke="#000000" d="M 800 1676.5 C 800 1669.59644 805.59644 1664 812.5 1664 C 819.40356 1664 825 1669.59644 825 1676.5 C 825 1683.40356 819.40356 1689 812.5 1689 C 805.59644 1689 800 1683.40356 800 1676.5 Z" stroke-miterlimit="10"/></g><g transform="translate(-198,-126) scale(1,1)"><path fill="#000000" stroke="none" d="M 805 1676.5 C 805 1672.357864 808.357864 1669 812.5 1669 C 816.642136 1669 820 1672.357864 820 1676.5 C 820 1680.642136 816.642136 1684 812.5 1684 C 808.357864 1684 805 1680.642136 805 1676.5 Z"/></g><g transform="translate(-198,-126) scale(1,1)"><path fill="#C0C0C0" stroke="none" d="M 586 1175 L 649 1175 Q 652 1175 652 1178 L 652 1177 Q 652 1180 649 1180 L 586 1180 Q 583 1180 583 1177 L 583 1178 Q 583 1175 586 1175 Z" opacity="0.2"/></g><g transform="translate(-198,-126) scale(1,1)"><path fill="#000000" stroke="none" d="M 579 1168 L 642 1168 Q 645 1168 645 1171 L 645 1171 Q 645 1174 642 1174 L 579 1174 Q 576 1174 576 1171 L 576 1171 Q 576 1168 579 1168 Z"/></g><g transform="translate(-198,-126) scale(1,1)"><path fill="none" stroke="#000000" d="M 611 1105 L 610 1167" stroke-miterlimit="10"/></g><g transform="translate(-198,-126) scale(1,1)"><path fill="none" stroke="#000000" d="M 605.954922475101 1156.7707601544612 L 610 1167 L 614.3728631128827 1156.9065333905546" stroke-miterlimit="10"/></g><g transform="translate(-198,-126) scale(1,1)"><path fill="#C0C0C0" stroke="none" d="M 938 1175 L 1001 1175 Q 1004 1175 1004 1178 L 1004 1177 Q 1004 1180 1001 1180 L 938 1180 Q 935 1180 935 1177 L 935 1178 Q 935 1175 938 1175 Z" opacity="0.2"/></g><g transform="translate(-198,-126) scale(1,1)"><path fill="#000000" stroke="none" d="M 931 1168 L 994 1168 Q 997 1168 997 1171 L 997 1171 Q 997 1174 994 1174 L 931 1174 Q 928 1174 928 1171 L 928 1171 Q 928 1168 931 1168 Z"/></g><g transform="translate(-198,-126) scale(1,1)"><path fill="none" stroke="#000000" d="M 963 1105 L 962 1167" stroke-miterlimit="10"/></g><g transform="translate(-198,-126) scale(1,1)"><path fill="none" stroke="#000000" d="M 957.954922475101 1156.7707601544612 L 962 1167 L 966.3728631128827 1156.9065333905546" stroke-miterlimit="10"/></g><g transform="translate(-198,-126) scale(1,1)"><path fill="#C0C0C0" stroke="none" d="M 647 1303 L 786.76171875 1303 L 786.76171875 1343 L 647 1343 L 657.25 1323.5" opacity="0.2"/></g><g transform="translate(-198,-126) scale(1,1)"><path fill="#ffffff" stroke="none" d="M 640 1296 L 779.76171875 1296 L 779.76171875 1336 L 640 1336 L 650.25 1316.5"/></g><g transform="translate(-198,-126) scale(1,1)"><path fill="none" stroke="#000000" d="M 640 1296 L 779.76171875 1296 L 779.76171875 1336 L 640 1336 L 650.25 1316.5 L 640 1296" stroke-miterlimit="10"/></g><g transform="translate(-198,-126) scale(1,1)"><g><path fill="none" stroke="none"/><text fill="#000000" stroke="none" font-family="Arial" font-size="13px" font-style="normal" font-weight="bold" text-decoration="none" x="649.17822265625" y="1315.5">Médico seleccionado</text></g></g><g transform="translate(-198,-126) scale(1,1)"><path fill="#C0C0C0" stroke="none" d="M 1031 1303 L 1209.05078125 1303 L 1209.05078125 1343 L 1031 1343 L 1041.25 1323.5" opacity="0.2"/></g><g transform="translate(-198,-126) scale(1,1)"><path fill="#ffffff" stroke="none" d="M 1024 1296 L 1202.05078125 1296 L 1202.05078125 1336 L 1024 1336 L 1034.25 1316.5"/></g><g transform="translate(-198,-126) scale(1,1)"><path fill="none" stroke="#000000" d="M 1024 1296 L 1202.05078125 1296 L 1202.05078125 1336 L 1024 1336 L 1034.25 1316.5 L 1024 1296" stroke-miterlimit="10"/></g><g transform="translate(-198,-126) scale(1,1)"><g><path fill="none" stroke="none"/><text fill="#000000" stroke="none" font-family="Arial" font-size="13px" font-style="normal" font-weight="bold" text-decoration="none" x="1034.25732421875" y="1315.5">Medicamento seleccionado</text></g></g><g transform="translate(-198,-126) scale(1,1)"><path fill="none" stroke="#000000" d="M 613 1174 L 695 1295" stroke-miterlimit="10"/></g><g transform="translate(-198,-126) scale(1,1)"><path fill="none" stroke="#000000" d="M 685.814038412347 1288.9487100788208 L 695 1295 L 692.7834524078431 1284.2256361314599" stroke-miterlimit="10"/></g><g transform="translate(-198,-126) scale(1,1)"><path fill="none" stroke="#000000" d="M 966 1174 L 1091 1295" stroke-miterlimit="10"/></g><g transform="translate(-198,-126) scale(1,1)"><path fill="none" stroke="#000000" d="M 1080.770229949036 1290.9562635218897 L 1091 1295 L 1086.6258137119876 1284.9071067419811" stroke-miterlimit="10"/></g><g transform="translate(-198,-126) scale(1,1)"><path fill="#C0C0C0" stroke="none" d="M 487 1303 L 546 1303 L 546 1343 L 487 1343 L 497.25 1323.5" opacity="0.2"/></g><g transform="translate(-198,-126) scale(1,1)"><path fill="#ffffff" stroke="none" d="M 480 1296 L 539 1296 L 539 1336 L 480 1336 L 490.25 1316.5"/></g><g transform="translate(-198,-126) scale(1,1)"><path fill="none" stroke="#000000" d="M 480 1296 L 539 1296 L 539 1336 L 480 1336 L 490.25 1316.5 L 480 1296" stroke-miterlimit="10"/></g><g transform="translate(-198,-126) scale(1,1)"><g><path fill="none" stroke="none"/><text fill="#000000" stroke="none" font-family="Arial" font-size="13px" font-style="normal" font-weight="bold" text-decoration="none" x="497.94091796875" y="1315.5">Sair</text></g></g><g transform="translate(-198,-126) scale(1,1)"><path fill="#C0C0C0" stroke="none" d="M 887 1303 L 946 1303 L 946 1343 L 887 1343 L 897.25 1323.5" opacity="0.2"/></g><g transform="translate(-198,-126) scale(1,1)"><path fill="#ffffff" stroke="none" d="M 880 1296 L 939 1296 L 939 1336 L 880 1336 L 890.25 1316.5"/></g><g transform="translate(-198,-126) scale(1,1)"><path fill="none" stroke="#000000" d="M 880 1296 L 939 1296 L 939 1336 L 880 1336 L 890.25 1316.5 L 880 1296" stroke-miterlimit="10"/></g><g transform="translate(-198,-126) scale(1,1)"><g><path fill="none" stroke="none"/><text fill="#000000" stroke="none" font-family="Arial" font-size="13px" font-style="normal" font-weight="bold" text-decoration="none" x="897.94091796875" y="1315.5">Sair</text></g></g><g transform="translate(-198,-126) scale(1,1)"><path fill="none" stroke="#000000" d="M 607 1174 L 524 1295" stroke-miterlimit="10"/></g><g transform="translate(-198,-126) scale(1,1)"><path fill="none" stroke="#000000" d="M 526.2772983136808 1284.2383127535452 L 524 1295 L 533.2199551093653 1289.0006310514116" stroke-miterlimit="10"/></g><g transform="translate(-198,-126) scale(1,1)"><path fill="none" stroke="#000000" d="M 961 1174 L 917 1295" stroke-miterlimit="10"/></g><g transform="translate(-198,-126) scale(1,1)"><path fill="none" stroke="#000000" d="M 916.5169465318371 1284.0106115116948 L 917 1295 L 924.4291007381603 1286.8877584958122" stroke-miterlimit="10"/></g><g transform="translate(-198,-126) scale(1,1)"><path fill="#C0C0C0" stroke="none" d="M 601 1407 L 819.71533203125 1407 Q 829.71533203125 1407 829.71533203125 1417 L 829.71533203125 1437 Q 829.71533203125 1447 819.71533203125 1447 L 601 1447 Q 591 1447 591 1437 L 591 1417 Q 591 1407 601 1407 Z" opacity="0.2"/></g><g transform="translate(-198,-126) scale(1,1)"><path fill="#ffffff" stroke="none" d="M 594 1400 L 812.71533203125 1400 Q 822.71533203125 1400 822.71533203125 1410 L 822.71533203125 1430 Q 822.71533203125 1440 812.71533203125 1440 L 594 1440 Q 584 1440 584 1430 L 584 1410 Q 584 1400 594 1400 Z"/></g><g transform="translate(-198,-126) scale(1,1)"><path fill="none" stroke="#000000" d="M 594 1400 L 812.71533203125 1400 Q 822.71533203125 1400 822.71533203125 1410 L 822.71533203125 1430 Q 822.71533203125 1440 812.71533203125 1440 L 594 1440 Q 584 1440 584 1430 L 584 1410 Q 584 1400 594 1400 Z" stroke-miterlimit="10"/></g><g transform="translate(-198,-126) scale(1,1)"><g><path fill="none" stroke="none"/><text fill="#000000" stroke="none" font-family="Arial" font-size="13px" font-style="normal" font-weight="bold" text-decoration="none" x="597.49462890625" y="1419.5">Introducir na cola de citas do médico</text></g></g><g transform="translate(-198,-126) scale(1,1)"><path fill="#C0C0C0" stroke="none" d="M 601 1503 L 826.9453125 1503 Q 836.9453125 1503 836.9453125 1513 L 836.9453125 1533 Q 836.9453125 1543 826.9453125 1543 L 601 1543 Q 591 1543 591 1533 L 591 1513 Q 591 1503 601 1503 Z" opacity="0.2"/></g><g transform="translate(-198,-126) scale(1,1)"><path fill="#ffffff" stroke="none" d="M 594 1496 L 819.9453125 1496 Q 829.9453125 1496 829.9453125 1506 L 829.9453125 1526 Q 829.9453125 1536 819.9453125 1536 L 594 1536 Q 584 1536 584 1526 L 584 1506 Q 584 1496 594 1496 Z"/></g><g transform="translate(-198,-126) scale(1,1)"><path fill="none" stroke="#000000" d="M 594 1496 L 819.9453125 1496 Q 829.9453125 1496 829.9453125 1506 L 829.9453125 1526 Q 829.9453125 1536 819.9453125 1536 L 594 1536 Q 584 1536 584 1526 L 584 1506 Q 584 1496 594 1496 Z" stroke-miterlimit="10"/></g><g transform="translate(-198,-126) scale(1,1)"><g><path fill="none" stroke="none"/><text fill="#000000" stroke="none" font-family="Arial" font-size="13px" font-style="normal" font-weight="bold" text-decoration="none" x="597.853271484375" y="1515.5">Introducir na lista de citas do paciente</text></g></g><g transform="translate(-198,-126) scale(1,1)"><path fill="none" stroke="#000000" d="M 708 1337 L 704 1399" stroke-miterlimit="10"/></g><g transform="translate(-198,-126) scale(1,1)"><path fill="none" stroke="#000000" d="M 700.453511850606 1388.5873912103543 L 704 1399 L 708.8550804651669 1389.1294278951646" stroke-miterlimit="10"/></g><g transform="translate(-198,-126) scale(1,1)"><path fill="none" stroke="#000000" d="M 704 1441 L 705 1495" stroke-miterlimit="10"/></g><g transform="translate(-198,-126) scale(1,1)"><path fill="none" stroke="#000000" d="M 700.603038433977 1484.9170079347984 L 705 1495 L 709.0206307240026 1484.7611265960943" stroke-miterlimit="10"/></g><g transform="translate(-198,-126) scale(1,1)"><path fill="#C0C0C0" stroke="none" d="M 1001 1415 L 1254.37353515625 1415 Q 1264.37353515625 1415 1264.37353515625 1425 L 1264.37353515625 1445 Q 1264.37353515625 1455 1254.37353515625 1455 L 1001 1455 Q 991 1455 991 1445 L 991 1425 Q 991 1415 1001 1415 Z" opacity="0.2"/></g><g transform="translate(-198,-126) scale(1,1)"><path fill="#ffffff" stroke="none" d="M 994 1408 L 1247.37353515625 1408 Q 1257.37353515625 1408 1257.37353515625 1418 L 1257.37353515625 1438 Q 1257.37353515625 1448 1247.37353515625 1448 L 994 1448 Q 984 1448 984 1438 L 984 1418 Q 984 1408 994 1408 Z"/></g><g transform="translate(-198,-126) scale(1,1)"><path fill="none" stroke="#000000" d="M 994 1408 L 1247.37353515625 1408 Q 1257.37353515625 1408 1257.37353515625 1418 L 1257.37353515625 1438 Q 1257.37353515625 1448 1247.37353515625 1448 L 994 1448 Q 984 1448 984 1438 L 984 1418 Q 984 1408 994 1408 Z" stroke-miterlimit="10"/></g><g transform="translate(-198,-126) scale(1,1)"><g><path fill="none" stroke="none"/><text fill="#000000" stroke="none" font-family="Arial" font-size="13px" font-style="normal" font-weight="bold" text-decoration="none" x="1000.011474609375" y="1427.5">Introducir no histórico de recomendacións</text></g></g><g transform="translate(-198,-126) scale(1,1)"><path fill="#C0C0C0" stroke="none" d="M 535 416.5 L 546.5 407 L 557 416.5 L 546.5 425 L 535 416.5" opacity="0.2"/></g><g transform="translate(-198,-126) scale(1,1)"><path fill="#ffffff" stroke="none" d="M 528 409 L 539 400 L 550 409 L 539 418 L 528 409"/></g><g transform="translate(-198,-126) scale(1,1)"><path fill="none" stroke="#000000" d="M 528 409 L 539 400 L 550 409 L 539 418 L 528 409 L 528 409" stroke-miterlimit="10"/></g><g transform="translate(-198,-126) scale(1,1)"><path fill="none" stroke="#000000" d="M 585 599 L 541 419" stroke-miterlimit="10"/></g><g transform="translate(-198,-126) scale(1,1)"><path fill="none" stroke="#000000" d="M 547.5022799184801 427.87244925946214 L 541 419 L 539.3240371864312 429.87157526062964" stroke-miterlimit="10"/></g><g transform="translate(-198,-126) scale(1,1)"><g><path fill="none" stroke="none"/><text fill="#000000" stroke="none" font-family="Arial" font-size="13px" font-style="normal" font-weight="normal" text-decoration="none" x="566.937744140625" y="508.5">[*]</text></g></g><g transform="translate(-198,-126) scale(1,1)"><path fill="none" stroke="#000000" d="M 379 655 L 533 419" stroke-miterlimit="10"/></g><g transform="translate(-198,-126) scale(1,1)"><path fill="none" stroke="#000000" d="M 530.9716004172583 429.8113641661325 L 533 419 L 523.9209159843379 425.2104938158369" stroke-miterlimit="10"/></g><g transform="translate(-198,-126) scale(1,1)"><g><path fill="none" stroke="none"/><text fill="#000000" stroke="none" font-family="Arial" font-size="13px" font-style="normal" font-weight="normal" text-decoration="none" x="460.937744140625" y="503.5">[*]</text></g></g><g transform="translate(-198,-126) scale(1,1)"><path fill="none" stroke="#000000" d="M 382 767 L 535 419" stroke-miterlimit="10"/></g><g transform="translate(-198,-126) scale(1,1)"><path fill="none" stroke="#000000" d="M 534.7633108182606 429.9974532611531 L 535 419 L 527.0562616978151 426.6090092513021" stroke-miterlimit="10"/></g><g transform="translate(-198,-126) scale(1,1)"><path fill="none" stroke="#000000" d="M 527 409 L 442 406" stroke-miterlimit="10"/></g><g transform="translate(-198,-126) scale(1,1)"><path fill="none" stroke="#000000" d="M 452.30482983693975 402.15156109159614 L 442 406 L 452.0078723057881 410.565357807559" stroke-miterlimit="10"/></g><g transform="translate(-198,-126) scale(1,1)"><path fill="none" stroke="#000000" d="M 1114 1337 L 1119 1407" stroke-miterlimit="10"/></g><g transform="translate(-198,-126) scale(1,1)"><path fill="none" stroke="#000000" d="M 1114.077119288578 1397.1630672716997 L 1119 1407 L 1122.4747595042381 1396.563235827724" stroke-miterlimit="10"/></g><g transform="translate(-198,-126) scale(1,1)"><path fill="none" stroke="#000000" d="M 514 1337 L 568 1584 L 799 1671" stroke-miterlimit="10"/></g><g transform="translate(-198,-126) scale(1,1)"><path fill="none" stroke="#000000" d="M 788.0058109860701 1671.3575023440226 L 799 1671 L 790.9731420628551 1663.4787267263519" stroke-miterlimit="10"/></g><g transform="translate(-198,-126) scale(1,1)"><path fill="none" stroke="#000000" d="M 720 1537 L 803 1663" stroke-miterlimit="10"/></g><g transform="translate(-198,-126) scale(1,1)"><path fill="none" stroke="#000000" d="M 793.8941248490327 1656.8288544228 L 803 1663 L 800.9248328174403 1652.1975150467854" stroke-miterlimit="10"/></g><g transform="translate(-198,-126) scale(1,1)"><path fill="none" stroke="#000000" d="M 903 1337 L 816 1663" stroke-miterlimit="10"/></g><g transform="translate(-198,-126) scale(1,1)"><path fill="none" stroke="#000000" d="M 814.5532403746939 1652.0955565668585 L 816 1663 L 822.6875923548387 1654.2663805615596" stroke-miterlimit="10"/></g><g transform="translate(-198,-126) scale(1,1)"><path fill="none" stroke="#000000" d="M 1094 1449 L 826 1665" stroke-miterlimit="10"/></g><g transform="translate(-198,-126) scale(1,1)"><path fill="none" stroke="#000000" d="M 831.2710410488847 1655.3451501171187 L 826 1665 L 836.5541986931025 1661.9001790460557" stroke-miterlimit="10"/></g></g></svg>